%TF.GenerationSoftware,KiCad,Pcbnew,8.0.1-rc1*%
%TF.CreationDate,2025-05-18T23:23:19-05:00*%
%TF.ProjectId,MPPT-Interface-Board,4d505054-2d49-46e7-9465-72666163652d,rev?*%
%TF.SameCoordinates,Original*%
%TF.FileFunction,Legend,Top*%
%TF.FilePolarity,Positive*%
%FSLAX46Y46*%
G04 Gerber Fmt 4.6, Leading zero omitted, Abs format (unit mm)*
G04 Created by KiCad (PCBNEW 8.0.1-rc1) date 2025-05-18 23:23:19*
%MOMM*%
%LPD*%
G01*
G04 APERTURE LIST*
%ADD10C,0.150000*%
%ADD11C,0.000000*%
%ADD12C,0.120000*%
G04 APERTURE END LIST*
D10*
X104360588Y-73557494D02*
X104265350Y-73509875D01*
X104265350Y-73509875D02*
X104122493Y-73509875D01*
X104122493Y-73509875D02*
X103979636Y-73557494D01*
X103979636Y-73557494D02*
X103884398Y-73652732D01*
X103884398Y-73652732D02*
X103836779Y-73747970D01*
X103836779Y-73747970D02*
X103789160Y-73938446D01*
X103789160Y-73938446D02*
X103789160Y-74081303D01*
X103789160Y-74081303D02*
X103836779Y-74271779D01*
X103836779Y-74271779D02*
X103884398Y-74367017D01*
X103884398Y-74367017D02*
X103979636Y-74462256D01*
X103979636Y-74462256D02*
X104122493Y-74509875D01*
X104122493Y-74509875D02*
X104217731Y-74509875D01*
X104217731Y-74509875D02*
X104360588Y-74462256D01*
X104360588Y-74462256D02*
X104408207Y-74414636D01*
X104408207Y-74414636D02*
X104408207Y-74081303D01*
X104408207Y-74081303D02*
X104217731Y-74081303D01*
X104836779Y-74509875D02*
X104836779Y-73509875D01*
X104836779Y-73509875D02*
X105408207Y-74509875D01*
X105408207Y-74509875D02*
X105408207Y-73509875D01*
X105884398Y-74509875D02*
X105884398Y-73509875D01*
X105884398Y-73509875D02*
X106122493Y-73509875D01*
X106122493Y-73509875D02*
X106265350Y-73557494D01*
X106265350Y-73557494D02*
X106360588Y-73652732D01*
X106360588Y-73652732D02*
X106408207Y-73747970D01*
X106408207Y-73747970D02*
X106455826Y-73938446D01*
X106455826Y-73938446D02*
X106455826Y-74081303D01*
X106455826Y-74081303D02*
X106408207Y-74271779D01*
X106408207Y-74271779D02*
X106360588Y-74367017D01*
X106360588Y-74367017D02*
X106265350Y-74462256D01*
X106265350Y-74462256D02*
X106122493Y-74509875D01*
X106122493Y-74509875D02*
X105884398Y-74509875D01*
X103836779Y-76119819D02*
X103836779Y-75119819D01*
X103836779Y-75119819D02*
X104217731Y-75119819D01*
X104217731Y-75119819D02*
X104312969Y-75167438D01*
X104312969Y-75167438D02*
X104360588Y-75215057D01*
X104360588Y-75215057D02*
X104408207Y-75310295D01*
X104408207Y-75310295D02*
X104408207Y-75453152D01*
X104408207Y-75453152D02*
X104360588Y-75548390D01*
X104360588Y-75548390D02*
X104312969Y-75596009D01*
X104312969Y-75596009D02*
X104217731Y-75643628D01*
X104217731Y-75643628D02*
X103836779Y-75643628D01*
X104741541Y-75119819D02*
X104979636Y-76119819D01*
X104979636Y-76119819D02*
X105170112Y-75405533D01*
X105170112Y-75405533D02*
X105360588Y-76119819D01*
X105360588Y-76119819D02*
X105598684Y-75119819D01*
X106551064Y-76119819D02*
X106217731Y-75643628D01*
X105979636Y-76119819D02*
X105979636Y-75119819D01*
X105979636Y-75119819D02*
X106360588Y-75119819D01*
X106360588Y-75119819D02*
X106455826Y-75167438D01*
X106455826Y-75167438D02*
X106503445Y-75215057D01*
X106503445Y-75215057D02*
X106551064Y-75310295D01*
X106551064Y-75310295D02*
X106551064Y-75453152D01*
X106551064Y-75453152D02*
X106503445Y-75548390D01*
X106503445Y-75548390D02*
X106455826Y-75596009D01*
X106455826Y-75596009D02*
X106360588Y-75643628D01*
X106360588Y-75643628D02*
X105979636Y-75643628D01*
X104908207Y-92149931D02*
X104574874Y-91673740D01*
X104336779Y-92149931D02*
X104336779Y-91149931D01*
X104336779Y-91149931D02*
X104717731Y-91149931D01*
X104717731Y-91149931D02*
X104812969Y-91197550D01*
X104812969Y-91197550D02*
X104860588Y-91245169D01*
X104860588Y-91245169D02*
X104908207Y-91340407D01*
X104908207Y-91340407D02*
X104908207Y-91483264D01*
X104908207Y-91483264D02*
X104860588Y-91578502D01*
X104860588Y-91578502D02*
X104812969Y-91626121D01*
X104812969Y-91626121D02*
X104717731Y-91673740D01*
X104717731Y-91673740D02*
X104336779Y-91673740D01*
X105765350Y-92149931D02*
X105765350Y-91626121D01*
X105765350Y-91626121D02*
X105717731Y-91530883D01*
X105717731Y-91530883D02*
X105622493Y-91483264D01*
X105622493Y-91483264D02*
X105432017Y-91483264D01*
X105432017Y-91483264D02*
X105336779Y-91530883D01*
X105765350Y-92102312D02*
X105670112Y-92149931D01*
X105670112Y-92149931D02*
X105432017Y-92149931D01*
X105432017Y-92149931D02*
X105336779Y-92102312D01*
X105336779Y-92102312D02*
X105289160Y-92007073D01*
X105289160Y-92007073D02*
X105289160Y-91911835D01*
X105289160Y-91911835D02*
X105336779Y-91816597D01*
X105336779Y-91816597D02*
X105432017Y-91768978D01*
X105432017Y-91768978D02*
X105670112Y-91768978D01*
X105670112Y-91768978D02*
X105765350Y-91721359D01*
X106146303Y-91483264D02*
X106384398Y-92149931D01*
X106384398Y-92149931D02*
X106622493Y-91483264D01*
X107003446Y-92149931D02*
X107003446Y-91483264D01*
X107003446Y-91149931D02*
X106955827Y-91197550D01*
X106955827Y-91197550D02*
X107003446Y-91245169D01*
X107003446Y-91245169D02*
X107051065Y-91197550D01*
X107051065Y-91197550D02*
X107003446Y-91149931D01*
X107003446Y-91149931D02*
X107003446Y-91245169D01*
X108193922Y-92102312D02*
X108336779Y-92149931D01*
X108336779Y-92149931D02*
X108574874Y-92149931D01*
X108574874Y-92149931D02*
X108670112Y-92102312D01*
X108670112Y-92102312D02*
X108717731Y-92054692D01*
X108717731Y-92054692D02*
X108765350Y-91959454D01*
X108765350Y-91959454D02*
X108765350Y-91864216D01*
X108765350Y-91864216D02*
X108717731Y-91768978D01*
X108717731Y-91768978D02*
X108670112Y-91721359D01*
X108670112Y-91721359D02*
X108574874Y-91673740D01*
X108574874Y-91673740D02*
X108384398Y-91626121D01*
X108384398Y-91626121D02*
X108289160Y-91578502D01*
X108289160Y-91578502D02*
X108241541Y-91530883D01*
X108241541Y-91530883D02*
X108193922Y-91435645D01*
X108193922Y-91435645D02*
X108193922Y-91340407D01*
X108193922Y-91340407D02*
X108241541Y-91245169D01*
X108241541Y-91245169D02*
X108289160Y-91197550D01*
X108289160Y-91197550D02*
X108384398Y-91149931D01*
X108384398Y-91149931D02*
X108622493Y-91149931D01*
X108622493Y-91149931D02*
X108765350Y-91197550D01*
X109193922Y-92149931D02*
X109193922Y-91149931D01*
X109622493Y-92149931D02*
X109622493Y-91626121D01*
X109622493Y-91626121D02*
X109574874Y-91530883D01*
X109574874Y-91530883D02*
X109479636Y-91483264D01*
X109479636Y-91483264D02*
X109336779Y-91483264D01*
X109336779Y-91483264D02*
X109241541Y-91530883D01*
X109241541Y-91530883D02*
X109193922Y-91578502D01*
X110527255Y-92149931D02*
X110527255Y-91626121D01*
X110527255Y-91626121D02*
X110479636Y-91530883D01*
X110479636Y-91530883D02*
X110384398Y-91483264D01*
X110384398Y-91483264D02*
X110193922Y-91483264D01*
X110193922Y-91483264D02*
X110098684Y-91530883D01*
X110527255Y-92102312D02*
X110432017Y-92149931D01*
X110432017Y-92149931D02*
X110193922Y-92149931D01*
X110193922Y-92149931D02*
X110098684Y-92102312D01*
X110098684Y-92102312D02*
X110051065Y-92007073D01*
X110051065Y-92007073D02*
X110051065Y-91911835D01*
X110051065Y-91911835D02*
X110098684Y-91816597D01*
X110098684Y-91816597D02*
X110193922Y-91768978D01*
X110193922Y-91768978D02*
X110432017Y-91768978D01*
X110432017Y-91768978D02*
X110527255Y-91721359D01*
X111003446Y-92149931D02*
X111003446Y-91149931D01*
X111432017Y-92149931D02*
X111432017Y-91626121D01*
X111432017Y-91626121D02*
X111384398Y-91530883D01*
X111384398Y-91530883D02*
X111289160Y-91483264D01*
X111289160Y-91483264D02*
X111146303Y-91483264D01*
X111146303Y-91483264D02*
X111051065Y-91530883D01*
X111051065Y-91530883D02*
X111003446Y-91578502D01*
X104336779Y-93759875D02*
X104336779Y-92759875D01*
X104336779Y-92759875D02*
X104670112Y-93474160D01*
X104670112Y-93474160D02*
X105003445Y-92759875D01*
X105003445Y-92759875D02*
X105003445Y-93759875D01*
X105908207Y-93759875D02*
X105908207Y-93236065D01*
X105908207Y-93236065D02*
X105860588Y-93140827D01*
X105860588Y-93140827D02*
X105765350Y-93093208D01*
X105765350Y-93093208D02*
X105574874Y-93093208D01*
X105574874Y-93093208D02*
X105479636Y-93140827D01*
X105908207Y-93712256D02*
X105812969Y-93759875D01*
X105812969Y-93759875D02*
X105574874Y-93759875D01*
X105574874Y-93759875D02*
X105479636Y-93712256D01*
X105479636Y-93712256D02*
X105432017Y-93617017D01*
X105432017Y-93617017D02*
X105432017Y-93521779D01*
X105432017Y-93521779D02*
X105479636Y-93426541D01*
X105479636Y-93426541D02*
X105574874Y-93378922D01*
X105574874Y-93378922D02*
X105812969Y-93378922D01*
X105812969Y-93378922D02*
X105908207Y-93331303D01*
X106241541Y-93093208D02*
X106622493Y-93093208D01*
X106384398Y-92759875D02*
X106384398Y-93617017D01*
X106384398Y-93617017D02*
X106432017Y-93712256D01*
X106432017Y-93712256D02*
X106527255Y-93759875D01*
X106527255Y-93759875D02*
X106622493Y-93759875D01*
X106812970Y-93093208D02*
X107193922Y-93093208D01*
X106955827Y-92759875D02*
X106955827Y-93617017D01*
X106955827Y-93617017D02*
X107003446Y-93712256D01*
X107003446Y-93712256D02*
X107098684Y-93759875D01*
X107098684Y-93759875D02*
X107193922Y-93759875D01*
X107527256Y-93759875D02*
X107527256Y-92759875D01*
X107955827Y-93759875D02*
X107955827Y-93236065D01*
X107955827Y-93236065D02*
X107908208Y-93140827D01*
X107908208Y-93140827D02*
X107812970Y-93093208D01*
X107812970Y-93093208D02*
X107670113Y-93093208D01*
X107670113Y-93093208D02*
X107574875Y-93140827D01*
X107574875Y-93140827D02*
X107527256Y-93188446D01*
X108812970Y-93712256D02*
X108717732Y-93759875D01*
X108717732Y-93759875D02*
X108527256Y-93759875D01*
X108527256Y-93759875D02*
X108432018Y-93712256D01*
X108432018Y-93712256D02*
X108384399Y-93617017D01*
X108384399Y-93617017D02*
X108384399Y-93236065D01*
X108384399Y-93236065D02*
X108432018Y-93140827D01*
X108432018Y-93140827D02*
X108527256Y-93093208D01*
X108527256Y-93093208D02*
X108717732Y-93093208D01*
X108717732Y-93093208D02*
X108812970Y-93140827D01*
X108812970Y-93140827D02*
X108860589Y-93236065D01*
X108860589Y-93236065D02*
X108860589Y-93331303D01*
X108860589Y-93331303D02*
X108384399Y-93426541D01*
X109193923Y-93093208D02*
X109384399Y-93759875D01*
X109384399Y-93759875D02*
X109574875Y-93283684D01*
X109574875Y-93283684D02*
X109765351Y-93759875D01*
X109765351Y-93759875D02*
X109955827Y-93093208D01*
X111098685Y-93759875D02*
X111098685Y-92759875D01*
X111670113Y-93759875D02*
X111241542Y-93188446D01*
X111670113Y-92759875D02*
X111098685Y-93331303D01*
X112098685Y-93759875D02*
X112098685Y-93093208D01*
X112098685Y-92759875D02*
X112051066Y-92807494D01*
X112051066Y-92807494D02*
X112098685Y-92855113D01*
X112098685Y-92855113D02*
X112146304Y-92807494D01*
X112146304Y-92807494D02*
X112098685Y-92759875D01*
X112098685Y-92759875D02*
X112098685Y-92855113D01*
X112574875Y-93093208D02*
X112574875Y-93759875D01*
X112574875Y-93188446D02*
X112622494Y-93140827D01*
X112622494Y-93140827D02*
X112717732Y-93093208D01*
X112717732Y-93093208D02*
X112860589Y-93093208D01*
X112860589Y-93093208D02*
X112955827Y-93140827D01*
X112955827Y-93140827D02*
X113003446Y-93236065D01*
X113003446Y-93236065D02*
X113003446Y-93759875D01*
X113908208Y-93093208D02*
X113908208Y-93902732D01*
X113908208Y-93902732D02*
X113860589Y-93997970D01*
X113860589Y-93997970D02*
X113812970Y-94045589D01*
X113812970Y-94045589D02*
X113717732Y-94093208D01*
X113717732Y-94093208D02*
X113574875Y-94093208D01*
X113574875Y-94093208D02*
X113479637Y-94045589D01*
X113908208Y-93712256D02*
X113812970Y-93759875D01*
X113812970Y-93759875D02*
X113622494Y-93759875D01*
X113622494Y-93759875D02*
X113527256Y-93712256D01*
X113527256Y-93712256D02*
X113479637Y-93664636D01*
X113479637Y-93664636D02*
X113432018Y-93569398D01*
X113432018Y-93569398D02*
X113432018Y-93283684D01*
X113432018Y-93283684D02*
X113479637Y-93188446D01*
X113479637Y-93188446D02*
X113527256Y-93140827D01*
X113527256Y-93140827D02*
X113622494Y-93093208D01*
X113622494Y-93093208D02*
X113812970Y-93093208D01*
X113812970Y-93093208D02*
X113908208Y-93140827D01*
X104289160Y-94465057D02*
X104336779Y-94417438D01*
X104336779Y-94417438D02*
X104432017Y-94369819D01*
X104432017Y-94369819D02*
X104670112Y-94369819D01*
X104670112Y-94369819D02*
X104765350Y-94417438D01*
X104765350Y-94417438D02*
X104812969Y-94465057D01*
X104812969Y-94465057D02*
X104860588Y-94560295D01*
X104860588Y-94560295D02*
X104860588Y-94655533D01*
X104860588Y-94655533D02*
X104812969Y-94798390D01*
X104812969Y-94798390D02*
X104241541Y-95369819D01*
X104241541Y-95369819D02*
X104860588Y-95369819D01*
X105479636Y-94369819D02*
X105574874Y-94369819D01*
X105574874Y-94369819D02*
X105670112Y-94417438D01*
X105670112Y-94417438D02*
X105717731Y-94465057D01*
X105717731Y-94465057D02*
X105765350Y-94560295D01*
X105765350Y-94560295D02*
X105812969Y-94750771D01*
X105812969Y-94750771D02*
X105812969Y-94988866D01*
X105812969Y-94988866D02*
X105765350Y-95179342D01*
X105765350Y-95179342D02*
X105717731Y-95274580D01*
X105717731Y-95274580D02*
X105670112Y-95322200D01*
X105670112Y-95322200D02*
X105574874Y-95369819D01*
X105574874Y-95369819D02*
X105479636Y-95369819D01*
X105479636Y-95369819D02*
X105384398Y-95322200D01*
X105384398Y-95322200D02*
X105336779Y-95274580D01*
X105336779Y-95274580D02*
X105289160Y-95179342D01*
X105289160Y-95179342D02*
X105241541Y-94988866D01*
X105241541Y-94988866D02*
X105241541Y-94750771D01*
X105241541Y-94750771D02*
X105289160Y-94560295D01*
X105289160Y-94560295D02*
X105336779Y-94465057D01*
X105336779Y-94465057D02*
X105384398Y-94417438D01*
X105384398Y-94417438D02*
X105479636Y-94369819D01*
X106193922Y-94465057D02*
X106241541Y-94417438D01*
X106241541Y-94417438D02*
X106336779Y-94369819D01*
X106336779Y-94369819D02*
X106574874Y-94369819D01*
X106574874Y-94369819D02*
X106670112Y-94417438D01*
X106670112Y-94417438D02*
X106717731Y-94465057D01*
X106717731Y-94465057D02*
X106765350Y-94560295D01*
X106765350Y-94560295D02*
X106765350Y-94655533D01*
X106765350Y-94655533D02*
X106717731Y-94798390D01*
X106717731Y-94798390D02*
X106146303Y-95369819D01*
X106146303Y-95369819D02*
X106765350Y-95369819D01*
X107670112Y-94369819D02*
X107193922Y-94369819D01*
X107193922Y-94369819D02*
X107146303Y-94846009D01*
X107146303Y-94846009D02*
X107193922Y-94798390D01*
X107193922Y-94798390D02*
X107289160Y-94750771D01*
X107289160Y-94750771D02*
X107527255Y-94750771D01*
X107527255Y-94750771D02*
X107622493Y-94798390D01*
X107622493Y-94798390D02*
X107670112Y-94846009D01*
X107670112Y-94846009D02*
X107717731Y-94941247D01*
X107717731Y-94941247D02*
X107717731Y-95179342D01*
X107717731Y-95179342D02*
X107670112Y-95274580D01*
X107670112Y-95274580D02*
X107622493Y-95322200D01*
X107622493Y-95322200D02*
X107527255Y-95369819D01*
X107527255Y-95369819D02*
X107289160Y-95369819D01*
X107289160Y-95369819D02*
X107193922Y-95322200D01*
X107193922Y-95322200D02*
X107146303Y-95274580D01*
X130011133Y-82836779D02*
X130011133Y-83598684D01*
X129630180Y-83217731D02*
X130392085Y-83217731D01*
X130011133Y-86360589D02*
X130011133Y-87122494D01*
X102988866Y-86913220D02*
X102988866Y-86151316D01*
X103369819Y-86532268D02*
X102607914Y-86532268D01*
X102988866Y-83389410D02*
X102988866Y-82627506D01*
G36*
X128937325Y-86396061D02*
G01*
X129009166Y-86466528D01*
X129044928Y-86535974D01*
X129046018Y-86691143D01*
X129012867Y-86759465D01*
X128940485Y-86833258D01*
X128782313Y-86873951D01*
X128467559Y-86875254D01*
X128302311Y-86835140D01*
X128230471Y-86764673D01*
X128194709Y-86695227D01*
X128193619Y-86540058D01*
X128226770Y-86471735D01*
X128299152Y-86397943D01*
X128457323Y-86357250D01*
X128772077Y-86355947D01*
X128937325Y-86396061D01*
G37*
G36*
X128937325Y-82348442D02*
G01*
X129009166Y-82418909D01*
X129044928Y-82488355D01*
X129046018Y-82643524D01*
X129012867Y-82711846D01*
X128940485Y-82785639D01*
X128782313Y-82826332D01*
X128467559Y-82827635D01*
X128302311Y-82787521D01*
X128230471Y-82717054D01*
X128194709Y-82647608D01*
X128193619Y-82492439D01*
X128226770Y-82424116D01*
X128299152Y-82350324D01*
X128457323Y-82309631D01*
X128772077Y-82308328D01*
X128937325Y-82348442D01*
G37*
G36*
X129305930Y-87990747D02*
G01*
X127933708Y-87990747D01*
X127933708Y-87234649D01*
X128044819Y-87234649D01*
X128046260Y-87820709D01*
X128057459Y-87847745D01*
X128078151Y-87868437D01*
X128105187Y-87879636D01*
X128134451Y-87879636D01*
X128161487Y-87868437D01*
X128182179Y-87847745D01*
X128193378Y-87820709D01*
X128194819Y-87806077D01*
X128194300Y-87595257D01*
X129134451Y-87593922D01*
X129161487Y-87582723D01*
X129182179Y-87562031D01*
X129193378Y-87534995D01*
X129193378Y-87505731D01*
X129182179Y-87478695D01*
X129161487Y-87458003D01*
X129134451Y-87446804D01*
X129119819Y-87445363D01*
X128193935Y-87446677D01*
X128193378Y-87220017D01*
X128182179Y-87192981D01*
X128161487Y-87172289D01*
X128134451Y-87161090D01*
X128105187Y-87161090D01*
X128078151Y-87172289D01*
X128057459Y-87192981D01*
X128046260Y-87220017D01*
X128044819Y-87234649D01*
X127933708Y-87234649D01*
X127933708Y-86520363D01*
X128044819Y-86520363D01*
X128046077Y-86699450D01*
X128045408Y-86701458D01*
X128046166Y-86712130D01*
X128046260Y-86725471D01*
X128047291Y-86727960D01*
X128047482Y-86730648D01*
X128052737Y-86744380D01*
X128101429Y-86838936D01*
X128105078Y-86847745D01*
X128107460Y-86850647D01*
X128108188Y-86852061D01*
X128109686Y-86853360D01*
X128114405Y-86859110D01*
X128204728Y-86947707D01*
X128207128Y-86951707D01*
X128213988Y-86956790D01*
X128221008Y-86963676D01*
X128226161Y-86965810D01*
X128230640Y-86969129D01*
X128244486Y-86974076D01*
X128430851Y-87019316D01*
X128438520Y-87022493D01*
X128447634Y-87023390D01*
X128449506Y-87023845D01*
X128450598Y-87023682D01*
X128453152Y-87023934D01*
X128781588Y-87022573D01*
X128790131Y-87023845D01*
X128799223Y-87022500D01*
X128801117Y-87022493D01*
X128802138Y-87022070D01*
X128804675Y-87021695D01*
X128986666Y-86974874D01*
X128991592Y-86974874D01*
X128999667Y-86971529D01*
X129008997Y-86969129D01*
X129013476Y-86965809D01*
X129018628Y-86963676D01*
X129029994Y-86954348D01*
X129123932Y-86858580D01*
X129131450Y-86852061D01*
X129133460Y-86848867D01*
X129134561Y-86847745D01*
X129135319Y-86845912D01*
X129139282Y-86839618D01*
X129180957Y-86753728D01*
X129182179Y-86752507D01*
X129185848Y-86743647D01*
X129192156Y-86730649D01*
X129192347Y-86727959D01*
X129193378Y-86725471D01*
X129194819Y-86710839D01*
X129193560Y-86531750D01*
X129194230Y-86529743D01*
X129193471Y-86519070D01*
X129193378Y-86505731D01*
X129192347Y-86503242D01*
X129192156Y-86500553D01*
X129186901Y-86486822D01*
X129138212Y-86392273D01*
X129134561Y-86383457D01*
X129132176Y-86380551D01*
X129131450Y-86379141D01*
X129129953Y-86377842D01*
X129125233Y-86372092D01*
X129034909Y-86283496D01*
X129032509Y-86279495D01*
X129025645Y-86274409D01*
X129018628Y-86267526D01*
X129013476Y-86265392D01*
X129008997Y-86262073D01*
X128995151Y-86257126D01*
X128808785Y-86211885D01*
X128801117Y-86208709D01*
X128792002Y-86207811D01*
X128790131Y-86207357D01*
X128789038Y-86207519D01*
X128786485Y-86207268D01*
X128458048Y-86208628D01*
X128449506Y-86207357D01*
X128440413Y-86208701D01*
X128438520Y-86208709D01*
X128437498Y-86209131D01*
X128434962Y-86209507D01*
X128252971Y-86256328D01*
X128248045Y-86256328D01*
X128239968Y-86259673D01*
X128230640Y-86262073D01*
X128226161Y-86265391D01*
X128221008Y-86267526D01*
X128209643Y-86276854D01*
X128115711Y-86372616D01*
X128108188Y-86379141D01*
X128106175Y-86382337D01*
X128105078Y-86383457D01*
X128104320Y-86385284D01*
X128100356Y-86391584D01*
X128058681Y-86477472D01*
X128057459Y-86478695D01*
X128053786Y-86487560D01*
X128047482Y-86500554D01*
X128047291Y-86503241D01*
X128046260Y-86505731D01*
X128044819Y-86520363D01*
X127933708Y-86520363D01*
X127933708Y-85091792D01*
X128663866Y-85091792D01*
X128665307Y-85868328D01*
X128676506Y-85895364D01*
X128697198Y-85916056D01*
X128724234Y-85927255D01*
X128753498Y-85927255D01*
X128780534Y-85916056D01*
X128801226Y-85895364D01*
X128812425Y-85868328D01*
X128813866Y-85853696D01*
X128812425Y-85077160D01*
X128801226Y-85050124D01*
X128780534Y-85029432D01*
X128753498Y-85018233D01*
X128724234Y-85018233D01*
X128697198Y-85029432D01*
X128676506Y-85050124D01*
X128665307Y-85077160D01*
X128663866Y-85091792D01*
X127933708Y-85091792D01*
X127933708Y-84630233D01*
X128046260Y-84630233D01*
X128057459Y-84657269D01*
X128078151Y-84677961D01*
X128105187Y-84689160D01*
X128119819Y-84690601D01*
X129134451Y-84689160D01*
X129161487Y-84677961D01*
X129182179Y-84657269D01*
X129193378Y-84630233D01*
X129194819Y-84615601D01*
X129193378Y-84124779D01*
X129182179Y-84097743D01*
X129161487Y-84077051D01*
X129134451Y-84065852D01*
X129105187Y-84065852D01*
X129078151Y-84077051D01*
X129057459Y-84097743D01*
X129046260Y-84124779D01*
X129044819Y-84139411D01*
X129045997Y-84540705D01*
X128105187Y-84542042D01*
X128078151Y-84553241D01*
X128057459Y-84573933D01*
X128046260Y-84600969D01*
X128046260Y-84630233D01*
X127933708Y-84630233D01*
X127933708Y-83425125D01*
X128044819Y-83425125D01*
X128046111Y-83651729D01*
X128045408Y-83653839D01*
X128046185Y-83664781D01*
X128046260Y-83677852D01*
X128047291Y-83680341D01*
X128047482Y-83683029D01*
X128052737Y-83696761D01*
X128101429Y-83791317D01*
X128105078Y-83800126D01*
X128107460Y-83803028D01*
X128108188Y-83804442D01*
X128109686Y-83805741D01*
X128114405Y-83811491D01*
X128163440Y-83858832D01*
X128169073Y-83865327D01*
X128172218Y-83867306D01*
X128173389Y-83868437D01*
X128175216Y-83869194D01*
X128181516Y-83873159D01*
X128267405Y-83914834D01*
X128268627Y-83916056D01*
X128277486Y-83919725D01*
X128290485Y-83926033D01*
X128293174Y-83926224D01*
X128295663Y-83927255D01*
X128310295Y-83928696D01*
X128394601Y-83927590D01*
X128396152Y-83928107D01*
X128405421Y-83927448D01*
X128420165Y-83927255D01*
X128422654Y-83926223D01*
X128425342Y-83926033D01*
X128439074Y-83920778D01*
X128533630Y-83872085D01*
X128542439Y-83868437D01*
X128545341Y-83866054D01*
X128546755Y-83865327D01*
X128548054Y-83863828D01*
X128553804Y-83859110D01*
X128601145Y-83810074D01*
X128607640Y-83804442D01*
X128609619Y-83801296D01*
X128610750Y-83800126D01*
X128611507Y-83798298D01*
X128615472Y-83791999D01*
X128659740Y-83700766D01*
X128663823Y-83695256D01*
X128667758Y-83684240D01*
X128668346Y-83683030D01*
X128668384Y-83682489D01*
X128668770Y-83681410D01*
X128711854Y-83503926D01*
X128750680Y-83423909D01*
X128780924Y-83392582D01*
X128849905Y-83357060D01*
X128910066Y-83356271D01*
X128978176Y-83389320D01*
X129009504Y-83419565D01*
X129044907Y-83488315D01*
X129046086Y-83695096D01*
X128997789Y-83844316D01*
X128999864Y-83873506D01*
X129012950Y-83899679D01*
X129035057Y-83918853D01*
X129062820Y-83928107D01*
X129092010Y-83926032D01*
X129118183Y-83912946D01*
X129137357Y-83890839D01*
X129143351Y-83877413D01*
X129189500Y-83734831D01*
X129193378Y-83725471D01*
X129193748Y-83721707D01*
X129194230Y-83720220D01*
X129194089Y-83718245D01*
X129194819Y-83710839D01*
X129193526Y-83484233D01*
X129194230Y-83482124D01*
X129193452Y-83471181D01*
X129193378Y-83458112D01*
X129192347Y-83455623D01*
X129192156Y-83452934D01*
X129186901Y-83439203D01*
X129138209Y-83344648D01*
X129134560Y-83335838D01*
X129132177Y-83332935D01*
X129131450Y-83331522D01*
X129129950Y-83330221D01*
X129125232Y-83324472D01*
X129076195Y-83277130D01*
X129070564Y-83270637D01*
X129067418Y-83268657D01*
X129066247Y-83267526D01*
X129064417Y-83266768D01*
X129058121Y-83262805D01*
X128972232Y-83221130D01*
X128971010Y-83219908D01*
X128962144Y-83216235D01*
X128949151Y-83209931D01*
X128946463Y-83209740D01*
X128943974Y-83208709D01*
X128929342Y-83207268D01*
X128845034Y-83208373D01*
X128843484Y-83207857D01*
X128834213Y-83208515D01*
X128819472Y-83208709D01*
X128816983Y-83209739D01*
X128814294Y-83209931D01*
X128800563Y-83215186D01*
X128706008Y-83263877D01*
X128697198Y-83267527D01*
X128694295Y-83269909D01*
X128692882Y-83270637D01*
X128691582Y-83272135D01*
X128685833Y-83276854D01*
X128638491Y-83325889D01*
X128631997Y-83331522D01*
X128630017Y-83334667D01*
X128628887Y-83335838D01*
X128628129Y-83337665D01*
X128624165Y-83343965D01*
X128579898Y-83435196D01*
X128575814Y-83440708D01*
X128571876Y-83451727D01*
X128571291Y-83452935D01*
X128571252Y-83453474D01*
X128570867Y-83454554D01*
X128527782Y-83632037D01*
X128488957Y-83712053D01*
X128458712Y-83743381D01*
X128389731Y-83778903D01*
X128329570Y-83779692D01*
X128261461Y-83746644D01*
X128230133Y-83716399D01*
X128194730Y-83647648D01*
X128193551Y-83440867D01*
X128241849Y-83291649D01*
X128239774Y-83262459D01*
X128226688Y-83236285D01*
X128204580Y-83217111D01*
X128176818Y-83207857D01*
X128147628Y-83209932D01*
X128121455Y-83223019D01*
X128102281Y-83245126D01*
X128096287Y-83258551D01*
X128050138Y-83401129D01*
X128046260Y-83410493D01*
X128045889Y-83414258D01*
X128045408Y-83415745D01*
X128045548Y-83417719D01*
X128044819Y-83425125D01*
X127933708Y-83425125D01*
X127933708Y-82472744D01*
X128044819Y-82472744D01*
X128046077Y-82651831D01*
X128045408Y-82653839D01*
X128046166Y-82664511D01*
X128046260Y-82677852D01*
X128047291Y-82680341D01*
X128047482Y-82683029D01*
X128052737Y-82696761D01*
X128101429Y-82791317D01*
X128105078Y-82800126D01*
X128107460Y-82803028D01*
X128108188Y-82804442D01*
X128109686Y-82805741D01*
X128114405Y-82811491D01*
X128204728Y-82900088D01*
X128207128Y-82904088D01*
X128213988Y-82909171D01*
X128221008Y-82916057D01*
X128226161Y-82918191D01*
X128230640Y-82921510D01*
X128244486Y-82926457D01*
X128430851Y-82971697D01*
X128438520Y-82974874D01*
X128447634Y-82975771D01*
X128449506Y-82976226D01*
X128450598Y-82976063D01*
X128453152Y-82976315D01*
X128781588Y-82974954D01*
X128790131Y-82976226D01*
X128799223Y-82974881D01*
X128801117Y-82974874D01*
X128802138Y-82974451D01*
X128804675Y-82974076D01*
X128986666Y-82927255D01*
X128991592Y-82927255D01*
X128999667Y-82923910D01*
X129008997Y-82921510D01*
X129013476Y-82918190D01*
X129018628Y-82916057D01*
X129029994Y-82906729D01*
X129123932Y-82810961D01*
X129131450Y-82804442D01*
X129133460Y-82801248D01*
X129134561Y-82800126D01*
X129135319Y-82798293D01*
X129139282Y-82791999D01*
X129180957Y-82706109D01*
X129182179Y-82704888D01*
X129185848Y-82696028D01*
X129192156Y-82683030D01*
X129192347Y-82680340D01*
X129193378Y-82677852D01*
X129194819Y-82663220D01*
X129193560Y-82484131D01*
X129194230Y-82482124D01*
X129193471Y-82471451D01*
X129193378Y-82458112D01*
X129192347Y-82455623D01*
X129192156Y-82452934D01*
X129186901Y-82439203D01*
X129138212Y-82344654D01*
X129134561Y-82335838D01*
X129132176Y-82332932D01*
X129131450Y-82331522D01*
X129129953Y-82330223D01*
X129125233Y-82324473D01*
X129034909Y-82235877D01*
X129032509Y-82231876D01*
X129025645Y-82226790D01*
X129018628Y-82219907D01*
X129013476Y-82217773D01*
X129008997Y-82214454D01*
X128995151Y-82209507D01*
X128808785Y-82164266D01*
X128801117Y-82161090D01*
X128792002Y-82160192D01*
X128790131Y-82159738D01*
X128789038Y-82159900D01*
X128786485Y-82159649D01*
X128458048Y-82161009D01*
X128449506Y-82159738D01*
X128440413Y-82161082D01*
X128438520Y-82161090D01*
X128437498Y-82161512D01*
X128434962Y-82161888D01*
X128252971Y-82208709D01*
X128248045Y-82208709D01*
X128239968Y-82212054D01*
X128230640Y-82214454D01*
X128226161Y-82217772D01*
X128221008Y-82219907D01*
X128209643Y-82229235D01*
X128115711Y-82324997D01*
X128108188Y-82331522D01*
X128106175Y-82334718D01*
X128105078Y-82335838D01*
X128104320Y-82337665D01*
X128100356Y-82343965D01*
X128058681Y-82429853D01*
X128057459Y-82431076D01*
X128053786Y-82439941D01*
X128047482Y-82452935D01*
X128047291Y-82455622D01*
X128046260Y-82458112D01*
X128044819Y-82472744D01*
X127933708Y-82472744D01*
X127933708Y-81794689D01*
X128045689Y-81794689D01*
X128046260Y-81807690D01*
X128046260Y-81820709D01*
X128046899Y-81822253D01*
X128046973Y-81823925D01*
X128052479Y-81835723D01*
X128057459Y-81847745D01*
X128058641Y-81848927D01*
X128059349Y-81850443D01*
X128068945Y-81859231D01*
X128078151Y-81868437D01*
X128079696Y-81869077D01*
X128080930Y-81870207D01*
X128093160Y-81874654D01*
X128105187Y-81879636D01*
X128107482Y-81879862D01*
X128108431Y-81880207D01*
X128110197Y-81880129D01*
X128119819Y-81881077D01*
X129134451Y-81879636D01*
X129161487Y-81868437D01*
X129182179Y-81847745D01*
X129193378Y-81820709D01*
X129193378Y-81791445D01*
X129182179Y-81764409D01*
X129161487Y-81743717D01*
X129134451Y-81732518D01*
X129119819Y-81731077D01*
X128454441Y-81732021D01*
X128862619Y-81540646D01*
X128872993Y-81536874D01*
X128875435Y-81534637D01*
X128878471Y-81533214D01*
X128886168Y-81524808D01*
X128894575Y-81517110D01*
X128895984Y-81514089D01*
X128898234Y-81511633D01*
X128902128Y-81500923D01*
X128906950Y-81490592D01*
X128907096Y-81487263D01*
X128908235Y-81484132D01*
X128907734Y-81472744D01*
X128908235Y-81461356D01*
X128907096Y-81458224D01*
X128906950Y-81454896D01*
X128902128Y-81444564D01*
X128898234Y-81433855D01*
X128895984Y-81431398D01*
X128894575Y-81428378D01*
X128886168Y-81420679D01*
X128878471Y-81412274D01*
X128874275Y-81409788D01*
X128872993Y-81408614D01*
X128871180Y-81407954D01*
X128865821Y-81404780D01*
X128454944Y-81213935D01*
X129134451Y-81212970D01*
X129161487Y-81201771D01*
X129182179Y-81181079D01*
X129193378Y-81154043D01*
X129193378Y-81124779D01*
X129182179Y-81097743D01*
X129161487Y-81077051D01*
X129134451Y-81065852D01*
X129119819Y-81064411D01*
X128120923Y-81065829D01*
X128108431Y-81065281D01*
X128106867Y-81065849D01*
X128105187Y-81065852D01*
X128093160Y-81070833D01*
X128080930Y-81075281D01*
X128079696Y-81076410D01*
X128078151Y-81077051D01*
X128068945Y-81086256D01*
X128059349Y-81095045D01*
X128058641Y-81096560D01*
X128057459Y-81097743D01*
X128052479Y-81109764D01*
X128046973Y-81121563D01*
X128046899Y-81123234D01*
X128046260Y-81124779D01*
X128046260Y-81137797D01*
X128045689Y-81150799D01*
X128046260Y-81152369D01*
X128046260Y-81154043D01*
X128051241Y-81166069D01*
X128055689Y-81178300D01*
X128056818Y-81179533D01*
X128057459Y-81181079D01*
X128066664Y-81190284D01*
X128075453Y-81199881D01*
X128077435Y-81201055D01*
X128078151Y-81201771D01*
X128079787Y-81202449D01*
X128088103Y-81207375D01*
X128658422Y-81472278D01*
X128089592Y-81738977D01*
X128078151Y-81743717D01*
X128076974Y-81744893D01*
X128075453Y-81745607D01*
X128066664Y-81755203D01*
X128057459Y-81764409D01*
X128056818Y-81765954D01*
X128055689Y-81767188D01*
X128051241Y-81779418D01*
X128046260Y-81791445D01*
X128046260Y-81793118D01*
X128045689Y-81794689D01*
X127933708Y-81794689D01*
X127933708Y-80953300D01*
X129305930Y-80953300D01*
X129305930Y-87990747D01*
G37*
X118261905Y-75704819D02*
X118261905Y-74704819D01*
X118261905Y-74704819D02*
X118500000Y-74704819D01*
X118500000Y-74704819D02*
X118642857Y-74752438D01*
X118642857Y-74752438D02*
X118738095Y-74847676D01*
X118738095Y-74847676D02*
X118785714Y-74942914D01*
X118785714Y-74942914D02*
X118833333Y-75133390D01*
X118833333Y-75133390D02*
X118833333Y-75276247D01*
X118833333Y-75276247D02*
X118785714Y-75466723D01*
X118785714Y-75466723D02*
X118738095Y-75561961D01*
X118738095Y-75561961D02*
X118642857Y-75657200D01*
X118642857Y-75657200D02*
X118500000Y-75704819D01*
X118500000Y-75704819D02*
X118261905Y-75704819D01*
X119166667Y-74704819D02*
X119785714Y-74704819D01*
X119785714Y-74704819D02*
X119452381Y-75085771D01*
X119452381Y-75085771D02*
X119595238Y-75085771D01*
X119595238Y-75085771D02*
X119690476Y-75133390D01*
X119690476Y-75133390D02*
X119738095Y-75181009D01*
X119738095Y-75181009D02*
X119785714Y-75276247D01*
X119785714Y-75276247D02*
X119785714Y-75514342D01*
X119785714Y-75514342D02*
X119738095Y-75609580D01*
X119738095Y-75609580D02*
X119690476Y-75657200D01*
X119690476Y-75657200D02*
X119595238Y-75704819D01*
X119595238Y-75704819D02*
X119309524Y-75704819D01*
X119309524Y-75704819D02*
X119214286Y-75657200D01*
X119214286Y-75657200D02*
X119166667Y-75609580D01*
G36*
X122995045Y-75890930D02*
G01*
X121099953Y-75890930D01*
X121099953Y-75188249D01*
X121211064Y-75188249D01*
X121212155Y-75191864D01*
X121212155Y-75195640D01*
X121216349Y-75205765D01*
X121219517Y-75216265D01*
X121221908Y-75219188D01*
X121223354Y-75222677D01*
X121231107Y-75230430D01*
X121238048Y-75238913D01*
X121241374Y-75240697D01*
X121244046Y-75243369D01*
X121254173Y-75247564D01*
X121263835Y-75252747D01*
X121267594Y-75253122D01*
X121271083Y-75254568D01*
X121282044Y-75254568D01*
X121292954Y-75255659D01*
X121296570Y-75254568D01*
X121300345Y-75254568D01*
X121310470Y-75250373D01*
X121320970Y-75247206D01*
X121323893Y-75244814D01*
X121327382Y-75243369D01*
X121338747Y-75234042D01*
X121375391Y-75196085D01*
X121444142Y-75160682D01*
X121646878Y-75159526D01*
X121715500Y-75192823D01*
X121746827Y-75223067D01*
X121782230Y-75291818D01*
X121783386Y-75494554D01*
X121750090Y-75563175D01*
X121719844Y-75594504D01*
X121651094Y-75629907D01*
X121448358Y-75631063D01*
X121379737Y-75597767D01*
X121327382Y-75547220D01*
X121300346Y-75536021D01*
X121271083Y-75536021D01*
X121244047Y-75547219D01*
X121223354Y-75567912D01*
X121212155Y-75594948D01*
X121212155Y-75624211D01*
X121223353Y-75651247D01*
X121232680Y-75662612D01*
X121281715Y-75709953D01*
X121287349Y-75716450D01*
X121290494Y-75718429D01*
X121291665Y-75719560D01*
X121293492Y-75720317D01*
X121299792Y-75724282D01*
X121385681Y-75765957D01*
X121386903Y-75767179D01*
X121395762Y-75770848D01*
X121408761Y-75777156D01*
X121411450Y-75777347D01*
X121413939Y-75778378D01*
X121428571Y-75779819D01*
X121655175Y-75778526D01*
X121657285Y-75779230D01*
X121668227Y-75778452D01*
X121681298Y-75778378D01*
X121683787Y-75777346D01*
X121686475Y-75777156D01*
X121700207Y-75771901D01*
X121794761Y-75723209D01*
X121803572Y-75719560D01*
X121806474Y-75717177D01*
X121807888Y-75716450D01*
X121809188Y-75714950D01*
X121814938Y-75710232D01*
X121862279Y-75661195D01*
X121868773Y-75655564D01*
X121870752Y-75652418D01*
X121871884Y-75651247D01*
X121872641Y-75649417D01*
X121876605Y-75643121D01*
X121918280Y-75557231D01*
X121919502Y-75556010D01*
X121923171Y-75547150D01*
X121929479Y-75534152D01*
X121929670Y-75531462D01*
X121930701Y-75528974D01*
X121932142Y-75514342D01*
X121930849Y-75287736D01*
X121931553Y-75285627D01*
X121930775Y-75274684D01*
X121930701Y-75261615D01*
X121929670Y-75259126D01*
X121929479Y-75256437D01*
X121924224Y-75242706D01*
X121875532Y-75148151D01*
X121871883Y-75139341D01*
X121869500Y-75136438D01*
X121868773Y-75135025D01*
X121867274Y-75133725D01*
X121862556Y-75127976D01*
X121813520Y-75080634D01*
X121807888Y-75074140D01*
X121804742Y-75072160D01*
X121803572Y-75071030D01*
X121801744Y-75070272D01*
X121795445Y-75066308D01*
X121709556Y-75024633D01*
X121708334Y-75023411D01*
X121699468Y-75019738D01*
X121686475Y-75013434D01*
X121683787Y-75013243D01*
X121681298Y-75012212D01*
X121666666Y-75010771D01*
X121440060Y-75012063D01*
X121437951Y-75011360D01*
X121427008Y-75012137D01*
X121413939Y-75012212D01*
X121411450Y-75013242D01*
X121408761Y-75013434D01*
X121395030Y-75018689D01*
X121375861Y-75028559D01*
X121400020Y-74779623D01*
X121824155Y-74778378D01*
X121851191Y-74767179D01*
X121871883Y-74746487D01*
X121883082Y-74719451D01*
X121883082Y-74714199D01*
X122068446Y-74714199D01*
X122071706Y-74728536D01*
X122403483Y-75719413D01*
X122403854Y-75724629D01*
X122408018Y-75732959D01*
X122411033Y-75741961D01*
X122414543Y-75746008D01*
X122416940Y-75750802D01*
X122424048Y-75756967D01*
X122430207Y-75764068D01*
X122434996Y-75766462D01*
X122439047Y-75769976D01*
X122447972Y-75772950D01*
X122456380Y-75777155D01*
X122461724Y-75777534D01*
X122466810Y-75779230D01*
X122476190Y-75778563D01*
X122485570Y-75779230D01*
X122490655Y-75777534D01*
X122496000Y-75777155D01*
X122504410Y-75772949D01*
X122513332Y-75769976D01*
X122517379Y-75766465D01*
X122522173Y-75764069D01*
X122528336Y-75756963D01*
X122535440Y-75750802D01*
X122537835Y-75746010D01*
X122541347Y-75741962D01*
X122547341Y-75728536D01*
X122883934Y-74714200D01*
X122881859Y-74685010D01*
X122868773Y-74658836D01*
X122846665Y-74639662D01*
X122818903Y-74630408D01*
X122789713Y-74632483D01*
X122763540Y-74645570D01*
X122744366Y-74667677D01*
X122738372Y-74681102D01*
X122476622Y-75469895D01*
X122208014Y-74667676D01*
X122188840Y-74645569D01*
X122162667Y-74632483D01*
X122133477Y-74630408D01*
X122105714Y-74639662D01*
X122083607Y-74658836D01*
X122070521Y-74685009D01*
X122068446Y-74714199D01*
X121883082Y-74714199D01*
X121883082Y-74690187D01*
X121871883Y-74663151D01*
X121851191Y-74642459D01*
X121824155Y-74631260D01*
X121809523Y-74629819D01*
X121336480Y-74631207D01*
X121326093Y-74630169D01*
X121322514Y-74631248D01*
X121318701Y-74631260D01*
X121308574Y-74635454D01*
X121298077Y-74638622D01*
X121295153Y-74641013D01*
X121291665Y-74642459D01*
X121283911Y-74650212D01*
X121275429Y-74657153D01*
X121273644Y-74660479D01*
X121270973Y-74663151D01*
X121266777Y-74673280D01*
X121261595Y-74682940D01*
X121260487Y-74688464D01*
X121259774Y-74690187D01*
X121259774Y-74692023D01*
X121258705Y-74697356D01*
X121213502Y-75163125D01*
X121212155Y-75166378D01*
X121212155Y-75177007D01*
X121211064Y-75188249D01*
X121099953Y-75188249D01*
X121099953Y-74518708D01*
X122995045Y-74518708D01*
X122995045Y-75890930D01*
G37*
X99916666Y-90454819D02*
X99916666Y-91169104D01*
X99916666Y-91169104D02*
X99869047Y-91311961D01*
X99869047Y-91311961D02*
X99773809Y-91407200D01*
X99773809Y-91407200D02*
X99630952Y-91454819D01*
X99630952Y-91454819D02*
X99535714Y-91454819D01*
X100869047Y-90454819D02*
X100392857Y-90454819D01*
X100392857Y-90454819D02*
X100345238Y-90931009D01*
X100345238Y-90931009D02*
X100392857Y-90883390D01*
X100392857Y-90883390D02*
X100488095Y-90835771D01*
X100488095Y-90835771D02*
X100726190Y-90835771D01*
X100726190Y-90835771D02*
X100821428Y-90883390D01*
X100821428Y-90883390D02*
X100869047Y-90931009D01*
X100869047Y-90931009D02*
X100916666Y-91026247D01*
X100916666Y-91026247D02*
X100916666Y-91264342D01*
X100916666Y-91264342D02*
X100869047Y-91359580D01*
X100869047Y-91359580D02*
X100821428Y-91407200D01*
X100821428Y-91407200D02*
X100726190Y-91454819D01*
X100726190Y-91454819D02*
X100488095Y-91454819D01*
X100488095Y-91454819D02*
X100392857Y-91407200D01*
X100392857Y-91407200D02*
X100345238Y-91359580D01*
G36*
X104289367Y-83714194D02*
G01*
X104320694Y-83744438D01*
X104356073Y-83813141D01*
X104357082Y-84056799D01*
X104029513Y-84057265D01*
X104028520Y-83817515D01*
X104061871Y-83748783D01*
X104092115Y-83717456D01*
X104161096Y-83681934D01*
X104221257Y-83681145D01*
X104289367Y-83714194D01*
G37*
G36*
X104813176Y-83666575D02*
G01*
X104844504Y-83696820D01*
X104879875Y-83765507D01*
X104880933Y-84056055D01*
X104505701Y-84056588D01*
X104504694Y-83813504D01*
X104542566Y-83696498D01*
X104568305Y-83669837D01*
X104637162Y-83634379D01*
X104744794Y-83633394D01*
X104813176Y-83666575D01*
G37*
G36*
X104772325Y-82625697D02*
G01*
X104844166Y-82696164D01*
X104879928Y-82765610D01*
X104881018Y-82920779D01*
X104847867Y-82989101D01*
X104775485Y-83062894D01*
X104617313Y-83103587D01*
X104302559Y-83104890D01*
X104137311Y-83064776D01*
X104065471Y-82994309D01*
X104029709Y-82924863D01*
X104028619Y-82769694D01*
X104061770Y-82701371D01*
X104134152Y-82627579D01*
X104292323Y-82586886D01*
X104607077Y-82585583D01*
X104772325Y-82625697D01*
G37*
G36*
X105140930Y-88078967D02*
G01*
X103768708Y-88078967D01*
X103768708Y-87416666D01*
X103879819Y-87416666D01*
X103881260Y-87907488D01*
X103892459Y-87934524D01*
X103913151Y-87955216D01*
X103940187Y-87966415D01*
X103954819Y-87967856D01*
X104969451Y-87966415D01*
X104996487Y-87955216D01*
X105017179Y-87934524D01*
X105028378Y-87907488D01*
X105028378Y-87878224D01*
X105017179Y-87851188D01*
X104996487Y-87830496D01*
X104969451Y-87819297D01*
X104954819Y-87817856D01*
X104505701Y-87818493D01*
X104504568Y-87544891D01*
X104493369Y-87517855D01*
X104472677Y-87497163D01*
X104445641Y-87485964D01*
X104416377Y-87485964D01*
X104389341Y-87497163D01*
X104368649Y-87517855D01*
X104357450Y-87544891D01*
X104356009Y-87559523D01*
X104357082Y-87818704D01*
X104029602Y-87819170D01*
X104028378Y-87402034D01*
X104017179Y-87374998D01*
X103996487Y-87354306D01*
X103969451Y-87343107D01*
X103940187Y-87343107D01*
X103913151Y-87354306D01*
X103892459Y-87374998D01*
X103881260Y-87402034D01*
X103879819Y-87416666D01*
X103768708Y-87416666D01*
X103768708Y-87050345D01*
X103881260Y-87050345D01*
X103892459Y-87077381D01*
X103913151Y-87098073D01*
X103940187Y-87109272D01*
X103954819Y-87110713D01*
X104752543Y-87109318D01*
X104754961Y-87110124D01*
X104766648Y-87109293D01*
X104778974Y-87109272D01*
X104781463Y-87108240D01*
X104784151Y-87108050D01*
X104797883Y-87102795D01*
X104892435Y-87054104D01*
X104901247Y-87050455D01*
X104904151Y-87048071D01*
X104905564Y-87047344D01*
X104906863Y-87045845D01*
X104912612Y-87041128D01*
X104959953Y-86992092D01*
X104966450Y-86986459D01*
X104968429Y-86983313D01*
X104969560Y-86982143D01*
X104970317Y-86980315D01*
X104974282Y-86974016D01*
X105015957Y-86888126D01*
X105017179Y-86886905D01*
X105020848Y-86878045D01*
X105027156Y-86865047D01*
X105027347Y-86862357D01*
X105028378Y-86859869D01*
X105029819Y-86845237D01*
X105028560Y-86666148D01*
X105029230Y-86664141D01*
X105028471Y-86653468D01*
X105028378Y-86640129D01*
X105027347Y-86637640D01*
X105027156Y-86634951D01*
X105021901Y-86621220D01*
X104973209Y-86526665D01*
X104969560Y-86517855D01*
X104967177Y-86514952D01*
X104966450Y-86513539D01*
X104964950Y-86512238D01*
X104960232Y-86506489D01*
X104911195Y-86459147D01*
X104905564Y-86452654D01*
X104902418Y-86450674D01*
X104901247Y-86449543D01*
X104899417Y-86448785D01*
X104893121Y-86444822D01*
X104807232Y-86403147D01*
X104806010Y-86401925D01*
X104797144Y-86398252D01*
X104784151Y-86391948D01*
X104781463Y-86391757D01*
X104778974Y-86390726D01*
X104764342Y-86389285D01*
X103940187Y-86390726D01*
X103913151Y-86401925D01*
X103892459Y-86422617D01*
X103881260Y-86449653D01*
X103881260Y-86478917D01*
X103892459Y-86505953D01*
X103913151Y-86526645D01*
X103940187Y-86537844D01*
X103954819Y-86539285D01*
X104744274Y-86537904D01*
X104813176Y-86571337D01*
X104844504Y-86601582D01*
X104879928Y-86670372D01*
X104881018Y-86825541D01*
X104847767Y-86894070D01*
X104817521Y-86925397D01*
X104748890Y-86960740D01*
X103940187Y-86962154D01*
X103913151Y-86973353D01*
X103892459Y-86994045D01*
X103881260Y-87021081D01*
X103881260Y-87050345D01*
X103768708Y-87050345D01*
X103768708Y-85607142D01*
X103879819Y-85607142D01*
X103881111Y-85833746D01*
X103880408Y-85835856D01*
X103881185Y-85846798D01*
X103881260Y-85859869D01*
X103882291Y-85862358D01*
X103882482Y-85865046D01*
X103887737Y-85878778D01*
X103936429Y-85973334D01*
X103940078Y-85982143D01*
X103942460Y-85985045D01*
X103943188Y-85986459D01*
X103944686Y-85987758D01*
X103949405Y-85993508D01*
X103998440Y-86040849D01*
X104004073Y-86047344D01*
X104007218Y-86049323D01*
X104008389Y-86050454D01*
X104010216Y-86051211D01*
X104016516Y-86055176D01*
X104102405Y-86096851D01*
X104103627Y-86098073D01*
X104112486Y-86101742D01*
X104125485Y-86108050D01*
X104128174Y-86108241D01*
X104130663Y-86109272D01*
X104145295Y-86110713D01*
X104229601Y-86109607D01*
X104231152Y-86110124D01*
X104240421Y-86109465D01*
X104255165Y-86109272D01*
X104257654Y-86108240D01*
X104260342Y-86108050D01*
X104274074Y-86102795D01*
X104368630Y-86054102D01*
X104377439Y-86050454D01*
X104380341Y-86048071D01*
X104381755Y-86047344D01*
X104383054Y-86045845D01*
X104388804Y-86041127D01*
X104436145Y-85992091D01*
X104442640Y-85986459D01*
X104444619Y-85983313D01*
X104445750Y-85982143D01*
X104446507Y-85980315D01*
X104450472Y-85974016D01*
X104494740Y-85882783D01*
X104498823Y-85877273D01*
X104502758Y-85866257D01*
X104503346Y-85865047D01*
X104503384Y-85864506D01*
X104503770Y-85863427D01*
X104546854Y-85685943D01*
X104585680Y-85605926D01*
X104615924Y-85574599D01*
X104684905Y-85539077D01*
X104745066Y-85538288D01*
X104813176Y-85571337D01*
X104844504Y-85601582D01*
X104879907Y-85670332D01*
X104881086Y-85877113D01*
X104832789Y-86026333D01*
X104834864Y-86055523D01*
X104847950Y-86081696D01*
X104870057Y-86100870D01*
X104897820Y-86110124D01*
X104927010Y-86108049D01*
X104953183Y-86094963D01*
X104972357Y-86072856D01*
X104978351Y-86059430D01*
X105024500Y-85916848D01*
X105028378Y-85907488D01*
X105028748Y-85903724D01*
X105029230Y-85902237D01*
X105029089Y-85900262D01*
X105029819Y-85892856D01*
X105028526Y-85666250D01*
X105029230Y-85664141D01*
X105028452Y-85653198D01*
X105028378Y-85640129D01*
X105027347Y-85637640D01*
X105027156Y-85634951D01*
X105021901Y-85621220D01*
X104973209Y-85526665D01*
X104969560Y-85517855D01*
X104967177Y-85514952D01*
X104966450Y-85513539D01*
X104964950Y-85512238D01*
X104960232Y-85506489D01*
X104911195Y-85459147D01*
X104905564Y-85452654D01*
X104902418Y-85450674D01*
X104901247Y-85449543D01*
X104899417Y-85448785D01*
X104893121Y-85444822D01*
X104807232Y-85403147D01*
X104806010Y-85401925D01*
X104797144Y-85398252D01*
X104784151Y-85391948D01*
X104781463Y-85391757D01*
X104778974Y-85390726D01*
X104764342Y-85389285D01*
X104680034Y-85390390D01*
X104678484Y-85389874D01*
X104669213Y-85390532D01*
X104654472Y-85390726D01*
X104651983Y-85391756D01*
X104649294Y-85391948D01*
X104635563Y-85397203D01*
X104541008Y-85445894D01*
X104532198Y-85449544D01*
X104529295Y-85451926D01*
X104527882Y-85452654D01*
X104526582Y-85454152D01*
X104520833Y-85458871D01*
X104473491Y-85507906D01*
X104466997Y-85513539D01*
X104465017Y-85516684D01*
X104463887Y-85517855D01*
X104463129Y-85519682D01*
X104459165Y-85525982D01*
X104414898Y-85617213D01*
X104410814Y-85622725D01*
X104406876Y-85633744D01*
X104406291Y-85634952D01*
X104406252Y-85635491D01*
X104405867Y-85636571D01*
X104362782Y-85814054D01*
X104323957Y-85894070D01*
X104293712Y-85925398D01*
X104224731Y-85960920D01*
X104164570Y-85961709D01*
X104096461Y-85928661D01*
X104065133Y-85898416D01*
X104029730Y-85829665D01*
X104028551Y-85622884D01*
X104076849Y-85473666D01*
X104074774Y-85444476D01*
X104061688Y-85418302D01*
X104039580Y-85399128D01*
X104011818Y-85389874D01*
X103982628Y-85391949D01*
X103956455Y-85405036D01*
X103937281Y-85427143D01*
X103931287Y-85440568D01*
X103885138Y-85583146D01*
X103881260Y-85592510D01*
X103880889Y-85596275D01*
X103880408Y-85597762D01*
X103880548Y-85599736D01*
X103879819Y-85607142D01*
X103768708Y-85607142D01*
X103768708Y-84559523D01*
X103879819Y-84559523D01*
X103881260Y-85050345D01*
X103892459Y-85077381D01*
X103913151Y-85098073D01*
X103940187Y-85109272D01*
X103954819Y-85110713D01*
X104969451Y-85109272D01*
X104996487Y-85098073D01*
X105017179Y-85077381D01*
X105028378Y-85050345D01*
X105029819Y-85035713D01*
X105028378Y-84544891D01*
X105017179Y-84517855D01*
X104996487Y-84497163D01*
X104969451Y-84485964D01*
X104940187Y-84485964D01*
X104913151Y-84497163D01*
X104892459Y-84517855D01*
X104881260Y-84544891D01*
X104879819Y-84559523D01*
X104880997Y-84960817D01*
X104505701Y-84961350D01*
X104504568Y-84687748D01*
X104493369Y-84660712D01*
X104472677Y-84640020D01*
X104445641Y-84628821D01*
X104416377Y-84628821D01*
X104389341Y-84640020D01*
X104368649Y-84660712D01*
X104357450Y-84687748D01*
X104356009Y-84702380D01*
X104357082Y-84961561D01*
X104029602Y-84962027D01*
X104028378Y-84544891D01*
X104017179Y-84517855D01*
X103996487Y-84497163D01*
X103969451Y-84485964D01*
X103940187Y-84485964D01*
X103913151Y-84497163D01*
X103892459Y-84517855D01*
X103881260Y-84544891D01*
X103879819Y-84559523D01*
X103768708Y-84559523D01*
X103768708Y-83797618D01*
X103879819Y-83797618D01*
X103881260Y-84145583D01*
X103892459Y-84172619D01*
X103913151Y-84193311D01*
X103940187Y-84204510D01*
X103954819Y-84205951D01*
X104969451Y-84204510D01*
X104996487Y-84193311D01*
X105017179Y-84172619D01*
X105028378Y-84145583D01*
X105029819Y-84130951D01*
X105028473Y-83761647D01*
X105029230Y-83759379D01*
X105028424Y-83748037D01*
X105028378Y-83735367D01*
X105027347Y-83732878D01*
X105027156Y-83730189D01*
X105021901Y-83716458D01*
X104973209Y-83621903D01*
X104969560Y-83613093D01*
X104967177Y-83610190D01*
X104966450Y-83608777D01*
X104964950Y-83607476D01*
X104960232Y-83601727D01*
X104911195Y-83554385D01*
X104905564Y-83547892D01*
X104902418Y-83545912D01*
X104901247Y-83544781D01*
X104899417Y-83544023D01*
X104893121Y-83540060D01*
X104807232Y-83498385D01*
X104806010Y-83497163D01*
X104797144Y-83493490D01*
X104784151Y-83487186D01*
X104781463Y-83486995D01*
X104778974Y-83485964D01*
X104764342Y-83484523D01*
X104632711Y-83485727D01*
X104630865Y-83485112D01*
X104620650Y-83485837D01*
X104606853Y-83485964D01*
X104604364Y-83486994D01*
X104601675Y-83487186D01*
X104587944Y-83492441D01*
X104493389Y-83541132D01*
X104484579Y-83544782D01*
X104481676Y-83547164D01*
X104480263Y-83547892D01*
X104478963Y-83549390D01*
X104473214Y-83554109D01*
X104433798Y-83594935D01*
X104432645Y-83595512D01*
X104427371Y-83601591D01*
X104416268Y-83613093D01*
X104415236Y-83615583D01*
X104413471Y-83617619D01*
X104410485Y-83624305D01*
X104387387Y-83602005D01*
X104381755Y-83595511D01*
X104378609Y-83593531D01*
X104377439Y-83592401D01*
X104375611Y-83591643D01*
X104369312Y-83587679D01*
X104283423Y-83546004D01*
X104282201Y-83544782D01*
X104273335Y-83541109D01*
X104260342Y-83534805D01*
X104257654Y-83534614D01*
X104255165Y-83533583D01*
X104240533Y-83532142D01*
X104156225Y-83533247D01*
X104154675Y-83532731D01*
X104145404Y-83533389D01*
X104130663Y-83533583D01*
X104128174Y-83534613D01*
X104125485Y-83534805D01*
X104111754Y-83540060D01*
X104017199Y-83588751D01*
X104008389Y-83592401D01*
X104005486Y-83594783D01*
X104004073Y-83595511D01*
X104002773Y-83597009D01*
X103997024Y-83601728D01*
X103949682Y-83650763D01*
X103943188Y-83656396D01*
X103941208Y-83659541D01*
X103940078Y-83660712D01*
X103939320Y-83662539D01*
X103935356Y-83668839D01*
X103893681Y-83754727D01*
X103892459Y-83755950D01*
X103888786Y-83764815D01*
X103882482Y-83777809D01*
X103882291Y-83780496D01*
X103881260Y-83782986D01*
X103879819Y-83797618D01*
X103768708Y-83797618D01*
X103768708Y-82749999D01*
X103879819Y-82749999D01*
X103881077Y-82929086D01*
X103880408Y-82931094D01*
X103881166Y-82941766D01*
X103881260Y-82955107D01*
X103882291Y-82957596D01*
X103882482Y-82960284D01*
X103887737Y-82974016D01*
X103936429Y-83068572D01*
X103940078Y-83077381D01*
X103942460Y-83080283D01*
X103943188Y-83081697D01*
X103944686Y-83082996D01*
X103949405Y-83088746D01*
X104039728Y-83177343D01*
X104042128Y-83181343D01*
X104048988Y-83186426D01*
X104056008Y-83193312D01*
X104061161Y-83195446D01*
X104065640Y-83198765D01*
X104079486Y-83203712D01*
X104265851Y-83248952D01*
X104273520Y-83252129D01*
X104282634Y-83253026D01*
X104284506Y-83253481D01*
X104285598Y-83253318D01*
X104288152Y-83253570D01*
X104616588Y-83252209D01*
X104625131Y-83253481D01*
X104634223Y-83252136D01*
X104636117Y-83252129D01*
X104637138Y-83251706D01*
X104639675Y-83251331D01*
X104821666Y-83204510D01*
X104826592Y-83204510D01*
X104834667Y-83201165D01*
X104843997Y-83198765D01*
X104848476Y-83195445D01*
X104853628Y-83193312D01*
X104864994Y-83183984D01*
X104958932Y-83088216D01*
X104966450Y-83081697D01*
X104968460Y-83078503D01*
X104969561Y-83077381D01*
X104970319Y-83075548D01*
X104974282Y-83069254D01*
X105015957Y-82983364D01*
X105017179Y-82982143D01*
X105020848Y-82973283D01*
X105027156Y-82960285D01*
X105027347Y-82957595D01*
X105028378Y-82955107D01*
X105029819Y-82940475D01*
X105028560Y-82761386D01*
X105029230Y-82759379D01*
X105028471Y-82748706D01*
X105028378Y-82735367D01*
X105027347Y-82732878D01*
X105027156Y-82730189D01*
X105021901Y-82716458D01*
X104973212Y-82621909D01*
X104969561Y-82613093D01*
X104967176Y-82610187D01*
X104966450Y-82608777D01*
X104964953Y-82607478D01*
X104960233Y-82601728D01*
X104869909Y-82513132D01*
X104867509Y-82509131D01*
X104860645Y-82504045D01*
X104853628Y-82497162D01*
X104848476Y-82495028D01*
X104843997Y-82491709D01*
X104830151Y-82486762D01*
X104643785Y-82441521D01*
X104636117Y-82438345D01*
X104627002Y-82437447D01*
X104625131Y-82436993D01*
X104624038Y-82437155D01*
X104621485Y-82436904D01*
X104293048Y-82438264D01*
X104284506Y-82436993D01*
X104275413Y-82438337D01*
X104273520Y-82438345D01*
X104272498Y-82438767D01*
X104269962Y-82439143D01*
X104087971Y-82485964D01*
X104083045Y-82485964D01*
X104074968Y-82489309D01*
X104065640Y-82491709D01*
X104061161Y-82495027D01*
X104056008Y-82497162D01*
X104044643Y-82506490D01*
X103950711Y-82602252D01*
X103943188Y-82608777D01*
X103941175Y-82611973D01*
X103940078Y-82613093D01*
X103939320Y-82614920D01*
X103935356Y-82621220D01*
X103893681Y-82707108D01*
X103892459Y-82708331D01*
X103888786Y-82717196D01*
X103882482Y-82730190D01*
X103882291Y-82732877D01*
X103881260Y-82735367D01*
X103879819Y-82749999D01*
X103768708Y-82749999D01*
X103768708Y-82178491D01*
X103879819Y-82178491D01*
X103885498Y-82207199D01*
X103901731Y-82231548D01*
X103926046Y-82247831D01*
X103954740Y-82253570D01*
X103983448Y-82247891D01*
X103996421Y-82240974D01*
X104454924Y-81934520D01*
X104926190Y-82247891D01*
X104954898Y-82253570D01*
X104983592Y-82247831D01*
X105007907Y-82231548D01*
X105024140Y-82207199D01*
X105029819Y-82178491D01*
X105024080Y-82149797D01*
X105007797Y-82125482D01*
X104996421Y-82116166D01*
X104588743Y-81845078D01*
X105007797Y-81564992D01*
X105024080Y-81540677D01*
X105029819Y-81511983D01*
X105024140Y-81483275D01*
X105007907Y-81458926D01*
X104983592Y-81442643D01*
X104954898Y-81436904D01*
X104926190Y-81442583D01*
X104913216Y-81449500D01*
X104454713Y-81755953D01*
X103983448Y-81442583D01*
X103954740Y-81436904D01*
X103926046Y-81442643D01*
X103901731Y-81458926D01*
X103885498Y-81483275D01*
X103879819Y-81511983D01*
X103885558Y-81540677D01*
X103901841Y-81564992D01*
X103913217Y-81574308D01*
X104320894Y-81845395D01*
X103901841Y-82125482D01*
X103885558Y-82149797D01*
X103879819Y-82178491D01*
X103768708Y-82178491D01*
X103768708Y-81325793D01*
X105140930Y-81325793D01*
X105140930Y-88078967D01*
G37*
X124511905Y-75704819D02*
X124511905Y-74704819D01*
X124511905Y-74704819D02*
X124750000Y-74704819D01*
X124750000Y-74704819D02*
X124892857Y-74752438D01*
X124892857Y-74752438D02*
X124988095Y-74847676D01*
X124988095Y-74847676D02*
X125035714Y-74942914D01*
X125035714Y-74942914D02*
X125083333Y-75133390D01*
X125083333Y-75133390D02*
X125083333Y-75276247D01*
X125083333Y-75276247D02*
X125035714Y-75466723D01*
X125035714Y-75466723D02*
X124988095Y-75561961D01*
X124988095Y-75561961D02*
X124892857Y-75657200D01*
X124892857Y-75657200D02*
X124750000Y-75704819D01*
X124750000Y-75704819D02*
X124511905Y-75704819D01*
X125940476Y-75038152D02*
X125940476Y-75704819D01*
X125702381Y-74657200D02*
X125464286Y-75371485D01*
X125464286Y-75371485D02*
X126083333Y-75371485D01*
G36*
X130209331Y-75890930D02*
G01*
X126839140Y-75890930D01*
X126839140Y-75624211D01*
X126950251Y-75624211D01*
X126961449Y-75651247D01*
X126970776Y-75662612D01*
X127019811Y-75709953D01*
X127025445Y-75716450D01*
X127028590Y-75718429D01*
X127029761Y-75719560D01*
X127031588Y-75720317D01*
X127037888Y-75724282D01*
X127123777Y-75765957D01*
X127124999Y-75767179D01*
X127133858Y-75770848D01*
X127146857Y-75777156D01*
X127149546Y-75777347D01*
X127152035Y-75778378D01*
X127166667Y-75779819D01*
X127440821Y-75778503D01*
X127443000Y-75779230D01*
X127454120Y-75778439D01*
X127467013Y-75778378D01*
X127469502Y-75777346D01*
X127472190Y-75777156D01*
X127485922Y-75771901D01*
X127580476Y-75723209D01*
X127589287Y-75719560D01*
X127592189Y-75717177D01*
X127593603Y-75716450D01*
X127594903Y-75714950D01*
X127600653Y-75710232D01*
X127637725Y-75671832D01*
X127950251Y-75671832D01*
X127955288Y-75683991D01*
X127961450Y-75698868D01*
X127970777Y-75710233D01*
X128029761Y-75767179D01*
X128056797Y-75778378D01*
X128056798Y-75778378D01*
X128086060Y-75778378D01*
X128086061Y-75778378D01*
X128113097Y-75767179D01*
X128124462Y-75757852D01*
X128181408Y-75698868D01*
X128192607Y-75671832D01*
X128192607Y-75642569D01*
X128192561Y-75642459D01*
X128185003Y-75624211D01*
X128378822Y-75624211D01*
X128390020Y-75651247D01*
X128399347Y-75662612D01*
X128448382Y-75709953D01*
X128454016Y-75716450D01*
X128457161Y-75718429D01*
X128458332Y-75719560D01*
X128460159Y-75720317D01*
X128466459Y-75724282D01*
X128552348Y-75765957D01*
X128553570Y-75767179D01*
X128562429Y-75770848D01*
X128575428Y-75777156D01*
X128578117Y-75777347D01*
X128580606Y-75778378D01*
X128595238Y-75779819D01*
X128869392Y-75778503D01*
X128871571Y-75779230D01*
X128882691Y-75778439D01*
X128895584Y-75778378D01*
X128898073Y-75777346D01*
X128900761Y-75777156D01*
X128914493Y-75771901D01*
X129009047Y-75723209D01*
X129017858Y-75719560D01*
X129020760Y-75717177D01*
X129022174Y-75716450D01*
X129023474Y-75714950D01*
X129029224Y-75710232D01*
X129076565Y-75661195D01*
X129083059Y-75655564D01*
X129085038Y-75652418D01*
X129086170Y-75651247D01*
X129086927Y-75649417D01*
X129090891Y-75643121D01*
X129132566Y-75557231D01*
X129133788Y-75556010D01*
X129137457Y-75547150D01*
X129143765Y-75534152D01*
X129143956Y-75531462D01*
X129144987Y-75528974D01*
X129146428Y-75514342D01*
X129145135Y-75287736D01*
X129145839Y-75285627D01*
X129145061Y-75274684D01*
X129144987Y-75261615D01*
X129143956Y-75259126D01*
X129143765Y-75256437D01*
X129138510Y-75242706D01*
X129089818Y-75148151D01*
X129086169Y-75139341D01*
X129083786Y-75136438D01*
X129083059Y-75135025D01*
X129081560Y-75133725D01*
X129076842Y-75127976D01*
X129027806Y-75080634D01*
X129022174Y-75074140D01*
X129019028Y-75072160D01*
X129017858Y-75071030D01*
X129016030Y-75070272D01*
X129009731Y-75066308D01*
X128923842Y-75024633D01*
X128922620Y-75023411D01*
X128913754Y-75019738D01*
X128900761Y-75013434D01*
X128900472Y-75013413D01*
X129125655Y-74754619D01*
X129133788Y-74746487D01*
X129134747Y-74744170D01*
X129136422Y-74742246D01*
X129140323Y-74730708D01*
X129144987Y-74719451D01*
X129144987Y-74716920D01*
X129145797Y-74714525D01*
X129145775Y-74714199D01*
X129282732Y-74714199D01*
X129285992Y-74728536D01*
X129617769Y-75719413D01*
X129618140Y-75724629D01*
X129622304Y-75732959D01*
X129625319Y-75741961D01*
X129628829Y-75746008D01*
X129631226Y-75750802D01*
X129638334Y-75756967D01*
X129644493Y-75764068D01*
X129649282Y-75766462D01*
X129653333Y-75769976D01*
X129662258Y-75772950D01*
X129670666Y-75777155D01*
X129676010Y-75777534D01*
X129681096Y-75779230D01*
X129690476Y-75778563D01*
X129699856Y-75779230D01*
X129704941Y-75777534D01*
X129710286Y-75777155D01*
X129718696Y-75772949D01*
X129727618Y-75769976D01*
X129731665Y-75766465D01*
X129736459Y-75764069D01*
X129742622Y-75756963D01*
X129749726Y-75750802D01*
X129752121Y-75746010D01*
X129755633Y-75741962D01*
X129761627Y-75728536D01*
X130098220Y-74714200D01*
X130096145Y-74685010D01*
X130083059Y-74658836D01*
X130060951Y-74639662D01*
X130033189Y-74630408D01*
X130003999Y-74632483D01*
X129977826Y-74645570D01*
X129958652Y-74667677D01*
X129952658Y-74681102D01*
X129690908Y-75469895D01*
X129422300Y-74667676D01*
X129403126Y-74645569D01*
X129376953Y-74632483D01*
X129347763Y-74630408D01*
X129320000Y-74639662D01*
X129297893Y-74658836D01*
X129284807Y-74685009D01*
X129282732Y-74714199D01*
X129145775Y-74714199D01*
X129144987Y-74702371D01*
X129144987Y-74690187D01*
X129144019Y-74687850D01*
X129143851Y-74685327D01*
X129138448Y-74674401D01*
X129133788Y-74663151D01*
X129132001Y-74661364D01*
X129130879Y-74659095D01*
X129121706Y-74651069D01*
X129113096Y-74642459D01*
X129110759Y-74641490D01*
X129108855Y-74639825D01*
X129097317Y-74635923D01*
X129086060Y-74631260D01*
X129082489Y-74630908D01*
X129081134Y-74630450D01*
X129079166Y-74630581D01*
X129071428Y-74629819D01*
X128437749Y-74631260D01*
X128410713Y-74642459D01*
X128390021Y-74663151D01*
X128378822Y-74690187D01*
X128378822Y-74719451D01*
X128390021Y-74746487D01*
X128410713Y-74767179D01*
X128437749Y-74778378D01*
X128452381Y-74779819D01*
X128907652Y-74778783D01*
X128683867Y-75035970D01*
X128675735Y-75044103D01*
X128674775Y-75046419D01*
X128673101Y-75048344D01*
X128669199Y-75059881D01*
X128664536Y-75071139D01*
X128664536Y-75073669D01*
X128663726Y-75076065D01*
X128664536Y-75088218D01*
X128664536Y-75100403D01*
X128665503Y-75102739D01*
X128665672Y-75105263D01*
X128671074Y-75116188D01*
X128675735Y-75127439D01*
X128677521Y-75129225D01*
X128678644Y-75131495D01*
X128687816Y-75139520D01*
X128696427Y-75148131D01*
X128698763Y-75149099D01*
X128700668Y-75150765D01*
X128712205Y-75154666D01*
X128723463Y-75159330D01*
X128727033Y-75159681D01*
X128728389Y-75160140D01*
X128730356Y-75160008D01*
X128738095Y-75160771D01*
X128861404Y-75159642D01*
X128929786Y-75192823D01*
X128961113Y-75223067D01*
X128996516Y-75291818D01*
X128997672Y-75494554D01*
X128964376Y-75563175D01*
X128934130Y-75594504D01*
X128865408Y-75629893D01*
X128615089Y-75631094D01*
X128546404Y-75597767D01*
X128494049Y-75547220D01*
X128467013Y-75536021D01*
X128437750Y-75536021D01*
X128410714Y-75547219D01*
X128390021Y-75567912D01*
X128378822Y-75594948D01*
X128378822Y-75624211D01*
X128185003Y-75624211D01*
X128181409Y-75615533D01*
X128172081Y-75604167D01*
X128113097Y-75547220D01*
X128113096Y-75547219D01*
X128097259Y-75540659D01*
X128086061Y-75536021D01*
X128086060Y-75536021D01*
X128056797Y-75536021D01*
X128045599Y-75540659D01*
X128029762Y-75547219D01*
X128029761Y-75547220D01*
X128018395Y-75556548D01*
X127961449Y-75615533D01*
X127950251Y-75642569D01*
X127950251Y-75671832D01*
X127637725Y-75671832D01*
X127647994Y-75661195D01*
X127654488Y-75655564D01*
X127656467Y-75652418D01*
X127657599Y-75651247D01*
X127658356Y-75649417D01*
X127662320Y-75643121D01*
X127703995Y-75557231D01*
X127705217Y-75556010D01*
X127708886Y-75547150D01*
X127715194Y-75534152D01*
X127715385Y-75531462D01*
X127716416Y-75528974D01*
X127717857Y-75514342D01*
X127716564Y-75287736D01*
X127717268Y-75285627D01*
X127716490Y-75274684D01*
X127716416Y-75261615D01*
X127715385Y-75259126D01*
X127715194Y-75256437D01*
X127709939Y-75242706D01*
X127661247Y-75148151D01*
X127657598Y-75139341D01*
X127655215Y-75136438D01*
X127654488Y-75135025D01*
X127652989Y-75133725D01*
X127648271Y-75127976D01*
X127599235Y-75080634D01*
X127593603Y-75074140D01*
X127590457Y-75072160D01*
X127589287Y-75071030D01*
X127587459Y-75070272D01*
X127581160Y-75066308D01*
X127495271Y-75024633D01*
X127494049Y-75023411D01*
X127485183Y-75019738D01*
X127472190Y-75013434D01*
X127471901Y-75013413D01*
X127697084Y-74754619D01*
X127705217Y-74746487D01*
X127706176Y-74744170D01*
X127707851Y-74742246D01*
X127711752Y-74730708D01*
X127716416Y-74719451D01*
X127716416Y-74716920D01*
X127717226Y-74714525D01*
X127716416Y-74702371D01*
X127716416Y-74690187D01*
X127715448Y-74687850D01*
X127715280Y-74685327D01*
X127709877Y-74674401D01*
X127705217Y-74663151D01*
X127703430Y-74661364D01*
X127702308Y-74659095D01*
X127693135Y-74651069D01*
X127684525Y-74642459D01*
X127682188Y-74641490D01*
X127680284Y-74639825D01*
X127668746Y-74635923D01*
X127657489Y-74631260D01*
X127653918Y-74630908D01*
X127652563Y-74630450D01*
X127650595Y-74630581D01*
X127642857Y-74629819D01*
X127009178Y-74631260D01*
X126982142Y-74642459D01*
X126961450Y-74663151D01*
X126950251Y-74690187D01*
X126950251Y-74719451D01*
X126961450Y-74746487D01*
X126982142Y-74767179D01*
X127009178Y-74778378D01*
X127023810Y-74779819D01*
X127479081Y-74778783D01*
X127255296Y-75035970D01*
X127247164Y-75044103D01*
X127246204Y-75046419D01*
X127244530Y-75048344D01*
X127240628Y-75059881D01*
X127235965Y-75071139D01*
X127235965Y-75073669D01*
X127235155Y-75076065D01*
X127235965Y-75088218D01*
X127235965Y-75100403D01*
X127236932Y-75102739D01*
X127237101Y-75105263D01*
X127242503Y-75116188D01*
X127247164Y-75127439D01*
X127248950Y-75129225D01*
X127250073Y-75131495D01*
X127259245Y-75139520D01*
X127267856Y-75148131D01*
X127270192Y-75149099D01*
X127272097Y-75150765D01*
X127283634Y-75154666D01*
X127294892Y-75159330D01*
X127298462Y-75159681D01*
X127299818Y-75160140D01*
X127301785Y-75160008D01*
X127309524Y-75160771D01*
X127432833Y-75159642D01*
X127501215Y-75192823D01*
X127532542Y-75223067D01*
X127567945Y-75291818D01*
X127569101Y-75494554D01*
X127535805Y-75563175D01*
X127505559Y-75594504D01*
X127436837Y-75629893D01*
X127186518Y-75631094D01*
X127117833Y-75597767D01*
X127065478Y-75547220D01*
X127038442Y-75536021D01*
X127009179Y-75536021D01*
X126982143Y-75547219D01*
X126961450Y-75567912D01*
X126950251Y-75594948D01*
X126950251Y-75624211D01*
X126839140Y-75624211D01*
X126839140Y-74518708D01*
X130209331Y-74518708D01*
X130209331Y-75890930D01*
G37*
X124988095Y-94002438D02*
X124892857Y-93954819D01*
X124892857Y-93954819D02*
X124750000Y-93954819D01*
X124750000Y-93954819D02*
X124607143Y-94002438D01*
X124607143Y-94002438D02*
X124511905Y-94097676D01*
X124511905Y-94097676D02*
X124464286Y-94192914D01*
X124464286Y-94192914D02*
X124416667Y-94383390D01*
X124416667Y-94383390D02*
X124416667Y-94526247D01*
X124416667Y-94526247D02*
X124464286Y-94716723D01*
X124464286Y-94716723D02*
X124511905Y-94811961D01*
X124511905Y-94811961D02*
X124607143Y-94907200D01*
X124607143Y-94907200D02*
X124750000Y-94954819D01*
X124750000Y-94954819D02*
X124845238Y-94954819D01*
X124845238Y-94954819D02*
X124988095Y-94907200D01*
X124988095Y-94907200D02*
X125035714Y-94859580D01*
X125035714Y-94859580D02*
X125035714Y-94526247D01*
X125035714Y-94526247D02*
X124845238Y-94526247D01*
X125464286Y-94954819D02*
X125464286Y-93954819D01*
X125464286Y-93954819D02*
X126035714Y-94954819D01*
X126035714Y-94954819D02*
X126035714Y-93954819D01*
X126511905Y-94954819D02*
X126511905Y-93954819D01*
X126511905Y-93954819D02*
X126750000Y-93954819D01*
X126750000Y-93954819D02*
X126892857Y-94002438D01*
X126892857Y-94002438D02*
X126988095Y-94097676D01*
X126988095Y-94097676D02*
X127035714Y-94192914D01*
X127035714Y-94192914D02*
X127083333Y-94383390D01*
X127083333Y-94383390D02*
X127083333Y-94526247D01*
X127083333Y-94526247D02*
X127035714Y-94716723D01*
X127035714Y-94716723D02*
X126988095Y-94811961D01*
X126988095Y-94811961D02*
X126892857Y-94907200D01*
X126892857Y-94907200D02*
X126750000Y-94954819D01*
X126750000Y-94954819D02*
X126511905Y-94954819D01*
X116738095Y-89632119D02*
X116738095Y-90441642D01*
X116738095Y-90441642D02*
X116785714Y-90536880D01*
X116785714Y-90536880D02*
X116833333Y-90584500D01*
X116833333Y-90584500D02*
X116928571Y-90632119D01*
X116928571Y-90632119D02*
X117119047Y-90632119D01*
X117119047Y-90632119D02*
X117214285Y-90584500D01*
X117214285Y-90584500D02*
X117261904Y-90536880D01*
X117261904Y-90536880D02*
X117309523Y-90441642D01*
X117309523Y-90441642D02*
X117309523Y-89632119D01*
X118309523Y-90632119D02*
X117738095Y-90632119D01*
X118023809Y-90632119D02*
X118023809Y-89632119D01*
X118023809Y-89632119D02*
X117928571Y-89774976D01*
X117928571Y-89774976D02*
X117833333Y-89870214D01*
X117833333Y-89870214D02*
X117738095Y-89917833D01*
X132666666Y-90454819D02*
X132666666Y-91169104D01*
X132666666Y-91169104D02*
X132619047Y-91311961D01*
X132619047Y-91311961D02*
X132523809Y-91407200D01*
X132523809Y-91407200D02*
X132380952Y-91454819D01*
X132380952Y-91454819D02*
X132285714Y-91454819D01*
X133666666Y-91454819D02*
X133095238Y-91454819D01*
X133380952Y-91454819D02*
X133380952Y-90454819D01*
X133380952Y-90454819D02*
X133285714Y-90597676D01*
X133285714Y-90597676D02*
X133190476Y-90692914D01*
X133190476Y-90692914D02*
X133095238Y-90740533D01*
X108261905Y-75704819D02*
X108261905Y-74704819D01*
X108261905Y-74704819D02*
X108500000Y-74704819D01*
X108500000Y-74704819D02*
X108642857Y-74752438D01*
X108642857Y-74752438D02*
X108738095Y-74847676D01*
X108738095Y-74847676D02*
X108785714Y-74942914D01*
X108785714Y-74942914D02*
X108833333Y-75133390D01*
X108833333Y-75133390D02*
X108833333Y-75276247D01*
X108833333Y-75276247D02*
X108785714Y-75466723D01*
X108785714Y-75466723D02*
X108738095Y-75561961D01*
X108738095Y-75561961D02*
X108642857Y-75657200D01*
X108642857Y-75657200D02*
X108500000Y-75704819D01*
X108500000Y-75704819D02*
X108261905Y-75704819D01*
X109214286Y-74800057D02*
X109261905Y-74752438D01*
X109261905Y-74752438D02*
X109357143Y-74704819D01*
X109357143Y-74704819D02*
X109595238Y-74704819D01*
X109595238Y-74704819D02*
X109690476Y-74752438D01*
X109690476Y-74752438D02*
X109738095Y-74800057D01*
X109738095Y-74800057D02*
X109785714Y-74895295D01*
X109785714Y-74895295D02*
X109785714Y-74990533D01*
X109785714Y-74990533D02*
X109738095Y-75133390D01*
X109738095Y-75133390D02*
X109166667Y-75704819D01*
X109166667Y-75704819D02*
X109785714Y-75704819D01*
G36*
X113471236Y-75890930D02*
G01*
X110624002Y-75890930D01*
X110624002Y-74981152D01*
X110735113Y-74981152D01*
X110737187Y-75010342D01*
X110750274Y-75036517D01*
X110772382Y-75055690D01*
X110800143Y-75064944D01*
X110829333Y-75062870D01*
X110843065Y-75057615D01*
X110937621Y-75008922D01*
X110946430Y-75005274D01*
X110949332Y-75002891D01*
X110950746Y-75002164D01*
X110952045Y-75000665D01*
X110957795Y-74995947D01*
X111020560Y-74931958D01*
X111021552Y-75630702D01*
X110794892Y-75631260D01*
X110767856Y-75642459D01*
X110747164Y-75663151D01*
X110735965Y-75690187D01*
X110735965Y-75719451D01*
X110747164Y-75746487D01*
X110767856Y-75767179D01*
X110794892Y-75778378D01*
X110809524Y-75779819D01*
X111395584Y-75778378D01*
X111422620Y-75767179D01*
X111443312Y-75746487D01*
X111454511Y-75719451D01*
X111640727Y-75719451D01*
X111651926Y-75746487D01*
X111672618Y-75767179D01*
X111699654Y-75778378D01*
X111714286Y-75779819D01*
X112347965Y-75778378D01*
X112375001Y-75767179D01*
X112395693Y-75746487D01*
X112406892Y-75719451D01*
X112406892Y-75690187D01*
X112395693Y-75663151D01*
X112375001Y-75642459D01*
X112347965Y-75631260D01*
X112333333Y-75629819D01*
X111893908Y-75630818D01*
X112329420Y-75193778D01*
X112331697Y-75192640D01*
X112339368Y-75183795D01*
X112348075Y-75175058D01*
X112349106Y-75172567D01*
X112350871Y-75170533D01*
X112356865Y-75157107D01*
X112403014Y-75014525D01*
X112406892Y-75005165D01*
X112407262Y-75001401D01*
X112407744Y-74999914D01*
X112407603Y-74997939D01*
X112408333Y-74990533D01*
X112407227Y-74906225D01*
X112407744Y-74904675D01*
X112407085Y-74895404D01*
X112406892Y-74880663D01*
X112405861Y-74878174D01*
X112405670Y-74875485D01*
X112400415Y-74861754D01*
X112351723Y-74767199D01*
X112348074Y-74758389D01*
X112345691Y-74755486D01*
X112344964Y-74754073D01*
X112343465Y-74752773D01*
X112338747Y-74747024D01*
X112304747Y-74714199D01*
X112544637Y-74714199D01*
X112547897Y-74728536D01*
X112879674Y-75719413D01*
X112880045Y-75724629D01*
X112884209Y-75732959D01*
X112887224Y-75741961D01*
X112890734Y-75746008D01*
X112893131Y-75750802D01*
X112900239Y-75756967D01*
X112906398Y-75764068D01*
X112911187Y-75766462D01*
X112915238Y-75769976D01*
X112924163Y-75772950D01*
X112932571Y-75777155D01*
X112937915Y-75777534D01*
X112943001Y-75779230D01*
X112952381Y-75778563D01*
X112961761Y-75779230D01*
X112966846Y-75777534D01*
X112972191Y-75777155D01*
X112980601Y-75772949D01*
X112989523Y-75769976D01*
X112993570Y-75766465D01*
X112998364Y-75764069D01*
X113004527Y-75756963D01*
X113011631Y-75750802D01*
X113014026Y-75746010D01*
X113017538Y-75741962D01*
X113023532Y-75728536D01*
X113360125Y-74714200D01*
X113358050Y-74685010D01*
X113344964Y-74658836D01*
X113322856Y-74639662D01*
X113295094Y-74630408D01*
X113265904Y-74632483D01*
X113239731Y-74645570D01*
X113220557Y-74667677D01*
X113214563Y-74681102D01*
X112952813Y-75469895D01*
X112684205Y-74667676D01*
X112665031Y-74645569D01*
X112638858Y-74632483D01*
X112609668Y-74630408D01*
X112581905Y-74639662D01*
X112559798Y-74658836D01*
X112546712Y-74685009D01*
X112544637Y-74714199D01*
X112304747Y-74714199D01*
X112289711Y-74699682D01*
X112284079Y-74693188D01*
X112280933Y-74691208D01*
X112279763Y-74690078D01*
X112277935Y-74689320D01*
X112271636Y-74685356D01*
X112185747Y-74643681D01*
X112184525Y-74642459D01*
X112175659Y-74638786D01*
X112162666Y-74632482D01*
X112159978Y-74632291D01*
X112157489Y-74631260D01*
X112142857Y-74629819D01*
X111916251Y-74631111D01*
X111914142Y-74630408D01*
X111903199Y-74631185D01*
X111890130Y-74631260D01*
X111887641Y-74632290D01*
X111884952Y-74632482D01*
X111871221Y-74637737D01*
X111776666Y-74686428D01*
X111767856Y-74690078D01*
X111764953Y-74692460D01*
X111763540Y-74693188D01*
X111762240Y-74694686D01*
X111756491Y-74699405D01*
X111699545Y-74758389D01*
X111688346Y-74785426D01*
X111688346Y-74814688D01*
X111699545Y-74841725D01*
X111720237Y-74862417D01*
X111747274Y-74873616D01*
X111776536Y-74873616D01*
X111803573Y-74862417D01*
X111814938Y-74853090D01*
X111851582Y-74815133D01*
X111920333Y-74779730D01*
X112123069Y-74778574D01*
X112191691Y-74811871D01*
X112223018Y-74842115D01*
X112258540Y-74911096D01*
X112259384Y-74975459D01*
X112221945Y-75091130D01*
X111651926Y-75663151D01*
X111640727Y-75690187D01*
X111640727Y-75719451D01*
X111454511Y-75719451D01*
X111454511Y-75690187D01*
X111443312Y-75663151D01*
X111422620Y-75642459D01*
X111395584Y-75631260D01*
X111380952Y-75629819D01*
X111170132Y-75630337D01*
X111168827Y-74711868D01*
X111170238Y-74704740D01*
X111168807Y-74697587D01*
X111168797Y-74690187D01*
X111165955Y-74683326D01*
X111164499Y-74676045D01*
X111160409Y-74669938D01*
X111157598Y-74663151D01*
X111152349Y-74657902D01*
X111148216Y-74651730D01*
X111142099Y-74647652D01*
X111136906Y-74642459D01*
X111130046Y-74639617D01*
X111123867Y-74635498D01*
X111116658Y-74634072D01*
X111109870Y-74631260D01*
X111102443Y-74631260D01*
X111095159Y-74629819D01*
X111087954Y-74631260D01*
X111080606Y-74631260D01*
X111073745Y-74634101D01*
X111066465Y-74635558D01*
X111060359Y-74639646D01*
X111053570Y-74642459D01*
X111048319Y-74647709D01*
X111042150Y-74651841D01*
X111032929Y-74663099D01*
X111032878Y-74663151D01*
X111032868Y-74663173D01*
X111032834Y-74663216D01*
X110946092Y-74795534D01*
X110863358Y-74879880D01*
X110763540Y-74931283D01*
X110744367Y-74953391D01*
X110735113Y-74981152D01*
X110624002Y-74981152D01*
X110624002Y-74518708D01*
X113471236Y-74518708D01*
X113471236Y-75890930D01*
G37*
D11*
%TO.C,G\u002A\u002A\u002A*%
G36*
X118695828Y-94135125D02*
G01*
X118693549Y-94137404D01*
X118691270Y-94135125D01*
X118693549Y-94132846D01*
X118695828Y-94135125D01*
G37*
G36*
X118704943Y-94176144D02*
G01*
X118702665Y-94178423D01*
X118700386Y-94176144D01*
X118702665Y-94173865D01*
X118704943Y-94176144D01*
G37*
G36*
X118723174Y-94249067D02*
G01*
X118720895Y-94251346D01*
X118718617Y-94249067D01*
X118720895Y-94246788D01*
X118723174Y-94249067D01*
G37*
G36*
X118782424Y-93802413D02*
G01*
X118780145Y-93804692D01*
X118777867Y-93802413D01*
X118780145Y-93800135D01*
X118782424Y-93802413D01*
G37*
G36*
X118805213Y-94043971D02*
G01*
X118802934Y-94046250D01*
X118800655Y-94043971D01*
X118802934Y-94041692D01*
X118805213Y-94043971D01*
G37*
G36*
X118832559Y-93697587D02*
G01*
X118830280Y-93699865D01*
X118828001Y-93697587D01*
X118830280Y-93695308D01*
X118832559Y-93697587D01*
G37*
G36*
X118841674Y-93843433D02*
G01*
X118839395Y-93845711D01*
X118837116Y-93843433D01*
X118839395Y-93841154D01*
X118841674Y-93843433D01*
G37*
G36*
X118878136Y-93346645D02*
G01*
X118875857Y-93348923D01*
X118873578Y-93346645D01*
X118875857Y-93344366D01*
X118878136Y-93346645D01*
G37*
G36*
X118878136Y-94558990D02*
G01*
X118875857Y-94561269D01*
X118873578Y-94558990D01*
X118875857Y-94556711D01*
X118878136Y-94558990D01*
G37*
G36*
X118973847Y-92498914D02*
G01*
X118971568Y-92501193D01*
X118969289Y-92498914D01*
X118971568Y-92496636D01*
X118973847Y-92498914D01*
G37*
G36*
X118982963Y-92603741D02*
G01*
X118980684Y-92606020D01*
X118978405Y-92603741D01*
X118980684Y-92601462D01*
X118982963Y-92603741D01*
G37*
G36*
X118996636Y-94718509D02*
G01*
X118994357Y-94720788D01*
X118992078Y-94718509D01*
X118994357Y-94716230D01*
X118996636Y-94718509D01*
G37*
G36*
X119010309Y-93132433D02*
G01*
X119008030Y-93134712D01*
X119005751Y-93132433D01*
X119008030Y-93130154D01*
X119010309Y-93132433D01*
G37*
G36*
X119137924Y-94827893D02*
G01*
X119135645Y-94830172D01*
X119133366Y-94827893D01*
X119135645Y-94825615D01*
X119137924Y-94827893D01*
G37*
G36*
X119160712Y-94887143D02*
G01*
X119158434Y-94889422D01*
X119156155Y-94887143D01*
X119158434Y-94884865D01*
X119160712Y-94887143D01*
G37*
G36*
X119384039Y-95014759D02*
G01*
X119381760Y-95017038D01*
X119379481Y-95014759D01*
X119381760Y-95012480D01*
X119384039Y-95014759D01*
G37*
G36*
X119776000Y-95283662D02*
G01*
X119773722Y-95285941D01*
X119771443Y-95283662D01*
X119773722Y-95281383D01*
X119776000Y-95283662D01*
G37*
G36*
X120067692Y-95424951D02*
G01*
X120065414Y-95427230D01*
X120063135Y-95424951D01*
X120065414Y-95422672D01*
X120067692Y-95424951D01*
G37*
G36*
X120095039Y-95420393D02*
G01*
X120092760Y-95422672D01*
X120090481Y-95420393D01*
X120092760Y-95418114D01*
X120095039Y-95420393D01*
G37*
G36*
X120108712Y-95420393D02*
G01*
X120106433Y-95422672D01*
X120104154Y-95420393D01*
X120106433Y-95418114D01*
X120108712Y-95420393D01*
G37*
G36*
X120172519Y-95461412D02*
G01*
X120170240Y-95463691D01*
X120167962Y-95461412D01*
X120170240Y-95459133D01*
X120172519Y-95461412D01*
G37*
G36*
X120281904Y-93428683D02*
G01*
X120279625Y-93430962D01*
X120277346Y-93428683D01*
X120279625Y-93426404D01*
X120281904Y-93428683D01*
G37*
G36*
X120455096Y-92316607D02*
G01*
X120452817Y-92318886D01*
X120450538Y-92316607D01*
X120452817Y-92314328D01*
X120455096Y-92316607D01*
G37*
G36*
X120564481Y-95311008D02*
G01*
X120562202Y-95313287D01*
X120559923Y-95311008D01*
X120562202Y-95308730D01*
X120564481Y-95311008D01*
G37*
G36*
X120569038Y-95301893D02*
G01*
X120566759Y-95304172D01*
X120564481Y-95301893D01*
X120566759Y-95299614D01*
X120569038Y-95301893D01*
G37*
G36*
X120578154Y-95288220D02*
G01*
X120575875Y-95290499D01*
X120573596Y-95288220D01*
X120575875Y-95285941D01*
X120578154Y-95288220D01*
G37*
G36*
X120824269Y-93943702D02*
G01*
X120821990Y-93945981D01*
X120819711Y-93943702D01*
X120821990Y-93941423D01*
X120824269Y-93943702D01*
G37*
G36*
X120906307Y-94991970D02*
G01*
X120904028Y-94994249D01*
X120901750Y-94991970D01*
X120904028Y-94989691D01*
X120906307Y-94991970D01*
G37*
G36*
X121248134Y-92453338D02*
G01*
X121245855Y-92455616D01*
X121243576Y-92453338D01*
X121245855Y-92451059D01*
X121248134Y-92453338D01*
G37*
G36*
X121302826Y-93323856D02*
G01*
X121300547Y-93326135D01*
X121298268Y-93323856D01*
X121300547Y-93321577D01*
X121302826Y-93323856D01*
G37*
G36*
X121421326Y-93004818D02*
G01*
X121419047Y-93007097D01*
X121416768Y-93004818D01*
X121419047Y-93002539D01*
X121421326Y-93004818D01*
G37*
G36*
X121430441Y-94700278D02*
G01*
X121428163Y-94702557D01*
X121425884Y-94700278D01*
X121428163Y-94697999D01*
X121430441Y-94700278D01*
G37*
G36*
X121485134Y-93013933D02*
G01*
X121482855Y-93016212D01*
X121480576Y-93013933D01*
X121482855Y-93011654D01*
X121485134Y-93013933D01*
G37*
G36*
X121517038Y-94185259D02*
G01*
X121514759Y-94187538D01*
X121512480Y-94185259D01*
X121514759Y-94182980D01*
X121517038Y-94185259D01*
G37*
G36*
X121676557Y-94021183D02*
G01*
X121674278Y-94023461D01*
X121671999Y-94021183D01*
X121674278Y-94018904D01*
X121676557Y-94021183D01*
G37*
G36*
X121740364Y-93916356D02*
G01*
X121738085Y-93918635D01*
X121735807Y-93916356D01*
X121738085Y-93914077D01*
X121740364Y-93916356D01*
G37*
G36*
X118744443Y-93924711D02*
G01*
X118743818Y-93927421D01*
X118741405Y-93927750D01*
X118737654Y-93926082D01*
X118738367Y-93924711D01*
X118743775Y-93924166D01*
X118744443Y-93924711D01*
G37*
G36*
X118790020Y-93519077D02*
G01*
X118789395Y-93521787D01*
X118786982Y-93522116D01*
X118783230Y-93520448D01*
X118783943Y-93519077D01*
X118789352Y-93518532D01*
X118790020Y-93519077D01*
G37*
G36*
X118790020Y-94476192D02*
G01*
X118790566Y-94481601D01*
X118790020Y-94482269D01*
X118787311Y-94481643D01*
X118786982Y-94479230D01*
X118788649Y-94475479D01*
X118790020Y-94476192D01*
G37*
G36*
X118944982Y-93168135D02*
G01*
X118944356Y-93170845D01*
X118941943Y-93171174D01*
X118938192Y-93169506D01*
X118938905Y-93168135D01*
X118944314Y-93167590D01*
X118944982Y-93168135D01*
G37*
G36*
X118945267Y-93150189D02*
G01*
X118943907Y-93152261D01*
X118939285Y-93152583D01*
X118934421Y-93151470D01*
X118936531Y-93149829D01*
X118943654Y-93149286D01*
X118945267Y-93150189D01*
G37*
G36*
X118963193Y-92486381D02*
G01*
X118963795Y-92495712D01*
X118963193Y-92497775D01*
X118961529Y-92498348D01*
X118960894Y-92492078D01*
X118961610Y-92485608D01*
X118963193Y-92486381D01*
G37*
G36*
X118972328Y-92511828D02*
G01*
X118972873Y-92517237D01*
X118972328Y-92517905D01*
X118969618Y-92517279D01*
X118969289Y-92514866D01*
X118970957Y-92511115D01*
X118972328Y-92511828D01*
G37*
G36*
X118972403Y-92441089D02*
G01*
X118972946Y-92448212D01*
X118972043Y-92449824D01*
X118969972Y-92448465D01*
X118969649Y-92443842D01*
X118970762Y-92438979D01*
X118972403Y-92441089D01*
G37*
G36*
X118972403Y-94583203D02*
G01*
X118972946Y-94590326D01*
X118972043Y-94591938D01*
X118969972Y-94590579D01*
X118969649Y-94585956D01*
X118970762Y-94581093D01*
X118972403Y-94583203D01*
G37*
G36*
X118995116Y-92356866D02*
G01*
X118995662Y-92362275D01*
X118995116Y-92362943D01*
X118992407Y-92362318D01*
X118992078Y-92359905D01*
X118993745Y-92356153D01*
X118995116Y-92356866D01*
G37*
G36*
X118999674Y-93195481D02*
G01*
X118999048Y-93198191D01*
X118996636Y-93198520D01*
X118992884Y-93196852D01*
X118993597Y-93195481D01*
X118999006Y-93194936D01*
X118999674Y-93195481D01*
G37*
G36*
X119004232Y-92666789D02*
G01*
X119004777Y-92672198D01*
X119004232Y-92672866D01*
X119001522Y-92672241D01*
X119001193Y-92669828D01*
X119002861Y-92666076D01*
X119004232Y-92666789D01*
G37*
G36*
X119150078Y-94859038D02*
G01*
X119150623Y-94864447D01*
X119150078Y-94865115D01*
X119147368Y-94864489D01*
X119147039Y-94862076D01*
X119148707Y-94858325D01*
X119150078Y-94859038D01*
G37*
G36*
X119195655Y-94836249D02*
G01*
X119196200Y-94841658D01*
X119195655Y-94842326D01*
X119192945Y-94841700D01*
X119192616Y-94839288D01*
X119194284Y-94835536D01*
X119195655Y-94836249D01*
G37*
G36*
X120093519Y-93468943D02*
G01*
X120092894Y-93471652D01*
X120090481Y-93471981D01*
X120086729Y-93470313D01*
X120087442Y-93468943D01*
X120092851Y-93468397D01*
X120093519Y-93468943D01*
G37*
G36*
X120116308Y-95428749D02*
G01*
X120116853Y-95434158D01*
X120116308Y-95434826D01*
X120113598Y-95434200D01*
X120113269Y-95431787D01*
X120114937Y-95428036D01*
X120116308Y-95428749D01*
G37*
G36*
X120613096Y-95273787D02*
G01*
X120613641Y-95279196D01*
X120613096Y-95279864D01*
X120610386Y-95279239D01*
X120610057Y-95276826D01*
X120611725Y-95273074D01*
X120613096Y-95273787D01*
G37*
G36*
X121269403Y-94763326D02*
G01*
X121269949Y-94768735D01*
X121269403Y-94769403D01*
X121266694Y-94768777D01*
X121266365Y-94766365D01*
X121268032Y-94762613D01*
X121269403Y-94763326D01*
G37*
G36*
X121337843Y-94692587D02*
G01*
X121338387Y-94699710D01*
X121337484Y-94701323D01*
X121335412Y-94699963D01*
X121335090Y-94695341D01*
X121336203Y-94690477D01*
X121337843Y-94692587D01*
G37*
G36*
X121383345Y-92274828D02*
G01*
X121383891Y-92280237D01*
X121383345Y-92280905D01*
X121380636Y-92280279D01*
X121380307Y-92277867D01*
X121381974Y-92274115D01*
X121383345Y-92274828D01*
G37*
G36*
X121520076Y-94498980D02*
G01*
X121520621Y-94504389D01*
X121520076Y-94505057D01*
X121517366Y-94504432D01*
X121517038Y-94502019D01*
X121518705Y-94498267D01*
X121520076Y-94498980D01*
G37*
G36*
X121547422Y-94207288D02*
G01*
X121547968Y-94212697D01*
X121547422Y-94213365D01*
X121544713Y-94212739D01*
X121544384Y-94210327D01*
X121546051Y-94206575D01*
X121547422Y-94207288D01*
G37*
G36*
X121702384Y-93860904D02*
G01*
X121702929Y-93866313D01*
X121702384Y-93866981D01*
X121699674Y-93866355D01*
X121699345Y-93863942D01*
X121701013Y-93860191D01*
X121702384Y-93860904D01*
G37*
G36*
X121707226Y-94184785D02*
G01*
X121705867Y-94186856D01*
X121701244Y-94187178D01*
X121696381Y-94186065D01*
X121698491Y-94184425D01*
X121705614Y-94183881D01*
X121707226Y-94184785D01*
G37*
G36*
X121734362Y-94063626D02*
G01*
X121734906Y-94070749D01*
X121734003Y-94072362D01*
X121731931Y-94071002D01*
X121731609Y-94066380D01*
X121732722Y-94061516D01*
X121734362Y-94063626D01*
G37*
G36*
X119228374Y-94977862D02*
G01*
X119233266Y-94982451D01*
X119232263Y-94985089D01*
X119231626Y-94985134D01*
X119227771Y-94981896D01*
X119226364Y-94979872D01*
X119225826Y-94976753D01*
X119228374Y-94977862D01*
G37*
G36*
X118736715Y-94154545D02*
G01*
X118736847Y-94155634D01*
X118733379Y-94160060D01*
X118732290Y-94160192D01*
X118727864Y-94156724D01*
X118727732Y-94155634D01*
X118731200Y-94151209D01*
X118732290Y-94151077D01*
X118736715Y-94154545D01*
G37*
G36*
X118777734Y-94236583D02*
G01*
X118777867Y-94237673D01*
X118774398Y-94242098D01*
X118773309Y-94242230D01*
X118768884Y-94238762D01*
X118768751Y-94237673D01*
X118772219Y-94233247D01*
X118773309Y-94233115D01*
X118777734Y-94236583D01*
G37*
G36*
X118814402Y-93528998D02*
G01*
X118816828Y-93534247D01*
X118813398Y-93539350D01*
X118809770Y-93540346D01*
X118803827Y-93537065D01*
X118803128Y-93536104D01*
X118803424Y-93530701D01*
X118808904Y-93527814D01*
X118814402Y-93528998D01*
G37*
G36*
X118853917Y-93429348D02*
G01*
X118853068Y-93430962D01*
X118848774Y-93435314D01*
X118847973Y-93435519D01*
X118847662Y-93432575D01*
X118848511Y-93430962D01*
X118852805Y-93426609D01*
X118853606Y-93426404D01*
X118853917Y-93429348D01*
G37*
G36*
X118855162Y-93393251D02*
G01*
X118855347Y-93394500D01*
X118853792Y-93398939D01*
X118853337Y-93399058D01*
X118849446Y-93395864D01*
X118848511Y-93394500D01*
X118848872Y-93390300D01*
X118850521Y-93389943D01*
X118855162Y-93393251D01*
G37*
G36*
X118859448Y-94496602D02*
G01*
X118859905Y-94499740D01*
X118856330Y-94505784D01*
X118853211Y-94506576D01*
X118848613Y-94503557D01*
X118849141Y-94499740D01*
X118853615Y-94493709D01*
X118855835Y-94492903D01*
X118859448Y-94496602D01*
G37*
G36*
X118982830Y-92641392D02*
G01*
X118982963Y-92642482D01*
X118979494Y-92646907D01*
X118978405Y-92647039D01*
X118973980Y-92643571D01*
X118973847Y-92642482D01*
X118977315Y-92638056D01*
X118978405Y-92637924D01*
X118982830Y-92641392D01*
G37*
G36*
X119001061Y-92714315D02*
G01*
X119001193Y-92715405D01*
X118997725Y-92719830D01*
X118996636Y-92719962D01*
X118992210Y-92716494D01*
X118992078Y-92715405D01*
X118995546Y-92710979D01*
X118996636Y-92710847D01*
X119001061Y-92714315D01*
G37*
G36*
X119010176Y-92477315D02*
G01*
X119010309Y-92478405D01*
X119006840Y-92482830D01*
X119005751Y-92482963D01*
X119001326Y-92479494D01*
X119001193Y-92478405D01*
X119004662Y-92473980D01*
X119005751Y-92473847D01*
X119010176Y-92477315D01*
G37*
G36*
X119010176Y-92532008D02*
G01*
X119010309Y-92533097D01*
X119006840Y-92537522D01*
X119005751Y-92537655D01*
X119001326Y-92534186D01*
X119001193Y-92533097D01*
X119004662Y-92528672D01*
X119005751Y-92528539D01*
X119010176Y-92532008D01*
G37*
G36*
X119119693Y-94764086D02*
G01*
X119124077Y-94769913D01*
X119124251Y-94771191D01*
X119120775Y-94775357D01*
X119119693Y-94775480D01*
X119115693Y-94771770D01*
X119115135Y-94768374D01*
X119117345Y-94763657D01*
X119119693Y-94764086D01*
G37*
G36*
X119201599Y-94856429D02*
G01*
X119201732Y-94857518D01*
X119198263Y-94861944D01*
X119197174Y-94862076D01*
X119192749Y-94858608D01*
X119192616Y-94857518D01*
X119196084Y-94853093D01*
X119197174Y-94852961D01*
X119201599Y-94856429D01*
G37*
G36*
X119258215Y-94914862D02*
G01*
X119260675Y-94922953D01*
X119258312Y-94925647D01*
X119254145Y-94925884D01*
X119248577Y-94922084D01*
X119247308Y-94916768D01*
X119249526Y-94908897D01*
X119254342Y-94908884D01*
X119258215Y-94914862D01*
G37*
G36*
X119634712Y-95201624D02*
G01*
X119639060Y-95205719D01*
X119639270Y-95206451D01*
X119635743Y-95208408D01*
X119634712Y-95208460D01*
X119630329Y-95204957D01*
X119630154Y-95203634D01*
X119632947Y-95200912D01*
X119634712Y-95201624D01*
G37*
G36*
X119657545Y-95180148D02*
G01*
X119658857Y-95182634D01*
X119657550Y-95187974D01*
X119654787Y-95188710D01*
X119649021Y-95185266D01*
X119648385Y-95182634D01*
X119650824Y-95177069D01*
X119652455Y-95176557D01*
X119657545Y-95180148D01*
G37*
G36*
X119757637Y-92586700D02*
G01*
X119757770Y-92587789D01*
X119754301Y-92592215D01*
X119753212Y-92592347D01*
X119748787Y-92588879D01*
X119748654Y-92587789D01*
X119752123Y-92583364D01*
X119753212Y-92583232D01*
X119757637Y-92586700D01*
G37*
G36*
X119794099Y-92532008D02*
G01*
X119794231Y-92533097D01*
X119790763Y-92537522D01*
X119789673Y-92537655D01*
X119785248Y-92534186D01*
X119785116Y-92533097D01*
X119788584Y-92528672D01*
X119789673Y-92528539D01*
X119794099Y-92532008D01*
G37*
G36*
X119826135Y-95306451D02*
G01*
X119830483Y-95310546D01*
X119830693Y-95311277D01*
X119827166Y-95313235D01*
X119826135Y-95313287D01*
X119821752Y-95309784D01*
X119821577Y-95308461D01*
X119824369Y-95305739D01*
X119826135Y-95306451D01*
G37*
G36*
X119975164Y-95332481D02*
G01*
X119976539Y-95336345D01*
X119973671Y-95340357D01*
X119967905Y-95338931D01*
X119964957Y-95335773D01*
X119963726Y-95329635D01*
X119964385Y-95328480D01*
X119969716Y-95328136D01*
X119975164Y-95332481D01*
G37*
G36*
X120140483Y-93407084D02*
G01*
X120140615Y-93408173D01*
X120137147Y-93412599D01*
X120136058Y-93412731D01*
X120131633Y-93409263D01*
X120131500Y-93408173D01*
X120134968Y-93403748D01*
X120136058Y-93403616D01*
X120140483Y-93407084D01*
G37*
G36*
X120140483Y-93425315D02*
G01*
X120140615Y-93426404D01*
X120137147Y-93430829D01*
X120136058Y-93430962D01*
X120131633Y-93427494D01*
X120131500Y-93426404D01*
X120134968Y-93421979D01*
X120136058Y-93421846D01*
X120140483Y-93425315D01*
G37*
G36*
X120142894Y-95448036D02*
G01*
X120154078Y-95451234D01*
X120160897Y-95454898D01*
X120162837Y-95458525D01*
X120157874Y-95458195D01*
X120147222Y-95454099D01*
X120142894Y-95452065D01*
X120129221Y-95445409D01*
X120142894Y-95448036D01*
G37*
G36*
X120167829Y-93397969D02*
G01*
X120167962Y-93399058D01*
X120164493Y-93403483D01*
X120163404Y-93403616D01*
X120158979Y-93400147D01*
X120158846Y-93399058D01*
X120162315Y-93394633D01*
X120163404Y-93394500D01*
X120167829Y-93397969D01*
G37*
G36*
X120195175Y-93388853D02*
G01*
X120195308Y-93389943D01*
X120191839Y-93394368D01*
X120190750Y-93394500D01*
X120186325Y-93391032D01*
X120186192Y-93389943D01*
X120189661Y-93385517D01*
X120190750Y-93385385D01*
X120195175Y-93388853D01*
G37*
G36*
X120258983Y-93407084D02*
G01*
X120259115Y-93408173D01*
X120255647Y-93412599D01*
X120254558Y-93412731D01*
X120250132Y-93409263D01*
X120250000Y-93408173D01*
X120253468Y-93403748D01*
X120254558Y-93403616D01*
X120258983Y-93407084D01*
G37*
G36*
X120331906Y-93443545D02*
G01*
X120332038Y-93444635D01*
X120328570Y-93449060D01*
X120327481Y-93449193D01*
X120323055Y-93445724D01*
X120322923Y-93444635D01*
X120326391Y-93440210D01*
X120327481Y-93440077D01*
X120331906Y-93443545D01*
G37*
G36*
X120395714Y-93461776D02*
G01*
X120395846Y-93462866D01*
X120392378Y-93467291D01*
X120391288Y-93467423D01*
X120386863Y-93463955D01*
X120386731Y-93462866D01*
X120390199Y-93458440D01*
X120391288Y-93458308D01*
X120395714Y-93461776D01*
G37*
G36*
X120603650Y-95265362D02*
G01*
X120603221Y-95267710D01*
X120597394Y-95272094D01*
X120596115Y-95272268D01*
X120591949Y-95268792D01*
X120591827Y-95267710D01*
X120595536Y-95263711D01*
X120598932Y-95263153D01*
X120603650Y-95265362D01*
G37*
G36*
X120759690Y-95201806D02*
G01*
X120760461Y-95203903D01*
X120756770Y-95207946D01*
X120753625Y-95208460D01*
X120747559Y-95205999D01*
X120746788Y-95203903D01*
X120750480Y-95199859D01*
X120753625Y-95199345D01*
X120759690Y-95201806D01*
G37*
G36*
X120841069Y-93930145D02*
G01*
X120838523Y-93933447D01*
X120831871Y-93940533D01*
X120828901Y-93940502D01*
X120828827Y-93939702D01*
X120831941Y-93935898D01*
X120836802Y-93931726D01*
X120842201Y-93927785D01*
X120841069Y-93930145D01*
G37*
G36*
X121105875Y-94883981D02*
G01*
X121106846Y-94889153D01*
X121104986Y-94896704D01*
X121102288Y-94898538D01*
X121098200Y-94894866D01*
X121097730Y-94891970D01*
X121100508Y-94884210D01*
X121102288Y-94882586D01*
X121105875Y-94883981D01*
G37*
G36*
X121188751Y-93425315D02*
G01*
X121188884Y-93426404D01*
X121185416Y-93430829D01*
X121184326Y-93430962D01*
X121179901Y-93427494D01*
X121179769Y-93426404D01*
X121183237Y-93421979D01*
X121184326Y-93421846D01*
X121188751Y-93425315D01*
G37*
G36*
X121216098Y-93425315D02*
G01*
X121216230Y-93426404D01*
X121212762Y-93430829D01*
X121211672Y-93430962D01*
X121207247Y-93427494D01*
X121207115Y-93426404D01*
X121210583Y-93421979D01*
X121211672Y-93421846D01*
X121216098Y-93425315D01*
G37*
G36*
X121238886Y-94769833D02*
G01*
X121239019Y-94770922D01*
X121235550Y-94775348D01*
X121234461Y-94775480D01*
X121230036Y-94772012D01*
X121229903Y-94770922D01*
X121233371Y-94766497D01*
X121234461Y-94766365D01*
X121238886Y-94769833D01*
G37*
G36*
X121270790Y-93470892D02*
G01*
X121270922Y-93471981D01*
X121267454Y-93476406D01*
X121266365Y-93476539D01*
X121261939Y-93473070D01*
X121261807Y-93471981D01*
X121265275Y-93467556D01*
X121266365Y-93467423D01*
X121270790Y-93470892D01*
G37*
G36*
X121288968Y-93498078D02*
G01*
X121289153Y-93499327D01*
X121287598Y-93503766D01*
X121287143Y-93503885D01*
X121283252Y-93500691D01*
X121282317Y-93499327D01*
X121282678Y-93495127D01*
X121284326Y-93494769D01*
X121288968Y-93498078D01*
G37*
G36*
X121415202Y-92449293D02*
G01*
X121414490Y-92451059D01*
X121410394Y-92455407D01*
X121409663Y-92455616D01*
X121407705Y-92452090D01*
X121407653Y-92451059D01*
X121411157Y-92446676D01*
X121412480Y-92446501D01*
X121415202Y-92449293D01*
G37*
G36*
X121416636Y-94628545D02*
G01*
X121416768Y-94629634D01*
X121413300Y-94634059D01*
X121412211Y-94634192D01*
X121407785Y-94630723D01*
X121407653Y-94629634D01*
X121411121Y-94625209D01*
X121412211Y-94625076D01*
X121416636Y-94628545D01*
G37*
G36*
X121439505Y-92996950D02*
G01*
X121439557Y-92997981D01*
X121436053Y-93002364D01*
X121434730Y-93002539D01*
X121432008Y-92999747D01*
X121432720Y-92997981D01*
X121436816Y-92993633D01*
X121437547Y-92993424D01*
X121439505Y-92996950D01*
G37*
G36*
X121673346Y-93826249D02*
G01*
X121674278Y-93827481D01*
X121674069Y-93831687D01*
X121672537Y-93832038D01*
X121666094Y-93828712D01*
X121665162Y-93827481D01*
X121665371Y-93823274D01*
X121666903Y-93822923D01*
X121673346Y-93826249D01*
G37*
G36*
X121722134Y-93879894D02*
G01*
X121726481Y-93883990D01*
X121726691Y-93884721D01*
X121723165Y-93886678D01*
X121722134Y-93886731D01*
X121717751Y-93883227D01*
X121717576Y-93881904D01*
X121720368Y-93879182D01*
X121722134Y-93879894D01*
G37*
G36*
X121731249Y-93898125D02*
G01*
X121735597Y-93902220D01*
X121735807Y-93902952D01*
X121732280Y-93904909D01*
X121731249Y-93904961D01*
X121726866Y-93901458D01*
X121726691Y-93900135D01*
X121729483Y-93897413D01*
X121731249Y-93898125D01*
G37*
G36*
X121732596Y-94008557D02*
G01*
X121733528Y-94009788D01*
X121733319Y-94013995D01*
X121731787Y-94014346D01*
X121725344Y-94011020D01*
X121724412Y-94009788D01*
X121724621Y-94005582D01*
X121726153Y-94005231D01*
X121732596Y-94008557D01*
G37*
G36*
X118864342Y-93345313D02*
G01*
X118864393Y-93347784D01*
X118862732Y-93355786D01*
X118859905Y-93358039D01*
X118855528Y-93355422D01*
X118855417Y-93354621D01*
X118857694Y-93348230D01*
X118859905Y-93344366D01*
X118863230Y-93340786D01*
X118864342Y-93345313D01*
G37*
G36*
X119695138Y-92382521D02*
G01*
X119698519Y-92389269D01*
X119698520Y-92389387D01*
X119696145Y-92395652D01*
X119690127Y-92394497D01*
X119684755Y-92389420D01*
X119681204Y-92382573D01*
X119681722Y-92379741D01*
X119688111Y-92378525D01*
X119695138Y-92382521D01*
G37*
G36*
X119744269Y-95248939D02*
G01*
X119752298Y-95255374D01*
X119753344Y-95256457D01*
X119759676Y-95264301D01*
X119758803Y-95267066D01*
X119750420Y-95264998D01*
X119745236Y-95263011D01*
X119736623Y-95257223D01*
X119735633Y-95250861D01*
X119738876Y-95247610D01*
X119744269Y-95248939D01*
G37*
G36*
X119418120Y-94971297D02*
G01*
X119418190Y-94971408D01*
X119417453Y-94973992D01*
X119413843Y-94973177D01*
X119404671Y-94973509D01*
X119399829Y-94976153D01*
X119394933Y-94979424D01*
X119395313Y-94975737D01*
X119395817Y-94974384D01*
X119401984Y-94968396D01*
X119411022Y-94967153D01*
X119418120Y-94971297D01*
G37*
G36*
X119796995Y-95275282D02*
G01*
X119803940Y-95282301D01*
X119809797Y-95290294D01*
X119812103Y-95296227D01*
X119811687Y-95297196D01*
X119807092Y-95296310D01*
X119801068Y-95293383D01*
X119790774Y-95285817D01*
X119785656Y-95278604D01*
X119786539Y-95273553D01*
X119791428Y-95272268D01*
X119796995Y-95275282D01*
G37*
G36*
X120365795Y-95414633D02*
G01*
X120363807Y-95419232D01*
X120357991Y-95425095D01*
X120347535Y-95432562D01*
X120338520Y-95436241D01*
X120337481Y-95436322D01*
X120334243Y-95434793D01*
X120338105Y-95429711D01*
X120343433Y-95425092D01*
X120354165Y-95417563D01*
X120362100Y-95414077D01*
X120365795Y-95414633D01*
G37*
G36*
X120491558Y-95372260D02*
G01*
X120487890Y-95377178D01*
X120478854Y-95383381D01*
X120476745Y-95384519D01*
X120467347Y-95389186D01*
X120464685Y-95389526D01*
X120467462Y-95385518D01*
X120468394Y-95384387D01*
X120476559Y-95376519D01*
X120484761Y-95371390D01*
X120490434Y-95370343D01*
X120491558Y-95372260D01*
G37*
G36*
X121280485Y-94792395D02*
G01*
X121286713Y-94799857D01*
X121291708Y-94808145D01*
X121293119Y-94813866D01*
X121292827Y-94814345D01*
X121288648Y-94812902D01*
X121281377Y-94806524D01*
X121280815Y-94805933D01*
X121272537Y-94795612D01*
X121271762Y-94790170D01*
X121275375Y-94789153D01*
X121280485Y-94792395D01*
G37*
G36*
X119205150Y-94930956D02*
G01*
X119222348Y-94945721D01*
X119233441Y-94958357D01*
X119237572Y-94967848D01*
X119237472Y-94969366D01*
X119235262Y-94972315D01*
X119230067Y-94969678D01*
X119220777Y-94960759D01*
X119216544Y-94956232D01*
X119206085Y-94943946D01*
X119199325Y-94934212D01*
X119196793Y-94928203D01*
X119199018Y-94927091D01*
X119205150Y-94930956D01*
G37*
G36*
X118841783Y-93452375D02*
G01*
X118844766Y-93456505D01*
X118843404Y-93464256D01*
X118836173Y-93473864D01*
X118825371Y-93483133D01*
X118813294Y-93489868D01*
X118808202Y-93491455D01*
X118796913Y-93494515D01*
X118791540Y-93496414D01*
X118782273Y-93496443D01*
X118777867Y-93494375D01*
X118773858Y-93489665D01*
X118776447Y-93487300D01*
X118782940Y-93483423D01*
X118793727Y-93475884D01*
X118801514Y-93470081D01*
X118820115Y-93457268D01*
X118833399Y-93451410D01*
X118841783Y-93452375D01*
G37*
G36*
X119698418Y-93714522D02*
G01*
X119706105Y-93720710D01*
X119714144Y-93730948D01*
X119716009Y-93741736D01*
X119715208Y-93748621D01*
X119709232Y-93767016D01*
X119698223Y-93777958D01*
X119681727Y-93781880D01*
X119680065Y-93781904D01*
X119664214Y-93779159D01*
X119650001Y-93769723D01*
X119648867Y-93768681D01*
X119637844Y-93754978D01*
X119635713Y-93741986D01*
X119642452Y-93728509D01*
X119648035Y-93722303D01*
X119664299Y-93711356D01*
X119681694Y-93708746D01*
X119698418Y-93714522D01*
G37*
G36*
X120714378Y-93717197D02*
G01*
X120725409Y-93726785D01*
X120730861Y-93740219D01*
X120730119Y-93755415D01*
X120722566Y-93770290D01*
X120716914Y-93776207D01*
X120709056Y-93782805D01*
X120703042Y-93785351D01*
X120695135Y-93784432D01*
X120684144Y-93781369D01*
X120670406Y-93774240D01*
X120660694Y-93763305D01*
X120656957Y-93751154D01*
X120657681Y-93746174D01*
X120666534Y-93730407D01*
X120680346Y-93718790D01*
X120696257Y-93713618D01*
X120698384Y-93713539D01*
X120714378Y-93717197D01*
G37*
G36*
X120884178Y-93742088D02*
G01*
X120893811Y-93749054D01*
X120908572Y-93762771D01*
X120912170Y-93766363D01*
X120929757Y-93785333D01*
X120940575Y-93800554D01*
X120945277Y-93813569D01*
X120944515Y-93825923D01*
X120941139Y-93834882D01*
X120930643Y-93851560D01*
X120914601Y-93870708D01*
X120895209Y-93889982D01*
X120874662Y-93907037D01*
X120871287Y-93909494D01*
X120849336Y-93925120D01*
X120862066Y-93909343D01*
X120881880Y-93878231D01*
X120892896Y-93844870D01*
X120895121Y-93809195D01*
X120888562Y-93771139D01*
X120881094Y-93748861D01*
X120879872Y-93741986D01*
X120884178Y-93742088D01*
G37*
G36*
X119820429Y-93832190D02*
G01*
X119830391Y-93841425D01*
X119833154Y-93846064D01*
X119839438Y-93866878D01*
X119836829Y-93887290D01*
X119825551Y-93906943D01*
X119805826Y-93925476D01*
X119777876Y-93942530D01*
X119771443Y-93945673D01*
X119737761Y-93956923D01*
X119703839Y-93959088D01*
X119669935Y-93952156D01*
X119664960Y-93950367D01*
X119633887Y-93935309D01*
X119609617Y-93916637D01*
X119592807Y-93895064D01*
X119584117Y-93871305D01*
X119583067Y-93861507D01*
X119583664Y-93846301D01*
X119587251Y-93837572D01*
X119590157Y-93835038D01*
X119595094Y-93833424D01*
X119600957Y-93835772D01*
X119609333Y-93843154D01*
X119621438Y-93856235D01*
X119644766Y-93878970D01*
X119667440Y-93893567D01*
X119690838Y-93900773D01*
X119705356Y-93901862D01*
X119723056Y-93900374D01*
X119739045Y-93895241D01*
X119754747Y-93885494D01*
X119771585Y-93870162D01*
X119790984Y-93848277D01*
X119799593Y-93837703D01*
X119809576Y-93830803D01*
X119820429Y-93832190D01*
G37*
G36*
X120262567Y-94628772D02*
G01*
X120301259Y-94635390D01*
X120332410Y-94646793D01*
X120356107Y-94662998D01*
X120367920Y-94676647D01*
X120375772Y-94689008D01*
X120378675Y-94697301D01*
X120377429Y-94704533D01*
X120376115Y-94707464D01*
X120372057Y-94714515D01*
X120366863Y-94720205D01*
X120359562Y-94724693D01*
X120349185Y-94728139D01*
X120334765Y-94730705D01*
X120315330Y-94732550D01*
X120289912Y-94733835D01*
X120257543Y-94734721D01*
X120217252Y-94735366D01*
X120206671Y-94735499D01*
X120172110Y-94735809D01*
X120139889Y-94735894D01*
X120111318Y-94735765D01*
X120087702Y-94735436D01*
X120070351Y-94734919D01*
X120060570Y-94734226D01*
X120059714Y-94734083D01*
X120042212Y-94727588D01*
X120032827Y-94716953D01*
X120031584Y-94702235D01*
X120037999Y-94684459D01*
X120052164Y-94665852D01*
X120073613Y-94651074D01*
X120102690Y-94639973D01*
X120139742Y-94632399D01*
X120162225Y-94629808D01*
X120216251Y-94626917D01*
X120262567Y-94628772D01*
G37*
G36*
X121550914Y-94223779D02*
G01*
X121562210Y-94230270D01*
X121568967Y-94238081D01*
X121575437Y-94247087D01*
X121580731Y-94251303D01*
X121581103Y-94251346D01*
X121584203Y-94255286D01*
X121585403Y-94264107D01*
X121586850Y-94275029D01*
X121589764Y-94281230D01*
X121591495Y-94287159D01*
X121593017Y-94299747D01*
X121594243Y-94316604D01*
X121595081Y-94335344D01*
X121595444Y-94353578D01*
X121595240Y-94368919D01*
X121594380Y-94378979D01*
X121593527Y-94381471D01*
X121589992Y-94379502D01*
X121583999Y-94371663D01*
X121581410Y-94367501D01*
X121575396Y-94356805D01*
X121572006Y-94349802D01*
X121571730Y-94348788D01*
X121569939Y-94343792D01*
X121565287Y-94332940D01*
X121558852Y-94318595D01*
X121551714Y-94303121D01*
X121544953Y-94288881D01*
X121539647Y-94278239D01*
X121538673Y-94276413D01*
X121533888Y-94264305D01*
X121530562Y-94249779D01*
X121529209Y-94236234D01*
X121530343Y-94227063D01*
X121531022Y-94225916D01*
X121539467Y-94221991D01*
X121550914Y-94223779D01*
G37*
G36*
X120848652Y-93777307D02*
G01*
X120857237Y-93784371D01*
X120871721Y-93807166D01*
X120877704Y-93831910D01*
X120875317Y-93857617D01*
X120864689Y-93883301D01*
X120845949Y-93907975D01*
X120840241Y-93913655D01*
X120814829Y-93932762D01*
X120785294Y-93946957D01*
X120753944Y-93955616D01*
X120723088Y-93958115D01*
X120695035Y-93953830D01*
X120693420Y-93953321D01*
X120672046Y-93944318D01*
X120651153Y-93932095D01*
X120633903Y-93918676D01*
X120626148Y-93910279D01*
X120618922Y-93893915D01*
X120617032Y-93875554D01*
X120618482Y-93859568D01*
X120623333Y-93851768D01*
X120631973Y-93852041D01*
X120644791Y-93860272D01*
X120650983Y-93865595D01*
X120678258Y-93885610D01*
X120705705Y-93896772D01*
X120732892Y-93899050D01*
X120759385Y-93892416D01*
X120784752Y-93876840D01*
X120787258Y-93874749D01*
X120797998Y-93863978D01*
X120806572Y-93851114D01*
X120814019Y-93834075D01*
X120821381Y-93810783D01*
X120823974Y-93801348D01*
X120830565Y-93784809D01*
X120838943Y-93776718D01*
X120848652Y-93777307D01*
G37*
G36*
X119000339Y-93222289D02*
G01*
X119001042Y-93224726D01*
X118997573Y-93230800D01*
X118988474Y-93241199D01*
X118975248Y-93254572D01*
X118959396Y-93269568D01*
X118942420Y-93284834D01*
X118925822Y-93299020D01*
X118911105Y-93310773D01*
X118899769Y-93318741D01*
X118893420Y-93321577D01*
X118888773Y-93322391D01*
X118890186Y-93326214D01*
X118894521Y-93331359D01*
X118899831Y-93339128D01*
X118897953Y-93342960D01*
X118897506Y-93343133D01*
X118892289Y-93348825D01*
X118891809Y-93351582D01*
X118889112Y-93357398D01*
X118887051Y-93358039D01*
X118883119Y-93354539D01*
X118883034Y-93352342D01*
X118883353Y-93343527D01*
X118883088Y-93335250D01*
X118882179Y-93327369D01*
X118879555Y-93327885D01*
X118875712Y-93332703D01*
X118870702Y-93338844D01*
X118869141Y-93337682D01*
X118869020Y-93332689D01*
X118871976Y-93323306D01*
X118880175Y-93308832D01*
X118892621Y-93290814D01*
X118908313Y-93270803D01*
X118911015Y-93267571D01*
X118921945Y-93257040D01*
X118936287Y-93246530D01*
X118952360Y-93236841D01*
X118968482Y-93228772D01*
X118982973Y-93223124D01*
X118994152Y-93220696D01*
X119000339Y-93222289D01*
G37*
G36*
X118841507Y-93804499D02*
G01*
X118841515Y-93804509D01*
X118847436Y-93812941D01*
X118846699Y-93817920D01*
X118845190Y-93819106D01*
X118842308Y-93822304D01*
X118843673Y-93822853D01*
X118843852Y-93825485D01*
X118838451Y-93831768D01*
X118837976Y-93832216D01*
X118830808Y-93840417D01*
X118828001Y-93846482D01*
X118823743Y-93849377D01*
X118811351Y-93849502D01*
X118806600Y-93849042D01*
X118794390Y-93848114D01*
X118790701Y-93849109D01*
X118792991Y-93850991D01*
X118797383Y-93855339D01*
X118795342Y-93860754D01*
X118786161Y-93868168D01*
X118774448Y-93875435D01*
X118764850Y-93881932D01*
X118759843Y-93886996D01*
X118759636Y-93887713D01*
X118756052Y-93891089D01*
X118754298Y-93891288D01*
X118746687Y-93894028D01*
X118741764Y-93897480D01*
X118732691Y-93903181D01*
X118721006Y-93908096D01*
X118710111Y-93911067D01*
X118703404Y-93910936D01*
X118703052Y-93910666D01*
X118700617Y-93907383D01*
X118700108Y-93903272D01*
X118702133Y-93897353D01*
X118707302Y-93888647D01*
X118716224Y-93876174D01*
X118729506Y-93858954D01*
X118747758Y-93836008D01*
X118755286Y-93826626D01*
X118764914Y-93816672D01*
X118773740Y-93810821D01*
X118776745Y-93810143D01*
X118787955Y-93808649D01*
X118792679Y-93807092D01*
X118799349Y-93806311D01*
X118800655Y-93808650D01*
X118803994Y-93810817D01*
X118811821Y-93809366D01*
X118820851Y-93805442D01*
X118827799Y-93800187D01*
X118828791Y-93798856D01*
X118833567Y-93797557D01*
X118841507Y-93804499D01*
G37*
G36*
X118871586Y-93870658D02*
G01*
X118879084Y-93880802D01*
X118882625Y-93889638D01*
X118882668Y-93890384D01*
X118879436Y-93909869D01*
X118870698Y-93932257D01*
X118857718Y-93954349D01*
X118856855Y-93955563D01*
X118848974Y-93967231D01*
X118844474Y-93975309D01*
X118844191Y-93977884D01*
X118843627Y-93980529D01*
X118837821Y-93987007D01*
X118836636Y-93988139D01*
X118815913Y-94010691D01*
X118795026Y-94038943D01*
X118776213Y-94069801D01*
X118772377Y-94077014D01*
X118765355Y-94088406D01*
X118758862Y-94095369D01*
X118756449Y-94096384D01*
X118751294Y-94100084D01*
X118750520Y-94103672D01*
X118748333Y-94113838D01*
X118742973Y-94126978D01*
X118736241Y-94139371D01*
X118729938Y-94147297D01*
X118729117Y-94147885D01*
X118723732Y-94154506D01*
X118723174Y-94157269D01*
X118720608Y-94165171D01*
X118716483Y-94171855D01*
X118712293Y-94176633D01*
X118710324Y-94175328D01*
X118709705Y-94166647D01*
X118709646Y-94161704D01*
X118708310Y-94142752D01*
X118704470Y-94131871D01*
X118697851Y-94128291D01*
X118697619Y-94128288D01*
X118693558Y-94124164D01*
X118691841Y-94112831D01*
X118692326Y-94095852D01*
X118694869Y-94074786D01*
X118699327Y-94051196D01*
X118705556Y-94026642D01*
X118707582Y-94019859D01*
X118710711Y-94006159D01*
X118711347Y-93995099D01*
X118710840Y-93992513D01*
X118710186Y-93987676D01*
X118711931Y-93988257D01*
X118715773Y-93986455D01*
X118721815Y-93978192D01*
X118727470Y-93967782D01*
X118739587Y-93948224D01*
X118752712Y-93937514D01*
X118752799Y-93937473D01*
X118764144Y-93930948D01*
X118778364Y-93921069D01*
X118786982Y-93914356D01*
X118801933Y-93902447D01*
X118819926Y-93888606D01*
X118833985Y-93878105D01*
X118860479Y-93858673D01*
X118871586Y-93870658D01*
G37*
G36*
X121437180Y-94470564D02*
G01*
X121449076Y-94480500D01*
X121455458Y-94487481D01*
X121465079Y-94501772D01*
X121465264Y-94502615D01*
X121463666Y-94500712D01*
X121461641Y-94499305D01*
X121458522Y-94498767D01*
X121459631Y-94501314D01*
X121464220Y-94506207D01*
X121465912Y-94505563D01*
X121467704Y-94513711D01*
X121467685Y-94513864D01*
X121468417Y-94525846D01*
X121470754Y-94532498D01*
X121472414Y-94543497D01*
X121469280Y-94552012D01*
X121466659Y-94558213D01*
X121464371Y-94566645D01*
X121462192Y-94578735D01*
X121459899Y-94595907D01*
X121457266Y-94619587D01*
X121454738Y-94644446D01*
X121452131Y-94661235D01*
X121448401Y-94669519D01*
X121445846Y-94670653D01*
X121440171Y-94674273D01*
X121439557Y-94677002D01*
X121436054Y-94684046D01*
X121428393Y-94686157D01*
X121421881Y-94683059D01*
X121417573Y-94680397D01*
X121416768Y-94683415D01*
X121413788Y-94688544D01*
X121412211Y-94688884D01*
X121407775Y-94686638D01*
X121407653Y-94685968D01*
X121410875Y-94681232D01*
X121415248Y-94677498D01*
X121419202Y-94672404D01*
X121421905Y-94662853D01*
X121423693Y-94647153D01*
X121424635Y-94630381D01*
X121425284Y-94610169D01*
X121424912Y-94596838D01*
X121423194Y-94588177D01*
X121419805Y-94581978D01*
X121417040Y-94578741D01*
X121410211Y-94568804D01*
X121409304Y-94565826D01*
X121412211Y-94565826D01*
X121413878Y-94569578D01*
X121415249Y-94568865D01*
X121415795Y-94563456D01*
X121415249Y-94562788D01*
X121412540Y-94563414D01*
X121412211Y-94565826D01*
X121409304Y-94565826D01*
X121407653Y-94560409D01*
X121406085Y-94553477D01*
X121404235Y-94552155D01*
X121402185Y-94548106D01*
X121401256Y-94537821D01*
X121401317Y-94524093D01*
X121402242Y-94509713D01*
X121403901Y-94497474D01*
X121406168Y-94490171D01*
X121407121Y-94489283D01*
X121410296Y-94485080D01*
X121409724Y-94483451D01*
X121410835Y-94481286D01*
X121414525Y-94482153D01*
X121421421Y-94481363D01*
X121424326Y-94475580D01*
X121428943Y-94468929D01*
X121437180Y-94470564D01*
G37*
G36*
X120586812Y-95070744D02*
G01*
X120583533Y-95078660D01*
X120575230Y-95092216D01*
X120575160Y-95092321D01*
X120549571Y-95125863D01*
X120517990Y-95159704D01*
X120482790Y-95191693D01*
X120446346Y-95219676D01*
X120411033Y-95241503D01*
X120409899Y-95242101D01*
X120380884Y-95255625D01*
X120351230Y-95265662D01*
X120318873Y-95272655D01*
X120281752Y-95277047D01*
X120237801Y-95279279D01*
X120236327Y-95279318D01*
X120197427Y-95279732D01*
X120166010Y-95278703D01*
X120140551Y-95276161D01*
X120130958Y-95274567D01*
X120080417Y-95262078D01*
X120036157Y-95244532D01*
X119996321Y-95220970D01*
X119959049Y-95190437D01*
X119949309Y-95180998D01*
X119936514Y-95167604D01*
X119924345Y-95153835D01*
X119913651Y-95140835D01*
X119905277Y-95129745D01*
X119900070Y-95121707D01*
X119898876Y-95117865D01*
X119902544Y-95119359D01*
X119905045Y-95121283D01*
X119910609Y-95124747D01*
X119912549Y-95121249D01*
X119912731Y-95115586D01*
X119915809Y-95106271D01*
X119924917Y-95103626D01*
X119939870Y-95107654D01*
X119954343Y-95114796D01*
X119970536Y-95122408D01*
X119990094Y-95129661D01*
X120001203Y-95132962D01*
X120016890Y-95137763D01*
X120029654Y-95142936D01*
X120035358Y-95146336D01*
X120050060Y-95156162D01*
X120072059Y-95166739D01*
X120099666Y-95177298D01*
X120113325Y-95181793D01*
X120127662Y-95185971D01*
X120141057Y-95188906D01*
X120155601Y-95190803D01*
X120173389Y-95191870D01*
X120196514Y-95192313D01*
X120220375Y-95192357D01*
X120253058Y-95192008D01*
X120280222Y-95190756D01*
X120303660Y-95188064D01*
X120325166Y-95183396D01*
X120346535Y-95176216D01*
X120369561Y-95165989D01*
X120396037Y-95152178D01*
X120427757Y-95134248D01*
X120441423Y-95126322D01*
X120457229Y-95116840D01*
X120469904Y-95108714D01*
X120477429Y-95103259D01*
X120478514Y-95102165D01*
X120484286Y-95100158D01*
X120486490Y-95101040D01*
X120491039Y-95100994D01*
X120491558Y-95099076D01*
X120494346Y-95096131D01*
X120496204Y-95096852D01*
X120503162Y-95097321D01*
X120514623Y-95094898D01*
X120517853Y-95093861D01*
X120531371Y-95089754D01*
X120542615Y-95087237D01*
X120543971Y-95087061D01*
X120560145Y-95084372D01*
X120571375Y-95079382D01*
X120577935Y-95074207D01*
X120584976Y-95069062D01*
X120586812Y-95070744D01*
G37*
G36*
X119217623Y-92046415D02*
G01*
X119237258Y-92048753D01*
X119255777Y-92053608D01*
X119274409Y-92061709D01*
X119294382Y-92073785D01*
X119316926Y-92090566D01*
X119343270Y-92112780D01*
X119369856Y-92136746D01*
X119394513Y-92158915D01*
X119421516Y-92182354D01*
X119448382Y-92204961D01*
X119472627Y-92224631D01*
X119484862Y-92234133D01*
X119506647Y-92250832D01*
X119528683Y-92268035D01*
X119548536Y-92283824D01*
X119563772Y-92296279D01*
X119564998Y-92297309D01*
X119580791Y-92310630D01*
X119600565Y-92327305D01*
X119621331Y-92344815D01*
X119633825Y-92355347D01*
X119651346Y-92369948D01*
X119667623Y-92383208D01*
X119680644Y-92393508D01*
X119687535Y-92398645D01*
X119710495Y-92416830D01*
X119731706Y-92437768D01*
X119748589Y-92458774D01*
X119754623Y-92468504D01*
X119760769Y-92481162D01*
X119763919Y-92490476D01*
X119763791Y-92493653D01*
X119764077Y-92498866D01*
X119767789Y-92504584D01*
X119774424Y-92515500D01*
X119777511Y-92523982D01*
X119777829Y-92535549D01*
X119774649Y-92547696D01*
X119769251Y-92557092D01*
X119763494Y-92560443D01*
X119756289Y-92563423D01*
X119748654Y-92569559D01*
X119740683Y-92576234D01*
X119735501Y-92578674D01*
X119729952Y-92576303D01*
X119719170Y-92570067D01*
X119705419Y-92561282D01*
X119704517Y-92560681D01*
X119693360Y-92552806D01*
X119682223Y-92543883D01*
X119670178Y-92532978D01*
X119656299Y-92519155D01*
X119639659Y-92501479D01*
X119619330Y-92479013D01*
X119594387Y-92450823D01*
X119584577Y-92439639D01*
X119546830Y-92397028D01*
X119513376Y-92360285D01*
X119484555Y-92329775D01*
X119460708Y-92305859D01*
X119446635Y-92292771D01*
X119431457Y-92279007D01*
X119416354Y-92264828D01*
X119406673Y-92255370D01*
X119392693Y-92242082D01*
X119377511Y-92228795D01*
X119373421Y-92225453D01*
X119361363Y-92215459D01*
X119345838Y-92202087D01*
X119330088Y-92188129D01*
X119329209Y-92187337D01*
X119313328Y-92174103D01*
X119294741Y-92160315D01*
X119275301Y-92147154D01*
X119256861Y-92135802D01*
X119241271Y-92127440D01*
X119230384Y-92123248D01*
X119228318Y-92122981D01*
X119220773Y-92120190D01*
X119218959Y-92117615D01*
X119213599Y-92114510D01*
X119201975Y-92113169D01*
X119186741Y-92113463D01*
X119170547Y-92115264D01*
X119156049Y-92118442D01*
X119149159Y-92121007D01*
X119134883Y-92131468D01*
X119118809Y-92149728D01*
X119101632Y-92174817D01*
X119084043Y-92205766D01*
X119073600Y-92226704D01*
X119064716Y-92245757D01*
X119057516Y-92261915D01*
X119052796Y-92273340D01*
X119051328Y-92278027D01*
X119049541Y-92284581D01*
X119045022Y-92295956D01*
X119042391Y-92301844D01*
X119034306Y-92321128D01*
X119024783Y-92346735D01*
X119014705Y-92376171D01*
X119004953Y-92406942D01*
X119003334Y-92412318D01*
X118998454Y-92427910D01*
X118994097Y-92440561D01*
X118991676Y-92446501D01*
X118987107Y-92456597D01*
X118984772Y-92462453D01*
X118982042Y-92468697D01*
X118980514Y-92466396D01*
X118979596Y-92461549D01*
X118980282Y-92449216D01*
X118982676Y-92442478D01*
X118986425Y-92430863D01*
X118987520Y-92420918D01*
X118987785Y-92414515D01*
X118988885Y-92407369D01*
X118991277Y-92397816D01*
X118995416Y-92384190D01*
X119001760Y-92364828D01*
X119008006Y-92346232D01*
X119013610Y-92329496D01*
X119020985Y-92307288D01*
X119029073Y-92282799D01*
X119035189Y-92264193D01*
X119053638Y-92213526D01*
X119073876Y-92168171D01*
X119095371Y-92129108D01*
X119117591Y-92097318D01*
X119137266Y-92076186D01*
X119156118Y-92060588D01*
X119172561Y-92051126D01*
X119189678Y-92046658D01*
X119210550Y-92046044D01*
X119217623Y-92046415D01*
G37*
G36*
X121209508Y-92048915D02*
G01*
X121223878Y-92051158D01*
X121235362Y-92055640D01*
X121240100Y-92058357D01*
X121258929Y-92072899D01*
X121277017Y-92091804D01*
X121291438Y-92111787D01*
X121296713Y-92121966D01*
X121304743Y-92140043D01*
X121313730Y-92159165D01*
X121322732Y-92177464D01*
X121330809Y-92193072D01*
X121337018Y-92204119D01*
X121340419Y-92208738D01*
X121340427Y-92208742D01*
X121343282Y-92213958D01*
X121343845Y-92218996D01*
X121345420Y-92226200D01*
X121347458Y-92227732D01*
X121350645Y-92231716D01*
X121354650Y-92241835D01*
X121356623Y-92248494D01*
X121362006Y-92264161D01*
X121368736Y-92278172D01*
X121370876Y-92281537D01*
X121376285Y-92292101D01*
X121381378Y-92306777D01*
X121385416Y-92322576D01*
X121387660Y-92336508D01*
X121387371Y-92345584D01*
X121386940Y-92346561D01*
X121388000Y-92348779D01*
X121391464Y-92347971D01*
X121397470Y-92347875D01*
X121398538Y-92349922D01*
X121394963Y-92355553D01*
X121393378Y-92356308D01*
X121391238Y-92360760D01*
X121395049Y-92371214D01*
X121395773Y-92372639D01*
X121399823Y-92382182D01*
X121400276Y-92387290D01*
X121399794Y-92387540D01*
X121400585Y-92389130D01*
X121406514Y-92391951D01*
X121413520Y-92397197D01*
X121416829Y-92403966D01*
X121415441Y-92409082D01*
X121412211Y-92410039D01*
X121408167Y-92406348D01*
X121407653Y-92403203D01*
X121405074Y-92397082D01*
X121399962Y-92397808D01*
X121397182Y-92402064D01*
X121394434Y-92402362D01*
X121390458Y-92395650D01*
X121389830Y-92394088D01*
X121385198Y-92382206D01*
X121381705Y-92373578D01*
X121378806Y-92366279D01*
X121378198Y-92364463D01*
X121372780Y-92346797D01*
X121365691Y-92326680D01*
X121358347Y-92307934D01*
X121352499Y-92295029D01*
X121348938Y-92288058D01*
X121342208Y-92274817D01*
X121333254Y-92257168D01*
X121323023Y-92236974D01*
X121322418Y-92235779D01*
X121301547Y-92198267D01*
X121280820Y-92169122D01*
X121259376Y-92147649D01*
X121236356Y-92133157D01*
X121210900Y-92124950D01*
X121182150Y-92122336D01*
X121181842Y-92122335D01*
X121161948Y-92123470D01*
X121143938Y-92127432D01*
X121126225Y-92135061D01*
X121107223Y-92147196D01*
X121085346Y-92164675D01*
X121061653Y-92185884D01*
X121042998Y-92202893D01*
X121025411Y-92218503D01*
X121010595Y-92231233D01*
X121000250Y-92239601D01*
X120998420Y-92240937D01*
X120987794Y-92250188D01*
X120975076Y-92263846D01*
X120964510Y-92277006D01*
X120953037Y-92291367D01*
X120937439Y-92309337D01*
X120920135Y-92328179D01*
X120909477Y-92339235D01*
X120892782Y-92356508D01*
X120876607Y-92373836D01*
X120863181Y-92388803D01*
X120856792Y-92396358D01*
X120843699Y-92412069D01*
X120829451Y-92428463D01*
X120823468Y-92435098D01*
X120812229Y-92448006D01*
X120798456Y-92464772D01*
X120785009Y-92481907D01*
X120784206Y-92482963D01*
X120759310Y-92511993D01*
X120732410Y-92535200D01*
X120708048Y-92551126D01*
X120693613Y-92559860D01*
X120676388Y-92570619D01*
X120666256Y-92577098D01*
X120652207Y-92585268D01*
X120639960Y-92590802D01*
X120633593Y-92592347D01*
X120625189Y-92594839D01*
X120622455Y-92598044D01*
X120619601Y-92603185D01*
X120617912Y-92600987D01*
X120617645Y-92593180D01*
X120619055Y-92581495D01*
X120619596Y-92578674D01*
X120622747Y-92562617D01*
X120625449Y-92547808D01*
X120626007Y-92544491D01*
X120628336Y-92530213D01*
X120630108Y-92519424D01*
X120636138Y-92497997D01*
X120647779Y-92477323D01*
X120655145Y-92467523D01*
X120664839Y-92454793D01*
X120668664Y-92448328D01*
X120666611Y-92448338D01*
X120658669Y-92455031D01*
X120655634Y-92457895D01*
X120647030Y-92467481D01*
X120642285Y-92475375D01*
X120641961Y-92476979D01*
X120638392Y-92482462D01*
X120636019Y-92482963D01*
X120629500Y-92486083D01*
X120620159Y-92493925D01*
X120616400Y-92497775D01*
X120594261Y-92525650D01*
X120575932Y-92556415D01*
X120562858Y-92587337D01*
X120557276Y-92609573D01*
X120558184Y-92631865D01*
X120567311Y-92655586D01*
X120584040Y-92679926D01*
X120607754Y-92704076D01*
X120637835Y-92727226D01*
X120655546Y-92738456D01*
X120670615Y-92747042D01*
X120682943Y-92753394D01*
X120690233Y-92756344D01*
X120690842Y-92756424D01*
X120696862Y-92758975D01*
X120697413Y-92759842D01*
X120702008Y-92763782D01*
X120712071Y-92770080D01*
X120719442Y-92774172D01*
X120749318Y-92789855D01*
X120772642Y-92801552D01*
X120790739Y-92809860D01*
X120804937Y-92815378D01*
X120816562Y-92818703D01*
X120819904Y-92819391D01*
X120834526Y-92824043D01*
X120854240Y-92832922D01*
X120876855Y-92844774D01*
X120900182Y-92858342D01*
X120922031Y-92872370D01*
X120940211Y-92885604D01*
X120949605Y-92893746D01*
X120968895Y-92911064D01*
X120993649Y-92931106D01*
X121021454Y-92952008D01*
X121049898Y-92971904D01*
X121055572Y-92975677D01*
X121069295Y-92985255D01*
X121079395Y-92993329D01*
X121083966Y-92998354D01*
X121084057Y-92998759D01*
X121086873Y-93001020D01*
X121088563Y-93000292D01*
X121091240Y-93000993D01*
X121090634Y-93003851D01*
X121090460Y-93010191D01*
X121096071Y-93015243D01*
X121108461Y-93019445D01*
X121128622Y-93023232D01*
X121137744Y-93024546D01*
X121175975Y-93032770D01*
X121214238Y-93046351D01*
X121231394Y-93053364D01*
X121245237Y-93058350D01*
X121253785Y-93060630D01*
X121255483Y-93060517D01*
X121254355Y-93058524D01*
X121248450Y-93054420D01*
X121237140Y-93047859D01*
X121219798Y-93038499D01*
X121195796Y-93025995D01*
X121164507Y-93010004D01*
X121147865Y-93001571D01*
X121130326Y-92991686D01*
X121120023Y-92982409D01*
X121116677Y-92972061D01*
X121120008Y-92958965D01*
X121129738Y-92941441D01*
X121136215Y-92931535D01*
X121147821Y-92913805D01*
X121154384Y-92902460D01*
X121156265Y-92896542D01*
X121153821Y-92895093D01*
X121149396Y-92896351D01*
X121144251Y-92896950D01*
X121144867Y-92894318D01*
X121144546Y-92888767D01*
X121142683Y-92887629D01*
X121138664Y-92881854D01*
X121136524Y-92869220D01*
X121136087Y-92851752D01*
X121137181Y-92831471D01*
X121139631Y-92810402D01*
X121143263Y-92790568D01*
X121147904Y-92773991D01*
X121153379Y-92762695D01*
X121153425Y-92762633D01*
X121155438Y-92755912D01*
X121157436Y-92742589D01*
X121159070Y-92725172D01*
X121159448Y-92719335D01*
X121161255Y-92694936D01*
X121163884Y-92667435D01*
X121166771Y-92642737D01*
X121166805Y-92642482D01*
X121169466Y-92618232D01*
X121171668Y-92590498D01*
X121172970Y-92564911D01*
X121173033Y-92562722D01*
X121173816Y-92543617D01*
X121174990Y-92527549D01*
X121176352Y-92517029D01*
X121176932Y-92514866D01*
X121179033Y-92506279D01*
X121180936Y-92492885D01*
X121181452Y-92487520D01*
X121184522Y-92462511D01*
X121189021Y-92445821D01*
X121195184Y-92436730D01*
X121198542Y-92434935D01*
X121205639Y-92429804D01*
X121207115Y-92425684D01*
X121209967Y-92419823D01*
X121212204Y-92419155D01*
X121215337Y-92422762D01*
X121214909Y-92428270D01*
X121215235Y-92435861D01*
X121218628Y-92437386D01*
X121224777Y-92441176D01*
X121227624Y-92446501D01*
X121231716Y-92453867D01*
X121234768Y-92455616D01*
X121238651Y-92459259D01*
X121239019Y-92461747D01*
X121242142Y-92469184D01*
X121248134Y-92476126D01*
X121254975Y-92484241D01*
X121257249Y-92490018D01*
X121260350Y-92495746D01*
X121266715Y-92499097D01*
X121271940Y-92497854D01*
X121272160Y-92497519D01*
X121272925Y-92497995D01*
X121272376Y-92500632D01*
X121273498Y-92509625D01*
X121274965Y-92512026D01*
X121279149Y-92520282D01*
X121281602Y-92528539D01*
X121282436Y-92529586D01*
X121282635Y-92522878D01*
X121282192Y-92509754D01*
X121281728Y-92501193D01*
X121276935Y-92456095D01*
X121268009Y-92417103D01*
X121254377Y-92381934D01*
X121249067Y-92371377D01*
X121233762Y-92346776D01*
X121217885Y-92330408D01*
X121200324Y-92321406D01*
X121181746Y-92318886D01*
X121169654Y-92320355D01*
X121157157Y-92325145D01*
X121143711Y-92333833D01*
X121128770Y-92346993D01*
X121111793Y-92365202D01*
X121092233Y-92389036D01*
X121069548Y-92419069D01*
X121043192Y-92455879D01*
X121018080Y-92492078D01*
X120998241Y-92521282D01*
X120983490Y-92543746D01*
X120973482Y-92560053D01*
X120967875Y-92570784D01*
X120966325Y-92576520D01*
X120967409Y-92577864D01*
X120977172Y-92577400D01*
X120991972Y-92574168D01*
X121008547Y-92569175D01*
X121023635Y-92563424D01*
X121033975Y-92557920D01*
X121035090Y-92557024D01*
X121041581Y-92552009D01*
X121045093Y-92551600D01*
X121045478Y-92556470D01*
X121042589Y-92567290D01*
X121036276Y-92584731D01*
X121026393Y-92609466D01*
X121020286Y-92624251D01*
X121011857Y-92643510D01*
X121002978Y-92662213D01*
X120995458Y-92676560D01*
X120994928Y-92677476D01*
X120986201Y-92694249D01*
X120983659Y-92704856D01*
X120987699Y-92709659D01*
X120998717Y-92709023D01*
X121017110Y-92703313D01*
X121021340Y-92701734D01*
X121035682Y-92696680D01*
X121047080Y-92693370D01*
X121051508Y-92692619D01*
X121055624Y-92696150D01*
X121054053Y-92706690D01*
X121046825Y-92724146D01*
X121033970Y-92748426D01*
X121031415Y-92752901D01*
X121022369Y-92769025D01*
X121015402Y-92782235D01*
X121011562Y-92790506D01*
X121011134Y-92792053D01*
X121008970Y-92796969D01*
X121003290Y-92807575D01*
X120995310Y-92821772D01*
X120986250Y-92837460D01*
X120977326Y-92852540D01*
X120969757Y-92864912D01*
X120964759Y-92872477D01*
X120963837Y-92873606D01*
X120959481Y-92872213D01*
X120948722Y-92867382D01*
X120933209Y-92859948D01*
X120914590Y-92850748D01*
X120894512Y-92840617D01*
X120874626Y-92830390D01*
X120856578Y-92820903D01*
X120842018Y-92812992D01*
X120832593Y-92807492D01*
X120830363Y-92805942D01*
X120826423Y-92797427D01*
X120824571Y-92780385D01*
X120824813Y-92755162D01*
X120827153Y-92722104D01*
X120829116Y-92702691D01*
X120839457Y-92646096D01*
X120858345Y-92587389D01*
X120885841Y-92526414D01*
X120922006Y-92463019D01*
X120927406Y-92454499D01*
X120939248Y-92438223D01*
X120956276Y-92417787D01*
X120977269Y-92394403D01*
X121001008Y-92369284D01*
X121026271Y-92343640D01*
X121051839Y-92318685D01*
X121076489Y-92295630D01*
X121099002Y-92275687D01*
X121118157Y-92260069D01*
X121132733Y-92249987D01*
X121134192Y-92249166D01*
X121159631Y-92236195D01*
X121179513Y-92228293D01*
X121195583Y-92225077D01*
X121209591Y-92226165D01*
X121221047Y-92230128D01*
X121243969Y-92245050D01*
X121266590Y-92268935D01*
X121288818Y-92301632D01*
X121310563Y-92342991D01*
X121331735Y-92392862D01*
X121350002Y-92444222D01*
X121361867Y-92481483D01*
X121370858Y-92513158D01*
X121377566Y-92542092D01*
X121382580Y-92571128D01*
X121386492Y-92603114D01*
X121389303Y-92633681D01*
X121391627Y-92668846D01*
X121392099Y-92698006D01*
X121390721Y-92724084D01*
X121389420Y-92736229D01*
X121382098Y-92781780D01*
X121371635Y-92827409D01*
X121358757Y-92870549D01*
X121344191Y-92908638D01*
X121335289Y-92927337D01*
X121328522Y-92940350D01*
X121323592Y-92949929D01*
X121321963Y-92953183D01*
X121325277Y-92955308D01*
X121335328Y-92957714D01*
X121347004Y-92959491D01*
X121368283Y-92962548D01*
X121382039Y-92966047D01*
X121389851Y-92970895D01*
X121393299Y-92977999D01*
X121393980Y-92986474D01*
X121395349Y-92998143D01*
X121399866Y-93002441D01*
X121401085Y-93002539D01*
X121405780Y-93004781D01*
X121405328Y-93007171D01*
X121400341Y-93010102D01*
X121398974Y-93009645D01*
X121395026Y-93011894D01*
X121389530Y-93020158D01*
X121387968Y-93023244D01*
X121384103Y-93033603D01*
X121384438Y-93038769D01*
X121385207Y-93039001D01*
X121387839Y-93041807D01*
X121387097Y-93043633D01*
X121382020Y-93046507D01*
X121380601Y-93046019D01*
X121375251Y-93047309D01*
X121368815Y-93052781D01*
X121360440Y-93059594D01*
X121354307Y-93061789D01*
X121346192Y-93063798D01*
X121334783Y-93068706D01*
X121333364Y-93069434D01*
X121318440Y-93074414D01*
X121302926Y-93075704D01*
X121302826Y-93075695D01*
X121289095Y-93075059D01*
X121269548Y-93074835D01*
X121247001Y-93074980D01*
X121224271Y-93075449D01*
X121204174Y-93076199D01*
X121189526Y-93077185D01*
X121186605Y-93077521D01*
X121174694Y-93078580D01*
X121157781Y-93079413D01*
X121143307Y-93079776D01*
X121126996Y-93080549D01*
X121113923Y-93082183D01*
X121107514Y-93084068D01*
X121103841Y-93090243D01*
X121107741Y-93098346D01*
X121118065Y-93107645D01*
X121133668Y-93117412D01*
X121153402Y-93126917D01*
X121176118Y-93135431D01*
X121197999Y-93141603D01*
X121236087Y-93151071D01*
X121270408Y-93160411D01*
X121299594Y-93169215D01*
X121322276Y-93177075D01*
X121334730Y-93182366D01*
X121349205Y-93188956D01*
X121367169Y-93196069D01*
X121390191Y-93204282D01*
X121419841Y-93214171D01*
X121432720Y-93218342D01*
X121453815Y-93223863D01*
X121472859Y-93226548D01*
X121487425Y-93226159D01*
X121493206Y-93224232D01*
X121499523Y-93224983D01*
X121510701Y-93230272D01*
X121524652Y-93238741D01*
X121539288Y-93249028D01*
X121552520Y-93259776D01*
X121561445Y-93268652D01*
X121571670Y-93280558D01*
X121561445Y-93281100D01*
X121548613Y-93281762D01*
X121542105Y-93282086D01*
X121527735Y-93280888D01*
X121508113Y-93276840D01*
X121486300Y-93270829D01*
X121465360Y-93263740D01*
X121448355Y-93256461D01*
X121442752Y-93253327D01*
X121428883Y-93245264D01*
X121416352Y-93239179D01*
X121411724Y-93237488D01*
X121399036Y-93233396D01*
X121391701Y-93230619D01*
X121381254Y-93227575D01*
X121365293Y-93224516D01*
X121345259Y-93221559D01*
X121322592Y-93218821D01*
X121298735Y-93216421D01*
X121275128Y-93214475D01*
X121253212Y-93213101D01*
X121234428Y-93212417D01*
X121220219Y-93212540D01*
X121212024Y-93213587D01*
X121211285Y-93215676D01*
X121211672Y-93215944D01*
X121220236Y-93219245D01*
X121233595Y-93222367D01*
X121239019Y-93223266D01*
X121271058Y-93228005D01*
X121296260Y-93231958D01*
X121316826Y-93235522D01*
X121334957Y-93239096D01*
X121352854Y-93243079D01*
X121366634Y-93246375D01*
X121387603Y-93251358D01*
X121407283Y-93255800D01*
X121422617Y-93259022D01*
X121427445Y-93259920D01*
X121438731Y-93263075D01*
X121455689Y-93269304D01*
X121475820Y-93277637D01*
X121492392Y-93285104D01*
X121511007Y-93293475D01*
X121526191Y-93299648D01*
X121536331Y-93303014D01*
X121539826Y-93303049D01*
X121543283Y-93298890D01*
X121544241Y-93298789D01*
X121546918Y-93302057D01*
X121546360Y-93304770D01*
X121548228Y-93310952D01*
X121555579Y-93316913D01*
X121567708Y-93325069D01*
X121579309Y-93335673D01*
X121589522Y-93347370D01*
X121597488Y-93358806D01*
X121602346Y-93368624D01*
X121603238Y-93375469D01*
X121599304Y-93377987D01*
X121593379Y-93376513D01*
X121581610Y-93372972D01*
X121564009Y-93369001D01*
X121543803Y-93365203D01*
X121524215Y-93362181D01*
X121508472Y-93360541D01*
X121507863Y-93360507D01*
X121493232Y-93357747D01*
X121480525Y-93352295D01*
X121480517Y-93352290D01*
X121470663Y-93348225D01*
X121452148Y-93343106D01*
X121425357Y-93337018D01*
X121390673Y-93330043D01*
X121348481Y-93322266D01*
X121318778Y-93317088D01*
X121301248Y-93314062D01*
X121286131Y-93311405D01*
X121276817Y-93309714D01*
X121266197Y-93310711D01*
X121253792Y-93315709D01*
X121252663Y-93316371D01*
X121238566Y-93324944D01*
X121252815Y-93336934D01*
X121263066Y-93344537D01*
X121271018Y-93348683D01*
X121272411Y-93348939D01*
X121278941Y-93350578D01*
X121291432Y-93354906D01*
X121307450Y-93361067D01*
X121311274Y-93362612D01*
X121327970Y-93369087D01*
X121341918Y-93373902D01*
X121350569Y-93376191D01*
X121351480Y-93376270D01*
X121360057Y-93379278D01*
X121364892Y-93382992D01*
X121373154Y-93388260D01*
X121386339Y-93393868D01*
X121393128Y-93396104D01*
X121406119Y-93401007D01*
X121424288Y-93409225D01*
X121444938Y-93419491D01*
X121460142Y-93427612D01*
X121484329Y-93440632D01*
X121512532Y-93455307D01*
X121540505Y-93469446D01*
X121555778Y-93476937D01*
X121587096Y-93493279D01*
X121611702Y-93509058D01*
X121631783Y-93525678D01*
X121632119Y-93525996D01*
X121644449Y-93538230D01*
X121653661Y-93548402D01*
X121658136Y-93554693D01*
X121658326Y-93555422D01*
X121660829Y-93561790D01*
X121667018Y-93571736D01*
X121668713Y-93574099D01*
X121678720Y-93589978D01*
X121690137Y-93611719D01*
X121701588Y-93636504D01*
X121711700Y-93661514D01*
X121712811Y-93664543D01*
X121714736Y-93674289D01*
X121711422Y-93676761D01*
X121703624Y-93671549D01*
X121702275Y-93670240D01*
X121695536Y-93664697D01*
X121692567Y-93663404D01*
X121687579Y-93660822D01*
X121678216Y-93654279D01*
X121672871Y-93650193D01*
X121660065Y-93641353D01*
X121648029Y-93634952D01*
X121644653Y-93633720D01*
X121634929Y-93630017D01*
X121620307Y-93623421D01*
X121603922Y-93615346D01*
X121603634Y-93615197D01*
X121584992Y-93606196D01*
X121562697Y-93596356D01*
X121538576Y-93586378D01*
X121514457Y-93576964D01*
X121492165Y-93568815D01*
X121473528Y-93562633D01*
X121460373Y-93559119D01*
X121456155Y-93558577D01*
X121434139Y-93556535D01*
X121409009Y-93550897D01*
X121382349Y-93542398D01*
X121355745Y-93531773D01*
X121330783Y-93519756D01*
X121309047Y-93507082D01*
X121292124Y-93494484D01*
X121281599Y-93482697D01*
X121279054Y-93476539D01*
X121275075Y-93467941D01*
X121273201Y-93465937D01*
X121271720Y-93461531D01*
X121274206Y-93459905D01*
X121276325Y-93455950D01*
X121270952Y-93448176D01*
X121270676Y-93447878D01*
X121264814Y-93439031D01*
X121263831Y-93432261D01*
X121263389Y-93427017D01*
X121261664Y-93426404D01*
X121252679Y-93425069D01*
X121246207Y-93419102D01*
X121244591Y-93416867D01*
X121237354Y-93411292D01*
X121232057Y-93411131D01*
X121226268Y-93411115D01*
X121225345Y-93409193D01*
X121221473Y-93404568D01*
X121212571Y-93401585D01*
X121202710Y-93401370D01*
X121199839Y-93402136D01*
X121194067Y-93407637D01*
X121193442Y-93410357D01*
X121189505Y-93413739D01*
X121179964Y-93417519D01*
X121168222Y-93420698D01*
X121157681Y-93422274D01*
X121153562Y-93422082D01*
X121149910Y-93424724D01*
X121143714Y-93430555D01*
X121133603Y-93438447D01*
X121120508Y-93446125D01*
X121119060Y-93446830D01*
X121106261Y-93455812D01*
X121100288Y-93465654D01*
X121096754Y-93473071D01*
X121093039Y-93474177D01*
X121089484Y-93475623D01*
X121087710Y-93483060D01*
X121088235Y-93491831D01*
X121086263Y-93498307D01*
X121083772Y-93501949D01*
X121080161Y-93509601D01*
X121077968Y-93520090D01*
X121077563Y-93529886D01*
X121079314Y-93535464D01*
X121080235Y-93535789D01*
X121081977Y-93539168D01*
X121081127Y-93542678D01*
X121081227Y-93552056D01*
X121085417Y-93566165D01*
X121092491Y-93582317D01*
X121101243Y-93597823D01*
X121110468Y-93609996D01*
X121112022Y-93611565D01*
X121130178Y-93631983D01*
X121140849Y-93652317D01*
X121145252Y-93675194D01*
X121145538Y-93683914D01*
X121145850Y-93699251D01*
X121147565Y-93708300D01*
X121151955Y-93713886D01*
X121160290Y-93718837D01*
X121161538Y-93719482D01*
X121173360Y-93724186D01*
X121186632Y-93725927D01*
X121204892Y-93725125D01*
X121207115Y-93724922D01*
X121228251Y-93722945D01*
X121250705Y-93720856D01*
X121263173Y-93719702D01*
X121289812Y-93719247D01*
X121321998Y-93721863D01*
X121356837Y-93727186D01*
X121391434Y-93734850D01*
X121398538Y-93736762D01*
X121418529Y-93742624D01*
X121441827Y-93749907D01*
X121465866Y-93757759D01*
X121488080Y-93765330D01*
X121505905Y-93771771D01*
X121514367Y-93775139D01*
X121520459Y-93776645D01*
X121520090Y-93774041D01*
X121520814Y-93769048D01*
X121526817Y-93765626D01*
X121534265Y-93765605D01*
X121536031Y-93766423D01*
X121542589Y-93768861D01*
X121555143Y-93772416D01*
X121568601Y-93775752D01*
X121587262Y-93781211D01*
X121605410Y-93788288D01*
X121614966Y-93793109D01*
X121627619Y-93801749D01*
X121640390Y-93812326D01*
X121651544Y-93823118D01*
X121659341Y-93832404D01*
X121662044Y-93838464D01*
X121661648Y-93839351D01*
X121656133Y-93839739D01*
X121644235Y-93838101D01*
X121628372Y-93834785D01*
X121625942Y-93834200D01*
X121606470Y-93830027D01*
X121593727Y-93828907D01*
X121585902Y-93830698D01*
X121585246Y-93831078D01*
X121573388Y-93835652D01*
X121553453Y-93839928D01*
X121526482Y-93843745D01*
X121493512Y-93846943D01*
X121474179Y-93848318D01*
X121424485Y-93851453D01*
X121435439Y-93860199D01*
X121445072Y-93867746D01*
X121458580Y-93878161D01*
X121469272Y-93886321D01*
X121495926Y-93908093D01*
X121523367Y-93933173D01*
X121549483Y-93959441D01*
X121572163Y-93984778D01*
X121588698Y-94006193D01*
X121600395Y-94024240D01*
X121612923Y-94045362D01*
X121625305Y-94067695D01*
X121636568Y-94089374D01*
X121645734Y-94108534D01*
X121651830Y-94123312D01*
X121653837Y-94130708D01*
X121654435Y-94146827D01*
X121652388Y-94157180D01*
X121648798Y-94160192D01*
X121643571Y-94157262D01*
X121633379Y-94149348D01*
X121619848Y-94137768D01*
X121608918Y-94127869D01*
X121592645Y-94113503D01*
X121576770Y-94101321D01*
X121559088Y-94089895D01*
X121537391Y-94077799D01*
X121509681Y-94063710D01*
X121477305Y-94048413D01*
X121450507Y-94037264D01*
X121429773Y-94030411D01*
X121415589Y-94028001D01*
X121408443Y-94030182D01*
X121407653Y-94032727D01*
X121410065Y-94038687D01*
X121416613Y-94050406D01*
X121426270Y-94066132D01*
X121436806Y-94082322D01*
X121456092Y-94112097D01*
X121470968Y-94137419D01*
X121482774Y-94160908D01*
X121492849Y-94185182D01*
X121500601Y-94207036D01*
X121506149Y-94226794D01*
X121510176Y-94247454D01*
X121512442Y-94266752D01*
X121512706Y-94282425D01*
X121510728Y-94292209D01*
X121509797Y-94293528D01*
X121504195Y-94293433D01*
X121491908Y-94290062D01*
X121474516Y-94283995D01*
X121453594Y-94275810D01*
X121430720Y-94266086D01*
X121412877Y-94257964D01*
X121397130Y-94250673D01*
X121384845Y-94245176D01*
X121378102Y-94242396D01*
X121377475Y-94242230D01*
X121379470Y-94245074D01*
X121386535Y-94252495D01*
X121396179Y-94261959D01*
X121406973Y-94273069D01*
X121414428Y-94282207D01*
X121416768Y-94286820D01*
X121412769Y-94290895D01*
X121402874Y-94294486D01*
X121400086Y-94295082D01*
X121388069Y-94296117D01*
X121369475Y-94296328D01*
X121346795Y-94295819D01*
X121322521Y-94294694D01*
X121299145Y-94293059D01*
X121279157Y-94291016D01*
X121269783Y-94289630D01*
X121258249Y-94288484D01*
X121253565Y-94290933D01*
X121255608Y-94297871D01*
X121264253Y-94310189D01*
X121266525Y-94313077D01*
X121278366Y-94329870D01*
X121289521Y-94349059D01*
X121299400Y-94369112D01*
X121307413Y-94388497D01*
X121312970Y-94405680D01*
X121315484Y-94419132D01*
X121314362Y-94427318D01*
X121311171Y-94429096D01*
X121302367Y-94426194D01*
X121298509Y-94423399D01*
X121294352Y-94420433D01*
X121294945Y-94424659D01*
X121295708Y-94426817D01*
X121302193Y-94447671D01*
X121307744Y-94471460D01*
X121312170Y-94496428D01*
X121315279Y-94520821D01*
X121316880Y-94542884D01*
X121316780Y-94560862D01*
X121314789Y-94572999D01*
X121312123Y-94577109D01*
X121306182Y-94576501D01*
X121294687Y-94572351D01*
X121280051Y-94565541D01*
X121279079Y-94565043D01*
X121262385Y-94556694D01*
X121246926Y-94549389D01*
X121236740Y-94544992D01*
X121224546Y-94540189D01*
X121215461Y-94536471D01*
X121211590Y-94535502D01*
X121210427Y-94538145D01*
X121212038Y-94546079D01*
X121216452Y-94560852D01*
X121220316Y-94576815D01*
X121223647Y-94597079D01*
X121226281Y-94619489D01*
X121228055Y-94641892D01*
X121228806Y-94662134D01*
X121228369Y-94678060D01*
X121226581Y-94687518D01*
X121226137Y-94688318D01*
X121222183Y-94691014D01*
X121215521Y-94689268D01*
X121204227Y-94682457D01*
X121200744Y-94680089D01*
X121185548Y-94670433D01*
X121170415Y-94662055D01*
X121163868Y-94658987D01*
X121148069Y-94652385D01*
X121138604Y-94670939D01*
X121129139Y-94689492D01*
X121113815Y-94680451D01*
X121103464Y-94675315D01*
X121096671Y-94673722D01*
X121095832Y-94674070D01*
X121094304Y-94679801D01*
X121093329Y-94691509D01*
X121093146Y-94699898D01*
X121092043Y-94723726D01*
X121089092Y-94746742D01*
X121084753Y-94766584D01*
X121079483Y-94780892D01*
X121076553Y-94785333D01*
X121070188Y-94790538D01*
X121065010Y-94789337D01*
X121059879Y-94780834D01*
X121055168Y-94768533D01*
X121048832Y-94750413D01*
X121043549Y-94775480D01*
X121037046Y-94796400D01*
X121026195Y-94821166D01*
X121012614Y-94846735D01*
X120997920Y-94870060D01*
X120983732Y-94888098D01*
X120983674Y-94888161D01*
X120972260Y-94900753D01*
X120958210Y-94916755D01*
X120945519Y-94931581D01*
X120933179Y-94944889D01*
X120922350Y-94954167D01*
X120914943Y-94957784D01*
X120914778Y-94957788D01*
X120906211Y-94956128D01*
X120892430Y-94951799D01*
X120878085Y-94946393D01*
X120856506Y-94938288D01*
X120841417Y-94935103D01*
X120831192Y-94937610D01*
X120824202Y-94946585D01*
X120818822Y-94962800D01*
X120815756Y-94976018D01*
X120811976Y-94988578D01*
X120805395Y-95005728D01*
X120796860Y-95025699D01*
X120787216Y-95046723D01*
X120777310Y-95067033D01*
X120767987Y-95084862D01*
X120760093Y-95098441D01*
X120754473Y-95106002D01*
X120753132Y-95106923D01*
X120749639Y-95103730D01*
X120746562Y-95092910D01*
X120745137Y-95083462D01*
X120742222Y-95066400D01*
X120737333Y-95045152D01*
X120731494Y-95024139D01*
X120731113Y-95022909D01*
X120723023Y-94984315D01*
X120723022Y-94947287D01*
X120730986Y-94912914D01*
X120746789Y-94882282D01*
X120747392Y-94881419D01*
X120755060Y-94869830D01*
X120757564Y-94863354D01*
X120755471Y-94860012D01*
X120753731Y-94859207D01*
X120749629Y-94857645D01*
X120746663Y-94857836D01*
X120743736Y-94861295D01*
X120739753Y-94869540D01*
X120733615Y-94884087D01*
X120730715Y-94891045D01*
X120707856Y-94936871D01*
X120679779Y-94978258D01*
X120647669Y-95013691D01*
X120613288Y-95041273D01*
X120599029Y-95051083D01*
X120587123Y-95059886D01*
X120580711Y-95065266D01*
X120573370Y-95069795D01*
X120569274Y-95069597D01*
X120562547Y-95069433D01*
X120551562Y-95072500D01*
X120549130Y-95073464D01*
X120523160Y-95082623D01*
X120495104Y-95088921D01*
X120463210Y-95092571D01*
X120425723Y-95093782D01*
X120386945Y-95093008D01*
X120345704Y-95091063D01*
X120311215Y-95088613D01*
X120283988Y-95085719D01*
X120264535Y-95082443D01*
X120253366Y-95078848D01*
X120250824Y-95076482D01*
X120245537Y-95072040D01*
X120243342Y-95071730D01*
X120235698Y-95068530D01*
X120231769Y-95064893D01*
X120228824Y-95059639D01*
X120233571Y-95058090D01*
X120235655Y-95058057D01*
X120242292Y-95056577D01*
X120243518Y-95050380D01*
X120242737Y-95045523D01*
X120244675Y-95032381D01*
X120255250Y-95018796D01*
X120274023Y-95005166D01*
X120300555Y-94991885D01*
X120303871Y-94990486D01*
X120341100Y-94971578D01*
X120372904Y-94947477D01*
X120401347Y-94916513D01*
X120410523Y-94904259D01*
X120435837Y-94865921D01*
X120447394Y-94843845D01*
X120751346Y-94843845D01*
X120753013Y-94847597D01*
X120754384Y-94846884D01*
X120754930Y-94841475D01*
X120754384Y-94840807D01*
X120751675Y-94841433D01*
X120751346Y-94843845D01*
X120447394Y-94843845D01*
X120454135Y-94830967D01*
X120466035Y-94797796D01*
X120472154Y-94764807D01*
X120473327Y-94741198D01*
X120472544Y-94720774D01*
X120469477Y-94704685D01*
X120463051Y-94688233D01*
X120459526Y-94680952D01*
X120441426Y-94654096D01*
X120416421Y-94630578D01*
X120386592Y-94612204D01*
X120374021Y-94606792D01*
X120338164Y-94596098D01*
X120295967Y-94588314D01*
X120249750Y-94583509D01*
X120201835Y-94581753D01*
X120154542Y-94583115D01*
X120110193Y-94587667D01*
X120071108Y-94595476D01*
X120063940Y-94597490D01*
X120031588Y-94610481D01*
X120002329Y-94628662D01*
X119977692Y-94650685D01*
X119959203Y-94675197D01*
X119948788Y-94699330D01*
X119945039Y-94725610D01*
X119945931Y-94756715D01*
X119950953Y-94789951D01*
X119959595Y-94822625D01*
X119971346Y-94852042D01*
X119980921Y-94868913D01*
X119990905Y-94884500D01*
X120001562Y-94902027D01*
X120005066Y-94908034D01*
X120016091Y-94924598D01*
X120029734Y-94939554D01*
X120047329Y-94953926D01*
X120070214Y-94968739D01*
X120099725Y-94985017D01*
X120116869Y-94993769D01*
X120139035Y-95005099D01*
X120158473Y-95015459D01*
X120173627Y-95023988D01*
X120182942Y-95029823D01*
X120184950Y-95031492D01*
X120188670Y-95039899D01*
X120191279Y-95052723D01*
X120191559Y-95055472D01*
X120193029Y-95073260D01*
X120139827Y-95081094D01*
X120092936Y-95087365D01*
X120052932Y-95091217D01*
X120017936Y-95092720D01*
X119986065Y-95091941D01*
X119955439Y-95088951D01*
X119949193Y-95088078D01*
X119927240Y-95084637D01*
X119906813Y-95081034D01*
X119890768Y-95077794D01*
X119884209Y-95076177D01*
X119869152Y-95069879D01*
X119849291Y-95058735D01*
X119826534Y-95044066D01*
X119802789Y-95027192D01*
X119779966Y-95009434D01*
X119759973Y-94992113D01*
X119752974Y-94985382D01*
X119727010Y-94954621D01*
X119703590Y-94917719D01*
X119684309Y-94877597D01*
X119670761Y-94837180D01*
X119669597Y-94832451D01*
X119664003Y-94810596D01*
X119659064Y-94796334D01*
X119654050Y-94788248D01*
X119648232Y-94784919D01*
X119644990Y-94784595D01*
X119640716Y-94786303D01*
X119642841Y-94790293D01*
X119646183Y-94796877D01*
X119651391Y-94809994D01*
X119657633Y-94827468D01*
X119661691Y-94839640D01*
X119668402Y-94859191D01*
X119674900Y-94876173D01*
X119680244Y-94888214D01*
X119682485Y-94892054D01*
X119687772Y-94901168D01*
X119689259Y-94906494D01*
X119691492Y-94914253D01*
X119697342Y-94927983D01*
X119705850Y-94945768D01*
X119716061Y-94965696D01*
X119727016Y-94985850D01*
X119737759Y-95004317D01*
X119739973Y-95007922D01*
X119749276Y-95023310D01*
X119754493Y-95034195D01*
X119756451Y-95043756D01*
X119755976Y-95055169D01*
X119754778Y-95064893D01*
X119752953Y-95084466D01*
X119751872Y-95107535D01*
X119751741Y-95125283D01*
X119751642Y-95141300D01*
X119750855Y-95153016D01*
X119749543Y-95158173D01*
X119749342Y-95158244D01*
X119745016Y-95154979D01*
X119737029Y-95146664D01*
X119730423Y-95139033D01*
X119716832Y-95119652D01*
X119703908Y-95095924D01*
X119693380Y-95071445D01*
X119686975Y-95049812D01*
X119686603Y-95047802D01*
X119683874Y-95036840D01*
X119680753Y-95031004D01*
X119680030Y-95030711D01*
X119677239Y-95034785D01*
X119673734Y-95045351D01*
X119670969Y-95056917D01*
X119665566Y-95077582D01*
X119658759Y-95095662D01*
X119651445Y-95109285D01*
X119644523Y-95116579D01*
X119642014Y-95117307D01*
X119637301Y-95116269D01*
X119632425Y-95112393D01*
X119626635Y-95104531D01*
X119619182Y-95091536D01*
X119609319Y-95072263D01*
X119599552Y-95052303D01*
X119589963Y-95032663D01*
X119581770Y-95016184D01*
X119575799Y-95004508D01*
X119572879Y-94999276D01*
X119572801Y-94999184D01*
X119568606Y-94999672D01*
X119563926Y-95006633D01*
X119559875Y-95017564D01*
X119557566Y-95029963D01*
X119557376Y-95033860D01*
X119556062Y-95048764D01*
X119552521Y-95054851D01*
X119546914Y-95052077D01*
X119539403Y-95040400D01*
X119538607Y-95038848D01*
X119530953Y-95025201D01*
X119520185Y-95007849D01*
X119508571Y-94990444D01*
X119508046Y-94989691D01*
X119485405Y-94955541D01*
X119465643Y-94922263D01*
X119449666Y-94891544D01*
X119438385Y-94865069D01*
X119434696Y-94853614D01*
X119426539Y-94823838D01*
X119423570Y-94841818D01*
X119421674Y-94858183D01*
X119420622Y-94876705D01*
X119420551Y-94881446D01*
X119419734Y-94894069D01*
X119417713Y-94901871D01*
X119416330Y-94903095D01*
X119410100Y-94899501D01*
X119400549Y-94889906D01*
X119389099Y-94876094D01*
X119377176Y-94859846D01*
X119366203Y-94842945D01*
X119360967Y-94833793D01*
X119345526Y-94805105D01*
X119342482Y-94827893D01*
X119339014Y-94847239D01*
X119334596Y-94862418D01*
X119329837Y-94871814D01*
X119325347Y-94873809D01*
X119325207Y-94873729D01*
X119319513Y-94867190D01*
X119311630Y-94854239D01*
X119302600Y-94836986D01*
X119293465Y-94817541D01*
X119285267Y-94798015D01*
X119279048Y-94780519D01*
X119278804Y-94779723D01*
X119275835Y-94768643D01*
X119639270Y-94768643D01*
X119641549Y-94770922D01*
X119643827Y-94768643D01*
X119641549Y-94766365D01*
X119639270Y-94768643D01*
X119275835Y-94768643D01*
X119273735Y-94760808D01*
X119271073Y-94743671D01*
X119270984Y-94741027D01*
X119627125Y-94741027D01*
X119628331Y-94745399D01*
X119631801Y-94750773D01*
X119633559Y-94750806D01*
X119634095Y-94745213D01*
X119632889Y-94740842D01*
X119629419Y-94735468D01*
X119627661Y-94735435D01*
X119627125Y-94741027D01*
X119270984Y-94741027D01*
X119270430Y-94724488D01*
X119270951Y-94709773D01*
X119621328Y-94709773D01*
X119622402Y-94718885D01*
X119624077Y-94722307D01*
X119628157Y-94724210D01*
X119628487Y-94719117D01*
X119625983Y-94711195D01*
X119622794Y-94703998D01*
X119621590Y-94705007D01*
X119621328Y-94709773D01*
X119270951Y-94709773D01*
X119271139Y-94704457D01*
X119271909Y-94685724D01*
X119272130Y-94670718D01*
X119271792Y-94661552D01*
X119271372Y-94659774D01*
X119266616Y-94660631D01*
X119255775Y-94664689D01*
X119240949Y-94671139D01*
X119236691Y-94673113D01*
X119219312Y-94680907D01*
X119203554Y-94687344D01*
X119192483Y-94691181D01*
X119191477Y-94691441D01*
X119182497Y-94692588D01*
X119179271Y-94688753D01*
X119178943Y-94683442D01*
X119180176Y-94673111D01*
X119183542Y-94656000D01*
X119188541Y-94634054D01*
X119194671Y-94609221D01*
X119201432Y-94583447D01*
X119208325Y-94558678D01*
X119214849Y-94536860D01*
X119220503Y-94519940D01*
X119221981Y-94516042D01*
X119227568Y-94501318D01*
X119231257Y-94490376D01*
X119232285Y-94485489D01*
X119232256Y-94485447D01*
X119227729Y-94486859D01*
X119217195Y-94492522D01*
X119202134Y-94501489D01*
X119184026Y-94512815D01*
X119164353Y-94525551D01*
X119144594Y-94538751D01*
X119126230Y-94551468D01*
X119110741Y-94562756D01*
X119107550Y-94565199D01*
X119088263Y-94579722D01*
X119074860Y-94588596D01*
X119066392Y-94592201D01*
X119061908Y-94590919D01*
X119060458Y-94585132D01*
X119060443Y-94584130D01*
X119061506Y-94574259D01*
X119064377Y-94557717D01*
X119068581Y-94536658D01*
X119073642Y-94513236D01*
X119079086Y-94489604D01*
X119084437Y-94467916D01*
X119089220Y-94450326D01*
X119091765Y-94442207D01*
X119100456Y-94420084D01*
X119112244Y-94394284D01*
X119125739Y-94367509D01*
X119139548Y-94342455D01*
X119152279Y-94321824D01*
X119158055Y-94313681D01*
X119166770Y-94302010D01*
X119172695Y-94293592D01*
X119174385Y-94290659D01*
X119170384Y-94290999D01*
X119159848Y-94293422D01*
X119144982Y-94297415D01*
X119143621Y-94297801D01*
X119121560Y-94302802D01*
X119096887Y-94306511D01*
X119080953Y-94307809D01*
X119056455Y-94310766D01*
X119030112Y-94318131D01*
X119000488Y-94330442D01*
X118966145Y-94348238D01*
X118952551Y-94355974D01*
X118934457Y-94365795D01*
X118922354Y-94369832D01*
X118915056Y-94367342D01*
X118911375Y-94357579D01*
X118910125Y-94339799D01*
X118910039Y-94329316D01*
X118913513Y-94289379D01*
X118923499Y-94246600D01*
X118939285Y-94203911D01*
X118947423Y-94188317D01*
X118959908Y-94167737D01*
X118975316Y-94144242D01*
X118992220Y-94119900D01*
X119005025Y-94102461D01*
X119886904Y-94102461D01*
X119887530Y-94105171D01*
X119889943Y-94105500D01*
X119893694Y-94103832D01*
X119892981Y-94102461D01*
X119887572Y-94101916D01*
X119886904Y-94102461D01*
X119005025Y-94102461D01*
X119009196Y-94096781D01*
X119018972Y-94084374D01*
X119895481Y-94084374D01*
X119895584Y-94086130D01*
X119896328Y-94094138D01*
X119896640Y-94096384D01*
X119899807Y-94093501D01*
X119908106Y-94085790D01*
X119920021Y-94074661D01*
X119926027Y-94069038D01*
X119939530Y-94056771D01*
X119950677Y-94047351D01*
X119957728Y-94042221D01*
X119959040Y-94041692D01*
X119962730Y-94038175D01*
X119962866Y-94036916D01*
X119966033Y-94030979D01*
X119973779Y-94022775D01*
X119974978Y-94021721D01*
X119982231Y-94013929D01*
X119986273Y-94004326D01*
X119988274Y-93989714D01*
X119988625Y-93984339D01*
X119991381Y-93949844D01*
X119995784Y-93922870D01*
X120002657Y-93901861D01*
X120012823Y-93885258D01*
X120027106Y-93871506D01*
X120046329Y-93859046D01*
X120058223Y-93852727D01*
X120072451Y-93846193D01*
X120086726Y-93841455D01*
X120103745Y-93837850D01*
X120126206Y-93834715D01*
X120136058Y-93833583D01*
X120151149Y-93831198D01*
X120162928Y-93828065D01*
X120167170Y-93826017D01*
X120173671Y-93823872D01*
X120176584Y-93826683D01*
X120182336Y-93829179D01*
X120196423Y-93831288D01*
X120219094Y-93833035D01*
X120250598Y-93834444D01*
X120254857Y-93834588D01*
X120280333Y-93835517D01*
X120302766Y-93836513D01*
X120320505Y-93837490D01*
X120331897Y-93838360D01*
X120335162Y-93838841D01*
X120341302Y-93837124D01*
X120342365Y-93835241D01*
X120345893Y-93832972D01*
X120351434Y-93837110D01*
X120360279Y-93842162D01*
X120373895Y-93846245D01*
X120379568Y-93847239D01*
X120402483Y-93852803D01*
X120423289Y-93862216D01*
X120439002Y-93874008D01*
X120442712Y-93878377D01*
X120457986Y-93900392D01*
X120468588Y-93917642D01*
X120473981Y-93929223D01*
X120474548Y-93931886D01*
X120473745Y-93939266D01*
X120471136Y-93953162D01*
X120467181Y-93971258D01*
X120464383Y-93983049D01*
X120453669Y-94026913D01*
X120463292Y-94042483D01*
X120473337Y-94056799D01*
X120487263Y-94074015D01*
X120503822Y-94092863D01*
X120521768Y-94112073D01*
X120539855Y-94130378D01*
X120556836Y-94146508D01*
X120571464Y-94159196D01*
X120582495Y-94167171D01*
X120587896Y-94169307D01*
X120590907Y-94165421D01*
X120591827Y-94158486D01*
X120588558Y-94139277D01*
X120579378Y-94116248D01*
X120565223Y-94091595D01*
X120560078Y-94084114D01*
X120550894Y-94070831D01*
X120544303Y-94060421D01*
X120541694Y-94055086D01*
X120541692Y-94055029D01*
X120539876Y-94049597D01*
X120535038Y-94038082D01*
X120528091Y-94022627D01*
X120525315Y-94016650D01*
X120519607Y-94003600D01*
X120514075Y-93988920D01*
X120508449Y-93971601D01*
X120502459Y-93950631D01*
X120498851Y-93936669D01*
X120537134Y-93936669D01*
X120540588Y-93958988D01*
X120550866Y-93975314D01*
X120567847Y-93985558D01*
X120591408Y-93989627D01*
X120607779Y-93989146D01*
X120625298Y-93987599D01*
X120646320Y-93985704D01*
X120660192Y-93984433D01*
X120676655Y-93982411D01*
X120698984Y-93978990D01*
X120724126Y-93974664D01*
X120746788Y-93970377D01*
X120790817Y-93959532D01*
X120829322Y-93945064D01*
X120865631Y-93925521D01*
X120894225Y-93906072D01*
X120906909Y-93895463D01*
X120922280Y-93880662D01*
X120938918Y-93863275D01*
X120955405Y-93844909D01*
X120970324Y-93827170D01*
X120982255Y-93811665D01*
X120989781Y-93799999D01*
X120991507Y-93795893D01*
X120992109Y-93785530D01*
X120988052Y-93774801D01*
X120978518Y-93762659D01*
X120962690Y-93748056D01*
X120940398Y-93730436D01*
X120893996Y-93698879D01*
X120849291Y-93675620D01*
X120806589Y-93660788D01*
X120766198Y-93654509D01*
X120757449Y-93654289D01*
X120717178Y-93658120D01*
X120678748Y-93669076D01*
X120643598Y-93686352D01*
X120613169Y-93709142D01*
X120588903Y-93736639D01*
X120578148Y-93754570D01*
X120572045Y-93769742D01*
X120565213Y-93791698D01*
X120558157Y-93818191D01*
X120551383Y-93846973D01*
X120545397Y-93875796D01*
X120540707Y-93902415D01*
X120537816Y-93924580D01*
X120537134Y-93936669D01*
X120498851Y-93936669D01*
X120495836Y-93925002D01*
X120488308Y-93893704D01*
X120479607Y-93855727D01*
X120469461Y-93810062D01*
X120466783Y-93797856D01*
X120460267Y-93768940D01*
X120453227Y-93739116D01*
X120446371Y-93711296D01*
X120440408Y-93688391D01*
X120438538Y-93681635D01*
X120434104Y-93665286D01*
X120430862Y-93650855D01*
X120428612Y-93636370D01*
X120427158Y-93619856D01*
X120426300Y-93599342D01*
X120425840Y-93572856D01*
X120425676Y-93553530D01*
X120425233Y-93519561D01*
X120424244Y-93493613D01*
X120422429Y-93474597D01*
X120419507Y-93461420D01*
X120415196Y-93452995D01*
X120409218Y-93448229D01*
X120401290Y-93446033D01*
X120397905Y-93445662D01*
X120385715Y-93442702D01*
X120377958Y-93438430D01*
X120369374Y-93433506D01*
X120355984Y-93428202D01*
X120349422Y-93426142D01*
X120337505Y-93422066D01*
X120330674Y-93418413D01*
X120329978Y-93416935D01*
X120327519Y-93413995D01*
X120318925Y-93411248D01*
X120318841Y-93411231D01*
X120307033Y-93407307D01*
X120299545Y-93402700D01*
X120290837Y-93398304D01*
X120278360Y-93395809D01*
X120277806Y-93395770D01*
X120264125Y-93392282D01*
X120253701Y-93385515D01*
X120245981Y-93379791D01*
X120234761Y-93376980D01*
X120219058Y-93376309D01*
X120196581Y-93376899D01*
X120176602Y-93378441D01*
X120160765Y-93380699D01*
X120150715Y-93383437D01*
X120148094Y-93386419D01*
X120148138Y-93386494D01*
X120147058Y-93388974D01*
X120141849Y-93388055D01*
X120133854Y-93388366D01*
X120124676Y-93395158D01*
X120119178Y-93401169D01*
X120110558Y-93410014D01*
X120104199Y-93414296D01*
X120102563Y-93414179D01*
X120100023Y-93415085D01*
X120099596Y-93418320D01*
X120095646Y-93425785D01*
X120086132Y-93431506D01*
X120080606Y-93432847D01*
X120074918Y-93435529D01*
X120074738Y-93439057D01*
X120078327Y-93440077D01*
X120085660Y-93441190D01*
X120085746Y-93443690D01*
X120080063Y-93446321D01*
X120070088Y-93447827D01*
X120069175Y-93447861D01*
X120053406Y-93451214D01*
X120043982Y-93459019D01*
X120036396Y-93469866D01*
X120030786Y-93481538D01*
X120026783Y-93495743D01*
X120024017Y-93514184D01*
X120022118Y-93538568D01*
X120020899Y-93565550D01*
X120019659Y-93593897D01*
X120018035Y-93616000D01*
X120015578Y-93634734D01*
X120011841Y-93652969D01*
X120006372Y-93673578D01*
X120001336Y-93690750D01*
X119990697Y-93726578D01*
X119982496Y-93754902D01*
X119976435Y-93776912D01*
X119972217Y-93793799D01*
X119969543Y-93806753D01*
X119968114Y-93816965D01*
X119967638Y-93825202D01*
X119965599Y-93848585D01*
X119960577Y-93877749D01*
X119953210Y-93910113D01*
X119944138Y-93943092D01*
X119934000Y-93974105D01*
X119925293Y-93996365D01*
X119913153Y-94025037D01*
X119904544Y-94046839D01*
X119899024Y-94063106D01*
X119896150Y-94075172D01*
X119895481Y-94084374D01*
X119018972Y-94084374D01*
X119024818Y-94076954D01*
X119034181Y-94066145D01*
X119051520Y-94047300D01*
X119035655Y-94044324D01*
X119021101Y-94043783D01*
X119002511Y-94046036D01*
X118993400Y-94048015D01*
X118979655Y-94050775D01*
X118960636Y-94053637D01*
X118938127Y-94056439D01*
X118913906Y-94059018D01*
X118889757Y-94061214D01*
X118867461Y-94062865D01*
X118848798Y-94063809D01*
X118835549Y-94063886D01*
X118829497Y-94062932D01*
X118829440Y-94062881D01*
X118828966Y-94056297D01*
X118834257Y-94044596D01*
X118844530Y-94029002D01*
X118858998Y-94010737D01*
X118872921Y-93995176D01*
X118896466Y-93971951D01*
X118922999Y-93949512D01*
X118954160Y-93926603D01*
X118991588Y-93901962D01*
X119005751Y-93893139D01*
X119049049Y-93866477D01*
X119026261Y-93862743D01*
X119009353Y-93859634D01*
X118988900Y-93855367D01*
X118966835Y-93850408D01*
X118945089Y-93845226D01*
X118925598Y-93840286D01*
X118910292Y-93836055D01*
X118901107Y-93833000D01*
X118899483Y-93832131D01*
X118900431Y-93827798D01*
X118909892Y-93820862D01*
X118927910Y-93811299D01*
X118954526Y-93799090D01*
X118989783Y-93784212D01*
X119004805Y-93778136D01*
X119438754Y-93778136D01*
X119441714Y-93787540D01*
X119449006Y-93798024D01*
X119458182Y-93806957D01*
X119466791Y-93811707D01*
X119470029Y-93811721D01*
X119476783Y-93813299D01*
X119485277Y-93822403D01*
X119491018Y-93830951D01*
X119503801Y-93848945D01*
X119520237Y-93868738D01*
X119537974Y-93887757D01*
X119554658Y-93903431D01*
X119564054Y-93910766D01*
X119566639Y-93911668D01*
X119563396Y-93907085D01*
X119555043Y-93897875D01*
X119543230Y-93885823D01*
X119521502Y-93862840D01*
X119506560Y-93843503D01*
X119497575Y-93826454D01*
X119493718Y-93810330D01*
X119493424Y-93804172D01*
X119494634Y-93795001D01*
X119499198Y-93786048D01*
X119508511Y-93775171D01*
X119519133Y-93764766D01*
X119535935Y-93749924D01*
X119551347Y-93738204D01*
X119563895Y-93730579D01*
X119572103Y-93728020D01*
X119573913Y-93728701D01*
X119573160Y-93733560D01*
X119569016Y-93743996D01*
X119563628Y-93755244D01*
X119553723Y-93782509D01*
X119548776Y-93813691D01*
X119549082Y-93845078D01*
X119554458Y-93871570D01*
X119564135Y-93890671D01*
X119579882Y-93910965D01*
X119599405Y-93930024D01*
X119620409Y-93945418D01*
X119628389Y-93949845D01*
X119652282Y-93959484D01*
X119683276Y-93968505D01*
X119719361Y-93976523D01*
X119758524Y-93983151D01*
X119798755Y-93988004D01*
X119838042Y-93990694D01*
X119841805Y-93990828D01*
X119860726Y-93989569D01*
X119875786Y-93983578D01*
X119879336Y-93981303D01*
X119890295Y-93972233D01*
X119897763Y-93961557D01*
X119901886Y-93947969D01*
X119902808Y-93930160D01*
X119900674Y-93906823D01*
X119895629Y-93876649D01*
X119892610Y-93861294D01*
X119884144Y-93822912D01*
X119875529Y-93791984D01*
X119866016Y-93766867D01*
X119854854Y-93745921D01*
X119841292Y-93727502D01*
X119824581Y-93709969D01*
X119822608Y-93708107D01*
X119790183Y-93682922D01*
X119755135Y-93665951D01*
X119716503Y-93656867D01*
X119673329Y-93655340D01*
X119669046Y-93655571D01*
X119641274Y-93658187D01*
X119616686Y-93662918D01*
X119592285Y-93670630D01*
X119565073Y-93682189D01*
X119547482Y-93690668D01*
X119518900Y-93706081D01*
X119492982Y-93722395D01*
X119470868Y-93738692D01*
X119453698Y-93754056D01*
X119442614Y-93767568D01*
X119438754Y-93778136D01*
X119004805Y-93778136D01*
X119010766Y-93775725D01*
X119056923Y-93758011D01*
X119096027Y-93744681D01*
X119128904Y-93735536D01*
X119156381Y-93730376D01*
X119179283Y-93729001D01*
X119196762Y-93730856D01*
X119226665Y-93736005D01*
X119253673Y-93738907D01*
X119275987Y-93739455D01*
X119291809Y-93737542D01*
X119294535Y-93736668D01*
X119303440Y-93731920D01*
X119305222Y-93725854D01*
X119304029Y-93721433D01*
X119300230Y-93704926D01*
X119300934Y-93688015D01*
X119306576Y-93668858D01*
X119317591Y-93645615D01*
X119325167Y-93632028D01*
X119337627Y-93611571D01*
X119350910Y-93591590D01*
X119363021Y-93575013D01*
X119368712Y-93568123D01*
X119387568Y-93546987D01*
X119376870Y-93526986D01*
X119371133Y-93514736D01*
X119368381Y-93505708D01*
X119368538Y-93503156D01*
X119368036Y-93499485D01*
X119367038Y-93499327D01*
X119363281Y-93495494D01*
X119357505Y-93485562D01*
X119352383Y-93474822D01*
X119341090Y-93455746D01*
X119326252Y-93443529D01*
X119306322Y-93437305D01*
X119283226Y-93436101D01*
X119265829Y-93435805D01*
X119249583Y-93434408D01*
X119243268Y-93433354D01*
X119223786Y-93432234D01*
X119203531Y-93437755D01*
X119181352Y-93450406D01*
X119156811Y-93470042D01*
X119137254Y-93486587D01*
X119117367Y-93502002D01*
X119098737Y-93515191D01*
X119082952Y-93525057D01*
X119071602Y-93530506D01*
X119068103Y-93531231D01*
X119059710Y-93534192D01*
X119057602Y-93535895D01*
X119049432Y-93540624D01*
X119043580Y-93542362D01*
X119034619Y-93544890D01*
X119020392Y-93549728D01*
X119005175Y-93555373D01*
X118980729Y-93564287D01*
X118952464Y-93573777D01*
X118923047Y-93583021D01*
X118895147Y-93591198D01*
X118871433Y-93597486D01*
X118859905Y-93600096D01*
X118840454Y-93605730D01*
X118817867Y-93614833D01*
X118795246Y-93625908D01*
X118775691Y-93637455D01*
X118763742Y-93646572D01*
X118756263Y-93652754D01*
X118752403Y-93654437D01*
X118752315Y-93654289D01*
X118748840Y-93655940D01*
X118740262Y-93662371D01*
X118728277Y-93672290D01*
X118725367Y-93674798D01*
X118709696Y-93688162D01*
X118699588Y-93696027D01*
X118693918Y-93699085D01*
X118691562Y-93698031D01*
X118691270Y-93695826D01*
X118694188Y-93685928D01*
X118702136Y-93671028D01*
X118713911Y-93652773D01*
X118728307Y-93632810D01*
X118744118Y-93612785D01*
X118760140Y-93594346D01*
X118775167Y-93579138D01*
X118779493Y-93575287D01*
X118794739Y-93562002D01*
X118809743Y-93548507D01*
X118819429Y-93539461D01*
X118838720Y-93522125D01*
X118863012Y-93502225D01*
X118890856Y-93480771D01*
X118920806Y-93458774D01*
X118951415Y-93437246D01*
X118981234Y-93417197D01*
X119008818Y-93399641D01*
X119032719Y-93385586D01*
X119051490Y-93376046D01*
X119055886Y-93374222D01*
X119068479Y-93368136D01*
X119085640Y-93358176D01*
X119104666Y-93345964D01*
X119115797Y-93338270D01*
X119133028Y-93326005D01*
X119148208Y-93315231D01*
X119159345Y-93307360D01*
X119163653Y-93304345D01*
X119167823Y-93300858D01*
X119165469Y-93299896D01*
X119155442Y-93301104D01*
X119153922Y-93301338D01*
X119137839Y-93304734D01*
X119115276Y-93310710D01*
X119088280Y-93318630D01*
X119058899Y-93327857D01*
X119029182Y-93337757D01*
X119001176Y-93347691D01*
X118984986Y-93353818D01*
X118961094Y-93362895D01*
X118944279Y-93368520D01*
X118933273Y-93370912D01*
X118926808Y-93370287D01*
X118923618Y-93366861D01*
X118922907Y-93364440D01*
X118920899Y-93360364D01*
X118916125Y-93361760D01*
X118908900Y-93367050D01*
X118900032Y-93372495D01*
X118896616Y-93371598D01*
X118899062Y-93365614D01*
X118905834Y-93357686D01*
X118911891Y-93348892D01*
X118912835Y-93341789D01*
X118912633Y-93336756D01*
X118914208Y-93336444D01*
X118918701Y-93333660D01*
X118926917Y-93325313D01*
X118937146Y-93313156D01*
X118937972Y-93312107D01*
X118961596Y-93284801D01*
X118984903Y-93264209D01*
X119010214Y-93248321D01*
X119013633Y-93246567D01*
X119031172Y-93238469D01*
X119041728Y-93235430D01*
X119045846Y-93237367D01*
X119045122Y-93241818D01*
X119043622Y-93246135D01*
X119044417Y-93247894D01*
X119049114Y-93246807D01*
X119059322Y-93242585D01*
X119071943Y-93237020D01*
X119098702Y-93226908D01*
X119126086Y-93219551D01*
X119151670Y-93215403D01*
X119173030Y-93214916D01*
X119182223Y-93216406D01*
X119195916Y-93219109D01*
X119207202Y-93219717D01*
X119208761Y-93219525D01*
X119218039Y-93218152D01*
X119232714Y-93216296D01*
X119245030Y-93214873D01*
X119267046Y-93211137D01*
X119286296Y-93205476D01*
X119300719Y-93198666D01*
X119308257Y-93191484D01*
X119308492Y-93190939D01*
X119308513Y-93185126D01*
X119302481Y-93182137D01*
X119289601Y-93181893D01*
X119269076Y-93184313D01*
X119258809Y-93185966D01*
X119241413Y-93188541D01*
X119228042Y-93189822D01*
X119220734Y-93189644D01*
X119219962Y-93189092D01*
X119215940Y-93186273D01*
X119205872Y-93183365D01*
X119201498Y-93182528D01*
X119189868Y-93179360D01*
X119184704Y-93175326D01*
X119184704Y-93174152D01*
X119189337Y-93169331D01*
X119199695Y-93162103D01*
X119211144Y-93155375D01*
X119235914Y-93141855D01*
X119199453Y-93136483D01*
X119170467Y-93131707D01*
X119147317Y-93126853D01*
X119130887Y-93122159D01*
X119122059Y-93117862D01*
X119120842Y-93115314D01*
X119125621Y-93111353D01*
X119136419Y-93105806D01*
X119147233Y-93101310D01*
X119160232Y-93095581D01*
X119164901Y-93091767D01*
X119161871Y-93090120D01*
X119151774Y-93090892D01*
X119135242Y-93094333D01*
X119131858Y-93095196D01*
X119107842Y-93099093D01*
X119084463Y-93097371D01*
X119059228Y-93089626D01*
X119038396Y-93080035D01*
X119020182Y-93071088D01*
X119005874Y-93065294D01*
X118992188Y-93061806D01*
X118975841Y-93059777D01*
X118954477Y-93058412D01*
X118937840Y-93057061D01*
X118925418Y-93055162D01*
X118919402Y-93053075D01*
X118919155Y-93052596D01*
X118920928Y-93048055D01*
X118927495Y-93045222D01*
X118940723Y-93043441D01*
X118946509Y-93042997D01*
X118968119Y-93039443D01*
X118990279Y-93031092D01*
X119002786Y-93024712D01*
X119008167Y-93023601D01*
X119016815Y-93025092D01*
X119030019Y-93029609D01*
X119049066Y-93037571D01*
X119067953Y-93046055D01*
X119088765Y-93055326D01*
X119106505Y-93062775D01*
X119119599Y-93067775D01*
X119126475Y-93069700D01*
X119127081Y-93069594D01*
X119124770Y-93066041D01*
X119116030Y-93058736D01*
X119102258Y-93048604D01*
X119084849Y-93036567D01*
X119065199Y-93023548D01*
X119044706Y-93010472D01*
X119024764Y-92998261D01*
X119006770Y-92987840D01*
X118992121Y-92980130D01*
X118991000Y-92979594D01*
X118977213Y-92972666D01*
X118971017Y-92968274D01*
X118971511Y-92965631D01*
X118973957Y-92964728D01*
X118981114Y-92961247D01*
X118982554Y-92958494D01*
X118982308Y-92950829D01*
X118982493Y-92947847D01*
X118984006Y-92943737D01*
X118986682Y-92946647D01*
X118992704Y-92949670D01*
X119005917Y-92952829D01*
X119024417Y-92955715D01*
X119033938Y-92956813D01*
X119054182Y-92959204D01*
X119072005Y-92961833D01*
X119084746Y-92964285D01*
X119088398Y-92965321D01*
X119101134Y-92969409D01*
X119112857Y-92972547D01*
X119121793Y-92974426D01*
X119122806Y-92973331D01*
X119117422Y-92969030D01*
X119111668Y-92962886D01*
X119111472Y-92959106D01*
X119116265Y-92959971D01*
X119124025Y-92966154D01*
X119125661Y-92967849D01*
X119134625Y-92975843D01*
X119141997Y-92979689D01*
X119142659Y-92979751D01*
X119144642Y-92977193D01*
X119139361Y-92969840D01*
X119139041Y-92969496D01*
X119132460Y-92960002D01*
X119123600Y-92943816D01*
X119113293Y-92922811D01*
X119102376Y-92898862D01*
X119091681Y-92873843D01*
X119082043Y-92849628D01*
X119074296Y-92828093D01*
X119070269Y-92814974D01*
X119056534Y-92748509D01*
X119050220Y-92677622D01*
X119051370Y-92603242D01*
X119057888Y-92540460D01*
X119063346Y-92508030D01*
X119137924Y-92508030D01*
X119138899Y-92514111D01*
X119139715Y-92514866D01*
X119142654Y-92511302D01*
X119144130Y-92508030D01*
X119144225Y-92502161D01*
X119142339Y-92501193D01*
X119138421Y-92504887D01*
X119137924Y-92508030D01*
X119063346Y-92508030D01*
X119066220Y-92490956D01*
X119076962Y-92441368D01*
X119089655Y-92393107D01*
X119103840Y-92347583D01*
X119119061Y-92306205D01*
X119134858Y-92270384D01*
X119150773Y-92241530D01*
X119158801Y-92229934D01*
X119176013Y-92214321D01*
X119197179Y-92205916D01*
X119219975Y-92205493D01*
X119227173Y-92207152D01*
X119249442Y-92216986D01*
X119275327Y-92233975D01*
X119304106Y-92257259D01*
X119335052Y-92285977D01*
X119367441Y-92319271D01*
X119400549Y-92356279D01*
X119433650Y-92396143D01*
X119466021Y-92438001D01*
X119496936Y-92480994D01*
X119525671Y-92524262D01*
X119551501Y-92566945D01*
X119573701Y-92608183D01*
X119584895Y-92631689D01*
X119593301Y-92651550D01*
X119602452Y-92675142D01*
X119611744Y-92700668D01*
X119620574Y-92726333D01*
X119628338Y-92750341D01*
X119634433Y-92770897D01*
X119638255Y-92786205D01*
X119639270Y-92793447D01*
X119635425Y-92807685D01*
X119623656Y-92820916D01*
X119603610Y-92833398D01*
X119574935Y-92845387D01*
X119561789Y-92849840D01*
X119546259Y-92855160D01*
X119533156Y-92860204D01*
X119527606Y-92862723D01*
X119517797Y-92865816D01*
X119503143Y-92868249D01*
X119494994Y-92868983D01*
X119480381Y-92869283D01*
X119471223Y-92867114D01*
X119463950Y-92861294D01*
X119460728Y-92857630D01*
X119455521Y-92849822D01*
X119447059Y-92835240D01*
X119436108Y-92815289D01*
X119423434Y-92791373D01*
X119409805Y-92764900D01*
X119405024Y-92755437D01*
X119390219Y-92725843D01*
X119379036Y-92702949D01*
X119370938Y-92685344D01*
X119365386Y-92671617D01*
X119361842Y-92660357D01*
X119359767Y-92650154D01*
X119358625Y-92639597D01*
X119358169Y-92632613D01*
X119357270Y-92617072D01*
X119357329Y-92607836D01*
X119359266Y-92605086D01*
X119364003Y-92608999D01*
X119372459Y-92619755D01*
X119385556Y-92637535D01*
X119385912Y-92638018D01*
X119394828Y-92647959D01*
X119406658Y-92658359D01*
X119419608Y-92668026D01*
X119431882Y-92675767D01*
X119441685Y-92680390D01*
X119447223Y-92680700D01*
X119447847Y-92679186D01*
X119445777Y-92669817D01*
X119439958Y-92653677D01*
X119430977Y-92632012D01*
X119419420Y-92606068D01*
X119405874Y-92577092D01*
X119390925Y-92546330D01*
X119375161Y-92515030D01*
X119359166Y-92484438D01*
X119343529Y-92455799D01*
X119338826Y-92447479D01*
X119318795Y-92413046D01*
X119302071Y-92385919D01*
X119287999Y-92365195D01*
X119275924Y-92349971D01*
X119265194Y-92339342D01*
X119255803Y-92332764D01*
X119237678Y-92325025D01*
X119221762Y-92324499D01*
X119206739Y-92330047D01*
X119188928Y-92342544D01*
X119174339Y-92360433D01*
X119162427Y-92384721D01*
X119152649Y-92416415D01*
X119147510Y-92439765D01*
X119143019Y-92463257D01*
X119140337Y-92479248D01*
X119139389Y-92489157D01*
X119140102Y-92494403D01*
X119142402Y-92496403D01*
X119144554Y-92496636D01*
X119150395Y-92492881D01*
X119151597Y-92488158D01*
X119154711Y-92478449D01*
X119162797Y-92467448D01*
X119173967Y-92456614D01*
X119186336Y-92447410D01*
X119198018Y-92441296D01*
X119207127Y-92439733D01*
X119210978Y-92442156D01*
X119216341Y-92445945D01*
X119218083Y-92445751D01*
X119222056Y-92448461D01*
X119226357Y-92457114D01*
X119226628Y-92457895D01*
X119231443Y-92468579D01*
X119236465Y-92474918D01*
X119240535Y-92481920D01*
X119244576Y-92497246D01*
X119248400Y-92520104D01*
X119250056Y-92533097D01*
X119252542Y-92552488D01*
X119255193Y-92570323D01*
X119257551Y-92583627D01*
X119258514Y-92587789D01*
X119259712Y-92595297D01*
X119261224Y-92609295D01*
X119262780Y-92627176D01*
X119263249Y-92633366D01*
X119265130Y-92655503D01*
X119267482Y-92678031D01*
X119269833Y-92696486D01*
X119270104Y-92698289D01*
X119272050Y-92714208D01*
X119272788Y-92727493D01*
X119272452Y-92733238D01*
X119272622Y-92742929D01*
X119275072Y-92756694D01*
X119276386Y-92761747D01*
X119279797Y-92777403D01*
X119281348Y-92791990D01*
X119281326Y-92795164D01*
X119281990Y-92806572D01*
X119284358Y-92813707D01*
X119286326Y-92820585D01*
X119287964Y-92833975D01*
X119289177Y-92851279D01*
X119289866Y-92869897D01*
X119289935Y-92887229D01*
X119289286Y-92900677D01*
X119287863Y-92907579D01*
X119283359Y-92910492D01*
X119276319Y-92906535D01*
X119272408Y-92904165D01*
X119274020Y-92908037D01*
X119278499Y-92914716D01*
X119286589Y-92925143D01*
X119293459Y-92932196D01*
X119294500Y-92932947D01*
X119299906Y-92938703D01*
X119307501Y-92949574D01*
X119312213Y-92957313D01*
X119324249Y-92978173D01*
X119277750Y-93024513D01*
X119256893Y-93044798D01*
X119240669Y-93059273D01*
X119227726Y-93069004D01*
X119216710Y-93075058D01*
X119210795Y-93077265D01*
X119190337Y-93083676D01*
X119208277Y-93084127D01*
X119222808Y-93083250D01*
X119241235Y-93080514D01*
X119253854Y-93077850D01*
X119271265Y-93074033D01*
X119293749Y-93069683D01*
X119317357Y-93065549D01*
X119325450Y-93064246D01*
X119354390Y-93059241D01*
X119374853Y-93054546D01*
X119387466Y-93049974D01*
X119392854Y-93045334D01*
X119393155Y-93043878D01*
X119389140Y-93040379D01*
X119379184Y-93037289D01*
X119376063Y-93036722D01*
X119352652Y-93032365D01*
X119337832Y-93027965D01*
X119331080Y-93023358D01*
X119330696Y-93022539D01*
X119334023Y-93018996D01*
X119344275Y-93012332D01*
X119360130Y-93003309D01*
X119380268Y-92992690D01*
X119396425Y-92984607D01*
X119423637Y-92970634D01*
X119452066Y-92954944D01*
X119478856Y-92939178D01*
X119501151Y-92924982D01*
X119507097Y-92920879D01*
X119527327Y-92906623D01*
X119543336Y-92895765D01*
X119557468Y-92886951D01*
X119572066Y-92878823D01*
X119589473Y-92870027D01*
X119612033Y-92859206D01*
X119621039Y-92854945D01*
X119642746Y-92843946D01*
X119667139Y-92830390D01*
X119692212Y-92815515D01*
X119715960Y-92800561D01*
X119736378Y-92786769D01*
X119751461Y-92775376D01*
X119755491Y-92771827D01*
X119766393Y-92762744D01*
X119776639Y-92755471D01*
X119804540Y-92733837D01*
X119830654Y-92706742D01*
X119852169Y-92677304D01*
X119860314Y-92662699D01*
X119874041Y-92628844D01*
X119879880Y-92597839D01*
X119877630Y-92568640D01*
X119867088Y-92540205D01*
X119848054Y-92511491D01*
X119826481Y-92487520D01*
X119813516Y-92474145D01*
X119803403Y-92463100D01*
X119797605Y-92456014D01*
X119796783Y-92454476D01*
X119793471Y-92447456D01*
X119785971Y-92437694D01*
X119776800Y-92427941D01*
X119768479Y-92420943D01*
X119764412Y-92419155D01*
X119758465Y-92417145D01*
X119757770Y-92415539D01*
X119754162Y-92411447D01*
X119744826Y-92404592D01*
X119735072Y-92398448D01*
X119720210Y-92388915D01*
X119713475Y-92382616D01*
X119714631Y-92379156D01*
X119723017Y-92378136D01*
X119735380Y-92377219D01*
X119748793Y-92375145D01*
X119758919Y-92374023D01*
X119761043Y-92376416D01*
X119760669Y-92377132D01*
X119760310Y-92379591D01*
X119763554Y-92381625D01*
X119771740Y-92383538D01*
X119786207Y-92385632D01*
X119808295Y-92388213D01*
X119810669Y-92388475D01*
X119820892Y-92388384D01*
X119824326Y-92384489D01*
X119824342Y-92382947D01*
X119826765Y-92377386D01*
X119829553Y-92376996D01*
X119833840Y-92377429D01*
X119834585Y-92375022D01*
X119831541Y-92367799D01*
X119827351Y-92359466D01*
X119817908Y-92339050D01*
X119812659Y-92323444D01*
X119811928Y-92313765D01*
X119813416Y-92311460D01*
X119821462Y-92311532D01*
X119834749Y-92317661D01*
X119852228Y-92329309D01*
X119860787Y-92335891D01*
X119877347Y-92347423D01*
X119889028Y-92351390D01*
X119896284Y-92347620D01*
X119899568Y-92335942D01*
X119899660Y-92321165D01*
X119901434Y-92305867D01*
X119908843Y-92296926D01*
X119922088Y-92294332D01*
X119941370Y-92298079D01*
X119966891Y-92308159D01*
X119986534Y-92317900D01*
X120005693Y-92327553D01*
X120023244Y-92335646D01*
X120036784Y-92341108D01*
X120042312Y-92342745D01*
X120056648Y-92342953D01*
X120068793Y-92338868D01*
X120075954Y-92331699D01*
X120076808Y-92327828D01*
X120080088Y-92318464D01*
X120083747Y-92314243D01*
X120088473Y-92306138D01*
X120088339Y-92301087D01*
X120089832Y-92293206D01*
X120097327Y-92286894D01*
X120107717Y-92284111D01*
X120113951Y-92284919D01*
X120124946Y-92286168D01*
X120138057Y-92285056D01*
X120148821Y-92281193D01*
X120157105Y-92272798D01*
X120163173Y-92262364D01*
X120178062Y-92238072D01*
X120193374Y-92222015D01*
X120208719Y-92214565D01*
X120213789Y-92214059D01*
X120223496Y-92214736D01*
X120226678Y-92218633D01*
X120225547Y-92228548D01*
X120225488Y-92228871D01*
X120224640Y-92243687D01*
X120226803Y-92257989D01*
X120231253Y-92268632D01*
X120235436Y-92272252D01*
X120238825Y-92269975D01*
X120240564Y-92259840D01*
X120240885Y-92248287D01*
X120241334Y-92233449D01*
X120243040Y-92225889D01*
X120246535Y-92223799D01*
X120248066Y-92223979D01*
X120253698Y-92228755D01*
X120260418Y-92239424D01*
X120264500Y-92248242D01*
X120270716Y-92263257D01*
X120276279Y-92276205D01*
X120278462Y-92281031D01*
X120280997Y-92292172D01*
X120281064Y-92306440D01*
X120280820Y-92308572D01*
X120280826Y-92324189D01*
X120286470Y-92335986D01*
X120286917Y-92336547D01*
X120295367Y-92346982D01*
X120303448Y-92329577D01*
X120308839Y-92318863D01*
X120315125Y-92308812D01*
X120323820Y-92297346D01*
X120336441Y-92282390D01*
X120345102Y-92272493D01*
X120357089Y-92260691D01*
X120366060Y-92255387D01*
X120371153Y-92256764D01*
X120371503Y-92265003D01*
X120371053Y-92267004D01*
X120366879Y-92286132D01*
X120365892Y-92298953D01*
X120368055Y-92307686D01*
X120370332Y-92311245D01*
X120373978Y-92314962D01*
X120378314Y-92315713D01*
X120385122Y-92312845D01*
X120396182Y-92305702D01*
X120407988Y-92297394D01*
X120431806Y-92281048D01*
X120449272Y-92270473D01*
X120460873Y-92265411D01*
X120467095Y-92265605D01*
X120467432Y-92265894D01*
X120467086Y-92271237D01*
X120463022Y-92282043D01*
X120456551Y-92295147D01*
X120450366Y-92308975D01*
X120444973Y-92325364D01*
X120440698Y-92342450D01*
X120437873Y-92358365D01*
X120436825Y-92371246D01*
X120437885Y-92379225D01*
X120441381Y-92380438D01*
X120441513Y-92380359D01*
X120448308Y-92380446D01*
X120450527Y-92382675D01*
X120454908Y-92385777D01*
X120462812Y-92383568D01*
X120467109Y-92381395D01*
X120498406Y-92366825D01*
X120530390Y-92355773D01*
X120557644Y-92349790D01*
X120582909Y-92346188D01*
X120600683Y-92343410D01*
X120612517Y-92341108D01*
X120619960Y-92338938D01*
X120624562Y-92336553D01*
X120627224Y-92334274D01*
X120635641Y-92330205D01*
X120648513Y-92328087D01*
X120651582Y-92328001D01*
X120660480Y-92328034D01*
X120665185Y-92329032D01*
X120665347Y-92332346D01*
X120660620Y-92339325D01*
X120650655Y-92351318D01*
X120643355Y-92359905D01*
X120632017Y-92373399D01*
X120621685Y-92385918D01*
X120616935Y-92391809D01*
X120611870Y-92398410D01*
X120612077Y-92399164D01*
X120618161Y-92393926D01*
X120621772Y-92390669D01*
X120632077Y-92382743D01*
X120640602Y-92378508D01*
X120642211Y-92378281D01*
X120645191Y-92379889D01*
X120640276Y-92384862D01*
X120639735Y-92385275D01*
X120632722Y-92392618D01*
X120630619Y-92397751D01*
X120627700Y-92404753D01*
X120620707Y-92413976D01*
X120620312Y-92414405D01*
X120611762Y-92426143D01*
X120611473Y-92434284D01*
X120619458Y-92439106D01*
X120621452Y-92439578D01*
X120635568Y-92442509D01*
X120644267Y-92444316D01*
X120652288Y-92444261D01*
X120661026Y-92439792D01*
X120672648Y-92429674D01*
X120676290Y-92426085D01*
X120687815Y-92415400D01*
X120697397Y-92408008D01*
X120702471Y-92405633D01*
X120703733Y-92408129D01*
X120698932Y-92413672D01*
X120688901Y-92423579D01*
X120682980Y-92430533D01*
X120678803Y-92436324D01*
X120679910Y-92436866D01*
X120687417Y-92432305D01*
X120688963Y-92431318D01*
X120698914Y-92423829D01*
X120709972Y-92413870D01*
X120720257Y-92403390D01*
X120727888Y-92394341D01*
X120730985Y-92388674D01*
X120730772Y-92387946D01*
X120726255Y-92388984D01*
X120719809Y-92393755D01*
X120710498Y-92399287D01*
X120703705Y-92400184D01*
X120698995Y-92398286D01*
X120699971Y-92393893D01*
X120703624Y-92388390D01*
X120711140Y-92381341D01*
X120722482Y-92378435D01*
X120730537Y-92378136D01*
X120745771Y-92376439D01*
X120755368Y-92371881D01*
X120755903Y-92371299D01*
X120758956Y-92365797D01*
X120757869Y-92364463D01*
X120758073Y-92362284D01*
X120762958Y-92358030D01*
X120770748Y-92353688D01*
X120774500Y-92353295D01*
X120779343Y-92351320D01*
X120789941Y-92343819D01*
X120805434Y-92331532D01*
X120824962Y-92315204D01*
X120847663Y-92295577D01*
X120872677Y-92273394D01*
X120899143Y-92249398D01*
X120926201Y-92224332D01*
X120949995Y-92201810D01*
X120985092Y-92168663D01*
X121015128Y-92141361D01*
X121041198Y-92119031D01*
X121064401Y-92100800D01*
X121085833Y-92085796D01*
X121106592Y-92073143D01*
X121122224Y-92064752D01*
X121140295Y-92056082D01*
X121154613Y-92051115D01*
X121169237Y-92048855D01*
X121188225Y-92048304D01*
X121189166Y-92048303D01*
X121209508Y-92048915D01*
G37*
D12*
%TO.C,D3*%
X117315000Y-76290000D02*
X117315000Y-78210000D01*
X117315000Y-78210000D02*
X120000000Y-78210000D01*
X120000000Y-76290000D02*
X117315000Y-76290000D01*
%TO.C,J5*%
X97670000Y-81235000D02*
X97670000Y-81255000D01*
X97670000Y-88245000D02*
X97670000Y-88265000D01*
X97670000Y-88265000D02*
X98170000Y-88265000D01*
X98170000Y-81235000D02*
X97670000Y-81235000D01*
X98170000Y-88265000D02*
X98170000Y-81235000D01*
X99185000Y-89685000D02*
X102260000Y-89685000D01*
X102260000Y-79815000D02*
X99185000Y-79815000D01*
X102260000Y-89685000D02*
X102260000Y-79815000D01*
%TO.C,TP4*%
X111300000Y-76550000D02*
X112700000Y-76550000D01*
X111300000Y-77950000D02*
X111300000Y-76550000D01*
X112700000Y-76550000D02*
X112700000Y-77950000D01*
X112700000Y-77950000D02*
X111300000Y-77950000D01*
%TO.C,TP5*%
X128300000Y-76550000D02*
X129700000Y-76550000D01*
X128300000Y-77950000D02*
X128300000Y-76550000D01*
X129700000Y-76550000D02*
X129700000Y-77950000D01*
X129700000Y-77950000D02*
X128300000Y-77950000D01*
%TO.C,D4*%
X123565000Y-76290000D02*
X123565000Y-78210000D01*
X123565000Y-78210000D02*
X126250000Y-78210000D01*
X126250000Y-76290000D02*
X123565000Y-76290000D01*
%TO.C,TP1*%
X128050000Y-93800000D02*
X129450000Y-93800000D01*
X128050000Y-95200000D02*
X128050000Y-93800000D01*
X129450000Y-93800000D02*
X129450000Y-95200000D01*
X129450000Y-95200000D02*
X128050000Y-95200000D01*
D10*
%TO.C,U1*%
X111750000Y-81447300D02*
X123250000Y-81447300D01*
X111750000Y-89047300D02*
X111750000Y-81447300D01*
X123250000Y-81447300D02*
X123250000Y-89047300D01*
X123250000Y-89047300D02*
X111750000Y-89047300D01*
D12*
%TO.C,J1*%
X130905000Y-79815000D02*
X130905000Y-89685000D01*
X130905000Y-89685000D02*
X133980000Y-89685000D01*
X133980000Y-79815000D02*
X130905000Y-79815000D01*
X134995000Y-81235000D02*
X134995000Y-88265000D01*
X134995000Y-88265000D02*
X135495000Y-88265000D01*
X135495000Y-81235000D02*
X134995000Y-81235000D01*
X135495000Y-81255000D02*
X135495000Y-81235000D01*
X135495000Y-88265000D02*
X135495000Y-88245000D01*
%TO.C,D2*%
X107315000Y-76290000D02*
X107315000Y-78210000D01*
X107315000Y-78210000D02*
X110000000Y-78210000D01*
X110000000Y-76290000D02*
X107315000Y-76290000D01*
%TO.C,TP3*%
X121300000Y-76550000D02*
X122700000Y-76550000D01*
X121300000Y-77950000D02*
X121300000Y-76550000D01*
X122700000Y-76550000D02*
X122700000Y-77950000D01*
X122700000Y-77950000D02*
X121300000Y-77950000D01*
%TO.C,TP2*%
X104550000Y-76550000D02*
X105950000Y-76550000D01*
X104550000Y-77950000D02*
X104550000Y-76550000D01*
X105950000Y-76550000D02*
X105950000Y-77950000D01*
X105950000Y-77950000D02*
X104550000Y-77950000D01*
%TD*%
M02*
