%TF.GenerationSoftware,KiCad,Pcbnew,8.0.1-rc1*%
%TF.CreationDate,2025-05-18T23:23:19-05:00*%
%TF.ProjectId,MPPT-Interface-Board,4d505054-2d49-46e7-9465-72666163652d,rev?*%
%TF.SameCoordinates,Original*%
%TF.FileFunction,Soldermask,Bot*%
%TF.FilePolarity,Negative*%
%FSLAX46Y46*%
G04 Gerber Fmt 4.6, Leading zero omitted, Abs format (unit mm)*
G04 Created by KiCad (PCBNEW 8.0.1-rc1) date 2025-05-18 23:23:19*
%MOMM*%
%LPD*%
G01*
G04 APERTURE LIST*
G04 Aperture macros list*
%AMRoundRect*
0 Rectangle with rounded corners*
0 $1 Rounding radius*
0 $2 $3 $4 $5 $6 $7 $8 $9 X,Y pos of 4 corners*
0 Add a 4 corners polygon primitive as box body*
4,1,4,$2,$3,$4,$5,$6,$7,$8,$9,$2,$3,0*
0 Add four circle primitives for the rounded corners*
1,1,$1+$1,$2,$3*
1,1,$1+$1,$4,$5*
1,1,$1+$1,$6,$7*
1,1,$1+$1,$8,$9*
0 Add four rect primitives between the rounded corners*
20,1,$1+$1,$2,$3,$4,$5,0*
20,1,$1+$1,$4,$5,$6,$7,0*
20,1,$1+$1,$6,$7,$8,$9,0*
20,1,$1+$1,$8,$9,$2,$3,0*%
G04 Aperture macros list end*
%ADD10C,0.000000*%
%ADD11C,3.000000*%
%ADD12C,1.270000*%
%ADD13RoundRect,0.250001X0.759999X-0.499999X0.759999X0.499999X-0.759999X0.499999X-0.759999X-0.499999X0*%
%ADD14O,2.020000X1.500000*%
%ADD15O,1.200000X1.800000*%
%ADD16RoundRect,0.250001X-0.759999X0.499999X-0.759999X-0.499999X0.759999X-0.499999X0.759999X0.499999X0*%
%ADD17RoundRect,0.250000X-0.262500X-0.450000X0.262500X-0.450000X0.262500X0.450000X-0.262500X0.450000X0*%
%ADD18RoundRect,0.250000X0.450000X-0.262500X0.450000X0.262500X-0.450000X0.262500X-0.450000X-0.262500X0*%
%ADD19R,0.910000X1.220000*%
%ADD20RoundRect,0.250000X-0.250000X-0.475000X0.250000X-0.475000X0.250000X0.475000X-0.250000X0.475000X0*%
%ADD21RoundRect,0.250000X0.250000X0.475000X-0.250000X0.475000X-0.250000X-0.475000X0.250000X-0.475000X0*%
%ADD22RoundRect,0.150000X-0.150000X0.587500X-0.150000X-0.587500X0.150000X-0.587500X0.150000X0.587500X0*%
%ADD23RoundRect,0.375000X0.375000X-0.625000X0.375000X0.625000X-0.375000X0.625000X-0.375000X-0.625000X0*%
%ADD24RoundRect,0.500000X1.400000X-0.500000X1.400000X0.500000X-1.400000X0.500000X-1.400000X-0.500000X0*%
%ADD25RoundRect,0.250000X-0.475000X0.250000X-0.475000X-0.250000X0.475000X-0.250000X0.475000X0.250000X0*%
%ADD26RoundRect,0.112500X0.112500X-0.187500X0.112500X0.187500X-0.112500X0.187500X-0.112500X-0.187500X0*%
G04 APERTURE END LIST*
D10*
%TO.C,G\u002A\u002A\u002A*%
G36*
X123342166Y-74811488D02*
G01*
X123355562Y-76210000D01*
X122019249Y-76210000D01*
X120682936Y-76210000D01*
X120682936Y-75959059D01*
X120682936Y-75708119D01*
X121703472Y-75694476D01*
X122724007Y-75680833D01*
X122749206Y-74546905D01*
X122774404Y-73412976D01*
X123051587Y-73412976D01*
X123328769Y-73412976D01*
X123342166Y-74811488D01*
G37*
G36*
X111900000Y-74538968D02*
G01*
X111900000Y-75244524D01*
X111118849Y-75244524D01*
X110337699Y-75244524D01*
X110337699Y-75496508D01*
X110337699Y-75748492D01*
X111118849Y-75748492D01*
X111900000Y-75748492D01*
X111900000Y-75975278D01*
X111900000Y-76202063D01*
X110892064Y-76202063D01*
X109884127Y-76202063D01*
X109884127Y-75496508D01*
X109884127Y-74790952D01*
X110665278Y-74790952D01*
X111446429Y-74790952D01*
X111446429Y-74538968D01*
X111446429Y-74286984D01*
X110665278Y-74286984D01*
X109884127Y-74286984D01*
X109884127Y-74060198D01*
X109884127Y-73833413D01*
X110892064Y-73833413D01*
X111900000Y-73833413D01*
X111900000Y-74538968D01*
G37*
G36*
X117170010Y-73397105D02*
G01*
X117246219Y-73446509D01*
X117288229Y-73549779D01*
X117307939Y-73722555D01*
X117317248Y-73980474D01*
X117331547Y-74521706D01*
X118415079Y-74521706D01*
X119498611Y-74521706D01*
X119513153Y-74020561D01*
X119519124Y-73883801D01*
X119535949Y-73681243D01*
X119558725Y-73528573D01*
X119584272Y-73451244D01*
X119589637Y-73445420D01*
X119698210Y-73402861D01*
X119897309Y-73398025D01*
X120153769Y-73412976D01*
X120167170Y-74813914D01*
X120180571Y-76214851D01*
X119864789Y-76199826D01*
X119549007Y-76184801D01*
X119534749Y-75616859D01*
X119520490Y-75048916D01*
X118426018Y-75062494D01*
X117331547Y-75076071D01*
X117317297Y-75643036D01*
X117303048Y-76210000D01*
X116976322Y-76210000D01*
X116649596Y-76210000D01*
X116662992Y-74811488D01*
X116676388Y-73412976D01*
X116873172Y-73396870D01*
X117047702Y-73385930D01*
X117170010Y-73397105D01*
G37*
G36*
X115895238Y-74825047D02*
G01*
X115895238Y-76210000D01*
X115567658Y-76210000D01*
X115240079Y-76210000D01*
X115240079Y-75781627D01*
X115240079Y-75353254D01*
X114286197Y-75353254D01*
X113332315Y-75353254D01*
X113227864Y-75486042D01*
X113178102Y-75564351D01*
X113135658Y-75707713D01*
X113123412Y-75914415D01*
X113123412Y-76210000D01*
X112789668Y-76210000D01*
X112455924Y-76210000D01*
X112477562Y-75757429D01*
X112479366Y-75720905D01*
X112494684Y-75503634D01*
X112517770Y-75358775D01*
X112554437Y-75261351D01*
X112610501Y-75186385D01*
X112619712Y-75176572D01*
X112686703Y-75096382D01*
X112686870Y-75044076D01*
X112622629Y-74978160D01*
X112578578Y-74922966D01*
X112508305Y-74762348D01*
X112457812Y-74553805D01*
X112440385Y-74389462D01*
X113098214Y-74389462D01*
X113098593Y-74424497D01*
X113122805Y-74615962D01*
X113188147Y-74734093D01*
X113204651Y-74748897D01*
X113255141Y-74777551D01*
X113333859Y-74798885D01*
X113455319Y-74814404D01*
X113634035Y-74825610D01*
X113884518Y-74834007D01*
X114221281Y-74841098D01*
X114222842Y-74841126D01*
X114521655Y-74844519D01*
X114785436Y-74843761D01*
X114997756Y-74839204D01*
X115142181Y-74831199D01*
X115202281Y-74820099D01*
X115208184Y-74809012D01*
X115224458Y-74717374D01*
X115235812Y-74559653D01*
X115240079Y-74362116D01*
X115240079Y-73942143D01*
X114288122Y-73942143D01*
X114032936Y-73942554D01*
X113760760Y-73945123D01*
X113563212Y-73951247D01*
X113425186Y-73962287D01*
X113331577Y-73979601D01*
X113267280Y-74004546D01*
X113217190Y-74038484D01*
X113146590Y-74113196D01*
X113108209Y-74220129D01*
X113098214Y-74389462D01*
X112440385Y-74389462D01*
X112434219Y-74331314D01*
X112444648Y-74128856D01*
X112473307Y-73969132D01*
X112513728Y-73812094D01*
X112570818Y-73687992D01*
X112655092Y-73592721D01*
X112777066Y-73522178D01*
X112947256Y-73472257D01*
X113176177Y-73438856D01*
X113474345Y-73417869D01*
X113852275Y-73405193D01*
X114320483Y-73396724D01*
X114643611Y-73392880D01*
X114980996Y-73391106D01*
X115277153Y-73391903D01*
X115517195Y-73395150D01*
X115686236Y-73400726D01*
X115769392Y-73408509D01*
X115895238Y-73440095D01*
X115895238Y-74362116D01*
X115895238Y-74825047D01*
G37*
%TD*%
D11*
%TO.C,H3*%
X133250000Y-93500000D03*
%TD*%
%TO.C,H4*%
X100000000Y-93500000D03*
%TD*%
D12*
%TO.C,J5*%
X98290000Y-89250000D03*
X98290000Y-80250000D03*
D13*
X100250000Y-86250000D03*
D14*
X100250000Y-83250000D03*
%TD*%
D11*
%TO.C,H1*%
X100000000Y-76000000D03*
%TD*%
D15*
%TO.C,U1*%
X113690000Y-87777300D03*
X116230000Y-87777300D03*
X118770000Y-87777300D03*
X121310000Y-87777300D03*
%TD*%
D12*
%TO.C,J1*%
X134875000Y-80250000D03*
X134875000Y-89250000D03*
D16*
X132915000Y-83250000D03*
D14*
X132915000Y-86250000D03*
%TD*%
D11*
%TO.C,H2*%
X133250000Y-76000000D03*
%TD*%
D17*
%TO.C,R2*%
X102837500Y-83250000D03*
X104662500Y-83250000D03*
%TD*%
D18*
%TO.C,R3*%
X112000000Y-81662500D03*
X112000000Y-79837500D03*
%TD*%
D19*
%TO.C,Z1*%
X109270000Y-80250000D03*
X106000000Y-80250000D03*
%TD*%
D20*
%TO.C,C4*%
X117800000Y-85500000D03*
X119700000Y-85500000D03*
%TD*%
%TO.C,C3*%
X115300000Y-90000000D03*
X117200000Y-90000000D03*
%TD*%
D21*
%TO.C,C7*%
X126150000Y-80400000D03*
X124250000Y-80400000D03*
%TD*%
D20*
%TO.C,C8*%
X127850000Y-80400000D03*
X129750000Y-80400000D03*
%TD*%
D22*
%TO.C,Q1*%
X106550000Y-83375000D03*
X108450000Y-83375000D03*
X107500000Y-85250000D03*
%TD*%
D23*
%TO.C,U2*%
X129300000Y-89150000D03*
X127000000Y-89150000D03*
D24*
X127000000Y-82850000D03*
D23*
X124700000Y-89150000D03*
%TD*%
D18*
%TO.C,R4*%
X119750000Y-83412500D03*
X119750000Y-81587500D03*
%TD*%
D21*
%TO.C,C1*%
X115700000Y-85500000D03*
X113800000Y-85500000D03*
%TD*%
%TO.C,C2*%
X121200000Y-90000000D03*
X119300000Y-90000000D03*
%TD*%
D25*
%TO.C,C5*%
X110500000Y-83600000D03*
X110500000Y-85500000D03*
%TD*%
D20*
%TO.C,C6*%
X124800000Y-91500000D03*
X126700000Y-91500000D03*
%TD*%
D17*
%TO.C,R5*%
X124337500Y-77250000D03*
X126162500Y-77250000D03*
%TD*%
D26*
%TO.C,D1*%
X104500000Y-87300000D03*
X104500000Y-85200000D03*
%TD*%
M02*
