%TF.GenerationSoftware,KiCad,Pcbnew,8.0.1-rc1*%
%TF.CreationDate,2025-05-18T23:23:19-05:00*%
%TF.ProjectId,MPPT-Interface-Board,4d505054-2d49-46e7-9465-72666163652d,rev?*%
%TF.SameCoordinates,Original*%
%TF.FileFunction,Legend,Bot*%
%TF.FilePolarity,Positive*%
%FSLAX46Y46*%
G04 Gerber Fmt 4.6, Leading zero omitted, Abs format (unit mm)*
G04 Created by KiCad (PCBNEW 8.0.1-rc1) date 2025-05-18 23:23:19*
%MOMM*%
%LPD*%
G01*
G04 APERTURE LIST*
%ADD10C,0.150000*%
%ADD11C,0.120000*%
%ADD12C,0.200000*%
%ADD13C,0.100000*%
%ADD14C,0.000000*%
G04 APERTURE END LIST*
D10*
X103916666Y-82204819D02*
X104249999Y-81728628D01*
X104488094Y-82204819D02*
X104488094Y-81204819D01*
X104488094Y-81204819D02*
X104107142Y-81204819D01*
X104107142Y-81204819D02*
X104011904Y-81252438D01*
X104011904Y-81252438D02*
X103964285Y-81300057D01*
X103964285Y-81300057D02*
X103916666Y-81395295D01*
X103916666Y-81395295D02*
X103916666Y-81538152D01*
X103916666Y-81538152D02*
X103964285Y-81633390D01*
X103964285Y-81633390D02*
X104011904Y-81681009D01*
X104011904Y-81681009D02*
X104107142Y-81728628D01*
X104107142Y-81728628D02*
X104488094Y-81728628D01*
X103535713Y-81300057D02*
X103488094Y-81252438D01*
X103488094Y-81252438D02*
X103392856Y-81204819D01*
X103392856Y-81204819D02*
X103154761Y-81204819D01*
X103154761Y-81204819D02*
X103059523Y-81252438D01*
X103059523Y-81252438D02*
X103011904Y-81300057D01*
X103011904Y-81300057D02*
X102964285Y-81395295D01*
X102964285Y-81395295D02*
X102964285Y-81490533D01*
X102964285Y-81490533D02*
X103011904Y-81633390D01*
X103011904Y-81633390D02*
X103583332Y-82204819D01*
X103583332Y-82204819D02*
X102964285Y-82204819D01*
X112166666Y-78954819D02*
X112499999Y-78478628D01*
X112738094Y-78954819D02*
X112738094Y-77954819D01*
X112738094Y-77954819D02*
X112357142Y-77954819D01*
X112357142Y-77954819D02*
X112261904Y-78002438D01*
X112261904Y-78002438D02*
X112214285Y-78050057D01*
X112214285Y-78050057D02*
X112166666Y-78145295D01*
X112166666Y-78145295D02*
X112166666Y-78288152D01*
X112166666Y-78288152D02*
X112214285Y-78383390D01*
X112214285Y-78383390D02*
X112261904Y-78431009D01*
X112261904Y-78431009D02*
X112357142Y-78478628D01*
X112357142Y-78478628D02*
X112738094Y-78478628D01*
X111833332Y-77954819D02*
X111214285Y-77954819D01*
X111214285Y-77954819D02*
X111547618Y-78335771D01*
X111547618Y-78335771D02*
X111404761Y-78335771D01*
X111404761Y-78335771D02*
X111309523Y-78383390D01*
X111309523Y-78383390D02*
X111261904Y-78431009D01*
X111261904Y-78431009D02*
X111214285Y-78526247D01*
X111214285Y-78526247D02*
X111214285Y-78764342D01*
X111214285Y-78764342D02*
X111261904Y-78859580D01*
X111261904Y-78859580D02*
X111309523Y-78907200D01*
X111309523Y-78907200D02*
X111404761Y-78954819D01*
X111404761Y-78954819D02*
X111690475Y-78954819D01*
X111690475Y-78954819D02*
X111785713Y-78907200D01*
X111785713Y-78907200D02*
X111833332Y-78859580D01*
X108559523Y-77454819D02*
X107892857Y-77454819D01*
X107892857Y-77454819D02*
X108559523Y-78454819D01*
X108559523Y-78454819D02*
X107892857Y-78454819D01*
X106988095Y-78454819D02*
X107559523Y-78454819D01*
X107273809Y-78454819D02*
X107273809Y-77454819D01*
X107273809Y-77454819D02*
X107369047Y-77597676D01*
X107369047Y-77597676D02*
X107464285Y-77692914D01*
X107464285Y-77692914D02*
X107559523Y-77740533D01*
X118916666Y-84359580D02*
X118964285Y-84407200D01*
X118964285Y-84407200D02*
X119107142Y-84454819D01*
X119107142Y-84454819D02*
X119202380Y-84454819D01*
X119202380Y-84454819D02*
X119345237Y-84407200D01*
X119345237Y-84407200D02*
X119440475Y-84311961D01*
X119440475Y-84311961D02*
X119488094Y-84216723D01*
X119488094Y-84216723D02*
X119535713Y-84026247D01*
X119535713Y-84026247D02*
X119535713Y-83883390D01*
X119535713Y-83883390D02*
X119488094Y-83692914D01*
X119488094Y-83692914D02*
X119440475Y-83597676D01*
X119440475Y-83597676D02*
X119345237Y-83502438D01*
X119345237Y-83502438D02*
X119202380Y-83454819D01*
X119202380Y-83454819D02*
X119107142Y-83454819D01*
X119107142Y-83454819D02*
X118964285Y-83502438D01*
X118964285Y-83502438D02*
X118916666Y-83550057D01*
X118059523Y-83788152D02*
X118059523Y-84454819D01*
X118297618Y-83407200D02*
X118535713Y-84121485D01*
X118535713Y-84121485D02*
X117916666Y-84121485D01*
X116416666Y-92109580D02*
X116464285Y-92157200D01*
X116464285Y-92157200D02*
X116607142Y-92204819D01*
X116607142Y-92204819D02*
X116702380Y-92204819D01*
X116702380Y-92204819D02*
X116845237Y-92157200D01*
X116845237Y-92157200D02*
X116940475Y-92061961D01*
X116940475Y-92061961D02*
X116988094Y-91966723D01*
X116988094Y-91966723D02*
X117035713Y-91776247D01*
X117035713Y-91776247D02*
X117035713Y-91633390D01*
X117035713Y-91633390D02*
X116988094Y-91442914D01*
X116988094Y-91442914D02*
X116940475Y-91347676D01*
X116940475Y-91347676D02*
X116845237Y-91252438D01*
X116845237Y-91252438D02*
X116702380Y-91204819D01*
X116702380Y-91204819D02*
X116607142Y-91204819D01*
X116607142Y-91204819D02*
X116464285Y-91252438D01*
X116464285Y-91252438D02*
X116416666Y-91300057D01*
X116083332Y-91204819D02*
X115464285Y-91204819D01*
X115464285Y-91204819D02*
X115797618Y-91585771D01*
X115797618Y-91585771D02*
X115654761Y-91585771D01*
X115654761Y-91585771D02*
X115559523Y-91633390D01*
X115559523Y-91633390D02*
X115511904Y-91681009D01*
X115511904Y-91681009D02*
X115464285Y-91776247D01*
X115464285Y-91776247D02*
X115464285Y-92014342D01*
X115464285Y-92014342D02*
X115511904Y-92109580D01*
X115511904Y-92109580D02*
X115559523Y-92157200D01*
X115559523Y-92157200D02*
X115654761Y-92204819D01*
X115654761Y-92204819D02*
X115940475Y-92204819D01*
X115940475Y-92204819D02*
X116035713Y-92157200D01*
X116035713Y-92157200D02*
X116083332Y-92109580D01*
X122666666Y-80859580D02*
X122714285Y-80907200D01*
X122714285Y-80907200D02*
X122857142Y-80954819D01*
X122857142Y-80954819D02*
X122952380Y-80954819D01*
X122952380Y-80954819D02*
X123095237Y-80907200D01*
X123095237Y-80907200D02*
X123190475Y-80811961D01*
X123190475Y-80811961D02*
X123238094Y-80716723D01*
X123238094Y-80716723D02*
X123285713Y-80526247D01*
X123285713Y-80526247D02*
X123285713Y-80383390D01*
X123285713Y-80383390D02*
X123238094Y-80192914D01*
X123238094Y-80192914D02*
X123190475Y-80097676D01*
X123190475Y-80097676D02*
X123095237Y-80002438D01*
X123095237Y-80002438D02*
X122952380Y-79954819D01*
X122952380Y-79954819D02*
X122857142Y-79954819D01*
X122857142Y-79954819D02*
X122714285Y-80002438D01*
X122714285Y-80002438D02*
X122666666Y-80050057D01*
X122333332Y-79954819D02*
X121666666Y-79954819D01*
X121666666Y-79954819D02*
X122095237Y-80954819D01*
X129916666Y-78859580D02*
X129964285Y-78907200D01*
X129964285Y-78907200D02*
X130107142Y-78954819D01*
X130107142Y-78954819D02*
X130202380Y-78954819D01*
X130202380Y-78954819D02*
X130345237Y-78907200D01*
X130345237Y-78907200D02*
X130440475Y-78811961D01*
X130440475Y-78811961D02*
X130488094Y-78716723D01*
X130488094Y-78716723D02*
X130535713Y-78526247D01*
X130535713Y-78526247D02*
X130535713Y-78383390D01*
X130535713Y-78383390D02*
X130488094Y-78192914D01*
X130488094Y-78192914D02*
X130440475Y-78097676D01*
X130440475Y-78097676D02*
X130345237Y-78002438D01*
X130345237Y-78002438D02*
X130202380Y-77954819D01*
X130202380Y-77954819D02*
X130107142Y-77954819D01*
X130107142Y-77954819D02*
X129964285Y-78002438D01*
X129964285Y-78002438D02*
X129916666Y-78050057D01*
X129345237Y-78383390D02*
X129440475Y-78335771D01*
X129440475Y-78335771D02*
X129488094Y-78288152D01*
X129488094Y-78288152D02*
X129535713Y-78192914D01*
X129535713Y-78192914D02*
X129535713Y-78145295D01*
X129535713Y-78145295D02*
X129488094Y-78050057D01*
X129488094Y-78050057D02*
X129440475Y-78002438D01*
X129440475Y-78002438D02*
X129345237Y-77954819D01*
X129345237Y-77954819D02*
X129154761Y-77954819D01*
X129154761Y-77954819D02*
X129059523Y-78002438D01*
X129059523Y-78002438D02*
X129011904Y-78050057D01*
X129011904Y-78050057D02*
X128964285Y-78145295D01*
X128964285Y-78145295D02*
X128964285Y-78192914D01*
X128964285Y-78192914D02*
X129011904Y-78288152D01*
X129011904Y-78288152D02*
X129059523Y-78335771D01*
X129059523Y-78335771D02*
X129154761Y-78383390D01*
X129154761Y-78383390D02*
X129345237Y-78383390D01*
X129345237Y-78383390D02*
X129440475Y-78431009D01*
X129440475Y-78431009D02*
X129488094Y-78478628D01*
X129488094Y-78478628D02*
X129535713Y-78573866D01*
X129535713Y-78573866D02*
X129535713Y-78764342D01*
X129535713Y-78764342D02*
X129488094Y-78859580D01*
X129488094Y-78859580D02*
X129440475Y-78907200D01*
X129440475Y-78907200D02*
X129345237Y-78954819D01*
X129345237Y-78954819D02*
X129154761Y-78954819D01*
X129154761Y-78954819D02*
X129059523Y-78907200D01*
X129059523Y-78907200D02*
X129011904Y-78859580D01*
X129011904Y-78859580D02*
X128964285Y-78764342D01*
X128964285Y-78764342D02*
X128964285Y-78573866D01*
X128964285Y-78573866D02*
X129011904Y-78478628D01*
X129011904Y-78478628D02*
X129059523Y-78431009D01*
X129059523Y-78431009D02*
X129154761Y-78383390D01*
X107595238Y-87550057D02*
X107690476Y-87502438D01*
X107690476Y-87502438D02*
X107785714Y-87407200D01*
X107785714Y-87407200D02*
X107928571Y-87264342D01*
X107928571Y-87264342D02*
X108023809Y-87216723D01*
X108023809Y-87216723D02*
X108119047Y-87216723D01*
X108071428Y-87454819D02*
X108166666Y-87407200D01*
X108166666Y-87407200D02*
X108261904Y-87311961D01*
X108261904Y-87311961D02*
X108309523Y-87121485D01*
X108309523Y-87121485D02*
X108309523Y-86788152D01*
X108309523Y-86788152D02*
X108261904Y-86597676D01*
X108261904Y-86597676D02*
X108166666Y-86502438D01*
X108166666Y-86502438D02*
X108071428Y-86454819D01*
X108071428Y-86454819D02*
X107880952Y-86454819D01*
X107880952Y-86454819D02*
X107785714Y-86502438D01*
X107785714Y-86502438D02*
X107690476Y-86597676D01*
X107690476Y-86597676D02*
X107642857Y-86788152D01*
X107642857Y-86788152D02*
X107642857Y-87121485D01*
X107642857Y-87121485D02*
X107690476Y-87311961D01*
X107690476Y-87311961D02*
X107785714Y-87407200D01*
X107785714Y-87407200D02*
X107880952Y-87454819D01*
X107880952Y-87454819D02*
X108071428Y-87454819D01*
X106690476Y-87454819D02*
X107261904Y-87454819D01*
X106976190Y-87454819D02*
X106976190Y-86454819D01*
X106976190Y-86454819D02*
X107071428Y-86597676D01*
X107071428Y-86597676D02*
X107166666Y-86692914D01*
X107166666Y-86692914D02*
X107261904Y-86740533D01*
X130011904Y-90954819D02*
X130011904Y-91764342D01*
X130011904Y-91764342D02*
X129964285Y-91859580D01*
X129964285Y-91859580D02*
X129916666Y-91907200D01*
X129916666Y-91907200D02*
X129821428Y-91954819D01*
X129821428Y-91954819D02*
X129630952Y-91954819D01*
X129630952Y-91954819D02*
X129535714Y-91907200D01*
X129535714Y-91907200D02*
X129488095Y-91859580D01*
X129488095Y-91859580D02*
X129440476Y-91764342D01*
X129440476Y-91764342D02*
X129440476Y-90954819D01*
X129011904Y-91050057D02*
X128964285Y-91002438D01*
X128964285Y-91002438D02*
X128869047Y-90954819D01*
X128869047Y-90954819D02*
X128630952Y-90954819D01*
X128630952Y-90954819D02*
X128535714Y-91002438D01*
X128535714Y-91002438D02*
X128488095Y-91050057D01*
X128488095Y-91050057D02*
X128440476Y-91145295D01*
X128440476Y-91145295D02*
X128440476Y-91240533D01*
X128440476Y-91240533D02*
X128488095Y-91383390D01*
X128488095Y-91383390D02*
X129059523Y-91954819D01*
X129059523Y-91954819D02*
X128440476Y-91954819D01*
X120016666Y-80704819D02*
X120349999Y-80228628D01*
X120588094Y-80704819D02*
X120588094Y-79704819D01*
X120588094Y-79704819D02*
X120207142Y-79704819D01*
X120207142Y-79704819D02*
X120111904Y-79752438D01*
X120111904Y-79752438D02*
X120064285Y-79800057D01*
X120064285Y-79800057D02*
X120016666Y-79895295D01*
X120016666Y-79895295D02*
X120016666Y-80038152D01*
X120016666Y-80038152D02*
X120064285Y-80133390D01*
X120064285Y-80133390D02*
X120111904Y-80181009D01*
X120111904Y-80181009D02*
X120207142Y-80228628D01*
X120207142Y-80228628D02*
X120588094Y-80228628D01*
X119159523Y-80038152D02*
X119159523Y-80704819D01*
X119397618Y-79657200D02*
X119635713Y-80371485D01*
X119635713Y-80371485D02*
X119016666Y-80371485D01*
X114916666Y-84359580D02*
X114964285Y-84407200D01*
X114964285Y-84407200D02*
X115107142Y-84454819D01*
X115107142Y-84454819D02*
X115202380Y-84454819D01*
X115202380Y-84454819D02*
X115345237Y-84407200D01*
X115345237Y-84407200D02*
X115440475Y-84311961D01*
X115440475Y-84311961D02*
X115488094Y-84216723D01*
X115488094Y-84216723D02*
X115535713Y-84026247D01*
X115535713Y-84026247D02*
X115535713Y-83883390D01*
X115535713Y-83883390D02*
X115488094Y-83692914D01*
X115488094Y-83692914D02*
X115440475Y-83597676D01*
X115440475Y-83597676D02*
X115345237Y-83502438D01*
X115345237Y-83502438D02*
X115202380Y-83454819D01*
X115202380Y-83454819D02*
X115107142Y-83454819D01*
X115107142Y-83454819D02*
X114964285Y-83502438D01*
X114964285Y-83502438D02*
X114916666Y-83550057D01*
X113964285Y-84454819D02*
X114535713Y-84454819D01*
X114249999Y-84454819D02*
X114249999Y-83454819D01*
X114249999Y-83454819D02*
X114345237Y-83597676D01*
X114345237Y-83597676D02*
X114440475Y-83692914D01*
X114440475Y-83692914D02*
X114535713Y-83740533D01*
X120416666Y-92109580D02*
X120464285Y-92157200D01*
X120464285Y-92157200D02*
X120607142Y-92204819D01*
X120607142Y-92204819D02*
X120702380Y-92204819D01*
X120702380Y-92204819D02*
X120845237Y-92157200D01*
X120845237Y-92157200D02*
X120940475Y-92061961D01*
X120940475Y-92061961D02*
X120988094Y-91966723D01*
X120988094Y-91966723D02*
X121035713Y-91776247D01*
X121035713Y-91776247D02*
X121035713Y-91633390D01*
X121035713Y-91633390D02*
X120988094Y-91442914D01*
X120988094Y-91442914D02*
X120940475Y-91347676D01*
X120940475Y-91347676D02*
X120845237Y-91252438D01*
X120845237Y-91252438D02*
X120702380Y-91204819D01*
X120702380Y-91204819D02*
X120607142Y-91204819D01*
X120607142Y-91204819D02*
X120464285Y-91252438D01*
X120464285Y-91252438D02*
X120416666Y-91300057D01*
X120035713Y-91300057D02*
X119988094Y-91252438D01*
X119988094Y-91252438D02*
X119892856Y-91204819D01*
X119892856Y-91204819D02*
X119654761Y-91204819D01*
X119654761Y-91204819D02*
X119559523Y-91252438D01*
X119559523Y-91252438D02*
X119511904Y-91300057D01*
X119511904Y-91300057D02*
X119464285Y-91395295D01*
X119464285Y-91395295D02*
X119464285Y-91490533D01*
X119464285Y-91490533D02*
X119511904Y-91633390D01*
X119511904Y-91633390D02*
X120083332Y-92204819D01*
X120083332Y-92204819D02*
X119464285Y-92204819D01*
X110666666Y-87359580D02*
X110714285Y-87407200D01*
X110714285Y-87407200D02*
X110857142Y-87454819D01*
X110857142Y-87454819D02*
X110952380Y-87454819D01*
X110952380Y-87454819D02*
X111095237Y-87407200D01*
X111095237Y-87407200D02*
X111190475Y-87311961D01*
X111190475Y-87311961D02*
X111238094Y-87216723D01*
X111238094Y-87216723D02*
X111285713Y-87026247D01*
X111285713Y-87026247D02*
X111285713Y-86883390D01*
X111285713Y-86883390D02*
X111238094Y-86692914D01*
X111238094Y-86692914D02*
X111190475Y-86597676D01*
X111190475Y-86597676D02*
X111095237Y-86502438D01*
X111095237Y-86502438D02*
X110952380Y-86454819D01*
X110952380Y-86454819D02*
X110857142Y-86454819D01*
X110857142Y-86454819D02*
X110714285Y-86502438D01*
X110714285Y-86502438D02*
X110666666Y-86550057D01*
X109761904Y-86454819D02*
X110238094Y-86454819D01*
X110238094Y-86454819D02*
X110285713Y-86931009D01*
X110285713Y-86931009D02*
X110238094Y-86883390D01*
X110238094Y-86883390D02*
X110142856Y-86835771D01*
X110142856Y-86835771D02*
X109904761Y-86835771D01*
X109904761Y-86835771D02*
X109809523Y-86883390D01*
X109809523Y-86883390D02*
X109761904Y-86931009D01*
X109761904Y-86931009D02*
X109714285Y-87026247D01*
X109714285Y-87026247D02*
X109714285Y-87264342D01*
X109714285Y-87264342D02*
X109761904Y-87359580D01*
X109761904Y-87359580D02*
X109809523Y-87407200D01*
X109809523Y-87407200D02*
X109904761Y-87454819D01*
X109904761Y-87454819D02*
X110142856Y-87454819D01*
X110142856Y-87454819D02*
X110238094Y-87407200D01*
X110238094Y-87407200D02*
X110285713Y-87359580D01*
X125916666Y-93539580D02*
X125964285Y-93587200D01*
X125964285Y-93587200D02*
X126107142Y-93634819D01*
X126107142Y-93634819D02*
X126202380Y-93634819D01*
X126202380Y-93634819D02*
X126345237Y-93587200D01*
X126345237Y-93587200D02*
X126440475Y-93491961D01*
X126440475Y-93491961D02*
X126488094Y-93396723D01*
X126488094Y-93396723D02*
X126535713Y-93206247D01*
X126535713Y-93206247D02*
X126535713Y-93063390D01*
X126535713Y-93063390D02*
X126488094Y-92872914D01*
X126488094Y-92872914D02*
X126440475Y-92777676D01*
X126440475Y-92777676D02*
X126345237Y-92682438D01*
X126345237Y-92682438D02*
X126202380Y-92634819D01*
X126202380Y-92634819D02*
X126107142Y-92634819D01*
X126107142Y-92634819D02*
X125964285Y-92682438D01*
X125964285Y-92682438D02*
X125916666Y-92730057D01*
X125059523Y-92634819D02*
X125249999Y-92634819D01*
X125249999Y-92634819D02*
X125345237Y-92682438D01*
X125345237Y-92682438D02*
X125392856Y-92730057D01*
X125392856Y-92730057D02*
X125488094Y-92872914D01*
X125488094Y-92872914D02*
X125535713Y-93063390D01*
X125535713Y-93063390D02*
X125535713Y-93444342D01*
X125535713Y-93444342D02*
X125488094Y-93539580D01*
X125488094Y-93539580D02*
X125440475Y-93587200D01*
X125440475Y-93587200D02*
X125345237Y-93634819D01*
X125345237Y-93634819D02*
X125154761Y-93634819D01*
X125154761Y-93634819D02*
X125059523Y-93587200D01*
X125059523Y-93587200D02*
X125011904Y-93539580D01*
X125011904Y-93539580D02*
X124964285Y-93444342D01*
X124964285Y-93444342D02*
X124964285Y-93206247D01*
X124964285Y-93206247D02*
X125011904Y-93111009D01*
X125011904Y-93111009D02*
X125059523Y-93063390D01*
X125059523Y-93063390D02*
X125154761Y-93015771D01*
X125154761Y-93015771D02*
X125345237Y-93015771D01*
X125345237Y-93015771D02*
X125440475Y-93063390D01*
X125440475Y-93063390D02*
X125488094Y-93111009D01*
X125488094Y-93111009D02*
X125535713Y-93206247D01*
X125416666Y-75954819D02*
X125749999Y-75478628D01*
X125988094Y-75954819D02*
X125988094Y-74954819D01*
X125988094Y-74954819D02*
X125607142Y-74954819D01*
X125607142Y-74954819D02*
X125511904Y-75002438D01*
X125511904Y-75002438D02*
X125464285Y-75050057D01*
X125464285Y-75050057D02*
X125416666Y-75145295D01*
X125416666Y-75145295D02*
X125416666Y-75288152D01*
X125416666Y-75288152D02*
X125464285Y-75383390D01*
X125464285Y-75383390D02*
X125511904Y-75431009D01*
X125511904Y-75431009D02*
X125607142Y-75478628D01*
X125607142Y-75478628D02*
X125988094Y-75478628D01*
X124511904Y-74954819D02*
X124988094Y-74954819D01*
X124988094Y-74954819D02*
X125035713Y-75431009D01*
X125035713Y-75431009D02*
X124988094Y-75383390D01*
X124988094Y-75383390D02*
X124892856Y-75335771D01*
X124892856Y-75335771D02*
X124654761Y-75335771D01*
X124654761Y-75335771D02*
X124559523Y-75383390D01*
X124559523Y-75383390D02*
X124511904Y-75431009D01*
X124511904Y-75431009D02*
X124464285Y-75526247D01*
X124464285Y-75526247D02*
X124464285Y-75764342D01*
X124464285Y-75764342D02*
X124511904Y-75859580D01*
X124511904Y-75859580D02*
X124559523Y-75907200D01*
X124559523Y-75907200D02*
X124654761Y-75954819D01*
X124654761Y-75954819D02*
X124892856Y-75954819D01*
X124892856Y-75954819D02*
X124988094Y-75907200D01*
X124988094Y-75907200D02*
X125035713Y-75859580D01*
X105238094Y-89204819D02*
X105238094Y-88204819D01*
X105238094Y-88204819D02*
X104999999Y-88204819D01*
X104999999Y-88204819D02*
X104857142Y-88252438D01*
X104857142Y-88252438D02*
X104761904Y-88347676D01*
X104761904Y-88347676D02*
X104714285Y-88442914D01*
X104714285Y-88442914D02*
X104666666Y-88633390D01*
X104666666Y-88633390D02*
X104666666Y-88776247D01*
X104666666Y-88776247D02*
X104714285Y-88966723D01*
X104714285Y-88966723D02*
X104761904Y-89061961D01*
X104761904Y-89061961D02*
X104857142Y-89157200D01*
X104857142Y-89157200D02*
X104999999Y-89204819D01*
X104999999Y-89204819D02*
X105238094Y-89204819D01*
X103714285Y-89204819D02*
X104285713Y-89204819D01*
X103999999Y-89204819D02*
X103999999Y-88204819D01*
X103999999Y-88204819D02*
X104095237Y-88347676D01*
X104095237Y-88347676D02*
X104190475Y-88442914D01*
X104190475Y-88442914D02*
X104285713Y-88490533D01*
D11*
%TO.C,R2*%
X103977064Y-82515000D02*
X103522936Y-82515000D01*
X103977064Y-83985000D02*
X103522936Y-83985000D01*
%TO.C,R3*%
X111265000Y-80522936D02*
X111265000Y-80977064D01*
X112735000Y-80522936D02*
X112735000Y-80977064D01*
D12*
%TO.C,Z1*%
X106835000Y-79450000D02*
X108435000Y-79450000D01*
X106835000Y-81050000D02*
X108435000Y-81050000D01*
D13*
X110335000Y-80250000D02*
X110335000Y-80250000D01*
X110435000Y-80250000D02*
X110435000Y-80250000D01*
X110335000Y-80250000D02*
G75*
G02*
X110435000Y-80250000I50000J0D01*
G01*
X110435000Y-80250000D02*
G75*
G02*
X110335000Y-80250000I-50000J0D01*
G01*
D11*
%TO.C,C4*%
X119011252Y-84765000D02*
X118488748Y-84765000D01*
X119011252Y-86235000D02*
X118488748Y-86235000D01*
%TO.C,C3*%
X116511252Y-89265000D02*
X115988748Y-89265000D01*
X116511252Y-90735000D02*
X115988748Y-90735000D01*
%TO.C,C7*%
X124938748Y-79665000D02*
X125461252Y-79665000D01*
X124938748Y-81135000D02*
X125461252Y-81135000D01*
%TO.C,C8*%
X129061252Y-79665000D02*
X128538748Y-79665000D01*
X129061252Y-81135000D02*
X128538748Y-81135000D01*
%TO.C,Q1*%
X105940000Y-83662500D02*
X105940000Y-84312500D01*
X105940000Y-84962500D02*
X105940000Y-84312500D01*
X109060000Y-83662500D02*
X109060000Y-84312500D01*
X109060000Y-84962500D02*
X109060000Y-84312500D01*
X105990000Y-83150000D02*
X105660000Y-83390000D01*
X105660000Y-82910000D01*
X105990000Y-83150000D01*
G36*
X105990000Y-83150000D02*
G01*
X105660000Y-83390000D01*
X105660000Y-82910000D01*
X105990000Y-83150000D01*
G37*
D14*
%TO.C,G\u002A\u002A\u002A*%
G36*
X110081593Y-93333874D02*
G01*
X110078104Y-93337363D01*
X110074615Y-93333874D01*
X110078104Y-93330384D01*
X110081593Y-93333874D01*
G37*
G36*
X110151374Y-93403654D02*
G01*
X110147885Y-93407143D01*
X110144396Y-93403654D01*
X110147885Y-93400165D01*
X110151374Y-93403654D01*
G37*
G36*
X110004284Y-94003182D02*
G01*
X110003791Y-94010260D01*
X110000619Y-94012341D01*
X109999237Y-94009872D01*
X110000068Y-93998966D01*
X110002580Y-93995736D01*
X110004284Y-94003182D01*
G37*
G36*
X110081593Y-93274560D02*
G01*
X110081090Y-93278254D01*
X110076941Y-93279212D01*
X110076106Y-93278190D01*
X110076941Y-93269908D01*
X110079040Y-93268817D01*
X110081593Y-93274560D01*
G37*
G36*
X110431803Y-93772211D02*
G01*
X110435033Y-93774723D01*
X110427587Y-93776427D01*
X110420510Y-93775934D01*
X110418428Y-93772762D01*
X110420897Y-93771379D01*
X110431803Y-93772211D01*
G37*
G36*
X111017957Y-94665398D02*
G01*
X111021187Y-94667910D01*
X111013741Y-94669614D01*
X111006663Y-94669120D01*
X111004582Y-94665949D01*
X111007051Y-94664566D01*
X111017957Y-94665398D01*
G37*
G36*
X111080759Y-94742156D02*
G01*
X111083989Y-94744668D01*
X111076543Y-94746372D01*
X111069466Y-94745879D01*
X111067384Y-94742707D01*
X111069853Y-94741324D01*
X111080759Y-94742156D01*
G37*
G36*
X111100385Y-94649231D02*
G01*
X111099881Y-94652925D01*
X111095733Y-94653883D01*
X111094898Y-94652860D01*
X111095733Y-94644579D01*
X111097832Y-94643487D01*
X111100385Y-94649231D01*
G37*
G36*
X111490603Y-95335984D02*
G01*
X111490110Y-95343062D01*
X111486938Y-95345143D01*
X111485555Y-95342674D01*
X111486387Y-95331768D01*
X111488899Y-95328539D01*
X111490603Y-95335984D01*
G37*
G36*
X109069780Y-94805824D02*
G01*
X109069644Y-94809347D01*
X109066348Y-94816395D01*
X109059611Y-94810207D01*
X109058663Y-94807691D01*
X109062688Y-94799328D01*
X109066347Y-94798637D01*
X109069780Y-94805824D01*
G37*
G36*
X109183262Y-94270267D02*
G01*
X109188407Y-94279154D01*
X109185306Y-94281982D01*
X109173861Y-94281263D01*
X109164675Y-94277113D01*
X109168294Y-94271910D01*
X109171663Y-94270216D01*
X109183262Y-94270267D01*
G37*
G36*
X109408881Y-93915460D02*
G01*
X109406727Y-93918560D01*
X109400824Y-93923516D01*
X109399849Y-93923448D01*
X109398312Y-93919409D01*
X109405803Y-93912383D01*
X109409703Y-93910685D01*
X109408881Y-93915460D01*
G37*
G36*
X109460549Y-94366209D02*
G01*
X109460413Y-94369732D01*
X109457117Y-94376779D01*
X109450380Y-94370592D01*
X109449432Y-94368076D01*
X109453458Y-94359713D01*
X109457116Y-94359022D01*
X109460549Y-94366209D01*
G37*
G36*
X109520529Y-93643317D02*
G01*
X109518375Y-93646417D01*
X109512473Y-93651374D01*
X109511497Y-93651306D01*
X109509961Y-93647266D01*
X109517452Y-93640240D01*
X109521351Y-93638542D01*
X109520529Y-93643317D01*
G37*
G36*
X109674046Y-93852658D02*
G01*
X109671891Y-93855758D01*
X109665989Y-93860714D01*
X109665014Y-93860646D01*
X109663477Y-93856607D01*
X109670968Y-93849581D01*
X109674868Y-93847883D01*
X109674046Y-93852658D01*
G37*
G36*
X109862452Y-93022273D02*
G01*
X109860298Y-93025373D01*
X109854396Y-93030330D01*
X109853420Y-93030262D01*
X109851884Y-93026222D01*
X109859375Y-93019196D01*
X109863275Y-93017498D01*
X109862452Y-93022273D01*
G37*
G36*
X110316024Y-93399087D02*
G01*
X110313869Y-93402186D01*
X110307967Y-93407143D01*
X110306992Y-93407075D01*
X110305455Y-93403035D01*
X110312946Y-93396009D01*
X110316846Y-93394312D01*
X110316024Y-93399087D01*
G37*
G36*
X111055694Y-94864471D02*
G01*
X111053540Y-94867571D01*
X111047638Y-94872527D01*
X111046662Y-94872459D01*
X111045125Y-94868420D01*
X111052617Y-94861394D01*
X111056516Y-94859696D01*
X111055694Y-94864471D01*
G37*
G36*
X111117759Y-94774721D02*
G01*
X111118451Y-94778380D01*
X111111264Y-94781813D01*
X111107740Y-94781677D01*
X111100693Y-94778380D01*
X111106881Y-94771644D01*
X111109397Y-94770696D01*
X111117759Y-94774721D01*
G37*
G36*
X107947503Y-91825070D02*
G01*
X107953297Y-91833599D01*
X107952176Y-91838464D01*
X107943576Y-91844066D01*
X107938625Y-91842873D01*
X107929839Y-91833599D01*
X107929563Y-91826512D01*
X107939560Y-91823132D01*
X107947503Y-91825070D01*
G37*
G36*
X108575474Y-92375704D02*
G01*
X108581319Y-92381374D01*
X108578702Y-92385429D01*
X108567363Y-92388352D01*
X108559251Y-92387043D01*
X108553407Y-92381374D01*
X108556024Y-92377318D01*
X108567363Y-92374395D01*
X108575474Y-92375704D01*
G37*
G36*
X108826683Y-95285539D02*
G01*
X108832528Y-95291209D01*
X108829911Y-95295264D01*
X108818571Y-95298187D01*
X108810460Y-95296878D01*
X108804615Y-95291209D01*
X108807232Y-95287153D01*
X108818571Y-95284231D01*
X108826683Y-95285539D01*
G37*
G36*
X108938812Y-93533015D02*
G01*
X108944176Y-93539725D01*
X108944096Y-93541304D01*
X108941099Y-93546703D01*
X108939979Y-93546382D01*
X108933709Y-93539725D01*
X108932619Y-93537022D01*
X108936786Y-93532747D01*
X108938812Y-93533015D01*
G37*
G36*
X109299082Y-94032052D02*
G01*
X109299843Y-94045283D01*
X109299813Y-94049797D01*
X109297846Y-94060040D01*
X109292354Y-94058167D01*
X109288358Y-94051245D01*
X109292142Y-94037582D01*
X109296241Y-94031304D01*
X109299082Y-94032052D01*
G37*
G36*
X109315843Y-94078099D02*
G01*
X109317500Y-94084011D01*
X109316070Y-94086122D01*
X109310522Y-94090989D01*
X109309513Y-94090661D01*
X109303544Y-94084011D01*
X109302985Y-94080315D01*
X109310522Y-94077033D01*
X109315843Y-94078099D01*
G37*
G36*
X109419815Y-94315594D02*
G01*
X109425659Y-94321264D01*
X109423042Y-94325319D01*
X109411703Y-94328242D01*
X109403592Y-94326933D01*
X109397747Y-94321264D01*
X109400364Y-94317208D01*
X109411703Y-94314286D01*
X109419815Y-94315594D01*
G37*
G36*
X109441447Y-94266506D02*
G01*
X109443104Y-94272417D01*
X109441674Y-94274529D01*
X109436126Y-94279395D01*
X109435117Y-94279067D01*
X109429148Y-94272417D01*
X109428590Y-94268722D01*
X109436126Y-94265439D01*
X109441447Y-94266506D01*
G37*
G36*
X109671055Y-93876526D02*
G01*
X109676868Y-93884484D01*
X109674571Y-93890090D01*
X109662912Y-93890648D01*
X109654763Y-93887349D01*
X109648956Y-93880834D01*
X109651568Y-93877255D01*
X109662912Y-93874670D01*
X109671055Y-93876526D01*
G37*
G36*
X109811064Y-92856147D02*
G01*
X109816429Y-92862857D01*
X109816349Y-92864436D01*
X109813351Y-92869835D01*
X109812232Y-92869514D01*
X109805962Y-92862857D01*
X109804871Y-92860154D01*
X109809039Y-92855879D01*
X109811064Y-92856147D01*
G37*
G36*
X109838381Y-91783067D02*
G01*
X109840852Y-91788242D01*
X109836353Y-91792015D01*
X109822995Y-91795220D01*
X109815277Y-91793967D01*
X109809451Y-91788242D01*
X109813998Y-91783602D01*
X109827307Y-91781264D01*
X109838381Y-91783067D01*
G37*
G36*
X110014845Y-93864305D02*
G01*
X110018791Y-93878687D01*
X110016518Y-93890222D01*
X110008324Y-93891150D01*
X110001804Y-93885035D01*
X109997857Y-93870654D01*
X110000131Y-93859119D01*
X110008324Y-93858191D01*
X110014845Y-93864305D01*
G37*
G36*
X110057287Y-93227037D02*
G01*
X110067826Y-93233779D01*
X110070684Y-93240386D01*
X110063312Y-93243545D01*
X110052251Y-93239119D01*
X110044089Y-93228966D01*
X110043128Y-93225924D01*
X110045488Y-93222738D01*
X110057287Y-93227037D01*
G37*
G36*
X110190320Y-93500474D02*
G01*
X110193242Y-93511813D01*
X110191933Y-93519925D01*
X110186264Y-93525769D01*
X110182208Y-93523152D01*
X110179286Y-93511813D01*
X110180594Y-93503701D01*
X110186264Y-93497857D01*
X110190320Y-93500474D01*
G37*
G36*
X110404675Y-93644959D02*
G01*
X110405703Y-93651969D01*
X110404336Y-93653772D01*
X110392190Y-93657961D01*
X110375825Y-93652235D01*
X110371109Y-93646893D01*
X110379314Y-93643010D01*
X110394154Y-93641565D01*
X110404675Y-93644959D01*
G37*
G36*
X110511145Y-93951742D02*
G01*
X110517720Y-93958406D01*
X110519020Y-93960877D01*
X110518543Y-93965384D01*
X110517317Y-93965070D01*
X110510742Y-93958406D01*
X110509442Y-93955936D01*
X110509918Y-93951428D01*
X110511145Y-93951742D01*
G37*
G36*
X110772418Y-94039307D02*
G01*
X110769778Y-94045033D01*
X110758462Y-94049121D01*
X110750357Y-94047967D01*
X110744506Y-94042957D01*
X110747149Y-94038666D01*
X110758462Y-94033143D01*
X110767289Y-94032450D01*
X110772418Y-94039307D01*
G37*
G36*
X110944564Y-94793730D02*
G01*
X110946868Y-94809725D01*
X110944763Y-94825284D01*
X110938146Y-94828915D01*
X110932713Y-94823536D01*
X110929423Y-94809725D01*
X110931334Y-94798946D01*
X110938146Y-94790536D01*
X110944564Y-94793730D01*
G37*
G36*
X111052865Y-94391831D02*
G01*
X111058517Y-94398022D01*
X111057336Y-94401232D01*
X111048049Y-94405000D01*
X111043234Y-94404213D01*
X111037582Y-94398022D01*
X111038763Y-94394812D01*
X111048049Y-94391044D01*
X111052865Y-94391831D01*
G37*
G36*
X111410864Y-95223932D02*
G01*
X111414396Y-95235384D01*
X111412075Y-95245585D01*
X111402184Y-95248012D01*
X111395774Y-95245237D01*
X111389973Y-95235384D01*
X111391803Y-95229638D01*
X111402184Y-95222757D01*
X111410864Y-95223932D01*
G37*
G36*
X111460657Y-94972832D02*
G01*
X111463242Y-94984176D01*
X111461386Y-94992319D01*
X111453428Y-94998132D01*
X111447822Y-94995834D01*
X111447264Y-94984176D01*
X111450563Y-94976027D01*
X111457078Y-94970220D01*
X111460657Y-94972832D01*
G37*
G36*
X111485341Y-94455702D02*
G01*
X111491154Y-94463660D01*
X111488856Y-94469266D01*
X111477198Y-94469824D01*
X111469049Y-94466525D01*
X111463242Y-94460010D01*
X111465854Y-94456431D01*
X111477198Y-94453846D01*
X111485341Y-94455702D01*
G37*
G36*
X111488232Y-95175199D02*
G01*
X111491154Y-95186538D01*
X111489845Y-95194650D01*
X111484176Y-95200494D01*
X111480120Y-95197877D01*
X111477198Y-95186538D01*
X111478506Y-95178427D01*
X111484176Y-95172582D01*
X111488232Y-95175199D01*
G37*
G36*
X109122832Y-94676369D02*
G01*
X109132132Y-94683534D01*
X109127930Y-94693425D01*
X109124143Y-94695680D01*
X109111139Y-94698077D01*
X109103372Y-94695746D01*
X109102437Y-94684931D01*
X109106823Y-94676940D01*
X109119228Y-94675278D01*
X109122832Y-94676369D01*
G37*
G36*
X109383791Y-94152937D02*
G01*
X109381827Y-94161851D01*
X109373324Y-94167747D01*
X109368522Y-94167060D01*
X109362857Y-94161624D01*
X109364552Y-94156886D01*
X109373324Y-94146813D01*
X109375750Y-94144881D01*
X109382263Y-94142856D01*
X109383791Y-94152937D01*
G37*
G36*
X109603599Y-93616483D02*
G01*
X109604039Y-93617735D01*
X109598142Y-93621870D01*
X109581332Y-93623355D01*
X109570167Y-93623014D01*
X109561757Y-93620929D01*
X109565220Y-93616483D01*
X109576065Y-93611564D01*
X109592597Y-93610272D01*
X109603599Y-93616483D01*
G37*
G36*
X109667118Y-94164260D02*
G01*
X109673995Y-94169668D01*
X109675677Y-94173687D01*
X109665068Y-94174503D01*
X109664416Y-94174507D01*
X109650813Y-94171566D01*
X109644158Y-94164987D01*
X109647814Y-94157986D01*
X109654616Y-94157879D01*
X109667118Y-94164260D01*
G37*
G36*
X111490942Y-95274345D02*
G01*
X111490165Y-95283460D01*
X111486066Y-95293971D01*
X111483722Y-95295777D01*
X111479268Y-95293818D01*
X111479002Y-95284460D01*
X111483470Y-95272282D01*
X111486279Y-95267595D01*
X111490075Y-95264345D01*
X111490942Y-95274345D01*
G37*
G36*
X109330539Y-94406533D02*
G01*
X109334945Y-94416213D01*
X109333237Y-94422544D01*
X109323907Y-94423191D01*
X109318224Y-94421320D01*
X109304718Y-94418849D01*
X109301742Y-94417073D01*
X109306570Y-94412354D01*
X109316183Y-94407437D01*
X109326223Y-94405107D01*
X109330539Y-94406533D01*
G37*
G36*
X109407811Y-93836904D02*
G01*
X109419941Y-93841258D01*
X109425659Y-93847572D01*
X109424613Y-93850098D01*
X109415680Y-93853395D01*
X109403397Y-93852618D01*
X109394860Y-93847731D01*
X109394151Y-93846359D01*
X109394852Y-93838023D01*
X109396809Y-93836848D01*
X109407811Y-93836904D01*
G37*
G36*
X109442400Y-93776983D02*
G01*
X109456945Y-93778183D01*
X109458929Y-93783070D01*
X109449584Y-93793925D01*
X109441273Y-93800509D01*
X109427706Y-93805110D01*
X109418182Y-93801799D01*
X109416659Y-93790934D01*
X109423560Y-93780625D01*
X109440429Y-93776978D01*
X109442400Y-93776983D01*
G37*
G36*
X109870342Y-91465739D02*
G01*
X109875119Y-91466796D01*
X109893302Y-91475875D01*
X109900058Y-91489931D01*
X109897785Y-91494178D01*
X109885883Y-91493460D01*
X109864700Y-91484400D01*
X109855607Y-91478944D01*
X109847931Y-91470022D01*
X109853037Y-91464977D01*
X109870342Y-91465739D01*
G37*
G36*
X109999665Y-93937207D02*
G01*
X110004835Y-93952082D01*
X110003929Y-93960394D01*
X109997855Y-93964550D01*
X109982504Y-93962663D01*
X109968559Y-93958761D01*
X109956030Y-93950930D01*
X109955146Y-93942441D01*
X109966910Y-93935070D01*
X109985175Y-93931796D01*
X109999665Y-93937207D01*
G37*
G36*
X110196064Y-93446693D02*
G01*
X110208180Y-93449011D01*
X110210459Y-93449545D01*
X110210687Y-93455989D01*
X110208022Y-93459032D01*
X110196524Y-93462962D01*
X110184712Y-93460235D01*
X110179286Y-93451753D01*
X110180994Y-93445423D01*
X110190324Y-93444775D01*
X110196064Y-93446693D01*
G37*
G36*
X110899386Y-94870878D02*
G01*
X110908130Y-94881588D01*
X110911978Y-94894316D01*
X110910762Y-94901614D01*
X110904850Y-94907417D01*
X110898099Y-94903012D01*
X110890362Y-94890860D01*
X110885430Y-94877110D01*
X110886253Y-94868014D01*
X110889947Y-94866479D01*
X110899386Y-94870878D01*
G37*
G36*
X110920180Y-94273527D02*
G01*
X110922142Y-94280363D01*
X110916801Y-94289339D01*
X110906150Y-94295634D01*
X110899156Y-94297400D01*
X110886115Y-94299193D01*
X110885018Y-94294827D01*
X110895031Y-94283383D01*
X110903241Y-94277004D01*
X110915747Y-94272417D01*
X110920180Y-94273527D01*
G37*
G36*
X110980644Y-94854594D02*
G01*
X110990086Y-94859468D01*
X110991773Y-94866281D01*
X110989102Y-94868909D01*
X110978081Y-94872223D01*
X110966310Y-94871217D01*
X110960824Y-94865961D01*
X110960962Y-94864519D01*
X110967173Y-94855471D01*
X110969626Y-94854374D01*
X110980644Y-94854594D01*
G37*
G36*
X111006434Y-94442107D02*
G01*
X111006928Y-94450928D01*
X111004985Y-94456683D01*
X111002692Y-94468154D01*
X111001224Y-94470741D01*
X110992225Y-94470326D01*
X110986693Y-94466951D01*
X110981557Y-94455963D01*
X110985094Y-94444920D01*
X110996461Y-94439890D01*
X111006434Y-94442107D01*
G37*
G36*
X108527783Y-92738979D02*
G01*
X108552657Y-92755704D01*
X108552611Y-92758898D01*
X108546569Y-92768485D01*
X108542305Y-92772637D01*
X108526199Y-92778217D01*
X108509319Y-92773980D01*
X108496007Y-92761844D01*
X108490604Y-92743732D01*
X108495200Y-92732760D01*
X108508111Y-92731231D01*
X108527783Y-92738979D01*
G37*
G36*
X109566183Y-94407442D02*
G01*
X109572198Y-94411978D01*
X109569326Y-94414670D01*
X109556029Y-94417710D01*
X109535563Y-94418849D01*
X109517016Y-94418254D01*
X109507189Y-94416052D01*
X109509396Y-94411978D01*
X109516739Y-94408841D01*
X109533355Y-94405874D01*
X109551535Y-94405408D01*
X109566183Y-94407442D01*
G37*
G36*
X110852953Y-95007399D02*
G01*
X110853411Y-95016148D01*
X110851650Y-95021694D01*
X110849176Y-95037663D01*
X110846910Y-95045480D01*
X110840680Y-95045138D01*
X110833770Y-95037110D01*
X110829523Y-95023761D01*
X110829040Y-95018242D01*
X110831577Y-95007728D01*
X110842481Y-95005110D01*
X110852953Y-95007399D01*
G37*
G36*
X110898486Y-94188881D02*
G01*
X110909604Y-94194429D01*
X110911775Y-94203823D01*
X110903256Y-94211972D01*
X110901891Y-94212486D01*
X110888601Y-94215402D01*
X110875824Y-94215910D01*
X110870110Y-94213675D01*
X110870476Y-94209442D01*
X110879012Y-94194664D01*
X110895280Y-94188681D01*
X110898486Y-94188881D01*
G37*
G36*
X111042661Y-94790840D02*
G01*
X111042054Y-94799215D01*
X111039995Y-94805623D01*
X111037582Y-94820110D01*
X111035149Y-94825287D01*
X111023260Y-94825607D01*
X111013659Y-94819755D01*
X111010448Y-94808173D01*
X111016151Y-94796551D01*
X111029842Y-94789922D01*
X111033175Y-94789511D01*
X111042661Y-94790840D01*
G37*
G36*
X111426057Y-95361287D02*
G01*
X111432865Y-95375023D01*
X111433739Y-95377125D01*
X111439819Y-95393358D01*
X111442308Y-95403005D01*
X111439494Y-95405585D01*
X111428352Y-95404879D01*
X111420278Y-95400526D01*
X111414564Y-95386094D01*
X111418909Y-95364326D01*
X111421481Y-95359617D01*
X111426057Y-95361287D01*
G37*
G36*
X108087146Y-94622459D02*
G01*
X108092857Y-94627442D01*
X108090877Y-94633322D01*
X108079265Y-94643702D01*
X108061456Y-94650721D01*
X108052394Y-94651221D01*
X108038305Y-94646737D01*
X108036185Y-94644943D01*
X108034761Y-94638521D01*
X108045283Y-94630787D01*
X108055996Y-94626070D01*
X108073244Y-94622116D01*
X108087146Y-94622459D01*
G37*
G36*
X108874447Y-93585020D02*
G01*
X108871673Y-93595459D01*
X108862184Y-93608924D01*
X108859784Y-93611356D01*
X108847911Y-93619882D01*
X108837191Y-93623759D01*
X108832528Y-93620991D01*
X108833532Y-93618792D01*
X108841194Y-93609246D01*
X108852809Y-93596874D01*
X108864047Y-93586161D01*
X108870573Y-93581593D01*
X108874447Y-93585020D01*
G37*
G36*
X109196395Y-94414453D02*
G01*
X109211701Y-94423787D01*
X109224752Y-94436106D01*
X109230275Y-94447140D01*
X109228373Y-94452072D01*
X109219143Y-94453504D01*
X109205663Y-94448479D01*
X109191781Y-94438675D01*
X109181343Y-94425774D01*
X109179723Y-94422612D01*
X109178103Y-94414027D01*
X109186845Y-94411978D01*
X109196395Y-94414453D01*
G37*
G36*
X109366726Y-93925079D02*
G01*
X109366832Y-93933827D01*
X109360153Y-93947722D01*
X109358511Y-93950127D01*
X109347503Y-93961948D01*
X109338606Y-93965440D01*
X109334945Y-93959180D01*
X109335034Y-93958020D01*
X109339976Y-93947270D01*
X109349593Y-93935295D01*
X109359844Y-93926438D01*
X109366691Y-93925043D01*
X109366726Y-93925079D01*
G37*
G36*
X110971193Y-94350090D02*
G01*
X110975176Y-94351595D01*
X110987957Y-94358691D01*
X110986921Y-94364401D01*
X110982978Y-94366003D01*
X110966829Y-94368834D01*
X110945343Y-94370003D01*
X110926134Y-94369288D01*
X110916776Y-94366222D01*
X110916331Y-94359908D01*
X110926346Y-94348705D01*
X110945673Y-94344808D01*
X110971193Y-94350090D01*
G37*
G36*
X111405673Y-95176960D02*
G01*
X111410038Y-95178037D01*
X111436864Y-95186196D01*
X111451700Y-95194484D01*
X111456264Y-95203811D01*
X111456014Y-95206730D01*
X111449155Y-95213691D01*
X111433744Y-95210990D01*
X111410895Y-95198750D01*
X111396868Y-95188806D01*
X111387835Y-95179281D01*
X111390716Y-95175106D01*
X111405673Y-95176960D01*
G37*
G36*
X108314246Y-94004187D02*
G01*
X108305731Y-94017100D01*
X108289822Y-94029974D01*
X108284734Y-94032964D01*
X108264883Y-94040870D01*
X108251372Y-94039858D01*
X108246400Y-94029931D01*
X108246664Y-94027813D01*
X108256048Y-94016375D01*
X108278135Y-94004679D01*
X108289223Y-94000405D01*
X108305379Y-93995453D01*
X108313163Y-93994958D01*
X108314246Y-94004187D01*
G37*
G36*
X108501338Y-92341576D02*
G01*
X108497559Y-92350000D01*
X108485172Y-92359176D01*
X108467048Y-92366816D01*
X108466007Y-92367117D01*
X108450231Y-92371505D01*
X108441758Y-92373546D01*
X108441454Y-92373298D01*
X108446166Y-92367622D01*
X108457848Y-92356730D01*
X108469510Y-92348211D01*
X108484132Y-92341221D01*
X108495802Y-92338830D01*
X108501338Y-92341576D01*
G37*
G36*
X109427613Y-94187965D02*
G01*
X109428630Y-94189041D01*
X109431478Y-94197334D01*
X109422581Y-94206596D01*
X109417753Y-94209550D01*
X109401008Y-94215007D01*
X109383045Y-94216476D01*
X109368712Y-94213906D01*
X109362857Y-94207243D01*
X109367023Y-94199996D01*
X109380646Y-94191917D01*
X109398759Y-94186184D01*
X109416151Y-94184350D01*
X109427613Y-94187965D01*
G37*
G36*
X109992355Y-93136265D02*
G01*
X110004754Y-93146735D01*
X110014710Y-93163637D01*
X110018791Y-93181910D01*
X110017237Y-93191881D01*
X110011813Y-93197802D01*
X110007231Y-93193502D01*
X110004835Y-93180416D01*
X110002074Y-93168121D01*
X109990879Y-93154315D01*
X109980327Y-93145872D01*
X109977798Y-93138074D01*
X109986994Y-93135000D01*
X109992355Y-93136265D01*
G37*
G36*
X111468475Y-95086206D02*
G01*
X111480567Y-95089160D01*
X111488966Y-95093328D01*
X111492878Y-95102130D01*
X111495968Y-95120081D01*
X111496289Y-95122147D01*
X111496796Y-95141956D01*
X111490453Y-95152082D01*
X111486514Y-95153470D01*
X111477055Y-95148755D01*
X111465039Y-95132194D01*
X111454986Y-95113777D01*
X111449211Y-95095239D01*
X111453706Y-95086067D01*
X111468475Y-95086206D01*
G37*
G36*
X111385267Y-95316864D02*
G01*
X111386309Y-95330230D01*
X111384141Y-95347010D01*
X111379020Y-95361896D01*
X111377969Y-95363700D01*
X111369920Y-95370701D01*
X111356533Y-95372171D01*
X111335373Y-95367982D01*
X111304005Y-95358009D01*
X111280341Y-95349816D01*
X111328351Y-95330979D01*
X111331545Y-95329731D01*
X111355043Y-95320822D01*
X111372885Y-95314528D01*
X111381423Y-95312143D01*
X111385267Y-95316864D01*
G37*
G36*
X109342660Y-94291189D02*
G01*
X109366043Y-94302972D01*
X109384082Y-94318125D01*
X109391522Y-94329547D01*
X109400325Y-94349397D01*
X109405941Y-94369076D01*
X109406342Y-94382704D01*
X109400080Y-94390011D01*
X109387156Y-94388188D01*
X109366409Y-94376151D01*
X109348350Y-94360676D01*
X109325792Y-94332171D01*
X109311024Y-94301910D01*
X109309989Y-94298374D01*
X109310392Y-94288728D01*
X109320865Y-94286374D01*
X109321093Y-94286374D01*
X109342660Y-94291189D01*
G37*
G36*
X109799410Y-94102402D02*
G01*
X109802473Y-94118330D01*
X109800936Y-94138921D01*
X109793944Y-94155467D01*
X109780851Y-94160769D01*
X109771031Y-94163676D01*
X109758974Y-94174743D01*
X109751870Y-94183041D01*
X109743214Y-94186377D01*
X109741088Y-94185455D01*
X109734407Y-94175520D01*
X109736191Y-94161569D01*
X109746013Y-94149264D01*
X109755383Y-94140452D01*
X109760604Y-94129471D01*
X109765741Y-94116188D01*
X109778371Y-94103511D01*
X109792504Y-94097967D01*
X109799410Y-94102402D01*
G37*
G36*
X108559352Y-91839665D02*
G01*
X108584273Y-91846469D01*
X108601020Y-91852123D01*
X108620478Y-91861016D01*
X108628525Y-91869574D01*
X108626676Y-91878956D01*
X108622729Y-91881010D01*
X108607184Y-91883496D01*
X108583299Y-91884956D01*
X108554513Y-91885365D01*
X108524268Y-91884699D01*
X108496004Y-91882934D01*
X108473159Y-91880045D01*
X108445247Y-91874961D01*
X108462692Y-91863400D01*
X108468410Y-91860066D01*
X108489239Y-91850869D01*
X108512986Y-91843095D01*
X108520024Y-91841303D01*
X108540264Y-91838054D01*
X108559352Y-91839665D01*
G37*
G36*
X109088337Y-92861050D02*
G01*
X109086535Y-92873629D01*
X109081373Y-92880430D01*
X109066016Y-92892151D01*
X109044153Y-92905485D01*
X109019389Y-92918433D01*
X108995329Y-92928995D01*
X108975577Y-92935172D01*
X108975218Y-92935243D01*
X108958227Y-92937427D01*
X108937198Y-92938780D01*
X108912775Y-92939563D01*
X108937198Y-92924574D01*
X108946450Y-92919350D01*
X108971452Y-92907352D01*
X108997526Y-92896883D01*
X109009615Y-92892322D01*
X109036665Y-92880600D01*
X109058881Y-92869165D01*
X109070035Y-92862868D01*
X109083423Y-92857558D01*
X109088337Y-92861050D01*
G37*
G36*
X109878456Y-92956115D02*
G01*
X109888063Y-92966704D01*
X109900533Y-92983381D01*
X109914405Y-93004375D01*
X109928217Y-93027915D01*
X109941286Y-93052705D01*
X109949288Y-93071355D01*
X109951540Y-93083872D01*
X109948979Y-93093192D01*
X109936877Y-93103832D01*
X109918094Y-93107562D01*
X109898546Y-93103799D01*
X109883826Y-93092594D01*
X109881217Y-93088476D01*
X109877158Y-93073530D01*
X109880627Y-93052922D01*
X109883969Y-93031591D01*
X109882603Y-92996646D01*
X109874574Y-92962904D01*
X109873678Y-92960289D01*
X109873174Y-92953386D01*
X109878456Y-92956115D01*
G37*
G36*
X110692759Y-94001242D02*
G01*
X110695302Y-94011057D01*
X110693535Y-94028519D01*
X110688441Y-94049979D01*
X110681002Y-94071787D01*
X110672198Y-94090292D01*
X110663013Y-94101844D01*
X110653448Y-94107434D01*
X110638091Y-94111701D01*
X110635526Y-94111577D01*
X110629492Y-94107745D01*
X110626614Y-94096257D01*
X110625879Y-94073986D01*
X110625879Y-94073633D01*
X110626264Y-94051967D01*
X110628794Y-94040554D01*
X110635536Y-94035738D01*
X110648558Y-94033862D01*
X110665695Y-94029352D01*
X110678125Y-94015975D01*
X110683803Y-94005887D01*
X110690336Y-94000275D01*
X110692759Y-94001242D01*
G37*
G36*
X108029307Y-94710786D02*
G01*
X108028936Y-94725244D01*
X108025465Y-94748160D01*
X108019625Y-94776217D01*
X108012145Y-94806100D01*
X108003755Y-94834490D01*
X107995184Y-94858071D01*
X107985411Y-94883139D01*
X107976096Y-94910676D01*
X107970425Y-94931841D01*
X107964901Y-94959753D01*
X107958019Y-94929677D01*
X107957167Y-94925738D01*
X107954802Y-94906900D01*
X107955833Y-94886685D01*
X107960803Y-94862238D01*
X107970256Y-94830704D01*
X107984733Y-94789228D01*
X107988356Y-94779426D01*
X108001295Y-94747603D01*
X108012868Y-94723916D01*
X108022151Y-94710095D01*
X108028219Y-94707870D01*
X108029307Y-94710786D01*
G37*
G36*
X109712126Y-92004818D02*
G01*
X109731102Y-92009734D01*
X109754941Y-92020056D01*
X109778165Y-92033112D01*
X109795296Y-92046230D01*
X109810289Y-92061223D01*
X109794457Y-92093929D01*
X109789153Y-92103903D01*
X109773518Y-92127576D01*
X109757592Y-92145845D01*
X109752880Y-92150046D01*
X109739523Y-92160761D01*
X109731884Y-92165055D01*
X109725748Y-92159877D01*
X109720703Y-92144520D01*
X109718736Y-92123012D01*
X109716248Y-92109018D01*
X109704561Y-92093115D01*
X109696522Y-92085782D01*
X109684945Y-92064906D01*
X109681518Y-92041268D01*
X109687591Y-92020636D01*
X109697663Y-92009987D01*
X109710175Y-92004714D01*
X109712126Y-92004818D01*
G37*
G36*
X109654028Y-94051866D02*
G01*
X109655194Y-94055076D01*
X109652973Y-94068449D01*
X109645872Y-94087183D01*
X109635694Y-94106943D01*
X109624244Y-94123395D01*
X109621527Y-94126620D01*
X109611258Y-94140318D01*
X109607096Y-94148558D01*
X109603169Y-94151920D01*
X109590419Y-94153791D01*
X109583232Y-94153119D01*
X109574353Y-94146552D01*
X109569258Y-94129844D01*
X109569003Y-94128489D01*
X109564850Y-94113334D01*
X109557241Y-94108256D01*
X109541245Y-94109713D01*
X109532828Y-94110792D01*
X109518750Y-94109045D01*
X109510280Y-94099619D01*
X109508856Y-94096818D01*
X109507384Y-94088912D01*
X109514303Y-94083657D01*
X109532283Y-94078487D01*
X109548884Y-94074375D01*
X109577321Y-94067244D01*
X109606231Y-94059918D01*
X109628591Y-94054756D01*
X109646108Y-94051779D01*
X109654028Y-94051866D01*
G37*
G36*
X110026670Y-91197416D02*
G01*
X110049353Y-91204776D01*
X110052772Y-91206323D01*
X110077003Y-91225543D01*
X110095522Y-91255787D01*
X110107952Y-91295374D01*
X110113918Y-91342624D01*
X110113043Y-91395855D01*
X110104952Y-91453387D01*
X110102310Y-91463240D01*
X110096574Y-91469568D01*
X110088278Y-91463303D01*
X110076464Y-91444132D01*
X110071091Y-91430911D01*
X110066916Y-91410564D01*
X110064329Y-91381714D01*
X110062971Y-91341648D01*
X110062401Y-91312039D01*
X110061823Y-91284669D01*
X110061359Y-91265335D01*
X110061073Y-91256995D01*
X110057537Y-91250603D01*
X110046136Y-91238184D01*
X110031028Y-91224564D01*
X110016540Y-91213580D01*
X110007000Y-91209066D01*
X110003405Y-91208501D01*
X109997857Y-91202088D01*
X109998819Y-91199073D01*
X110008719Y-91195457D01*
X110026670Y-91197416D01*
G37*
G36*
X110161528Y-93311552D02*
G01*
X110181870Y-93317622D01*
X110204928Y-93327246D01*
X110225553Y-93338210D01*
X110238599Y-93348304D01*
X110245253Y-93354649D01*
X110259533Y-93364887D01*
X110266627Y-93369275D01*
X110267639Y-93371401D01*
X110256044Y-93368880D01*
X110255298Y-93368697D01*
X110235662Y-93364547D01*
X110213166Y-93360602D01*
X110210339Y-93360171D01*
X110194734Y-93359117D01*
X110187242Y-93364232D01*
X110182955Y-93378410D01*
X110182721Y-93379428D01*
X110176440Y-93394108D01*
X110168264Y-93400165D01*
X110161411Y-93399372D01*
X110159187Y-93393890D01*
X110166103Y-93380585D01*
X110169318Y-93371609D01*
X110166302Y-93359197D01*
X110155052Y-93340556D01*
X110146282Y-93327457D01*
X110140836Y-93317144D01*
X110142561Y-93312643D01*
X110151013Y-93310680D01*
X110161528Y-93311552D01*
G37*
G36*
X108139084Y-94162915D02*
G01*
X108139005Y-94171746D01*
X108136099Y-94191326D01*
X108130943Y-94219026D01*
X108124114Y-94252215D01*
X108116189Y-94288265D01*
X108107745Y-94324546D01*
X108099359Y-94358430D01*
X108091607Y-94387287D01*
X108085068Y-94408489D01*
X108081391Y-94418508D01*
X108061753Y-94460291D01*
X108038249Y-94495548D01*
X108013250Y-94520578D01*
X108004431Y-94526882D01*
X107988910Y-94535198D01*
X107982496Y-94533073D01*
X107982390Y-94532437D01*
X107984010Y-94520077D01*
X107989678Y-94497275D01*
X107998622Y-94466386D01*
X108010068Y-94429767D01*
X108023241Y-94389773D01*
X108037368Y-94348758D01*
X108051675Y-94309080D01*
X108065389Y-94273093D01*
X108077735Y-94243153D01*
X108086986Y-94222497D01*
X108102457Y-94191404D01*
X108114623Y-94172479D01*
X108123954Y-94164927D01*
X108132095Y-94163116D01*
X108138992Y-94162790D01*
X108139084Y-94162915D01*
G37*
G36*
X109245140Y-94140809D02*
G01*
X109255269Y-94150691D01*
X109268976Y-94158285D01*
X109284212Y-94157694D01*
X109303544Y-94153449D01*
X109303544Y-94193743D01*
X109303982Y-94210733D01*
X109305960Y-94233780D01*
X109308991Y-94248929D01*
X109310319Y-94253021D01*
X109309299Y-94262782D01*
X109297093Y-94268173D01*
X109292887Y-94269698D01*
X109276739Y-94280591D01*
X109261161Y-94296895D01*
X109256886Y-94302338D01*
X109242498Y-94317321D01*
X109233429Y-94320526D01*
X109230275Y-94311669D01*
X109229154Y-94299515D01*
X109226137Y-94281383D01*
X109224659Y-94269460D01*
X109228992Y-94259564D01*
X109243582Y-94251752D01*
X109258323Y-94243095D01*
X109263994Y-94230671D01*
X109257137Y-94214723D01*
X109237642Y-94194175D01*
X109223982Y-94181475D01*
X109215395Y-94170364D01*
X109213958Y-94159651D01*
X109217760Y-94144572D01*
X109225400Y-94119677D01*
X109245140Y-94140809D01*
G37*
G36*
X108815162Y-93629240D02*
G01*
X108813619Y-93637402D01*
X108808498Y-93647170D01*
X108792416Y-93666606D01*
X108766576Y-93692593D01*
X108731886Y-93724233D01*
X108689251Y-93760628D01*
X108679199Y-93768995D01*
X108657180Y-93787433D01*
X108639729Y-93802191D01*
X108629938Y-93810662D01*
X108622370Y-93816768D01*
X108605422Y-93829220D01*
X108584808Y-93843561D01*
X108562609Y-93857939D01*
X108545818Y-93866904D01*
X108539441Y-93867171D01*
X108543656Y-93858754D01*
X108558640Y-93841665D01*
X108583937Y-93815183D01*
X108617594Y-93780177D01*
X108643361Y-93753766D01*
X108662245Y-93734954D01*
X108675250Y-93722748D01*
X108683384Y-93716153D01*
X108687652Y-93714176D01*
X108689743Y-93713924D01*
X108695719Y-93711092D01*
X108705494Y-93703752D01*
X108721194Y-93690221D01*
X108744942Y-93668819D01*
X108749199Y-93665215D01*
X108767608Y-93652011D01*
X108788801Y-93639069D01*
X108801400Y-93632186D01*
X108812023Y-93627439D01*
X108815162Y-93629240D01*
G37*
G36*
X108221781Y-94640029D02*
G01*
X108237472Y-94655673D01*
X108256784Y-94679141D01*
X108278610Y-94708994D01*
X108301838Y-94743792D01*
X108325362Y-94782096D01*
X108348071Y-94822468D01*
X108350262Y-94826510D01*
X108366419Y-94854128D01*
X108382881Y-94879233D01*
X108396401Y-94896827D01*
X108413024Y-94917192D01*
X108440041Y-94957256D01*
X108464949Y-95001961D01*
X108484499Y-95045813D01*
X108491563Y-95064423D01*
X108468516Y-95043489D01*
X108462495Y-95037943D01*
X108448408Y-95024319D01*
X108440390Y-95015594D01*
X108439394Y-95014263D01*
X108430519Y-95003045D01*
X108417970Y-94987682D01*
X108413391Y-94982093D01*
X108378598Y-94935651D01*
X108351182Y-94891717D01*
X108347343Y-94885131D01*
X108337241Y-94871128D01*
X108329968Y-94865549D01*
X108328226Y-94865312D01*
X108323132Y-94858383D01*
X108320959Y-94852494D01*
X108312736Y-94836570D01*
X108299814Y-94813769D01*
X108283719Y-94786858D01*
X108262056Y-94751207D01*
X108238992Y-94712197D01*
X108222490Y-94682616D01*
X108211888Y-94661198D01*
X108206523Y-94646676D01*
X108205735Y-94637785D01*
X108210821Y-94633646D01*
X108221781Y-94640029D01*
G37*
G36*
X109147391Y-94307369D02*
G01*
X109151801Y-94314523D01*
X109154819Y-94329956D01*
X109156352Y-94340194D01*
X109162878Y-94351248D01*
X109177940Y-94356192D01*
X109192797Y-94362475D01*
X109199566Y-94373056D01*
X109196577Y-94383563D01*
X109183173Y-94389785D01*
X109178123Y-94390783D01*
X109171203Y-94395470D01*
X109168170Y-94406700D01*
X109167516Y-94428164D01*
X109168029Y-94440169D01*
X109171786Y-94465330D01*
X109177983Y-94484300D01*
X109178249Y-94484814D01*
X109185432Y-94500452D01*
X109188407Y-94510468D01*
X109185896Y-94514385D01*
X109174110Y-94516826D01*
X109156764Y-94515324D01*
X109138435Y-94510430D01*
X109123700Y-94502692D01*
X109105731Y-94493161D01*
X109084380Y-94488736D01*
X109071384Y-94487847D01*
X109064300Y-94482966D01*
X109065610Y-94471393D01*
X109074633Y-94450445D01*
X109086463Y-94425636D01*
X109101390Y-94444356D01*
X109108575Y-94452442D01*
X109119554Y-94458889D01*
X109127004Y-94452913D01*
X109131241Y-94434084D01*
X109132582Y-94401971D01*
X109132585Y-94400071D01*
X109133688Y-94362099D01*
X109136629Y-94332820D01*
X109141144Y-94313976D01*
X109146969Y-94307308D01*
X109147391Y-94307369D01*
G37*
G36*
X108523292Y-94219163D02*
G01*
X108529367Y-94230031D01*
X108538978Y-94250110D01*
X108550740Y-94276212D01*
X108563269Y-94305149D01*
X108575178Y-94333733D01*
X108585084Y-94358775D01*
X108591601Y-94377088D01*
X108603657Y-94415467D01*
X108557533Y-94497849D01*
X108554737Y-94502812D01*
X108535987Y-94534663D01*
X108518051Y-94562930D01*
X108502845Y-94584701D01*
X108492284Y-94597065D01*
X108489599Y-94599393D01*
X108476388Y-94609784D01*
X108468672Y-94614120D01*
X108463157Y-94611588D01*
X108460474Y-94597485D01*
X108464219Y-94571063D01*
X108474389Y-94532359D01*
X108484653Y-94490268D01*
X108492227Y-94442502D01*
X108496278Y-94394952D01*
X108496444Y-94351936D01*
X108492362Y-94317775D01*
X108487904Y-94301866D01*
X108481298Y-94292835D01*
X108470692Y-94291565D01*
X108454563Y-94296410D01*
X108436300Y-94306157D01*
X108426289Y-94312915D01*
X108405857Y-94326630D01*
X108379687Y-94344150D01*
X108351044Y-94363285D01*
X108328272Y-94378604D01*
X108267197Y-94421328D01*
X108212207Y-94462789D01*
X108158511Y-94506700D01*
X108101317Y-94556772D01*
X108100049Y-94557899D01*
X108086851Y-94568229D01*
X108078453Y-94572472D01*
X108074206Y-94573073D01*
X108061322Y-94576979D01*
X108057851Y-94577939D01*
X108053988Y-94574669D01*
X108058195Y-94563956D01*
X108069247Y-94547702D01*
X108085915Y-94527810D01*
X108106974Y-94506181D01*
X108121334Y-94492452D01*
X108141907Y-94472943D01*
X108156479Y-94459568D01*
X108167696Y-94450017D01*
X108178202Y-94441982D01*
X108190644Y-94433154D01*
X108196529Y-94428992D01*
X108211003Y-94418303D01*
X108218462Y-94412084D01*
X108221932Y-94408881D01*
X108236378Y-94397774D01*
X108259521Y-94381172D01*
X108289399Y-94360444D01*
X108324050Y-94336964D01*
X108361511Y-94312102D01*
X108388300Y-94294357D01*
X108413318Y-94277482D01*
X108432150Y-94264447D01*
X108442039Y-94257134D01*
X108446463Y-94253855D01*
X108461535Y-94244853D01*
X108480778Y-94234851D01*
X108500108Y-94225808D01*
X108515439Y-94219685D01*
X108522689Y-94218439D01*
X108523292Y-94219163D01*
G37*
G36*
X109165958Y-94626215D02*
G01*
X109156076Y-94643446D01*
X109135941Y-94653160D01*
X109104335Y-94656209D01*
X109084381Y-94655553D01*
X109067511Y-94652279D01*
X109060279Y-94645742D01*
X109057198Y-94640923D01*
X109045357Y-94635275D01*
X109039884Y-94636457D01*
X109030436Y-94645742D01*
X109025984Y-94651486D01*
X109012808Y-94656209D01*
X109012274Y-94656212D01*
X109004053Y-94658381D01*
X109000879Y-94667054D01*
X109001343Y-94685865D01*
X109004078Y-94705063D01*
X109011307Y-94717405D01*
X109026425Y-94726978D01*
X109027829Y-94727681D01*
X109041500Y-94735543D01*
X109044324Y-94741682D01*
X109038138Y-94749656D01*
X109027154Y-94756628D01*
X109009539Y-94760473D01*
X108993147Y-94758569D01*
X108983668Y-94750797D01*
X108983036Y-94749570D01*
X108972497Y-94741733D01*
X108955010Y-94736064D01*
X108938569Y-94731452D01*
X108931658Y-94723752D01*
X108934822Y-94710635D01*
X108947665Y-94689600D01*
X108952024Y-94682839D01*
X108961381Y-94665249D01*
X108965110Y-94653075D01*
X108969794Y-94642071D01*
X108982727Y-94626338D01*
X108984351Y-94624808D01*
X109055824Y-94624808D01*
X109059313Y-94628297D01*
X109062802Y-94624808D01*
X109059313Y-94621319D01*
X109055824Y-94624808D01*
X108984351Y-94624808D01*
X108988492Y-94620907D01*
X109111648Y-94620907D01*
X109111915Y-94622864D01*
X109113377Y-94624808D01*
X109118626Y-94631786D01*
X109122222Y-94632442D01*
X109125604Y-94625219D01*
X109124750Y-94620020D01*
X109118626Y-94614341D01*
X109116971Y-94614528D01*
X109111648Y-94620907D01*
X108988492Y-94620907D01*
X109000206Y-94609871D01*
X109018507Y-94596155D01*
X109033905Y-94588677D01*
X109043661Y-94584935D01*
X109047870Y-94576698D01*
X109046344Y-94559755D01*
X109045923Y-94556945D01*
X109046672Y-94533999D01*
X109057033Y-94520846D01*
X109077613Y-94516648D01*
X109080413Y-94516713D01*
X109094083Y-94519949D01*
X109097531Y-94526221D01*
X109088970Y-94532961D01*
X109087784Y-94535562D01*
X109097692Y-94537127D01*
X109124720Y-94540214D01*
X109139229Y-94547283D01*
X109141551Y-94558636D01*
X109138308Y-94565893D01*
X109127964Y-94575429D01*
X109122535Y-94578576D01*
X109121643Y-94585242D01*
X109130612Y-94590972D01*
X109146950Y-94593406D01*
X109156190Y-94593856D01*
X109165375Y-94598686D01*
X109167473Y-94612047D01*
X109166065Y-94625219D01*
X109165958Y-94626215D01*
G37*
G36*
X108140221Y-93452605D02*
G01*
X108139717Y-93463149D01*
X108137009Y-93484197D01*
X108132543Y-93513163D01*
X108126765Y-93547462D01*
X108120124Y-93584507D01*
X108113066Y-93621713D01*
X108106037Y-93656494D01*
X108099486Y-93686264D01*
X108097557Y-93694593D01*
X108090939Y-93723687D01*
X108082263Y-93762312D01*
X108072182Y-93807537D01*
X108061350Y-93856434D01*
X108050423Y-93906071D01*
X108043566Y-93937173D01*
X108033083Y-93983958D01*
X108022776Y-94028806D01*
X108012106Y-94073918D01*
X108000534Y-94121500D01*
X107987523Y-94173753D01*
X107972532Y-94232881D01*
X107955025Y-94301088D01*
X107934463Y-94380577D01*
X107926254Y-94413765D01*
X107915680Y-94459331D01*
X107904294Y-94510701D01*
X107893007Y-94563746D01*
X107882735Y-94614341D01*
X107867868Y-94688986D01*
X107854499Y-94754120D01*
X107841851Y-94813135D01*
X107829062Y-94869852D01*
X107815270Y-94928091D01*
X107799614Y-94991675D01*
X107781231Y-95064423D01*
X107776065Y-95084728D01*
X107764776Y-95129353D01*
X107754639Y-95169753D01*
X107746234Y-95203603D01*
X107740139Y-95228581D01*
X107736933Y-95242363D01*
X107735243Y-95249733D01*
X107729536Y-95272255D01*
X107721695Y-95301515D01*
X107712895Y-95333077D01*
X107708099Y-95350015D01*
X107700042Y-95378852D01*
X107693707Y-95402013D01*
X107690161Y-95415628D01*
X107686291Y-95431889D01*
X107077213Y-95429585D01*
X106999848Y-95429262D01*
X106912236Y-95428823D01*
X106829507Y-95428330D01*
X106752670Y-95427791D01*
X106682733Y-95427218D01*
X106620704Y-95426620D01*
X106567591Y-95426007D01*
X106524402Y-95425389D01*
X106492145Y-95424775D01*
X106471828Y-95424176D01*
X106464459Y-95423601D01*
X106464957Y-95417107D01*
X106468487Y-95398747D01*
X106474720Y-95370379D01*
X106483243Y-95333823D01*
X106493641Y-95290895D01*
X106505500Y-95243416D01*
X106510400Y-95223938D01*
X106525546Y-95162309D01*
X106541361Y-95096160D01*
X106556790Y-95029996D01*
X106570777Y-94968321D01*
X106582268Y-94915639D01*
X106582423Y-94914909D01*
X106604397Y-94812468D01*
X106624345Y-94722219D01*
X106642629Y-94642613D01*
X106659614Y-94572103D01*
X106675663Y-94509139D01*
X106691139Y-94452176D01*
X106696071Y-94434888D01*
X106708796Y-94392047D01*
X106722675Y-94347296D01*
X106736863Y-94303188D01*
X106750516Y-94262272D01*
X106762790Y-94227101D01*
X106772841Y-94200224D01*
X106779825Y-94184193D01*
X106782638Y-94178678D01*
X106791248Y-94161234D01*
X106803194Y-94136667D01*
X106816790Y-94108434D01*
X106825453Y-94090729D01*
X106837732Y-94066962D01*
X106847231Y-94050203D01*
X106852404Y-94043278D01*
X106855591Y-94040627D01*
X106865439Y-94029025D01*
X106878021Y-94011877D01*
X106883727Y-94003985D01*
X106901982Y-93981497D01*
X106919357Y-93963193D01*
X106922036Y-93960713D01*
X106942619Y-93941597D01*
X106962851Y-93922725D01*
X106989298Y-93902495D01*
X107029912Y-93879829D01*
X107083357Y-93856248D01*
X107150160Y-93831495D01*
X107194702Y-93815982D01*
X107262777Y-93791827D01*
X107332909Y-93766480D01*
X107402553Y-93740887D01*
X107469162Y-93715995D01*
X107530192Y-93692748D01*
X107583096Y-93672092D01*
X107625330Y-93654973D01*
X107627755Y-93653962D01*
X107669482Y-93636620D01*
X107713740Y-93618316D01*
X107755395Y-93601168D01*
X107789313Y-93587294D01*
X107809941Y-93578864D01*
X107841493Y-93565837D01*
X107868597Y-93554496D01*
X107887006Y-93546608D01*
X107891857Y-93544497D01*
X107915541Y-93534736D01*
X107935852Y-93527083D01*
X107937945Y-93526345D01*
X107954531Y-93520199D01*
X107980312Y-93510389D01*
X108012179Y-93498105D01*
X108047022Y-93484536D01*
X108057977Y-93480276D01*
X108089448Y-93468371D01*
X108115217Y-93459115D01*
X108132867Y-93453355D01*
X108139980Y-93451939D01*
X108140221Y-93452605D01*
G37*
G36*
X109442143Y-89700748D02*
G01*
X109449784Y-89705302D01*
X109464718Y-89714203D01*
X109481165Y-89724400D01*
X109488462Y-89729552D01*
X109489235Y-89730306D01*
X109498571Y-89737673D01*
X109503843Y-89741575D01*
X109515595Y-89750274D01*
X109520985Y-89754148D01*
X109537308Y-89765880D01*
X109557184Y-89781228D01*
X109587087Y-89806975D01*
X109612996Y-89830906D01*
X109620342Y-89837691D01*
X109654122Y-89870609D01*
X109681046Y-89898279D01*
X109685603Y-89902962D01*
X109689874Y-89907665D01*
X109711957Y-89931984D01*
X109718952Y-89940697D01*
X109730359Y-89954907D01*
X109736070Y-89962567D01*
X109747529Y-89975728D01*
X109754741Y-89980934D01*
X109756887Y-89981540D01*
X109760653Y-89989656D01*
X109760668Y-89989903D01*
X109761223Y-89991401D01*
X109764314Y-89999739D01*
X109773464Y-90018876D01*
X109786794Y-90044660D01*
X109802978Y-90074437D01*
X109811771Y-90090007D01*
X109836406Y-90130780D01*
X109863123Y-90170420D01*
X109893912Y-90211636D01*
X109930759Y-90257134D01*
X109975654Y-90309623D01*
X110000378Y-90338037D01*
X110020964Y-90362049D01*
X110035515Y-90379869D01*
X110045693Y-90393786D01*
X110053157Y-90406089D01*
X110059568Y-90419069D01*
X110066586Y-90435015D01*
X110083097Y-90475945D01*
X110095339Y-90513955D01*
X110104861Y-90554656D01*
X110113219Y-90603676D01*
X110114458Y-90612098D01*
X110120256Y-90659873D01*
X110122509Y-90692692D01*
X110123040Y-90700432D01*
X110122726Y-90731659D01*
X110121595Y-90738049D01*
X110119743Y-90748516D01*
X110119226Y-90751435D01*
X110113136Y-90758243D01*
X110098762Y-90762472D01*
X110089057Y-90764703D01*
X110079221Y-90776350D01*
X110076619Y-90795413D01*
X110081426Y-90819004D01*
X110093816Y-90844235D01*
X110099494Y-90861126D01*
X110099370Y-90879680D01*
X110099327Y-90886163D01*
X110094233Y-90905862D01*
X110092812Y-90911359D01*
X110080855Y-90930683D01*
X110076032Y-90936249D01*
X110068411Y-90953216D01*
X110070287Y-90968100D01*
X110081593Y-90976769D01*
X110086238Y-90977976D01*
X110093711Y-90981200D01*
X110094071Y-90987987D01*
X110088595Y-91003152D01*
X110085427Y-91021155D01*
X110092084Y-91041639D01*
X110094842Y-91047604D01*
X110101491Y-91074299D01*
X110100959Y-91100896D01*
X110093165Y-91121511D01*
X110090527Y-91124400D01*
X110072079Y-91133678D01*
X110040148Y-91140285D01*
X110021791Y-91143139D01*
X109997224Y-91148911D01*
X109974658Y-91157716D01*
X109951004Y-91171135D01*
X109923172Y-91190750D01*
X109897100Y-91211099D01*
X109888076Y-91218142D01*
X109860548Y-91240240D01*
X109818238Y-91274694D01*
X109784969Y-91302695D01*
X109759400Y-91325525D01*
X109740188Y-91344463D01*
X109725993Y-91360792D01*
X109715472Y-91375792D01*
X109707284Y-91390743D01*
X109694533Y-91416957D01*
X109654642Y-91396820D01*
X109643336Y-91390643D01*
X109617509Y-91373638D01*
X109592643Y-91353975D01*
X109571484Y-91334123D01*
X109556776Y-91316555D01*
X109551264Y-91303742D01*
X109548990Y-91295304D01*
X109536509Y-91285540D01*
X109515889Y-91281901D01*
X109490273Y-91285336D01*
X109484102Y-91287195D01*
X109458312Y-91300644D01*
X109436822Y-91323100D01*
X109418379Y-91356210D01*
X109401731Y-91401620D01*
X109389958Y-91438837D01*
X109369040Y-91500308D01*
X109349292Y-91550799D01*
X109329711Y-91592087D01*
X109309292Y-91625951D01*
X109287034Y-91654170D01*
X109261932Y-91678523D01*
X109232983Y-91700789D01*
X109185726Y-91728750D01*
X109126008Y-91751621D01*
X109058893Y-91764967D01*
X108982555Y-91769288D01*
X108934203Y-91767842D01*
X108881895Y-91763069D01*
X108834696Y-91755434D01*
X108795532Y-91745423D01*
X108767329Y-91733522D01*
X108755235Y-91724356D01*
X108735840Y-91707199D01*
X108711584Y-91684367D01*
X108684821Y-91658125D01*
X108657907Y-91630739D01*
X108633196Y-91604474D01*
X108612824Y-91578093D01*
X108588881Y-91539449D01*
X108563129Y-91491182D01*
X108536659Y-91435206D01*
X108531958Y-91424802D01*
X108516704Y-91392484D01*
X108502845Y-91365144D01*
X108491745Y-91345399D01*
X108484773Y-91335867D01*
X108481702Y-91333801D01*
X108462008Y-91328703D01*
X108437498Y-91330368D01*
X108413696Y-91337893D01*
X108396131Y-91350372D01*
X108391876Y-91356504D01*
X108381725Y-91376033D01*
X108370127Y-91402853D01*
X108358846Y-91433050D01*
X108349752Y-91459038D01*
X108335315Y-91499372D01*
X108319634Y-91542418D01*
X108304800Y-91582390D01*
X108292036Y-91616423D01*
X108278827Y-91651728D01*
X108267430Y-91682276D01*
X108259396Y-91703915D01*
X108254124Y-91720259D01*
X108249448Y-91741868D01*
X108249166Y-91756250D01*
X108249190Y-91756344D01*
X108258965Y-91775813D01*
X108277628Y-91799177D01*
X108285128Y-91806597D01*
X108302031Y-91823320D01*
X108329024Y-91845122D01*
X108355458Y-91861468D01*
X108375704Y-91872194D01*
X108393793Y-91883008D01*
X108403379Y-91890321D01*
X108404810Y-91891818D01*
X108417239Y-91901124D01*
X108434882Y-91911486D01*
X108438423Y-91913441D01*
X108452921Y-91924725D01*
X108457369Y-91934867D01*
X108456725Y-91936367D01*
X108447158Y-91945241D01*
X108428823Y-91957060D01*
X108423263Y-91960000D01*
X108404931Y-91969693D01*
X108396841Y-91973572D01*
X108375367Y-91983231D01*
X108357698Y-91989080D01*
X108339396Y-91991925D01*
X108316024Y-91992573D01*
X108283146Y-91991830D01*
X108273083Y-91991537D01*
X108243862Y-91991011D01*
X108224540Y-91991770D01*
X108211939Y-91994366D01*
X108202877Y-91999351D01*
X108194176Y-92007277D01*
X108187055Y-92016271D01*
X108180075Y-92035404D01*
X108177577Y-92042250D01*
X108177479Y-92072445D01*
X108187099Y-92102328D01*
X108193027Y-92111800D01*
X108213577Y-92131478D01*
X108244171Y-92148240D01*
X108285343Y-92162186D01*
X108337626Y-92173417D01*
X108401553Y-92182035D01*
X108477660Y-92188139D01*
X108566479Y-92191831D01*
X108668544Y-92193211D01*
X108716309Y-92193524D01*
X108786149Y-92194823D01*
X108846546Y-92197050D01*
X108896603Y-92200144D01*
X108935417Y-92204044D01*
X108962089Y-92208690D01*
X108975720Y-92214019D01*
X108980733Y-92218887D01*
X108986473Y-92233221D01*
X108979277Y-92246031D01*
X108959876Y-92255402D01*
X108956728Y-92256249D01*
X108935442Y-92260823D01*
X108918839Y-92262708D01*
X108918376Y-92262717D01*
X108904084Y-92265418D01*
X108881763Y-92271993D01*
X108856037Y-92281090D01*
X108830366Y-92290281D01*
X108786849Y-92304085D01*
X108740267Y-92317276D01*
X108695976Y-92328361D01*
X108659327Y-92335852D01*
X108648769Y-92337557D01*
X108636199Y-92338587D01*
X108633423Y-92335451D01*
X108637810Y-92327074D01*
X108638408Y-92326218D01*
X108650094Y-92316493D01*
X108670423Y-92304610D01*
X108695387Y-92292946D01*
X108699567Y-92291187D01*
X108722709Y-92280476D01*
X108739654Y-92271016D01*
X108746984Y-92264679D01*
X108747270Y-92259810D01*
X108738892Y-92251354D01*
X108718093Y-92244758D01*
X108684389Y-92239897D01*
X108637292Y-92236646D01*
X108608367Y-92235517D01*
X108577438Y-92235314D01*
X108553106Y-92237003D01*
X108531137Y-92240935D01*
X108507297Y-92247464D01*
X108480878Y-92254968D01*
X108452042Y-92262190D01*
X108429868Y-92266731D01*
X108424010Y-92267881D01*
X108402888Y-92275236D01*
X108388227Y-92285003D01*
X108384216Y-92289674D01*
X108379705Y-92298577D01*
X108380692Y-92310146D01*
X108387042Y-92329519D01*
X108391987Y-92343616D01*
X108394782Y-92355361D01*
X108392034Y-92360047D01*
X108383325Y-92361243D01*
X108373768Y-92361454D01*
X108355299Y-92360639D01*
X108355094Y-92360617D01*
X108345935Y-92362237D01*
X108347352Y-92372047D01*
X108351504Y-92383145D01*
X108353301Y-92397410D01*
X108345193Y-92403451D01*
X108325534Y-92403655D01*
X108305663Y-92403756D01*
X108293367Y-92409264D01*
X108293302Y-92421293D01*
X108305089Y-92440523D01*
X108309431Y-92446399D01*
X108319223Y-92461421D01*
X108323132Y-92470406D01*
X108329016Y-92483216D01*
X108344982Y-92496227D01*
X108367196Y-92506693D01*
X108391821Y-92512274D01*
X108394491Y-92512538D01*
X108413850Y-92515480D01*
X108422389Y-92519999D01*
X108422957Y-92527486D01*
X108422519Y-92532714D01*
X108427034Y-92536938D01*
X108439915Y-92538823D01*
X108463945Y-92539161D01*
X108469860Y-92539208D01*
X108502534Y-92542559D01*
X108529073Y-92550412D01*
X108546893Y-92561719D01*
X108553407Y-92575433D01*
X108549209Y-92586279D01*
X108531884Y-92600195D01*
X108501722Y-92613874D01*
X108459348Y-92627046D01*
X108405392Y-92639441D01*
X108371630Y-92649719D01*
X108343409Y-92668086D01*
X108338776Y-92672462D01*
X108329011Y-92683291D01*
X108324241Y-92694413D01*
X108323207Y-92710365D01*
X108324650Y-92735683D01*
X108324983Y-92739925D01*
X108330847Y-92776362D01*
X108342884Y-92810471D01*
X108362714Y-92845879D01*
X108391957Y-92886207D01*
X108396298Y-92891605D01*
X108425994Y-92921791D01*
X108461137Y-92945941D01*
X108503813Y-92965023D01*
X108556106Y-92979999D01*
X108620100Y-92991836D01*
X108638751Y-92994724D01*
X108664669Y-92999076D01*
X108682992Y-93002594D01*
X108690609Y-93004711D01*
X108691778Y-93007728D01*
X108684492Y-93014193D01*
X108664480Y-93021778D01*
X108631358Y-93030614D01*
X108584744Y-93040832D01*
X108543246Y-93049749D01*
X108500822Y-93060366D01*
X108470029Y-93070405D01*
X108449602Y-93080385D01*
X108438275Y-93090824D01*
X108434780Y-93102240D01*
X108435543Y-93107752D01*
X108441051Y-93126171D01*
X108450713Y-93151393D01*
X108463145Y-93179640D01*
X108469957Y-93194547D01*
X108480968Y-93220509D01*
X108488502Y-93240855D01*
X108491222Y-93252131D01*
X108490961Y-93259564D01*
X108488212Y-93291460D01*
X108483371Y-93321148D01*
X108477203Y-93344710D01*
X108470473Y-93358234D01*
X108463175Y-93366368D01*
X108447231Y-93385544D01*
X108431768Y-93405445D01*
X108421192Y-93420504D01*
X108418659Y-93423601D01*
X108407902Y-93426630D01*
X108397546Y-93420488D01*
X108392912Y-93407605D01*
X108392198Y-93403188D01*
X108384804Y-93387378D01*
X108371978Y-93369830D01*
X108366407Y-93363061D01*
X108355413Y-93346396D01*
X108351044Y-93334285D01*
X108349917Y-93328625D01*
X108344066Y-93326895D01*
X108343534Y-93327296D01*
X108339363Y-93338486D01*
X108337471Y-93361050D01*
X108337702Y-93392833D01*
X108339896Y-93431680D01*
X108343896Y-93475435D01*
X108349544Y-93521942D01*
X108356682Y-93569047D01*
X108365151Y-93614593D01*
X108366715Y-93621929D01*
X108381055Y-93675990D01*
X108399695Y-93729638D01*
X108420911Y-93778367D01*
X108442976Y-93817674D01*
X108448307Y-93825884D01*
X108464112Y-93852032D01*
X108477630Y-93876863D01*
X108487061Y-93896932D01*
X108490604Y-93908797D01*
X108487159Y-93913681D01*
X108474904Y-93918592D01*
X108460457Y-93920948D01*
X108445179Y-93921034D01*
X108432743Y-93916183D01*
X108421673Y-93904741D01*
X108410498Y-93885056D01*
X108397741Y-93855476D01*
X108381930Y-93814347D01*
X108381243Y-93812520D01*
X108368863Y-93779851D01*
X108357799Y-93751121D01*
X108349237Y-93729376D01*
X108344360Y-93717665D01*
X108323605Y-93672829D01*
X108303059Y-93627709D01*
X108287408Y-93592080D01*
X108276003Y-93564244D01*
X108268194Y-93542505D01*
X108263333Y-93525168D01*
X108260769Y-93510534D01*
X108259853Y-93496909D01*
X108259793Y-93491732D01*
X108259879Y-93470280D01*
X108260266Y-93437786D01*
X108260918Y-93396305D01*
X108261802Y-93347891D01*
X108262884Y-93294601D01*
X108264130Y-93238490D01*
X108265297Y-93182423D01*
X108266165Y-93119169D01*
X108266235Y-93068689D01*
X108265500Y-93030323D01*
X108263953Y-93003408D01*
X108261587Y-92987281D01*
X108260480Y-92983796D01*
X108253196Y-92966569D01*
X108240890Y-92940676D01*
X108224924Y-92908706D01*
X108206661Y-92873249D01*
X108187462Y-92836895D01*
X108168689Y-92802232D01*
X108151703Y-92771850D01*
X108137866Y-92748339D01*
X108128540Y-92734288D01*
X108125843Y-92730164D01*
X108118242Y-92716880D01*
X108106017Y-92694435D01*
X108088822Y-92662177D01*
X108066310Y-92619454D01*
X108038132Y-92565612D01*
X108003943Y-92500000D01*
X107979689Y-92450619D01*
X107951393Y-92385872D01*
X107925336Y-92318642D01*
X107902288Y-92251370D01*
X107883020Y-92186492D01*
X107868303Y-92126450D01*
X107859110Y-92074816D01*
X107932363Y-92074816D01*
X107933148Y-92082303D01*
X107938760Y-92087430D01*
X107950805Y-92082296D01*
X107970499Y-92066640D01*
X107977936Y-92059894D01*
X107991869Y-92044430D01*
X107993855Y-92035404D01*
X107984031Y-92032472D01*
X107969132Y-92036669D01*
X107951940Y-92047768D01*
X107938066Y-92061810D01*
X107932363Y-92074816D01*
X107859110Y-92074816D01*
X107858908Y-92073682D01*
X107855604Y-92030626D01*
X107855530Y-92024531D01*
X107853785Y-92009717D01*
X107848073Y-91996903D01*
X107836228Y-91982345D01*
X107816085Y-91962296D01*
X107816068Y-91962280D01*
X107869560Y-91962280D01*
X107870281Y-91966145D01*
X107877334Y-91973218D01*
X107886032Y-91971807D01*
X107887927Y-91969634D01*
X107889651Y-91960000D01*
X107880028Y-91955714D01*
X107875219Y-91956453D01*
X107869560Y-91962280D01*
X107816068Y-91962280D01*
X107800684Y-91947385D01*
X107788040Y-91934214D01*
X107783628Y-91927003D01*
X107786361Y-91923662D01*
X107795151Y-91922105D01*
X107796104Y-91921984D01*
X107810251Y-91917137D01*
X107813018Y-91909697D01*
X107803269Y-91902413D01*
X107799750Y-91900907D01*
X107792127Y-91894037D01*
X107795491Y-91887370D01*
X107807445Y-91881728D01*
X107825589Y-91877937D01*
X107847524Y-91876820D01*
X107870852Y-91879201D01*
X107882194Y-91881159D01*
X107908611Y-91884580D01*
X107929826Y-91885934D01*
X107935648Y-91886011D01*
X107949880Y-91888254D01*
X107951580Y-91894987D01*
X107941748Y-91908063D01*
X107936025Y-91914721D01*
X107934990Y-91919891D01*
X107945376Y-91920824D01*
X107951676Y-91919850D01*
X107969731Y-91913028D01*
X107990070Y-91901831D01*
X108019588Y-91882837D01*
X107977720Y-91877072D01*
X107949183Y-91873089D01*
X107889000Y-91864158D01*
X107841406Y-91856098D01*
X107805477Y-91848606D01*
X107780286Y-91841384D01*
X107764906Y-91834130D01*
X107758695Y-91826873D01*
X107857773Y-91826873D01*
X107867794Y-91836142D01*
X107868297Y-91836401D01*
X107882363Y-91840671D01*
X107904070Y-91844360D01*
X107929846Y-91847220D01*
X107956115Y-91849006D01*
X107979303Y-91849469D01*
X107995837Y-91848362D01*
X108002143Y-91845437D01*
X108001877Y-91843228D01*
X107995111Y-91833566D01*
X107994598Y-91833214D01*
X107993484Y-91825678D01*
X108001679Y-91815835D01*
X108016224Y-91807359D01*
X108017481Y-91806597D01*
X108012990Y-91804814D01*
X107998684Y-91803706D01*
X107977638Y-91803260D01*
X107952928Y-91803464D01*
X107927630Y-91804306D01*
X107904822Y-91805775D01*
X107887579Y-91807859D01*
X107876028Y-91810522D01*
X107860807Y-91817919D01*
X107857773Y-91826873D01*
X107758695Y-91826873D01*
X107758413Y-91826544D01*
X107759879Y-91818326D01*
X107768379Y-91809176D01*
X107769335Y-91808364D01*
X107778226Y-91795415D01*
X107773684Y-91784753D01*
X107756168Y-91777565D01*
X107743376Y-91773517D01*
X107717424Y-91761506D01*
X107687288Y-91744616D01*
X107656943Y-91725281D01*
X107630361Y-91705932D01*
X107611516Y-91689003D01*
X107610997Y-91688433D01*
X107597123Y-91670443D01*
X107582150Y-91645550D01*
X107565469Y-91612467D01*
X107546474Y-91569910D01*
X107524557Y-91516594D01*
X107499110Y-91451234D01*
X107489407Y-91426344D01*
X107472856Y-91386275D01*
X107457795Y-91352734D01*
X107445244Y-91327945D01*
X107436220Y-91314128D01*
X107422240Y-91295761D01*
X107402919Y-91253854D01*
X107391639Y-91201597D01*
X107389786Y-91181682D01*
X107390834Y-91164738D01*
X107396168Y-91155976D01*
X107398886Y-91154593D01*
X107413781Y-91149578D01*
X107438496Y-91142641D01*
X107470361Y-91134509D01*
X107506703Y-91125909D01*
X107522171Y-91122338D01*
X107557515Y-91113834D01*
X107587591Y-91106127D01*
X107609612Y-91099948D01*
X107620788Y-91096026D01*
X107624951Y-91093260D01*
X107629601Y-91086193D01*
X107630809Y-91074412D01*
X107628400Y-91055764D01*
X107622194Y-91028097D01*
X107612017Y-90989258D01*
X107604156Y-90952270D01*
X107602625Y-90940427D01*
X107868849Y-90940427D01*
X107869086Y-90954396D01*
X107873934Y-90964089D01*
X107883517Y-90972648D01*
X107884515Y-90973378D01*
X107904238Y-90984163D01*
X107933483Y-90996235D01*
X107968362Y-91008338D01*
X108004988Y-91019214D01*
X108039473Y-91027606D01*
X108067930Y-91032259D01*
X108083192Y-91034163D01*
X108109549Y-91040997D01*
X108127747Y-91052395D01*
X108149457Y-91067699D01*
X108182922Y-91084548D01*
X108224364Y-91100888D01*
X108270797Y-91115403D01*
X108275191Y-91116583D01*
X108297712Y-91121621D01*
X108322314Y-91125126D01*
X108351964Y-91127336D01*
X108389628Y-91128487D01*
X108438269Y-91128819D01*
X108464224Y-91128688D01*
X108506459Y-91127958D01*
X108544989Y-91126692D01*
X108576398Y-91125015D01*
X108597268Y-91123052D01*
X108614244Y-91120304D01*
X108631579Y-91115146D01*
X108643256Y-91106302D01*
X108654254Y-91090969D01*
X108661571Y-91080456D01*
X108673978Y-91068475D01*
X108691555Y-91059131D01*
X108718551Y-91049696D01*
X108736890Y-91044240D01*
X108767768Y-91036522D01*
X108801752Y-91030044D01*
X108841553Y-91024385D01*
X108889882Y-91019125D01*
X108949448Y-91013842D01*
X108956217Y-91013277D01*
X108990712Y-91010155D01*
X109020065Y-91007104D01*
X109041350Y-91004449D01*
X109051643Y-91002514D01*
X109056003Y-91002401D01*
X109071945Y-91006055D01*
X109095434Y-91013794D01*
X109123129Y-91024584D01*
X109166678Y-91041915D01*
X109254672Y-91071750D01*
X109350230Y-91097303D01*
X109370887Y-91102299D01*
X109413513Y-91113630D01*
X109444691Y-91124095D01*
X109466087Y-91134648D01*
X109479367Y-91146243D01*
X109486195Y-91159835D01*
X109488240Y-91176379D01*
X109490082Y-91192179D01*
X109495685Y-91209525D01*
X109501342Y-91217587D01*
X109509641Y-91223022D01*
X109513248Y-91221775D01*
X109516480Y-91211099D01*
X109513661Y-91191245D01*
X109505211Y-91164327D01*
X109491555Y-91132462D01*
X109490628Y-91130529D01*
X109479149Y-91106748D01*
X109469539Y-91086332D01*
X109461669Y-91067835D01*
X109455410Y-91049816D01*
X109450633Y-91030832D01*
X109449939Y-91026499D01*
X109750137Y-91026499D01*
X109769327Y-91027068D01*
X109782485Y-91029369D01*
X109788517Y-91034615D01*
X109788554Y-91035930D01*
X109792253Y-91041456D01*
X109801122Y-91035511D01*
X109813917Y-91018867D01*
X109823257Y-91003340D01*
X109887334Y-91003340D01*
X109888085Y-91008515D01*
X109890355Y-91013121D01*
X109894492Y-91008901D01*
X109901507Y-90994439D01*
X109912414Y-90968324D01*
X109920484Y-90948137D01*
X109929983Y-90922142D01*
X109934176Y-90905862D01*
X109933461Y-90897449D01*
X109928238Y-90895055D01*
X109924281Y-90896298D01*
X109913777Y-90907541D01*
X109902800Y-90927969D01*
X109895256Y-90948749D01*
X109893170Y-90954494D01*
X109891995Y-90958823D01*
X109887804Y-90982795D01*
X109887334Y-91003340D01*
X109823257Y-91003340D01*
X109833217Y-90986783D01*
X109843154Y-90963126D01*
X109843263Y-90948749D01*
X109833481Y-90943901D01*
X109829403Y-90945390D01*
X109819115Y-90956508D01*
X109808671Y-90975440D01*
X109808288Y-90976299D01*
X109792497Y-91002046D01*
X109772428Y-91016739D01*
X109750137Y-91026499D01*
X109449939Y-91026499D01*
X109447208Y-91009438D01*
X109445008Y-90984194D01*
X109443902Y-90953654D01*
X109443761Y-90916377D01*
X109444457Y-90870920D01*
X109445584Y-90826694D01*
X109796534Y-90826694D01*
X109798449Y-90846209D01*
X109799990Y-90854956D01*
X109804939Y-90873831D01*
X109810165Y-90884588D01*
X109812159Y-90885847D01*
X109814319Y-90879680D01*
X109812405Y-90860165D01*
X109810863Y-90851417D01*
X109805914Y-90832542D01*
X109800688Y-90821786D01*
X109798694Y-90820526D01*
X109796534Y-90826694D01*
X109445584Y-90826694D01*
X109445860Y-90815840D01*
X109447842Y-90749692D01*
X109448360Y-90732916D01*
X109589318Y-90732916D01*
X109590844Y-90758731D01*
X109593212Y-90777912D01*
X109597037Y-90799001D01*
X109600836Y-90811319D01*
X109603345Y-90810773D01*
X109605129Y-90799767D01*
X109606024Y-90781316D01*
X109606033Y-90758843D01*
X109824898Y-90758843D01*
X109825733Y-90767124D01*
X109827832Y-90768216D01*
X109830385Y-90762472D01*
X109829881Y-90758778D01*
X109825733Y-90757820D01*
X109824973Y-90758751D01*
X109824898Y-90758843D01*
X109606033Y-90758843D01*
X109606033Y-90758751D01*
X109605441Y-90742952D01*
X109978358Y-90742952D01*
X109979280Y-90757239D01*
X109981703Y-90758423D01*
X109982799Y-90748516D01*
X109981827Y-90738917D01*
X109979280Y-90739794D01*
X109978358Y-90742952D01*
X109605441Y-90742952D01*
X109605257Y-90738049D01*
X109732692Y-90738049D01*
X109736181Y-90741538D01*
X109739670Y-90738049D01*
X109736181Y-90734560D01*
X109732692Y-90738049D01*
X109605257Y-90738049D01*
X109605158Y-90735401D01*
X109603401Y-90714598D01*
X109600765Y-90699670D01*
X109598792Y-90692692D01*
X109798984Y-90692692D01*
X109799240Y-90696917D01*
X109808627Y-90699670D01*
X109817082Y-90698495D01*
X109826896Y-90692692D01*
X109826639Y-90688467D01*
X109817252Y-90685714D01*
X109808797Y-90686890D01*
X109798984Y-90692692D01*
X109598792Y-90692692D01*
X109595833Y-90682225D01*
X109591256Y-90699418D01*
X109589736Y-90710365D01*
X109589318Y-90732916D01*
X109448360Y-90732916D01*
X109450272Y-90671036D01*
X109450674Y-90657946D01*
X109453805Y-90561325D01*
X109456844Y-90477663D01*
X109459855Y-90406075D01*
X109462898Y-90345676D01*
X109466035Y-90295583D01*
X109469328Y-90254909D01*
X109472839Y-90222771D01*
X109476630Y-90198282D01*
X109480761Y-90180559D01*
X109485295Y-90168716D01*
X109492519Y-90151465D01*
X109494115Y-90130563D01*
X109484430Y-90113306D01*
X109462573Y-90098391D01*
X109427655Y-90084517D01*
X109397019Y-90075020D01*
X109330820Y-90059717D01*
X109267426Y-90053304D01*
X109201865Y-90055133D01*
X109185319Y-90056588D01*
X109157644Y-90059642D01*
X109140875Y-90062846D01*
X109135073Y-90065651D01*
X109132917Y-90066693D01*
X109131671Y-90071679D01*
X109132250Y-90074069D01*
X109133549Y-90083530D01*
X109134153Y-90087930D01*
X109134755Y-90092314D01*
X109129898Y-90101581D01*
X109116071Y-90105336D01*
X109099020Y-90111554D01*
X109091673Y-90122913D01*
X109088374Y-90128014D01*
X109088169Y-90128552D01*
X109081021Y-90142593D01*
X109074561Y-90148406D01*
X109074328Y-90148415D01*
X109064505Y-90152425D01*
X109049923Y-90161548D01*
X109033205Y-90171436D01*
X109018023Y-90177248D01*
X109012031Y-90179139D01*
X109003234Y-90186241D01*
X109001916Y-90193759D01*
X109009886Y-90197253D01*
X109015233Y-90197673D01*
X109021666Y-90202372D01*
X109017674Y-90210747D01*
X109004729Y-90220869D01*
X108984299Y-90230810D01*
X108955450Y-90241573D01*
X108921636Y-90252160D01*
X108889687Y-90259009D01*
X108853462Y-90263663D01*
X108837991Y-90265494D01*
X108792353Y-90273231D01*
X108741688Y-90284532D01*
X108688681Y-90298555D01*
X108636016Y-90314459D01*
X108586376Y-90331400D01*
X108542445Y-90348539D01*
X108506907Y-90365032D01*
X108482445Y-90380038D01*
X108481192Y-90380993D01*
X108461116Y-90394110D01*
X108434123Y-90409258D01*
X108405687Y-90423347D01*
X108369198Y-90441710D01*
X108318941Y-90472046D01*
X108271678Y-90506059D01*
X108229963Y-90541700D01*
X108196347Y-90576923D01*
X108173384Y-90609679D01*
X108164581Y-90624966D01*
X108151298Y-90645420D01*
X108140748Y-90658758D01*
X108132498Y-90670254D01*
X108127747Y-90685961D01*
X108126244Y-90694331D01*
X108118146Y-90714606D01*
X108104942Y-90739515D01*
X108088809Y-90765103D01*
X108071923Y-90787414D01*
X108068838Y-90790774D01*
X108048977Y-90807227D01*
X108026525Y-90820333D01*
X108019014Y-90823609D01*
X108002710Y-90828831D01*
X107988054Y-90828219D01*
X107967793Y-90821976D01*
X107963312Y-90820448D01*
X107938660Y-90815030D01*
X107919728Y-90818119D01*
X107904828Y-90831067D01*
X107892268Y-90855227D01*
X107880358Y-90891951D01*
X107873101Y-90919042D01*
X107868849Y-90940427D01*
X107602625Y-90940427D01*
X107597270Y-90899010D01*
X107592958Y-90837777D01*
X107591354Y-90771685D01*
X107592593Y-90703848D01*
X107596811Y-90637381D01*
X107600061Y-90603335D01*
X107606301Y-90552206D01*
X107613752Y-90510343D01*
X107623124Y-90474747D01*
X107635126Y-90442421D01*
X107650466Y-90410365D01*
X107659047Y-90394665D01*
X107675230Y-90366779D01*
X107694648Y-90334610D01*
X107715583Y-90300879D01*
X107736321Y-90268305D01*
X107755145Y-90239608D01*
X107770339Y-90217509D01*
X107780188Y-90204727D01*
X107788984Y-90193926D01*
X108368163Y-90193926D01*
X108370100Y-90195918D01*
X108382445Y-90196392D01*
X108395501Y-90195363D01*
X108418946Y-90189322D01*
X108439812Y-90179799D01*
X108452428Y-90169012D01*
X108453056Y-90167812D01*
X108450293Y-90163989D01*
X108552242Y-90163989D01*
X108561519Y-90167809D01*
X108561534Y-90167812D01*
X108580780Y-90171691D01*
X108605478Y-90174567D01*
X108651860Y-90178290D01*
X108647425Y-90160621D01*
X108646879Y-90158346D01*
X108645864Y-90147656D01*
X108650062Y-90140332D01*
X108661653Y-90135340D01*
X108682818Y-90131645D01*
X108715737Y-90128214D01*
X108773214Y-90122913D01*
X108738407Y-90106686D01*
X108726631Y-90101894D01*
X108696271Y-90093809D01*
X108663627Y-90089533D01*
X108632581Y-90089216D01*
X108607014Y-90093004D01*
X108590810Y-90101047D01*
X108588016Y-90104001D01*
X108582547Y-90115436D01*
X108586789Y-90130438D01*
X108587645Y-90132336D01*
X108590987Y-90143168D01*
X108586048Y-90148674D01*
X108570060Y-90152504D01*
X108567016Y-90153112D01*
X108552854Y-90158081D01*
X108552242Y-90163989D01*
X108450293Y-90163989D01*
X108450178Y-90163830D01*
X108437204Y-90165392D01*
X108416248Y-90172023D01*
X108389423Y-90183244D01*
X108377502Y-90188779D01*
X108368163Y-90193926D01*
X107788984Y-90193926D01*
X107789563Y-90193215D01*
X107801360Y-90176815D01*
X107811070Y-90163178D01*
X107830946Y-90137169D01*
X107856074Y-90105609D01*
X107868825Y-90090029D01*
X108422059Y-90090029D01*
X108427802Y-90092582D01*
X108431496Y-90092079D01*
X108432454Y-90087930D01*
X108431432Y-90087095D01*
X108423150Y-90087930D01*
X108422059Y-90090029D01*
X107868825Y-90090029D01*
X107875330Y-90082080D01*
X108312370Y-90082080D01*
X108316107Y-90085888D01*
X108326728Y-90083658D01*
X108327161Y-90083406D01*
X108445808Y-90083406D01*
X108455714Y-90084502D01*
X108465313Y-90083530D01*
X108464437Y-90080983D01*
X108461278Y-90080061D01*
X108446992Y-90080983D01*
X108445808Y-90083406D01*
X108327161Y-90083406D01*
X108340988Y-90075359D01*
X108348437Y-90069514D01*
X108349995Y-90065651D01*
X108339687Y-90064892D01*
X108329955Y-90066548D01*
X108316154Y-90075137D01*
X108312370Y-90082080D01*
X107875330Y-90082080D01*
X107884115Y-90071345D01*
X107904345Y-90047225D01*
X108309176Y-90047225D01*
X108312665Y-90050714D01*
X108316154Y-90047225D01*
X108312665Y-90043736D01*
X108309176Y-90047225D01*
X107904345Y-90047225D01*
X107912733Y-90037224D01*
X107921809Y-90026703D01*
X108344066Y-90026703D01*
X108344134Y-90027678D01*
X108348173Y-90029215D01*
X108350574Y-90026655D01*
X108488350Y-90026655D01*
X108490467Y-90028738D01*
X108502886Y-90028826D01*
X108527416Y-90027412D01*
X108549592Y-90026325D01*
X108566595Y-90027025D01*
X108576143Y-90030548D01*
X108581741Y-90037547D01*
X108583232Y-90040028D01*
X108589412Y-90045553D01*
X108595267Y-90047225D01*
X108600534Y-90048729D01*
X108619597Y-90050118D01*
X108649600Y-90050284D01*
X108710412Y-90049853D01*
X108677267Y-90038800D01*
X108665615Y-90034371D01*
X108650170Y-90026158D01*
X108644121Y-90019278D01*
X108646702Y-90015639D01*
X108659827Y-90009605D01*
X108680756Y-90004594D01*
X108695064Y-90001552D01*
X108709707Y-89996332D01*
X108713901Y-89991401D01*
X108711854Y-89989397D01*
X108698246Y-89986174D01*
X108675089Y-89985718D01*
X108645298Y-89987646D01*
X108611790Y-89991574D01*
X108577482Y-89997120D01*
X108545291Y-90003901D01*
X108518132Y-90011533D01*
X108503214Y-90017824D01*
X108498922Y-90019634D01*
X108494726Y-90022083D01*
X108488350Y-90026655D01*
X108350574Y-90026655D01*
X108355199Y-90021724D01*
X108356897Y-90017824D01*
X108352122Y-90018647D01*
X108349022Y-90020801D01*
X108344066Y-90026703D01*
X107921809Y-90026703D01*
X107939590Y-90006091D01*
X107946985Y-89997871D01*
X108415877Y-89997871D01*
X108417363Y-90000877D01*
X108431291Y-90001327D01*
X108433215Y-90001249D01*
X108451076Y-89998305D01*
X108477711Y-89991914D01*
X108509412Y-89983184D01*
X108542472Y-89973224D01*
X108573182Y-89963144D01*
X108597834Y-89954053D01*
X108612720Y-89947060D01*
X108617257Y-89943893D01*
X108618372Y-89940697D01*
X108609335Y-89940055D01*
X108588297Y-89941549D01*
X108565347Y-89944890D01*
X108533560Y-89951925D01*
X108499567Y-89961250D01*
X108467351Y-89971667D01*
X108440896Y-89981974D01*
X108424186Y-89990972D01*
X108415877Y-89997871D01*
X107946985Y-89997871D01*
X107962346Y-89980795D01*
X107974480Y-89967735D01*
X107997340Y-89943088D01*
X108017338Y-89921482D01*
X108025397Y-89913044D01*
X108030944Y-89907665D01*
X108637143Y-89907665D01*
X108640632Y-89911154D01*
X108644121Y-89907665D01*
X108640632Y-89904176D01*
X108637143Y-89907665D01*
X108030944Y-89907665D01*
X108049280Y-89889886D01*
X108068071Y-89873267D01*
X108500560Y-89873267D01*
X108504394Y-89878705D01*
X108520037Y-89886302D01*
X108524183Y-89888021D01*
X108545535Y-89895540D01*
X108556982Y-89896213D01*
X108560385Y-89890220D01*
X108560182Y-89888552D01*
X108553407Y-89883242D01*
X108551739Y-89883039D01*
X108546429Y-89876264D01*
X108547610Y-89873054D01*
X108556896Y-89869286D01*
X108561777Y-89870501D01*
X108567363Y-89879753D01*
X108567573Y-89882624D01*
X108570143Y-89887124D01*
X108577096Y-89889008D01*
X108590249Y-89888066D01*
X108611419Y-89884090D01*
X108642422Y-89876871D01*
X108664013Y-89871469D01*
X109343931Y-89871469D01*
X109348901Y-89879753D01*
X109355050Y-89885261D01*
X109368055Y-89890220D01*
X109368797Y-89890214D01*
X109374805Y-89888036D01*
X109369835Y-89879753D01*
X109363687Y-89874244D01*
X109350681Y-89869286D01*
X109349940Y-89869291D01*
X109343931Y-89871469D01*
X108664013Y-89871469D01*
X108685076Y-89866199D01*
X108693344Y-89864089D01*
X108734365Y-89853163D01*
X108755302Y-89846768D01*
X109377330Y-89846768D01*
X109381701Y-89855934D01*
X109392377Y-89869170D01*
X109406136Y-89882794D01*
X109413051Y-89888036D01*
X109419758Y-89893120D01*
X109425095Y-89895871D01*
X109442746Y-89901506D01*
X109461148Y-89904046D01*
X109475620Y-89903101D01*
X109481484Y-89898279D01*
X109478382Y-89890556D01*
X109464663Y-89877832D01*
X109442877Y-89865073D01*
X109416205Y-89854417D01*
X109401783Y-89850088D01*
X109385288Y-89845931D01*
X109377872Y-89845217D01*
X109377330Y-89846768D01*
X108755302Y-89846768D01*
X108762947Y-89844433D01*
X108780141Y-89837359D01*
X108786997Y-89831404D01*
X108786772Y-89830906D01*
X109181429Y-89830906D01*
X109181927Y-89831404D01*
X109184918Y-89834395D01*
X109188407Y-89830906D01*
X109184918Y-89827417D01*
X109181429Y-89830906D01*
X108786772Y-89830906D01*
X108784566Y-89826030D01*
X108773896Y-89820699D01*
X108758773Y-89816372D01*
X108736104Y-89813451D01*
X108714860Y-89813845D01*
X108699120Y-89817392D01*
X108692967Y-89823928D01*
X108692642Y-89828699D01*
X108690024Y-89834395D01*
X108688990Y-89834425D01*
X108675341Y-89836040D01*
X108652444Y-89839677D01*
X108623586Y-89844717D01*
X108592054Y-89850541D01*
X108561136Y-89856528D01*
X108534119Y-89862059D01*
X108514290Y-89866515D01*
X108504936Y-89869276D01*
X108500560Y-89873267D01*
X108068071Y-89873267D01*
X108072572Y-89869286D01*
X108083982Y-89859809D01*
X108101841Y-89844771D01*
X108113852Y-89834395D01*
X108116197Y-89832404D01*
X108126231Y-89825482D01*
X108382445Y-89825482D01*
X108402089Y-89833428D01*
X108403305Y-89833911D01*
X108419442Y-89838605D01*
X108438118Y-89840354D01*
X108461488Y-89838910D01*
X108491708Y-89834028D01*
X108530933Y-89825463D01*
X108581319Y-89812967D01*
X108613906Y-89804980D01*
X108696111Y-89787603D01*
X108779327Y-89773508D01*
X108856685Y-89763920D01*
X108856806Y-89761966D01*
X108846484Y-89757984D01*
X108842923Y-89756903D01*
X108836211Y-89754148D01*
X108972088Y-89754148D01*
X108975577Y-89757637D01*
X108979066Y-89754148D01*
X108975577Y-89750659D01*
X108972088Y-89754148D01*
X108836211Y-89754148D01*
X108834856Y-89753592D01*
X108837991Y-89750566D01*
X108853462Y-89745855D01*
X108859141Y-89743914D01*
X108860670Y-89741575D01*
X108853382Y-89739564D01*
X108835993Y-89737704D01*
X108807219Y-89735817D01*
X108765778Y-89733726D01*
X108747062Y-89732870D01*
X108708129Y-89731413D01*
X108677701Y-89731157D01*
X108651898Y-89732365D01*
X108626837Y-89735300D01*
X108598636Y-89740222D01*
X108563416Y-89747395D01*
X108545519Y-89751167D01*
X108506107Y-89759787D01*
X108477788Y-89766730D01*
X108458651Y-89772655D01*
X108446786Y-89778220D01*
X108440281Y-89784083D01*
X108437227Y-89790904D01*
X108436170Y-89793388D01*
X108425502Y-89804265D01*
X108408245Y-89814276D01*
X108382445Y-89825482D01*
X108126231Y-89825482D01*
X108136112Y-89818665D01*
X108166462Y-89800880D01*
X108205141Y-89780075D01*
X108250040Y-89757277D01*
X108299053Y-89733511D01*
X108350072Y-89709803D01*
X108360202Y-89705302D01*
X108511539Y-89705302D01*
X108515028Y-89708791D01*
X108518517Y-89705302D01*
X108515028Y-89701813D01*
X108511539Y-89705302D01*
X108360202Y-89705302D01*
X108391610Y-89691346D01*
X108581319Y-89691346D01*
X108584808Y-89694835D01*
X108588297Y-89691346D01*
X108584808Y-89687857D01*
X108581319Y-89691346D01*
X108391610Y-89691346D01*
X108400990Y-89687178D01*
X108449699Y-89666664D01*
X108494093Y-89649285D01*
X108531256Y-89636061D01*
X108606956Y-89613667D01*
X108675522Y-89600205D01*
X108686087Y-89598428D01*
X108711351Y-89592223D01*
X108730825Y-89584958D01*
X108740466Y-89581541D01*
X108767036Y-89576552D01*
X108806972Y-89572209D01*
X108859919Y-89568558D01*
X108879764Y-89567420D01*
X108917205Y-89565073D01*
X108949464Y-89562792D01*
X108973621Y-89560791D01*
X108986759Y-89559283D01*
X108991972Y-89558601D01*
X109019427Y-89559050D01*
X109056626Y-89563882D01*
X109101032Y-89572421D01*
X109150110Y-89583989D01*
X109201323Y-89597907D01*
X109252135Y-89613498D01*
X109300012Y-89630085D01*
X109342417Y-89646989D01*
X109376813Y-89663532D01*
X109390690Y-89671205D01*
X109416460Y-89685819D01*
X109425968Y-89691346D01*
X109442143Y-89700748D01*
G37*
G36*
X110307909Y-93903220D02*
G01*
X110301687Y-93920421D01*
X110299823Y-93925210D01*
X110294125Y-93945502D01*
X110293761Y-93947939D01*
X110292535Y-93956139D01*
X110291164Y-93965314D01*
X110291368Y-93980351D01*
X110295160Y-93986319D01*
X110296073Y-93986110D01*
X110305315Y-93980467D01*
X110319341Y-93969528D01*
X110321676Y-93967675D01*
X110343456Y-93955502D01*
X110367446Y-93947981D01*
X110373299Y-93946823D01*
X110391093Y-93941049D01*
X110400834Y-93934316D01*
X110401147Y-93933807D01*
X110413090Y-93922788D01*
X110431437Y-93912787D01*
X110450420Y-93906371D01*
X110464270Y-93906104D01*
X110469092Y-93908577D01*
X110468727Y-93913289D01*
X110456662Y-93920788D01*
X110442256Y-93932460D01*
X110437473Y-93950249D01*
X110436659Y-93959427D01*
X110429883Y-93970196D01*
X110413049Y-93978390D01*
X110401488Y-93983079D01*
X110390059Y-93990983D01*
X110392496Y-93997538D01*
X110408782Y-94002737D01*
X110438899Y-94006572D01*
X110482830Y-94009036D01*
X110493018Y-94009418D01*
X110514956Y-94010953D01*
X110527966Y-94014221D01*
X110534943Y-94019953D01*
X110535794Y-94020652D01*
X110542191Y-94031676D01*
X110543726Y-94034679D01*
X110545268Y-94037491D01*
X110555386Y-94055936D01*
X110568359Y-94077856D01*
X110571435Y-94083121D01*
X110579699Y-94101369D01*
X110580404Y-94102926D01*
X110584011Y-94118635D01*
X110584088Y-94120251D01*
X110584301Y-94124703D01*
X110587626Y-94130573D01*
X110597589Y-94131798D01*
X110617750Y-94129526D01*
X110625070Y-94128561D01*
X110641257Y-94127634D01*
X110654104Y-94130768D01*
X110668201Y-94139700D01*
X110688137Y-94156169D01*
X110701390Y-94167103D01*
X110707501Y-94171236D01*
X110721298Y-94180567D01*
X110740709Y-94188019D01*
X110765445Y-94192171D01*
X110778870Y-94193897D01*
X110796661Y-94197761D01*
X110805911Y-94203643D01*
X110810205Y-94213232D01*
X110815824Y-94227613D01*
X110831770Y-94245062D01*
X110853163Y-94251483D01*
X110860429Y-94252769D01*
X110861595Y-94253870D01*
X110869407Y-94261247D01*
X110869549Y-94272860D01*
X110859643Y-94281919D01*
X110851423Y-94289418D01*
X110850158Y-94306099D01*
X110857431Y-94332635D01*
X110859227Y-94338225D01*
X110860529Y-94364248D01*
X110848848Y-94385443D01*
X110824488Y-94401172D01*
X110822638Y-94401956D01*
X110806070Y-94410962D01*
X110802753Y-94417702D01*
X110812169Y-94421925D01*
X110833795Y-94423378D01*
X110867112Y-94421809D01*
X110869047Y-94421654D01*
X110901922Y-94419854D01*
X110923813Y-94421518D01*
X110937387Y-94427849D01*
X110945311Y-94440052D01*
X110950252Y-94459328D01*
X110951493Y-94465508D01*
X110958999Y-94487865D01*
X110970607Y-94499410D01*
X110988572Y-94502692D01*
X110990938Y-94502552D01*
X111007245Y-94497144D01*
X111024797Y-94486378D01*
X111038825Y-94473679D01*
X111044560Y-94462473D01*
X111047076Y-94454357D01*
X111058987Y-94441044D01*
X111076226Y-94430331D01*
X111093785Y-94425934D01*
X111103114Y-94424568D01*
X111128166Y-94413627D01*
X111161549Y-94391816D01*
X111191412Y-94371305D01*
X111226092Y-94349285D01*
X111257390Y-94331011D01*
X111306236Y-94304324D01*
X111264636Y-94342450D01*
X111264495Y-94342579D01*
X111239252Y-94365914D01*
X111213042Y-94390455D01*
X111191515Y-94410911D01*
X111177556Y-94423999D01*
X111153624Y-94445355D01*
X111132874Y-94462726D01*
X111131160Y-94464093D01*
X111099028Y-94493729D01*
X111073846Y-94524671D01*
X111070183Y-94531281D01*
X111057416Y-94554320D01*
X111051539Y-94580077D01*
X111051538Y-94580325D01*
X111051049Y-94588429D01*
X111050473Y-94597962D01*
X111045701Y-94605666D01*
X111034816Y-94607363D01*
X111033427Y-94607416D01*
X111015908Y-94614508D01*
X111004461Y-94624808D01*
X110996706Y-94631786D01*
X110996437Y-94632028D01*
X110991049Y-94638765D01*
X110986617Y-94644306D01*
X110979207Y-94659698D01*
X110977239Y-94663786D01*
X110974780Y-94687853D01*
X110974675Y-94698945D01*
X110973879Y-94705055D01*
X110972893Y-94712625D01*
X110966938Y-94718047D01*
X110954316Y-94719011D01*
X110954046Y-94719011D01*
X110937248Y-94722558D01*
X110933309Y-94728315D01*
X110928933Y-94734711D01*
X110922406Y-94749290D01*
X110911018Y-94767054D01*
X110902249Y-94782379D01*
X110898022Y-94799240D01*
X110897181Y-94804681D01*
X110889824Y-94821932D01*
X110889821Y-94821937D01*
X110877357Y-94840788D01*
X110869631Y-94851665D01*
X110865661Y-94858571D01*
X110859645Y-94869038D01*
X110854660Y-94877711D01*
X110849342Y-94889510D01*
X110843539Y-94902387D01*
X110842563Y-94904553D01*
X110836785Y-94918862D01*
X110831245Y-94930678D01*
X110823942Y-94946256D01*
X110814657Y-94962787D01*
X110811460Y-94968479D01*
X110805340Y-94979692D01*
X110799894Y-94994643D01*
X110794258Y-95010117D01*
X110786105Y-95046978D01*
X110785290Y-95052426D01*
X110782200Y-95080522D01*
X110779975Y-95111105D01*
X110779685Y-95115086D01*
X110778742Y-95134203D01*
X110778260Y-95143970D01*
X110777786Y-95153568D01*
X110777645Y-95158103D01*
X110777194Y-95172582D01*
X110776545Y-95193420D01*
X110776002Y-95232093D01*
X110776080Y-95245852D01*
X110776199Y-95267036D01*
X110776511Y-95276203D01*
X110777176Y-95295700D01*
X110778975Y-95315536D01*
X110781202Y-95322610D01*
X110781638Y-95323995D01*
X110783155Y-95324446D01*
X110792962Y-95320087D01*
X110805376Y-95308035D01*
X110814300Y-95295452D01*
X110819266Y-95279318D01*
X110818175Y-95257073D01*
X110817672Y-95252136D01*
X110817804Y-95224392D01*
X110821703Y-95198865D01*
X110825569Y-95173315D01*
X110821831Y-95137296D01*
X110819584Y-95125636D01*
X110817828Y-95100597D01*
X110823064Y-95086369D01*
X110835561Y-95081868D01*
X110841135Y-95083173D01*
X110849811Y-95093216D01*
X110857726Y-95115014D01*
X110858927Y-95119184D01*
X110865623Y-95137539D01*
X110873176Y-95146068D01*
X110884299Y-95148159D01*
X110901511Y-95148159D01*
X110901511Y-95042116D01*
X110901841Y-95000261D01*
X110903228Y-94963511D01*
X110905958Y-94939392D01*
X110910309Y-94927201D01*
X110916557Y-94926237D01*
X110924979Y-94935799D01*
X110935854Y-94955183D01*
X110947454Y-94983545D01*
X110953846Y-95025400D01*
X110953863Y-95028268D01*
X110956147Y-95053017D01*
X110961707Y-95064559D01*
X110969720Y-95062997D01*
X110979362Y-95048431D01*
X110989809Y-95020963D01*
X110991903Y-95014452D01*
X110998975Y-94998818D01*
X111009342Y-94991184D01*
X111027943Y-94987176D01*
X111049788Y-94980133D01*
X111066675Y-94963414D01*
X111072473Y-94938490D01*
X111072692Y-94936398D01*
X111078919Y-94930042D01*
X111095095Y-94927414D01*
X111123063Y-94928138D01*
X111129962Y-94928046D01*
X111140701Y-94923547D01*
X111140397Y-94916016D01*
X111128018Y-94909366D01*
X111123394Y-94908036D01*
X111117792Y-94903429D01*
X111123945Y-94894319D01*
X111131396Y-94881208D01*
X111136435Y-94862060D01*
X111137304Y-94856597D01*
X111145149Y-94841189D01*
X111163187Y-94829009D01*
X111181661Y-94815867D01*
X111196982Y-94794321D01*
X111197219Y-94793758D01*
X111198073Y-94792280D01*
X111239945Y-94792280D01*
X111243434Y-94795769D01*
X111246923Y-94792280D01*
X111243434Y-94788791D01*
X111239945Y-94792280D01*
X111198073Y-94792280D01*
X111207930Y-94775218D01*
X111220435Y-94761887D01*
X111223563Y-94759543D01*
X111230128Y-94751222D01*
X111231915Y-94738330D01*
X111229860Y-94716328D01*
X111225204Y-94680632D01*
X111247372Y-94710611D01*
X111256348Y-94722355D01*
X111266692Y-94734613D01*
X111271536Y-94738523D01*
X111274238Y-94735394D01*
X111285457Y-94719631D01*
X111297070Y-94701426D01*
X111436821Y-94701426D01*
X111437656Y-94709707D01*
X111439755Y-94710799D01*
X111442308Y-94705055D01*
X111441804Y-94701361D01*
X111437656Y-94700403D01*
X111436821Y-94701426D01*
X111297070Y-94701426D01*
X111300015Y-94696810D01*
X111315549Y-94670842D01*
X111329698Y-94645633D01*
X111340098Y-94625093D01*
X111343671Y-94617830D01*
X111435330Y-94617830D01*
X111438819Y-94621319D01*
X111442308Y-94617830D01*
X111438819Y-94614341D01*
X111435330Y-94617830D01*
X111343671Y-94617830D01*
X111347953Y-94609126D01*
X111362918Y-94582525D01*
X111376941Y-94561414D01*
X111378258Y-94559696D01*
X111391466Y-94544830D01*
X111403148Y-94539093D01*
X111418440Y-94539810D01*
X111423699Y-94540617D01*
X111435633Y-94540571D01*
X111441455Y-94533583D01*
X111445060Y-94516196D01*
X111447520Y-94504251D01*
X111454454Y-94490806D01*
X111467120Y-94484526D01*
X111483741Y-94482690D01*
X111489847Y-94487830D01*
X111484025Y-94499385D01*
X111482615Y-94501144D01*
X111478838Y-94511083D01*
X111486219Y-94521682D01*
X111490765Y-94526457D01*
X111493741Y-94533942D01*
X111485976Y-94541443D01*
X111484531Y-94542531D01*
X111478655Y-94549544D01*
X111478532Y-94559984D01*
X111483897Y-94578607D01*
X111484517Y-94580498D01*
X111489462Y-94599705D01*
X111488319Y-94614074D01*
X111486611Y-94617830D01*
X111480628Y-94630988D01*
X111474176Y-94644449D01*
X111471740Y-94659147D01*
X111476526Y-94675521D01*
X111476619Y-94675746D01*
X111481014Y-94696128D01*
X111480020Y-94705055D01*
X111478275Y-94720731D01*
X111467879Y-94751785D01*
X111449302Y-94791519D01*
X111448939Y-94792280D01*
X111439291Y-94812523D01*
X111431363Y-94832104D01*
X111428309Y-94843854D01*
X111428307Y-94844043D01*
X111425056Y-94858024D01*
X111417500Y-94875728D01*
X111410956Y-94890318D01*
X111412345Y-94899285D01*
X111422776Y-94908719D01*
X111428459Y-94913291D01*
X111433305Y-94919486D01*
X111427227Y-94921218D01*
X111426665Y-94921239D01*
X111411995Y-94928432D01*
X111394460Y-94947594D01*
X111375094Y-94977364D01*
X111354928Y-95016382D01*
X111354261Y-95017801D01*
X111337834Y-95050651D01*
X111318152Y-95087188D01*
X111299328Y-95119762D01*
X111293500Y-95129479D01*
X111280385Y-95152314D01*
X111271272Y-95169621D01*
X111267857Y-95178244D01*
X111267443Y-95180013D01*
X111260626Y-95190689D01*
X111248088Y-95204900D01*
X111246146Y-95206928D01*
X111230639Y-95226906D01*
X111219537Y-95247095D01*
X111218973Y-95248478D01*
X111210064Y-95264394D01*
X111200927Y-95273043D01*
X111192205Y-95279638D01*
X111194544Y-95289453D01*
X111209537Y-95300424D01*
X111227976Y-95310085D01*
X111205956Y-95317761D01*
X111205050Y-95318085D01*
X111188835Y-95326605D01*
X111179793Y-95336235D01*
X111179598Y-95336566D01*
X111176749Y-95341413D01*
X111167074Y-95347033D01*
X111162278Y-95348899D01*
X111149548Y-95358710D01*
X111134184Y-95374118D01*
X111133190Y-95375139D01*
X111122874Y-95385739D01*
X111104326Y-95399368D01*
X111083974Y-95414323D01*
X111041071Y-95430819D01*
X111024567Y-95433105D01*
X111013783Y-95432035D01*
X111012298Y-95431866D01*
X110999169Y-95431422D01*
X110973158Y-95430931D01*
X110935021Y-95430401D01*
X110885517Y-95429837D01*
X110825405Y-95429245D01*
X110755443Y-95428631D01*
X110676391Y-95428001D01*
X110589006Y-95427360D01*
X110494046Y-95426715D01*
X110392272Y-95426072D01*
X110284440Y-95425435D01*
X110171310Y-95424812D01*
X110053640Y-95424209D01*
X109932189Y-95423630D01*
X109800171Y-95422997D01*
X109646585Y-95422181D01*
X109506722Y-95421339D01*
X109380451Y-95420472D01*
X109267641Y-95419576D01*
X109168164Y-95418652D01*
X109081888Y-95417696D01*
X109008683Y-95416709D01*
X108948419Y-95415688D01*
X108900967Y-95414631D01*
X108866195Y-95413538D01*
X108843973Y-95412408D01*
X108834172Y-95411237D01*
X108822081Y-95408345D01*
X108799058Y-95407860D01*
X108767881Y-95412721D01*
X108733573Y-95417306D01*
X108702822Y-95415362D01*
X108681537Y-95406365D01*
X108676719Y-95399368D01*
X108762747Y-95399368D01*
X108766236Y-95402857D01*
X108768789Y-95400304D01*
X109147773Y-95400304D01*
X109153517Y-95402857D01*
X109157211Y-95402353D01*
X109157900Y-95399368D01*
X110779396Y-95399368D01*
X110782885Y-95402857D01*
X110786374Y-95399368D01*
X110782885Y-95395879D01*
X110780559Y-95398205D01*
X110779396Y-95399368D01*
X109157900Y-95399368D01*
X109158169Y-95398205D01*
X109157146Y-95397370D01*
X109148865Y-95398205D01*
X109148260Y-95399368D01*
X109147773Y-95400304D01*
X108768789Y-95400304D01*
X108769725Y-95399368D01*
X108766236Y-95395879D01*
X108762747Y-95399368D01*
X108676719Y-95399368D01*
X108670833Y-95390820D01*
X108671697Y-95371994D01*
X108708355Y-95371994D01*
X108708408Y-95382888D01*
X108711460Y-95388143D01*
X108716811Y-95382860D01*
X108719183Y-95375139D01*
X108716396Y-95368231D01*
X108709685Y-95369857D01*
X108708355Y-95371994D01*
X108671697Y-95371994D01*
X108671824Y-95369232D01*
X108675687Y-95358152D01*
X108683972Y-95337749D01*
X108694740Y-95313100D01*
X108706658Y-95287050D01*
X108718391Y-95262443D01*
X108728605Y-95242122D01*
X108735967Y-95228931D01*
X108739142Y-95225714D01*
X108741212Y-95234836D01*
X108744825Y-95251085D01*
X108750419Y-95264427D01*
X108762880Y-95270275D01*
X108764702Y-95270353D01*
X108774935Y-95276196D01*
X108776864Y-95288626D01*
X108770914Y-95303841D01*
X108757514Y-95318042D01*
X108751180Y-95322929D01*
X108744393Y-95330931D01*
X108748791Y-95335044D01*
X108755693Y-95336958D01*
X108777842Y-95342837D01*
X108803658Y-95349447D01*
X108828849Y-95355716D01*
X108849127Y-95360570D01*
X108860200Y-95362934D01*
X108863574Y-95362556D01*
X108870796Y-95353237D01*
X108875240Y-95336566D01*
X109293077Y-95336566D01*
X109296566Y-95340055D01*
X109300055Y-95336566D01*
X109296566Y-95333077D01*
X109293077Y-95336566D01*
X108875240Y-95336566D01*
X108876703Y-95331076D01*
X108878646Y-95322610D01*
X109495440Y-95322610D01*
X109498929Y-95326099D01*
X109502418Y-95322610D01*
X109635000Y-95322610D01*
X109638489Y-95326099D01*
X109641978Y-95322610D01*
X109638489Y-95319121D01*
X109635000Y-95322610D01*
X109502418Y-95322610D01*
X109498929Y-95319121D01*
X109495440Y-95322610D01*
X108878646Y-95322610D01*
X108879821Y-95317493D01*
X108887178Y-95301487D01*
X108959635Y-95301487D01*
X108963955Y-95313779D01*
X108970304Y-95317124D01*
X108976275Y-95309352D01*
X108977563Y-95301864D01*
X108973243Y-95289573D01*
X108970743Y-95288256D01*
X110704291Y-95288256D01*
X110707568Y-95298850D01*
X110712947Y-95301864D01*
X110713247Y-95302032D01*
X110719156Y-95294596D01*
X110719601Y-95293399D01*
X110723261Y-95276203D01*
X110722195Y-95262141D01*
X110716726Y-95256319D01*
X110710976Y-95260967D01*
X110705375Y-95274275D01*
X110704291Y-95288256D01*
X108970743Y-95288256D01*
X108966894Y-95286228D01*
X108960923Y-95294000D01*
X108959635Y-95301487D01*
X108887178Y-95301487D01*
X108889489Y-95296459D01*
X108906598Y-95279657D01*
X108919336Y-95268689D01*
X108928074Y-95254352D01*
X108928380Y-95251527D01*
X108994914Y-95251527D01*
X109001423Y-95260118D01*
X109012087Y-95256654D01*
X109026168Y-95240135D01*
X109027367Y-95238091D01*
X109127903Y-95238091D01*
X109128718Y-95248733D01*
X109130611Y-95251236D01*
X109139560Y-95256319D01*
X109146143Y-95254111D01*
X109150465Y-95245852D01*
X109376813Y-95245852D01*
X109380302Y-95249341D01*
X109383791Y-95245852D01*
X109380302Y-95242363D01*
X109378281Y-95244384D01*
X109376813Y-95245852D01*
X109150465Y-95245852D01*
X109151233Y-95244384D01*
X109147326Y-95233381D01*
X109145412Y-95231813D01*
X109135285Y-95230951D01*
X109127903Y-95238091D01*
X109027367Y-95238091D01*
X109037418Y-95220957D01*
X109041968Y-95206112D01*
X109038327Y-95200552D01*
X109027576Y-95205532D01*
X109010799Y-95222307D01*
X109006882Y-95227208D01*
X108997475Y-95241978D01*
X108994914Y-95251527D01*
X108928380Y-95251527D01*
X108930220Y-95234556D01*
X108929420Y-95218846D01*
X108925346Y-95209146D01*
X108916986Y-95212404D01*
X108903411Y-95228406D01*
X108889347Y-95242570D01*
X108872470Y-95249602D01*
X108858109Y-95246110D01*
X108849349Y-95231895D01*
X108845828Y-95220315D01*
X108842548Y-95214450D01*
X108840811Y-95215165D01*
X108830412Y-95221376D01*
X108814419Y-95231895D01*
X108805496Y-95237693D01*
X108785293Y-95247590D01*
X108773535Y-95246972D01*
X108769725Y-95235883D01*
X108767608Y-95225947D01*
X108758421Y-95211121D01*
X108753838Y-95204436D01*
X108752686Y-95197005D01*
X108965110Y-95197005D01*
X108968599Y-95200494D01*
X108972088Y-95197005D01*
X108968599Y-95193516D01*
X108965110Y-95197005D01*
X108752686Y-95197005D01*
X108750489Y-95182835D01*
X108755900Y-95152418D01*
X108769918Y-95114459D01*
X108784585Y-95088416D01*
X108802497Y-95072767D01*
X108824679Y-95067912D01*
X108833198Y-95066683D01*
X108843183Y-95060628D01*
X108844037Y-95058850D01*
X108842134Y-95047568D01*
X108831946Y-95037425D01*
X108817717Y-95033022D01*
X108811370Y-95032365D01*
X108806112Y-95027813D01*
X108806751Y-95017169D01*
X108813582Y-94998397D01*
X108817768Y-94989301D01*
X108863007Y-94989301D01*
X108863559Y-95004075D01*
X108865313Y-95027650D01*
X108868065Y-95056940D01*
X108871134Y-95095374D01*
X108871241Y-95126496D01*
X108867851Y-95146428D01*
X108867751Y-95146715D01*
X108863840Y-95163040D01*
X108864424Y-95173384D01*
X108869360Y-95177908D01*
X108882246Y-95178261D01*
X108895414Y-95168991D01*
X108900140Y-95157729D01*
X108904603Y-95136752D01*
X108905301Y-95130714D01*
X108966817Y-95130714D01*
X108966843Y-95130846D01*
X108974623Y-95138630D01*
X108990593Y-95143108D01*
X109009293Y-95143502D01*
X109025264Y-95139036D01*
X109027774Y-95137791D01*
X109043478Y-95135195D01*
X109057032Y-95139420D01*
X109062802Y-95148973D01*
X109066650Y-95155276D01*
X109080247Y-95158626D01*
X109082725Y-95158670D01*
X109094594Y-95162526D01*
X109097692Y-95175217D01*
X109095571Y-95186962D01*
X109089377Y-95197005D01*
X109087225Y-95200494D01*
X109081631Y-95206112D01*
X109081532Y-95206211D01*
X109076758Y-95215305D01*
X109076776Y-95216026D01*
X109080984Y-95221432D01*
X109090881Y-95216815D01*
X109103981Y-95203275D01*
X109106754Y-95199521D01*
X109119502Y-95172774D01*
X109120079Y-95169093D01*
X109167473Y-95169093D01*
X109170962Y-95172582D01*
X109174451Y-95169093D01*
X109174311Y-95168953D01*
X109427150Y-95168953D01*
X109427164Y-95169093D01*
X109427985Y-95177234D01*
X109430084Y-95178326D01*
X109432637Y-95172582D01*
X109432134Y-95168888D01*
X109427985Y-95167930D01*
X109427150Y-95168953D01*
X109174311Y-95168953D01*
X109170962Y-95165604D01*
X109167473Y-95169093D01*
X109120079Y-95169093D01*
X109121801Y-95158103D01*
X109873590Y-95158103D01*
X109874035Y-95162064D01*
X109882720Y-95165604D01*
X109888481Y-95164466D01*
X109891849Y-95158103D01*
X109890902Y-95156034D01*
X109882720Y-95150602D01*
X109880794Y-95150893D01*
X109873590Y-95158103D01*
X109121801Y-95158103D01*
X109124015Y-95143970D01*
X109122165Y-95134203D01*
X109307033Y-95134203D01*
X109310522Y-95137692D01*
X109314011Y-95134203D01*
X109310522Y-95130714D01*
X109307033Y-95134203D01*
X109122165Y-95134203D01*
X109119255Y-95118840D01*
X109113178Y-95108390D01*
X109103530Y-95103681D01*
X109085996Y-95105139D01*
X109083572Y-95105510D01*
X109057485Y-95105204D01*
X109040452Y-95094867D01*
X109031148Y-95073739D01*
X109029964Y-95068348D01*
X109168781Y-95068348D01*
X109170417Y-95071725D01*
X109180992Y-95080560D01*
X109185193Y-95080942D01*
X109185946Y-95078379D01*
X109501371Y-95078379D01*
X109501663Y-95080305D01*
X109508872Y-95087509D01*
X109512833Y-95087064D01*
X109514477Y-95083031D01*
X109607088Y-95083031D01*
X109607214Y-95084164D01*
X109613654Y-95088846D01*
X109619480Y-95087180D01*
X109625064Y-95079601D01*
X109622131Y-95072073D01*
X109621089Y-95071514D01*
X109611640Y-95072918D01*
X109609182Y-95078379D01*
X109607088Y-95083031D01*
X109514477Y-95083031D01*
X109516374Y-95078379D01*
X109515235Y-95072618D01*
X109508872Y-95069249D01*
X109506803Y-95070197D01*
X109503977Y-95074454D01*
X109501371Y-95078379D01*
X109185946Y-95078379D01*
X109187098Y-95074454D01*
X109185462Y-95071077D01*
X109177672Y-95064569D01*
X109809922Y-95064569D01*
X109814098Y-95074797D01*
X109817491Y-95079601D01*
X109827251Y-95093421D01*
X109837191Y-95104524D01*
X109850687Y-95114584D01*
X109861101Y-95117267D01*
X109865275Y-95111105D01*
X109861838Y-95104295D01*
X109851202Y-95091428D01*
X109837265Y-95077199D01*
X109824055Y-95065678D01*
X109815601Y-95060934D01*
X109814100Y-95061003D01*
X109809922Y-95064569D01*
X109177672Y-95064569D01*
X109174887Y-95062242D01*
X109170686Y-95061860D01*
X109168781Y-95068348D01*
X109029964Y-95068348D01*
X109026272Y-95051539D01*
X109017920Y-95071401D01*
X109016889Y-95073854D01*
X109009989Y-95084208D01*
X109004091Y-95093058D01*
X108986214Y-95108209D01*
X108983879Y-95109599D01*
X108971041Y-95120612D01*
X108966817Y-95130714D01*
X108905301Y-95130714D01*
X108907575Y-95111059D01*
X108908822Y-95084208D01*
X108907590Y-95071401D01*
X108930220Y-95071401D01*
X108933709Y-95074890D01*
X108937198Y-95071401D01*
X108933709Y-95067912D01*
X108930220Y-95071401D01*
X108907590Y-95071401D01*
X108906959Y-95064841D01*
X108900595Y-95046743D01*
X108888345Y-95023618D01*
X108876699Y-95003863D01*
X108872201Y-94997058D01*
X109041868Y-94997058D01*
X109043206Y-95004938D01*
X109051441Y-95018323D01*
X109055725Y-95021088D01*
X109061263Y-95018504D01*
X109065445Y-95004107D01*
X109065671Y-95002951D01*
X109067113Y-94991347D01*
X109184918Y-94991347D01*
X109185143Y-94993588D01*
X109193163Y-95001211D01*
X109211473Y-95001988D01*
X109238426Y-94995781D01*
X109247893Y-94992637D01*
X109264920Y-94985241D01*
X109268915Y-94979345D01*
X109260422Y-94974418D01*
X109247011Y-94972508D01*
X109226813Y-94973807D01*
X109206635Y-94978074D01*
X109191121Y-94984268D01*
X109188664Y-94987072D01*
X109184918Y-94991347D01*
X109067113Y-94991347D01*
X109067644Y-94987072D01*
X109066641Y-94978710D01*
X109065717Y-94977935D01*
X109056137Y-94977866D01*
X109046353Y-94985600D01*
X109041868Y-94997058D01*
X108872201Y-94997058D01*
X108867685Y-94990227D01*
X108863381Y-94985886D01*
X108863007Y-94989301D01*
X108817768Y-94989301D01*
X108826636Y-94970028D01*
X108903407Y-94970028D01*
X108903866Y-94971030D01*
X108909956Y-94971573D01*
X108918797Y-94964376D01*
X108920992Y-94961305D01*
X108972088Y-94961305D01*
X108972650Y-94967204D01*
X108979080Y-94976156D01*
X108990253Y-94974330D01*
X109003093Y-94961689D01*
X109008328Y-94952174D01*
X109545649Y-94952174D01*
X109547240Y-94971964D01*
X109547503Y-94973528D01*
X109548941Y-94979345D01*
X109551455Y-94989512D01*
X109556662Y-95003433D01*
X109561640Y-95012521D01*
X109564906Y-95014004D01*
X109564976Y-95005110D01*
X109564219Y-94994643D01*
X109760604Y-94994643D01*
X109764093Y-94998132D01*
X109767582Y-94994643D01*
X109764093Y-94991154D01*
X109760604Y-94994643D01*
X109564219Y-94994643D01*
X109563904Y-94990281D01*
X109567680Y-94975038D01*
X109578764Y-94970220D01*
X109581908Y-94970118D01*
X109594574Y-94965772D01*
X109595037Y-94957622D01*
X109583325Y-94949740D01*
X109741381Y-94949740D01*
X109743159Y-94956264D01*
X109744102Y-94957622D01*
X109744593Y-94958329D01*
X109750961Y-94963242D01*
X109751916Y-94962787D01*
X109750137Y-94956264D01*
X109748704Y-94954198D01*
X109742336Y-94949286D01*
X109741381Y-94949740D01*
X109583325Y-94949740D01*
X109582631Y-94949273D01*
X109563530Y-94943006D01*
X109550396Y-94942960D01*
X109548934Y-94945797D01*
X109545649Y-94952174D01*
X109008328Y-94952174D01*
X109009157Y-94950668D01*
X109010395Y-94945797D01*
X109383791Y-94945797D01*
X109387280Y-94949286D01*
X109390769Y-94945797D01*
X109387280Y-94942308D01*
X109383791Y-94945797D01*
X109010395Y-94945797D01*
X109013531Y-94933460D01*
X109011798Y-94919898D01*
X109003885Y-94914395D01*
X108998524Y-94915660D01*
X108986125Y-94926130D01*
X108976806Y-94941952D01*
X108976169Y-94943033D01*
X108972088Y-94961305D01*
X108920992Y-94961305D01*
X108926760Y-94953237D01*
X108930220Y-94941952D01*
X108930184Y-94940982D01*
X108926279Y-94938272D01*
X108915440Y-94947008D01*
X108905900Y-94959693D01*
X108903407Y-94970028D01*
X108826636Y-94970028D01*
X108826897Y-94969461D01*
X108842487Y-94940140D01*
X108857885Y-94920183D01*
X108875629Y-94907763D01*
X108898819Y-94899881D01*
X108911270Y-94896457D01*
X108913759Y-94893566D01*
X108904697Y-94889968D01*
X108899314Y-94887179D01*
X108889104Y-94876126D01*
X108883166Y-94862828D01*
X108884611Y-94853008D01*
X108886101Y-94852166D01*
X108896273Y-94854187D01*
X108909687Y-94861939D01*
X108921252Y-94871981D01*
X108925874Y-94880874D01*
X108925968Y-94885366D01*
X108930680Y-94888884D01*
X108944386Y-94885365D01*
X108951662Y-94882405D01*
X108970531Y-94870042D01*
X108982193Y-94855238D01*
X108983620Y-94841386D01*
X108977436Y-94833354D01*
X108964668Y-94831746D01*
X108951154Y-94841126D01*
X108947440Y-94845084D01*
X108932941Y-94851614D01*
X108919065Y-94844890D01*
X108907251Y-94825426D01*
X108904285Y-94817276D01*
X108901243Y-94795629D01*
X108909061Y-94782382D01*
X108927984Y-94776958D01*
X108944098Y-94775632D01*
X108964759Y-94773469D01*
X108977993Y-94774745D01*
X108989801Y-94786999D01*
X108997323Y-94799506D01*
X109010467Y-94816703D01*
X109019897Y-94828571D01*
X109031102Y-94846408D01*
X109034418Y-94851712D01*
X109045768Y-94859355D01*
X109064193Y-94860249D01*
X109092459Y-94854771D01*
X109099937Y-94853412D01*
X109110525Y-94855585D01*
X109111036Y-94863857D01*
X109101947Y-94876254D01*
X109083736Y-94890801D01*
X109074909Y-94897128D01*
X109061219Y-94909567D01*
X109055824Y-94918679D01*
X109056541Y-94921876D01*
X109066509Y-94929862D01*
X109081680Y-94933460D01*
X109085273Y-94934312D01*
X109109061Y-94934130D01*
X109113328Y-94933528D01*
X109126362Y-94927547D01*
X109128545Y-94921154D01*
X109327967Y-94921154D01*
X109328979Y-94929462D01*
X109333267Y-94935330D01*
X109337892Y-94932776D01*
X109894421Y-94932776D01*
X109900165Y-94935330D01*
X109903859Y-94934826D01*
X109904817Y-94930678D01*
X109903794Y-94929842D01*
X109895513Y-94930678D01*
X109894421Y-94932776D01*
X109337892Y-94932776D01*
X109338403Y-94932494D01*
X109346603Y-94922256D01*
X109352750Y-94910196D01*
X109353175Y-94902387D01*
X109352097Y-94901482D01*
X109342208Y-94901180D01*
X109332406Y-94909046D01*
X109327967Y-94921154D01*
X109128545Y-94921154D01*
X109131244Y-94913250D01*
X109132309Y-94906747D01*
X109136977Y-94898310D01*
X109148185Y-94893403D01*
X109168420Y-94889972D01*
X109561731Y-94889972D01*
X109562407Y-94892006D01*
X109571478Y-94896864D01*
X109586476Y-94899097D01*
X109601429Y-94898235D01*
X109610364Y-94893805D01*
X109611247Y-94889510D01*
X109604549Y-94882393D01*
X109597731Y-94880626D01*
X109581637Y-94880370D01*
X109567684Y-94883831D01*
X109561731Y-94889972D01*
X109168420Y-94889972D01*
X109169623Y-94889768D01*
X109170828Y-94889604D01*
X109203397Y-94883260D01*
X109223441Y-94875068D01*
X109227662Y-94869038D01*
X109683846Y-94869038D01*
X109687335Y-94872527D01*
X109690824Y-94869038D01*
X109687335Y-94865549D01*
X109683846Y-94869038D01*
X109227662Y-94869038D01*
X109230275Y-94865304D01*
X109230089Y-94864471D01*
X109222143Y-94860278D01*
X109206097Y-94858571D01*
X109186964Y-94855730D01*
X109186057Y-94854942D01*
X109308524Y-94854942D01*
X109309359Y-94863223D01*
X109311458Y-94864315D01*
X109314011Y-94858571D01*
X109313507Y-94854877D01*
X109309359Y-94853919D01*
X109308524Y-94854942D01*
X109186057Y-94854942D01*
X109174696Y-94845074D01*
X109171370Y-94838662D01*
X109168504Y-94829418D01*
X109174657Y-94827863D01*
X109191896Y-94832483D01*
X109195619Y-94833694D01*
X109210350Y-94840161D01*
X109216319Y-94845786D01*
X109217491Y-94848448D01*
X109226786Y-94851593D01*
X109233495Y-94850264D01*
X109236652Y-94842991D01*
X109228530Y-94832556D01*
X109227156Y-94831637D01*
X109214236Y-94825355D01*
X109192846Y-94816522D01*
X109166825Y-94806744D01*
X109165576Y-94806236D01*
X109293077Y-94806236D01*
X109296566Y-94809725D01*
X109300055Y-94806236D01*
X109296566Y-94802747D01*
X109293077Y-94806236D01*
X109165576Y-94806236D01*
X109131273Y-94792280D01*
X109223297Y-94792280D01*
X109226786Y-94795769D01*
X109230275Y-94792280D01*
X109226786Y-94788791D01*
X109223297Y-94792280D01*
X109131273Y-94792280D01*
X109130125Y-94791813D01*
X109102981Y-94775765D01*
X109082942Y-94756368D01*
X109066597Y-94731048D01*
X109064640Y-94727256D01*
X109058155Y-94709527D01*
X109059207Y-94700403D01*
X109066601Y-94701479D01*
X109079139Y-94714347D01*
X109083380Y-94719852D01*
X109109071Y-94750204D01*
X109129476Y-94768562D01*
X109144257Y-94774613D01*
X109149885Y-94774403D01*
X109153107Y-94772237D01*
X109144794Y-94765121D01*
X109143423Y-94763937D01*
X109136456Y-94752359D01*
X109132750Y-94737423D01*
X109133077Y-94724511D01*
X109138205Y-94719011D01*
X109140047Y-94719444D01*
X109151265Y-94725419D01*
X109167089Y-94736173D01*
X109187096Y-94747542D01*
X109218947Y-94759059D01*
X109252454Y-94766060D01*
X109281082Y-94766788D01*
X109291845Y-94764862D01*
X109300742Y-94760100D01*
X109296961Y-94754214D01*
X109281212Y-94747868D01*
X109269257Y-94745149D01*
X109593268Y-94745149D01*
X109596394Y-94757620D01*
X109603333Y-94765232D01*
X109610234Y-94770459D01*
X109618091Y-94784202D01*
X109621958Y-94792280D01*
X109624861Y-94798345D01*
X109630635Y-94806236D01*
X109637018Y-94814959D01*
X109640636Y-94818653D01*
X109654712Y-94828520D01*
X109665548Y-94829848D01*
X109669864Y-94821937D01*
X109666284Y-94808826D01*
X109655643Y-94790391D01*
X109641859Y-94773798D01*
X109628946Y-94764661D01*
X109620475Y-94759371D01*
X109612764Y-94745395D01*
X109609824Y-94736174D01*
X109604408Y-94730414D01*
X110752718Y-94730414D01*
X110758462Y-94732967D01*
X110762156Y-94732463D01*
X110763114Y-94728315D01*
X110762091Y-94727480D01*
X110753810Y-94728315D01*
X110752718Y-94730414D01*
X109604408Y-94730414D01*
X109601854Y-94727698D01*
X109599314Y-94727418D01*
X109594170Y-94733266D01*
X109593268Y-94745149D01*
X109269257Y-94745149D01*
X109254207Y-94741726D01*
X109249617Y-94740894D01*
X109214379Y-94733736D01*
X109190670Y-94726731D01*
X109176366Y-94718740D01*
X109170779Y-94710694D01*
X109275431Y-94710694D01*
X109287843Y-94711542D01*
X109301025Y-94709961D01*
X109307033Y-94705055D01*
X109306023Y-94700619D01*
X109298914Y-94699256D01*
X109282610Y-94705055D01*
X109275870Y-94708220D01*
X109275431Y-94710694D01*
X109170779Y-94710694D01*
X109169342Y-94708624D01*
X109167473Y-94695246D01*
X109170852Y-94679266D01*
X109181075Y-94667612D01*
X109343157Y-94667612D01*
X109348901Y-94670165D01*
X109352595Y-94669661D01*
X109353553Y-94665513D01*
X109352530Y-94664678D01*
X109344249Y-94665513D01*
X109343157Y-94667612D01*
X109181075Y-94667612D01*
X109184956Y-94663187D01*
X109450082Y-94663187D01*
X109452280Y-94665513D01*
X109452806Y-94666070D01*
X109464862Y-94670165D01*
X109469513Y-94669224D01*
X109471017Y-94663187D01*
X109468293Y-94660303D01*
X109466511Y-94659698D01*
X109551264Y-94659698D01*
X109554753Y-94663187D01*
X109558242Y-94659698D01*
X109554753Y-94656209D01*
X109551264Y-94659698D01*
X109466511Y-94659698D01*
X109456237Y-94656209D01*
X109451586Y-94657149D01*
X109450082Y-94663187D01*
X109184956Y-94663187D01*
X109185952Y-94662052D01*
X109212104Y-94650977D01*
X109248146Y-94646740D01*
X109263546Y-94646349D01*
X109276876Y-94644720D01*
X109279297Y-94642253D01*
X109718736Y-94642253D01*
X109718939Y-94643921D01*
X109725714Y-94649231D01*
X109727382Y-94649028D01*
X109729958Y-94645741D01*
X110824008Y-94645741D01*
X110830907Y-94649231D01*
X110835620Y-94648603D01*
X110845687Y-94642253D01*
X110846432Y-94638765D01*
X110839532Y-94635275D01*
X110834819Y-94635902D01*
X110824753Y-94642253D01*
X110824008Y-94645741D01*
X109729958Y-94645741D01*
X109732692Y-94642253D01*
X109732490Y-94640585D01*
X109725714Y-94635275D01*
X109724046Y-94635477D01*
X109718736Y-94642253D01*
X109279297Y-94642253D01*
X109280784Y-94640738D01*
X109277992Y-94633165D01*
X109277271Y-94631786D01*
X110716593Y-94631786D01*
X110720082Y-94635275D01*
X110723571Y-94631786D01*
X110720082Y-94628297D01*
X110716593Y-94631786D01*
X109277271Y-94631786D01*
X109277216Y-94631680D01*
X109273890Y-94620807D01*
X109279073Y-94615597D01*
X109294361Y-94615577D01*
X109321350Y-94620271D01*
X109340902Y-94623759D01*
X109359710Y-94625803D01*
X109369349Y-94625108D01*
X109369561Y-94624808D01*
X109509396Y-94624808D01*
X109512885Y-94628297D01*
X109516374Y-94624808D01*
X109512885Y-94621319D01*
X109509396Y-94624808D01*
X109369561Y-94624808D01*
X109371739Y-94621724D01*
X109376362Y-94607476D01*
X109378601Y-94595575D01*
X109748534Y-94595575D01*
X109753228Y-94602744D01*
X109763565Y-94605259D01*
X109771793Y-94597307D01*
X110800330Y-94597307D01*
X110800398Y-94598283D01*
X110804437Y-94599820D01*
X110811463Y-94592328D01*
X110813161Y-94588429D01*
X110808386Y-94589251D01*
X110805968Y-94590931D01*
X110805286Y-94591405D01*
X110800330Y-94597307D01*
X109771793Y-94597307D01*
X109771930Y-94597175D01*
X109773676Y-94590931D01*
X109772932Y-94582474D01*
X109771620Y-94581545D01*
X109761902Y-94582004D01*
X109751852Y-94587945D01*
X109748534Y-94595575D01*
X109378601Y-94595575D01*
X109380247Y-94586828D01*
X109380424Y-94585556D01*
X109384513Y-94564707D01*
X109390429Y-94554104D01*
X109400091Y-94550201D01*
X109427950Y-94549177D01*
X109452816Y-94555655D01*
X109467885Y-94569651D01*
X109468732Y-94571200D01*
X109478429Y-94583888D01*
X109485637Y-94584875D01*
X109488462Y-94573778D01*
X109488227Y-94571599D01*
X109481654Y-94557689D01*
X109468870Y-94542358D01*
X109466381Y-94539985D01*
X109457154Y-94532155D01*
X109447653Y-94527630D01*
X109443843Y-94527115D01*
X109565220Y-94527115D01*
X109568709Y-94530604D01*
X109572198Y-94527115D01*
X109568709Y-94523626D01*
X109565220Y-94527115D01*
X109443843Y-94527115D01*
X109434468Y-94525848D01*
X109414189Y-94526247D01*
X109383404Y-94528264D01*
X109375156Y-94528864D01*
X109348298Y-94531232D01*
X109333731Y-94533527D01*
X109330113Y-94536057D01*
X109336104Y-94539131D01*
X109336109Y-94539133D01*
X109353493Y-94549201D01*
X109359528Y-94562505D01*
X109352993Y-94576355D01*
X109350514Y-94578115D01*
X109336093Y-94583762D01*
X109313493Y-94589924D01*
X109286325Y-94595916D01*
X109258200Y-94601055D01*
X109232729Y-94604658D01*
X109213523Y-94606042D01*
X109204193Y-94604522D01*
X109203523Y-94603477D01*
X109206400Y-94595366D01*
X109216514Y-94585072D01*
X109229631Y-94576228D01*
X109241515Y-94572472D01*
X109248587Y-94570745D01*
X109250111Y-94562960D01*
X109240742Y-94551538D01*
X109237224Y-94548135D01*
X109230389Y-94531406D01*
X109235260Y-94512786D01*
X109251192Y-94495726D01*
X109252879Y-94494481D01*
X109262045Y-94485247D01*
X109516374Y-94485247D01*
X109517161Y-94490062D01*
X109523352Y-94495714D01*
X109526562Y-94494533D01*
X109530330Y-94485247D01*
X109529542Y-94480432D01*
X109523352Y-94474780D01*
X109520142Y-94475961D01*
X109518467Y-94480090D01*
X109516374Y-94485247D01*
X109262045Y-94485247D01*
X109267879Y-94479369D01*
X109268879Y-94477542D01*
X109315901Y-94477542D01*
X109316009Y-94479924D01*
X109325060Y-94481207D01*
X109331919Y-94480090D01*
X109329275Y-94476991D01*
X109325240Y-94475876D01*
X109315901Y-94477542D01*
X109268879Y-94477542D01*
X109276372Y-94463850D01*
X109277867Y-94459330D01*
X109286392Y-94449864D01*
X109302139Y-94447125D01*
X109326800Y-94451070D01*
X109362067Y-94461655D01*
X109374766Y-94465742D01*
X109398393Y-94471156D01*
X109411391Y-94469316D01*
X109414967Y-94459730D01*
X109410327Y-94441903D01*
X109408036Y-94435392D01*
X109405765Y-94420297D01*
X109411239Y-94409048D01*
X109413063Y-94407185D01*
X109425798Y-94400736D01*
X109441531Y-94398215D01*
X109454901Y-94399931D01*
X109460549Y-94406195D01*
X109460751Y-94408877D01*
X109468898Y-94423869D01*
X109485643Y-94435325D01*
X109506417Y-94439890D01*
X109514788Y-94440033D01*
X109536436Y-94443420D01*
X109549635Y-94453156D01*
X109558370Y-94471679D01*
X109561728Y-94480497D01*
X109565465Y-94485247D01*
X109571980Y-94493527D01*
X109590109Y-94499751D01*
X109593569Y-94500419D01*
X109607379Y-94504810D01*
X109613000Y-94513532D01*
X109613811Y-94527115D01*
X109614066Y-94531381D01*
X109614550Y-94543867D01*
X109618124Y-94555407D01*
X109626469Y-94558516D01*
X109636969Y-94556824D01*
X109653145Y-94548544D01*
X109664559Y-94536601D01*
X109666856Y-94524647D01*
X109666405Y-94523075D01*
X109668757Y-94521725D01*
X109677430Y-94530344D01*
X109687332Y-94546949D01*
X109687860Y-94568106D01*
X109685768Y-94580590D01*
X109687730Y-94584182D01*
X109696007Y-94577920D01*
X109699477Y-94575127D01*
X109715991Y-94564090D01*
X109736181Y-94552582D01*
X109744903Y-94547959D01*
X109756182Y-94540904D01*
X109756885Y-94536802D01*
X109748393Y-94533492D01*
X109746835Y-94533011D01*
X109734682Y-94524631D01*
X109734832Y-94514270D01*
X109747426Y-94505934D01*
X109749920Y-94505285D01*
X109764060Y-94506240D01*
X109775197Y-94512920D01*
X109779855Y-94522149D01*
X109774560Y-94530750D01*
X109772582Y-94532039D01*
X109769057Y-94536353D01*
X109778398Y-94537475D01*
X109793463Y-94534368D01*
X109799826Y-94527115D01*
X110681703Y-94527115D01*
X110685192Y-94530604D01*
X110688681Y-94527115D01*
X110685192Y-94523626D01*
X110681703Y-94527115D01*
X109799826Y-94527115D01*
X109805494Y-94520655D01*
X109807826Y-94505957D01*
X109979533Y-94505957D01*
X109980230Y-94514184D01*
X109988972Y-94516698D01*
X110001724Y-94513180D01*
X110004107Y-94511408D01*
X110843298Y-94511408D01*
X110849786Y-94520249D01*
X110858457Y-94525243D01*
X110865056Y-94527115D01*
X110879339Y-94531167D01*
X110907129Y-94535238D01*
X110924035Y-94536523D01*
X110944923Y-94536063D01*
X110953420Y-94531281D01*
X110950316Y-94521376D01*
X110936401Y-94505547D01*
X110924924Y-94489817D01*
X110918956Y-94467897D01*
X110917020Y-94452820D01*
X110911916Y-94443340D01*
X110909541Y-94442103D01*
X110894503Y-94441970D01*
X110880612Y-94451771D01*
X110880041Y-94452940D01*
X110872390Y-94468614D01*
X110865810Y-94485150D01*
X110853713Y-94499430D01*
X110847472Y-94504114D01*
X110843298Y-94511408D01*
X110004107Y-94511408D01*
X110014221Y-94503887D01*
X110016393Y-94500911D01*
X110022593Y-94481866D01*
X110025292Y-94452940D01*
X110024364Y-94417044D01*
X110019683Y-94377088D01*
X110014631Y-94345687D01*
X110009253Y-94380577D01*
X110006156Y-94398310D01*
X110002848Y-94414304D01*
X109999921Y-94428454D01*
X109992621Y-94459752D01*
X109985433Y-94487241D01*
X109979533Y-94505957D01*
X109807826Y-94505957D01*
X109809451Y-94495714D01*
X109809343Y-94490364D01*
X109804655Y-94468714D01*
X109791537Y-94457202D01*
X109767931Y-94453751D01*
X109764394Y-94453718D01*
X109736034Y-94451177D01*
X109718146Y-94443867D01*
X109707995Y-94430738D01*
X109707807Y-94430320D01*
X109700045Y-94420706D01*
X109688535Y-94415467D01*
X109746648Y-94415467D01*
X109750137Y-94418956D01*
X109752690Y-94416403D01*
X109817663Y-94416403D01*
X109823407Y-94418956D01*
X109827101Y-94418452D01*
X109828059Y-94414304D01*
X109827036Y-94413469D01*
X109818755Y-94414304D01*
X109818150Y-94415467D01*
X109817663Y-94416403D01*
X109752690Y-94416403D01*
X109753626Y-94415467D01*
X109750137Y-94411978D01*
X109746648Y-94415467D01*
X109688535Y-94415467D01*
X109685053Y-94413882D01*
X109659468Y-94408295D01*
X109617644Y-94401123D01*
X109640391Y-94391701D01*
X109649552Y-94387520D01*
X109657860Y-94380544D01*
X109655446Y-94373011D01*
X109651111Y-94366124D01*
X109652403Y-94356138D01*
X109665213Y-94351055D01*
X109688255Y-94351709D01*
X109697136Y-94352899D01*
X109709651Y-94353459D01*
X109716444Y-94349701D01*
X109718374Y-94339262D01*
X109716299Y-94319781D01*
X109713601Y-94303819D01*
X110186264Y-94303819D01*
X110189753Y-94307308D01*
X110193242Y-94303819D01*
X110639835Y-94303819D01*
X110643324Y-94307308D01*
X110646813Y-94303819D01*
X110643324Y-94300330D01*
X110639835Y-94303819D01*
X110193242Y-94303819D01*
X110189753Y-94300330D01*
X110186264Y-94303819D01*
X109713601Y-94303819D01*
X109711078Y-94288895D01*
X109706361Y-94261810D01*
X110013304Y-94261810D01*
X110014139Y-94270091D01*
X110016238Y-94271183D01*
X110017067Y-94269318D01*
X110632857Y-94269318D01*
X110635349Y-94276052D01*
X110645316Y-94279141D01*
X110658583Y-94275072D01*
X110670444Y-94264453D01*
X110675506Y-94258742D01*
X110691273Y-94250511D01*
X110717132Y-94246030D01*
X110753355Y-94242550D01*
X110749917Y-94262717D01*
X110746347Y-94279061D01*
X110741257Y-94295096D01*
X110739343Y-94302016D01*
X110740452Y-94303819D01*
X110742014Y-94306357D01*
X110767640Y-94300734D01*
X110784333Y-94291564D01*
X110791676Y-94276778D01*
X110792057Y-94253870D01*
X110791048Y-94243864D01*
X110787317Y-94232066D01*
X110777791Y-94225945D01*
X110758462Y-94221657D01*
X110742504Y-94219239D01*
X110702562Y-94218262D01*
X110670725Y-94225526D01*
X110664427Y-94229888D01*
X110658048Y-94234306D01*
X110648788Y-94240719D01*
X110647556Y-94242181D01*
X110637135Y-94257491D01*
X110634260Y-94265439D01*
X110632857Y-94269318D01*
X110017067Y-94269318D01*
X110018791Y-94265439D01*
X110018288Y-94261745D01*
X110014139Y-94260787D01*
X110013304Y-94261810D01*
X109706361Y-94261810D01*
X109703419Y-94244916D01*
X109676466Y-94258667D01*
X109670408Y-94261591D01*
X109650330Y-94269318D01*
X109635278Y-94272417D01*
X109624252Y-94275311D01*
X109624063Y-94275906D01*
X109621799Y-94283036D01*
X109631383Y-94290779D01*
X109638720Y-94296788D01*
X109636592Y-94305984D01*
X109625681Y-94316333D01*
X109608460Y-94326421D01*
X109587400Y-94334834D01*
X109564973Y-94340158D01*
X109543650Y-94340978D01*
X109531681Y-94339244D01*
X109522667Y-94334008D01*
X109521525Y-94323008D01*
X109521801Y-94317570D01*
X109517726Y-94309326D01*
X109503731Y-94307308D01*
X109494585Y-94306764D01*
X109478540Y-94300224D01*
X109470027Y-94284621D01*
X109469213Y-94275906D01*
X109516374Y-94275906D01*
X109519863Y-94279395D01*
X109523352Y-94275906D01*
X109519863Y-94272417D01*
X109516374Y-94275906D01*
X109469213Y-94275906D01*
X109467528Y-94257880D01*
X109467576Y-94253473D01*
X109470494Y-94232724D01*
X109479360Y-94222352D01*
X109496179Y-94221292D01*
X109522956Y-94228483D01*
X109531599Y-94231191D01*
X109548122Y-94234958D01*
X109556420Y-94234697D01*
X109556935Y-94232294D01*
X109643719Y-94232294D01*
X109648266Y-94238532D01*
X109660531Y-94243454D01*
X109671785Y-94240284D01*
X109674501Y-94234306D01*
X109668884Y-94226800D01*
X109654941Y-94223571D01*
X109646906Y-94225214D01*
X109643719Y-94232294D01*
X109556935Y-94232294D01*
X109557805Y-94228230D01*
X109549546Y-94219284D01*
X109541765Y-94215370D01*
X110312475Y-94215370D01*
X110316779Y-94224296D01*
X110321241Y-94227598D01*
X110328639Y-94224661D01*
X110328905Y-94217392D01*
X110322057Y-94211105D01*
X110313614Y-94212522D01*
X110312475Y-94215370D01*
X109541765Y-94215370D01*
X109533230Y-94211077D01*
X109511933Y-94205619D01*
X109503534Y-94204287D01*
X109488585Y-94200420D01*
X109482838Y-94194099D01*
X109482847Y-94182598D01*
X109483790Y-94176261D01*
X109487790Y-94168331D01*
X109497851Y-94165343D01*
X109517899Y-94165369D01*
X109529871Y-94166322D01*
X109559411Y-94171336D01*
X109587680Y-94178924D01*
X109600413Y-94182718D01*
X109631359Y-94189286D01*
X109659423Y-94192305D01*
X109671066Y-94192923D01*
X109702268Y-94196320D01*
X109731900Y-94201429D01*
X109745681Y-94204173D01*
X109784123Y-94208882D01*
X109815869Y-94208297D01*
X109837821Y-94202392D01*
X109841474Y-94199539D01*
X109848398Y-94187383D01*
X109851652Y-94172214D01*
X109850534Y-94159270D01*
X109844341Y-94153791D01*
X109840285Y-94151174D01*
X109837363Y-94139835D01*
X109837649Y-94134453D01*
X109841741Y-94126975D01*
X109851840Y-94129876D01*
X109869423Y-94143316D01*
X109872420Y-94145792D01*
X109888667Y-94156435D01*
X109901339Y-94160761D01*
X109907509Y-94161202D01*
X109924527Y-94165200D01*
X109930531Y-94166004D01*
X109933729Y-94160808D01*
X109934638Y-94146964D01*
X109933820Y-94121842D01*
X109933311Y-94110484D01*
X109933054Y-94089549D01*
X109935200Y-94077380D01*
X109940875Y-94070262D01*
X109951203Y-94064480D01*
X109966042Y-94054903D01*
X109974696Y-94044858D01*
X109979255Y-94038759D01*
X109988205Y-94042819D01*
X109989759Y-94044444D01*
X109994419Y-94056436D01*
X109997038Y-94078762D01*
X109997857Y-94113189D01*
X109997988Y-94129243D01*
X109999273Y-94156100D01*
X110001939Y-94169237D01*
X110005999Y-94168627D01*
X110007936Y-94163531D01*
X110306780Y-94163531D01*
X110306888Y-94165913D01*
X110315939Y-94167196D01*
X110322798Y-94166079D01*
X110321349Y-94164380D01*
X110537969Y-94164380D01*
X110538679Y-94166079D01*
X110544414Y-94179801D01*
X110555307Y-94197291D01*
X110568111Y-94212780D01*
X110574077Y-94217392D01*
X110580291Y-94222196D01*
X110595474Y-94228328D01*
X110606313Y-94229888D01*
X110605671Y-94223912D01*
X110593257Y-94210660D01*
X110588686Y-94206261D01*
X110575522Y-94190691D01*
X110569023Y-94178262D01*
X110567362Y-94173333D01*
X110565776Y-94171236D01*
X110610876Y-94171236D01*
X110611168Y-94173162D01*
X110618378Y-94180366D01*
X110622339Y-94179921D01*
X110625879Y-94171236D01*
X110624741Y-94165475D01*
X110618378Y-94162107D01*
X110616309Y-94163054D01*
X110610876Y-94171236D01*
X110565776Y-94171236D01*
X110558619Y-94161775D01*
X110547333Y-94154436D01*
X110538502Y-94155106D01*
X110537969Y-94164380D01*
X110321349Y-94164380D01*
X110320155Y-94162980D01*
X110316119Y-94161865D01*
X110306780Y-94163531D01*
X110007936Y-94163531D01*
X110011466Y-94154244D01*
X110018350Y-94126061D01*
X110026664Y-94084050D01*
X110028499Y-94073544D01*
X110165330Y-94073544D01*
X110168819Y-94077033D01*
X110172308Y-94073544D01*
X110334815Y-94073544D01*
X110335572Y-94085379D01*
X110340778Y-94103044D01*
X110347922Y-94116692D01*
X110360994Y-94129443D01*
X110374557Y-94132960D01*
X110385321Y-94125581D01*
X110386417Y-94120251D01*
X110381675Y-94107047D01*
X110376378Y-94099640D01*
X110487578Y-94099640D01*
X110489542Y-94106230D01*
X110498618Y-94115842D01*
X110509963Y-94117405D01*
X110518359Y-94109284D01*
X110520142Y-94101369D01*
X110515027Y-94088774D01*
X110499378Y-94084011D01*
X110488955Y-94087345D01*
X110487578Y-94099640D01*
X110376378Y-94099640D01*
X110371024Y-94092152D01*
X110357665Y-94079023D01*
X110344797Y-94071117D01*
X110335619Y-94071890D01*
X110334815Y-94073543D01*
X110334815Y-94073544D01*
X110172308Y-94073544D01*
X110168819Y-94070055D01*
X110165330Y-94073544D01*
X110028499Y-94073544D01*
X110034429Y-94039590D01*
X110292168Y-94039590D01*
X110297912Y-94042143D01*
X110301606Y-94041639D01*
X110302564Y-94037491D01*
X110301541Y-94036656D01*
X110293260Y-94037491D01*
X110292168Y-94039590D01*
X110034429Y-94039590D01*
X110036420Y-94028187D01*
X110037787Y-94020175D01*
X110040235Y-94007278D01*
X110208063Y-94007278D01*
X110215571Y-94019813D01*
X110217337Y-94021510D01*
X110229485Y-94027801D01*
X110238788Y-94020903D01*
X110239288Y-94019953D01*
X110238066Y-94008872D01*
X110229089Y-93998123D01*
X110216810Y-93993297D01*
X110209226Y-93996827D01*
X110208063Y-94007278D01*
X110040235Y-94007278D01*
X110046361Y-93975008D01*
X110049659Y-93959569D01*
X110095549Y-93959569D01*
X110095676Y-93960703D01*
X110102116Y-93965384D01*
X110107941Y-93963719D01*
X110113526Y-93956139D01*
X110110593Y-93948611D01*
X110109551Y-93948053D01*
X110100102Y-93949457D01*
X110095549Y-93959569D01*
X110049659Y-93959569D01*
X110052144Y-93947939D01*
X110221154Y-93947939D01*
X110224643Y-93951428D01*
X110228132Y-93947939D01*
X110224643Y-93944450D01*
X110221154Y-93947939D01*
X110052144Y-93947939D01*
X110057137Y-93924565D01*
X110060414Y-93910415D01*
X110130440Y-93910415D01*
X110130508Y-93911330D01*
X110136563Y-93916538D01*
X110139395Y-93915965D01*
X110148717Y-93909004D01*
X110155740Y-93898720D01*
X110156026Y-93890952D01*
X110154092Y-93890027D01*
X110144844Y-93893035D01*
X110135014Y-93901312D01*
X110130440Y-93910415D01*
X110060414Y-93910415D01*
X110067633Y-93879249D01*
X110223515Y-93879249D01*
X110227843Y-93890952D01*
X110228386Y-93892421D01*
X110240309Y-93900452D01*
X110255612Y-93901953D01*
X110266700Y-93895299D01*
X110267510Y-93893629D01*
X110265697Y-93882359D01*
X110255650Y-93872144D01*
X110241645Y-93867692D01*
X110230630Y-93869942D01*
X110223515Y-93879249D01*
X110067633Y-93879249D01*
X110069555Y-93870950D01*
X110083053Y-93816267D01*
X110097067Y-93762619D01*
X110111036Y-93712112D01*
X110124397Y-93666848D01*
X110136589Y-93628933D01*
X110147050Y-93600470D01*
X110155216Y-93583564D01*
X110164527Y-93572954D01*
X110174874Y-93567637D01*
X110179677Y-93568000D01*
X110198277Y-93572232D01*
X110221212Y-93579834D01*
X110244029Y-93589063D01*
X110262272Y-93598176D01*
X110271486Y-93605431D01*
X110273071Y-93607509D01*
X110286063Y-93615420D01*
X110305220Y-93620835D01*
X110321715Y-93624377D01*
X110331331Y-93629928D01*
X110327041Y-93636526D01*
X110308854Y-93644239D01*
X110292482Y-93648200D01*
X110276871Y-93646542D01*
X110256797Y-93637802D01*
X110250573Y-93634878D01*
X110226693Y-93626812D01*
X110205731Y-93623682D01*
X110182775Y-93623902D01*
X110202353Y-93641127D01*
X110204990Y-93643371D01*
X110220422Y-93654020D01*
X110232010Y-93658352D01*
X110236454Y-93659008D01*
X110242088Y-93664715D01*
X110240199Y-93666763D01*
X110228250Y-93669407D01*
X110208942Y-93669948D01*
X110196316Y-93669658D01*
X110182242Y-93670998D01*
X110175977Y-93676445D01*
X110173589Y-93688008D01*
X110173157Y-93691936D01*
X110173396Y-93700736D01*
X110178419Y-93705269D01*
X110191283Y-93706951D01*
X110215046Y-93707198D01*
X110235066Y-93707421D01*
X110248286Y-93708632D01*
X110251267Y-93711443D01*
X110246041Y-93716462D01*
X110242817Y-93718927D01*
X110238676Y-93724762D01*
X110243548Y-93731059D01*
X110259072Y-93740891D01*
X110265813Y-93745219D01*
X110277741Y-93755629D01*
X110280464Y-93763027D01*
X110275999Y-93765684D01*
X110260585Y-93768790D01*
X110238960Y-93770000D01*
X110228600Y-93770221D01*
X110203105Y-93774138D01*
X110185292Y-93783786D01*
X110168819Y-93797573D01*
X110202405Y-93793245D01*
X110208154Y-93792620D01*
X110236446Y-93792308D01*
X110264356Y-93795714D01*
X110288490Y-93802010D01*
X110305458Y-93810368D01*
X110311868Y-93819961D01*
X110311574Y-93823501D01*
X110305526Y-93830814D01*
X110289190Y-93832909D01*
X110286368Y-93832964D01*
X110274717Y-93834719D01*
X110273857Y-93838142D01*
X110275984Y-93840030D01*
X110285474Y-93851828D01*
X110296821Y-93868978D01*
X110300962Y-93875908D01*
X110307886Y-93890691D01*
X110307891Y-93893629D01*
X110307909Y-93903220D01*
G37*
D11*
%TO.C,U2*%
X123590000Y-84090000D02*
X123590000Y-87850000D01*
X124850000Y-84090000D02*
X123590000Y-84090000D01*
X129150000Y-84090000D02*
X130410000Y-84090000D01*
X130410000Y-84090000D02*
X130410000Y-87850000D01*
X130640000Y-89370000D02*
X130310000Y-89130000D01*
X130640000Y-88890000D01*
X130640000Y-89370000D01*
G36*
X130640000Y-89370000D02*
G01*
X130310000Y-89130000D01*
X130640000Y-88890000D01*
X130640000Y-89370000D01*
G37*
%TO.C,R4*%
X119015000Y-82272936D02*
X119015000Y-82727064D01*
X120485000Y-82272936D02*
X120485000Y-82727064D01*
%TO.C,C1*%
X114488748Y-84765000D02*
X115011252Y-84765000D01*
X114488748Y-86235000D02*
X115011252Y-86235000D01*
%TO.C,C2*%
X119988748Y-89265000D02*
X120511252Y-89265000D01*
X119988748Y-90735000D02*
X120511252Y-90735000D01*
%TO.C,C5*%
X109765000Y-84811252D02*
X109765000Y-84288748D01*
X111235000Y-84811252D02*
X111235000Y-84288748D01*
%TO.C,C6*%
X126011252Y-90765000D02*
X125488748Y-90765000D01*
X126011252Y-92235000D02*
X125488748Y-92235000D01*
%TO.C,R5*%
X125477064Y-76515000D02*
X125022936Y-76515000D01*
X125477064Y-77985000D02*
X125022936Y-77985000D01*
%TO.C,D1*%
X103650000Y-85200000D02*
X103650000Y-87860000D01*
X103650000Y-87860000D02*
X105350000Y-87860000D01*
X105350000Y-85200000D02*
X105350000Y-87860000D01*
%TD*%
M02*
