%TF.GenerationSoftware,KiCad,Pcbnew,8.0.1-rc1*%
%TF.CreationDate,2025-05-18T23:23:19-05:00*%
%TF.ProjectId,MPPT-Interface-Board,4d505054-2d49-46e7-9465-72666163652d,rev?*%
%TF.SameCoordinates,Original*%
%TF.FileFunction,Copper,L1,Top*%
%TF.FilePolarity,Positive*%
%FSLAX46Y46*%
G04 Gerber Fmt 4.6, Leading zero omitted, Abs format (unit mm)*
G04 Created by KiCad (PCBNEW 8.0.1-rc1) date 2025-05-18 23:23:19*
%MOMM*%
%LPD*%
G01*
G04 APERTURE LIST*
G04 Aperture macros list*
%AMRoundRect*
0 Rectangle with rounded corners*
0 $1 Rounding radius*
0 $2 $3 $4 $5 $6 $7 $8 $9 X,Y pos of 4 corners*
0 Add a 4 corners polygon primitive as box body*
4,1,4,$2,$3,$4,$5,$6,$7,$8,$9,$2,$3,0*
0 Add four circle primitives for the rounded corners*
1,1,$1+$1,$2,$3*
1,1,$1+$1,$4,$5*
1,1,$1+$1,$6,$7*
1,1,$1+$1,$8,$9*
0 Add four rect primitives between the rounded corners*
20,1,$1+$1,$2,$3,$4,$5,0*
20,1,$1+$1,$4,$5,$6,$7,0*
20,1,$1+$1,$6,$7,$8,$9,0*
20,1,$1+$1,$8,$9,$2,$3,0*%
G04 Aperture macros list end*
%TA.AperFunction,SMDPad,CuDef*%
%ADD10RoundRect,0.243750X-0.243750X-0.456250X0.243750X-0.456250X0.243750X0.456250X-0.243750X0.456250X0*%
%TD*%
%TA.AperFunction,ComponentPad*%
%ADD11RoundRect,0.250001X0.759999X-0.499999X0.759999X0.499999X-0.759999X0.499999X-0.759999X-0.499999X0*%
%TD*%
%TA.AperFunction,ComponentPad*%
%ADD12O,2.020000X1.500000*%
%TD*%
%TA.AperFunction,SMDPad,CuDef*%
%ADD13R,1.000000X1.000000*%
%TD*%
%TA.AperFunction,ComponentPad*%
%ADD14O,1.200000X1.800000*%
%TD*%
%TA.AperFunction,ComponentPad*%
%ADD15RoundRect,0.250001X-0.759999X0.499999X-0.759999X-0.499999X0.759999X-0.499999X0.759999X0.499999X0*%
%TD*%
%TA.AperFunction,ViaPad*%
%ADD16C,0.600000*%
%TD*%
%TA.AperFunction,Conductor*%
%ADD17C,0.150000*%
%TD*%
G04 APERTURE END LIST*
D10*
%TO.P,D3,1,K*%
%TO.N,CGND*%
X118062500Y-77250000D03*
%TO.P,D3,2,A*%
%TO.N,Net-(D3-A)*%
X119937500Y-77250000D03*
%TD*%
D11*
%TO.P,J5,1,Pin_1*%
%TO.N,+12V*%
X100250000Y-86250000D03*
D12*
%TO.P,J5,2,Pin_2*%
%TO.N,GNDPWR*%
X100250000Y-83250000D03*
%TD*%
D13*
%TO.P,TP4,1,1*%
%TO.N,+12V_PROT*%
X112000000Y-77250000D03*
%TD*%
%TO.P,TP5,1,1*%
%TO.N,+3.3v*%
X129000000Y-77250000D03*
%TD*%
D10*
%TO.P,D4,1,K*%
%TO.N,CGND*%
X124312500Y-77250000D03*
%TO.P,D4,2,A*%
%TO.N,Net-(D4-A)*%
X126187500Y-77250000D03*
%TD*%
D13*
%TO.P,TP1,1,1*%
%TO.N,CGND*%
X128750000Y-94500000D03*
%TD*%
D14*
%TO.P,U1,1,-Vin*%
%TO.N,GNDPWR*%
X113690000Y-87777300D03*
%TO.P,U1,2,+Vin*%
%TO.N,+12V_PROT*%
X116230000Y-87777300D03*
%TO.P,U1,3,-Vout*%
%TO.N,CGND*%
X118770000Y-87777300D03*
%TO.P,U1,4,+Vout*%
%TO.N,+5V*%
X121310000Y-87777300D03*
%TD*%
D15*
%TO.P,J1,1,Pin_1*%
%TO.N,+3.3v*%
X132915000Y-83250000D03*
D12*
%TO.P,J1,2,Pin_2*%
%TO.N,CGND*%
X132915000Y-86250000D03*
%TD*%
D10*
%TO.P,D2,1,K*%
%TO.N,GNDPWR*%
X108062500Y-77250000D03*
%TO.P,D2,2,A*%
%TO.N,Net-(D2-A)*%
X109937500Y-77250000D03*
%TD*%
D13*
%TO.P,TP3,1,1*%
%TO.N,+5V*%
X122000000Y-77250000D03*
%TD*%
%TO.P,TP2,1,1*%
%TO.N,GNDPWR*%
X105250000Y-77250000D03*
%TD*%
D16*
%TO.N,+12V_PROT*%
X113500000Y-78750000D03*
%TO.N,Net-(D2-A)*%
X110750000Y-80000000D03*
%TO.N,Net-(D3-A)*%
X119750000Y-79500000D03*
%TO.N,Net-(D4-A)*%
X127500000Y-77250000D03*
%TO.N,+5V*%
X121000000Y-79500000D03*
%TO.N,+3.3v*%
X128500000Y-78750000D03*
%TD*%
D17*
%TO.N,+12V_PROT*%
X112000000Y-77250000D02*
X113500000Y-78750000D01*
%TO.N,Net-(D2-A)*%
X110750000Y-80000000D02*
X109937500Y-79187500D01*
X109937500Y-79187500D02*
X109937500Y-77250000D01*
%TO.N,Net-(D3-A)*%
X119750000Y-79500000D02*
X119750000Y-77437500D01*
X119750000Y-77437500D02*
X119937500Y-77250000D01*
%TO.N,Net-(D4-A)*%
X127500000Y-77250000D02*
X126187500Y-77250000D01*
%TO.N,+5V*%
X121000000Y-79500000D02*
X121000000Y-78250000D01*
X121000000Y-78250000D02*
X122000000Y-77250000D01*
%TO.N,+3.3v*%
X128500000Y-78750000D02*
X128500000Y-77750000D01*
X128500000Y-77750000D02*
X129000000Y-77250000D01*
%TD*%
%TA.AperFunction,Conductor*%
%TO.N,CGND*%
G36*
X133253472Y-73050695D02*
G01*
X133573297Y-73068656D01*
X133587094Y-73070210D01*
X133899457Y-73123283D01*
X133913014Y-73126377D01*
X134217469Y-73214089D01*
X134230593Y-73218682D01*
X134523304Y-73339926D01*
X134535826Y-73345955D01*
X134813139Y-73499221D01*
X134824900Y-73506611D01*
X135083314Y-73689966D01*
X135094174Y-73698627D01*
X135330418Y-73909749D01*
X135340250Y-73919581D01*
X135551372Y-74155825D01*
X135560035Y-74166687D01*
X135743385Y-74425094D01*
X135750778Y-74436860D01*
X135904040Y-74714166D01*
X135910073Y-74726695D01*
X136031317Y-75019406D01*
X136035910Y-75032530D01*
X136123622Y-75336985D01*
X136126716Y-75350542D01*
X136179787Y-75662894D01*
X136181344Y-75676712D01*
X136199305Y-75996527D01*
X136199500Y-76003480D01*
X136199500Y-93496519D01*
X136199305Y-93503472D01*
X136181344Y-93823287D01*
X136179787Y-93837105D01*
X136126716Y-94149457D01*
X136123622Y-94163014D01*
X136035910Y-94467469D01*
X136031317Y-94480593D01*
X135910073Y-94773304D01*
X135904040Y-94785833D01*
X135750778Y-95063139D01*
X135743380Y-95074913D01*
X135560043Y-95333302D01*
X135551372Y-95344174D01*
X135340250Y-95580418D01*
X135330418Y-95590250D01*
X135094174Y-95801372D01*
X135083302Y-95810043D01*
X134824913Y-95993380D01*
X134813139Y-96000778D01*
X134535833Y-96154040D01*
X134523304Y-96160073D01*
X134230593Y-96281317D01*
X134217469Y-96285910D01*
X133913014Y-96373622D01*
X133899457Y-96376716D01*
X133587105Y-96429787D01*
X133573287Y-96431344D01*
X133253472Y-96449305D01*
X133246519Y-96449500D01*
X116624000Y-96449500D01*
X116556961Y-96429815D01*
X116511206Y-96377011D01*
X116500000Y-96325500D01*
X116500000Y-94750000D01*
X127750000Y-94750000D01*
X127750000Y-95047844D01*
X127756401Y-95107372D01*
X127756403Y-95107379D01*
X127806645Y-95242086D01*
X127806649Y-95242093D01*
X127892809Y-95357187D01*
X127892812Y-95357190D01*
X128007906Y-95443350D01*
X128007913Y-95443354D01*
X128142620Y-95493596D01*
X128142627Y-95493598D01*
X128202155Y-95499999D01*
X128202172Y-95500000D01*
X128500000Y-95500000D01*
X128500000Y-94750000D01*
X129000000Y-94750000D01*
X129000000Y-95500000D01*
X129297828Y-95500000D01*
X129297844Y-95499999D01*
X129357372Y-95493598D01*
X129357379Y-95493596D01*
X129492086Y-95443354D01*
X129492093Y-95443350D01*
X129607187Y-95357190D01*
X129607190Y-95357187D01*
X129693350Y-95242093D01*
X129693354Y-95242086D01*
X129743596Y-95107379D01*
X129743598Y-95107372D01*
X129749999Y-95047844D01*
X129750000Y-95047827D01*
X129750000Y-94750000D01*
X129000000Y-94750000D01*
X128500000Y-94750000D01*
X127750000Y-94750000D01*
X116500000Y-94750000D01*
X116500000Y-94250000D01*
X127750000Y-94250000D01*
X128500000Y-94250000D01*
X128500000Y-93500000D01*
X129000000Y-93500000D01*
X129000000Y-94250000D01*
X129750000Y-94250000D01*
X129750000Y-93952172D01*
X129749999Y-93952155D01*
X129743598Y-93892627D01*
X129743596Y-93892620D01*
X129693354Y-93757913D01*
X129693350Y-93757906D01*
X129607190Y-93642812D01*
X129607187Y-93642809D01*
X129570025Y-93614989D01*
X131495500Y-93614989D01*
X131495501Y-93615005D01*
X131525518Y-93843009D01*
X131525519Y-93843014D01*
X131525520Y-93843020D01*
X131554767Y-93952172D01*
X131585046Y-94065175D01*
X131585049Y-94065185D01*
X131673057Y-94277654D01*
X131673061Y-94277664D01*
X131788055Y-94476839D01*
X131928064Y-94659303D01*
X131928070Y-94659310D01*
X132090689Y-94821929D01*
X132090696Y-94821935D01*
X132273160Y-94961944D01*
X132472335Y-95076938D01*
X132472336Y-95076938D01*
X132472339Y-95076940D01*
X132684824Y-95164954D01*
X132906980Y-95224480D01*
X133135004Y-95254500D01*
X133135011Y-95254500D01*
X133364989Y-95254500D01*
X133364996Y-95254500D01*
X133593020Y-95224480D01*
X133815176Y-95164954D01*
X134027661Y-95076940D01*
X134226840Y-94961944D01*
X134409305Y-94821934D01*
X134571934Y-94659305D01*
X134711944Y-94476840D01*
X134826940Y-94277661D01*
X134914954Y-94065176D01*
X134974480Y-93843020D01*
X135004500Y-93614996D01*
X135004500Y-93385004D01*
X134974480Y-93156980D01*
X134914954Y-92934824D01*
X134826940Y-92722339D01*
X134711944Y-92523160D01*
X134571934Y-92340695D01*
X134571929Y-92340689D01*
X134409310Y-92178070D01*
X134409303Y-92178064D01*
X134226839Y-92038055D01*
X134027664Y-91923061D01*
X134027654Y-91923057D01*
X133815185Y-91835049D01*
X133815178Y-91835047D01*
X133815176Y-91835046D01*
X133593020Y-91775520D01*
X133593014Y-91775519D01*
X133593009Y-91775518D01*
X133365005Y-91745501D01*
X133365002Y-91745500D01*
X133364996Y-91745500D01*
X133135004Y-91745500D01*
X133134998Y-91745500D01*
X133134994Y-91745501D01*
X132906990Y-91775518D01*
X132906983Y-91775519D01*
X132906980Y-91775520D01*
X132684824Y-91835046D01*
X132684814Y-91835049D01*
X132472345Y-91923057D01*
X132472335Y-91923061D01*
X132273160Y-92038055D01*
X132090696Y-92178064D01*
X132090689Y-92178070D01*
X131928070Y-92340689D01*
X131928064Y-92340696D01*
X131788055Y-92523160D01*
X131673061Y-92722335D01*
X131673057Y-92722345D01*
X131585049Y-92934814D01*
X131585046Y-92934824D01*
X131525521Y-93156977D01*
X131525518Y-93156990D01*
X131495501Y-93384994D01*
X131495500Y-93385010D01*
X131495500Y-93614989D01*
X129570025Y-93614989D01*
X129492093Y-93556649D01*
X129492086Y-93556645D01*
X129357379Y-93506403D01*
X129357372Y-93506401D01*
X129297844Y-93500000D01*
X129000000Y-93500000D01*
X128500000Y-93500000D01*
X128202155Y-93500000D01*
X128142627Y-93506401D01*
X128142620Y-93506403D01*
X128007913Y-93556645D01*
X128007906Y-93556649D01*
X127892812Y-93642809D01*
X127892809Y-93642812D01*
X127806649Y-93757906D01*
X127806645Y-93757913D01*
X127756403Y-93892620D01*
X127756401Y-93892627D01*
X127750000Y-93952155D01*
X127750000Y-94250000D01*
X116500000Y-94250000D01*
X116500000Y-89337612D01*
X133985500Y-89337612D01*
X134019681Y-89509450D01*
X134019684Y-89509462D01*
X134086731Y-89671329D01*
X134086738Y-89671342D01*
X134184079Y-89817022D01*
X134184082Y-89817026D01*
X134307973Y-89940917D01*
X134307977Y-89940920D01*
X134453657Y-90038261D01*
X134453670Y-90038268D01*
X134615537Y-90105315D01*
X134615542Y-90105317D01*
X134787387Y-90139499D01*
X134787391Y-90139500D01*
X134787392Y-90139500D01*
X134962609Y-90139500D01*
X134962610Y-90139499D01*
X135134458Y-90105317D01*
X135296336Y-90038265D01*
X135442023Y-89940920D01*
X135565920Y-89817023D01*
X135663265Y-89671336D01*
X135730317Y-89509458D01*
X135764500Y-89337608D01*
X135764500Y-89162392D01*
X135730317Y-88990542D01*
X135730315Y-88990537D01*
X135663268Y-88828670D01*
X135663261Y-88828657D01*
X135565920Y-88682977D01*
X135565917Y-88682973D01*
X135442026Y-88559082D01*
X135442022Y-88559079D01*
X135296342Y-88461738D01*
X135296329Y-88461731D01*
X135134462Y-88394684D01*
X135134450Y-88394681D01*
X134962612Y-88360500D01*
X134962608Y-88360500D01*
X134787392Y-88360500D01*
X134787387Y-88360500D01*
X134615549Y-88394681D01*
X134615537Y-88394684D01*
X134453670Y-88461731D01*
X134453657Y-88461738D01*
X134307977Y-88559079D01*
X134307973Y-88559082D01*
X134184082Y-88682973D01*
X134184079Y-88682977D01*
X134086738Y-88828657D01*
X134086731Y-88828670D01*
X134019684Y-88990537D01*
X134019681Y-88990549D01*
X133985500Y-89162387D01*
X133985500Y-89337612D01*
X116500000Y-89337612D01*
X116500000Y-89236796D01*
X116519685Y-89169757D01*
X116572489Y-89124002D01*
X116585675Y-89118867D01*
X116652445Y-89097173D01*
X116806788Y-89018532D01*
X116946928Y-88916714D01*
X117069414Y-88794228D01*
X117171232Y-88654088D01*
X117249873Y-88499745D01*
X117303402Y-88335001D01*
X117330500Y-88163911D01*
X117330500Y-88163871D01*
X117670000Y-88163871D01*
X117697085Y-88334884D01*
X117750591Y-88499557D01*
X117829195Y-88653824D01*
X117930967Y-88793902D01*
X118053397Y-88916332D01*
X118193475Y-89018104D01*
X118347744Y-89096708D01*
X118512415Y-89150214D01*
X118512414Y-89150214D01*
X118519999Y-89151415D01*
X118520000Y-89151414D01*
X118520000Y-88123709D01*
X118605956Y-88173337D01*
X118714048Y-88202300D01*
X118825952Y-88202300D01*
X118934044Y-88173337D01*
X119020000Y-88123709D01*
X119020000Y-89151415D01*
X119027584Y-89150214D01*
X119192255Y-89096708D01*
X119346524Y-89018104D01*
X119486602Y-88916332D01*
X119609032Y-88793902D01*
X119710804Y-88653824D01*
X119789408Y-88499557D01*
X119842914Y-88334884D01*
X119869994Y-88163911D01*
X120209500Y-88163911D01*
X120236598Y-88335001D01*
X120290127Y-88499745D01*
X120368768Y-88654088D01*
X120470586Y-88794228D01*
X120593072Y-88916714D01*
X120733212Y-89018532D01*
X120887555Y-89097173D01*
X121052299Y-89150702D01*
X121223389Y-89177800D01*
X121223390Y-89177800D01*
X121396610Y-89177800D01*
X121396611Y-89177800D01*
X121567701Y-89150702D01*
X121732445Y-89097173D01*
X121886788Y-89018532D01*
X122026928Y-88916714D01*
X122149414Y-88794228D01*
X122251232Y-88654088D01*
X122329873Y-88499745D01*
X122383402Y-88335001D01*
X122410500Y-88163911D01*
X122410500Y-87390689D01*
X122383402Y-87219599D01*
X122329873Y-87054855D01*
X122251232Y-86900512D01*
X122149414Y-86760372D01*
X122026928Y-86637886D01*
X121886788Y-86536068D01*
X121816000Y-86500000D01*
X131429016Y-86500000D01*
X131435781Y-86542716D01*
X131496581Y-86729837D01*
X131585904Y-86905143D01*
X131701555Y-87064321D01*
X131840678Y-87203444D01*
X131999856Y-87319095D01*
X132175164Y-87408418D01*
X132362294Y-87469221D01*
X132556618Y-87500000D01*
X132665000Y-87500000D01*
X132665000Y-86694560D01*
X132718147Y-86725245D01*
X132847857Y-86760000D01*
X132982143Y-86760000D01*
X133111853Y-86725245D01*
X133165000Y-86694560D01*
X133165000Y-87500000D01*
X133273382Y-87500000D01*
X133467705Y-87469221D01*
X133654835Y-87408418D01*
X133830143Y-87319095D01*
X133989321Y-87203444D01*
X134128444Y-87064321D01*
X134244095Y-86905143D01*
X134333418Y-86729837D01*
X134394218Y-86542716D01*
X134400984Y-86500000D01*
X133359560Y-86500000D01*
X133390245Y-86446853D01*
X133425000Y-86317143D01*
X133425000Y-86182857D01*
X133390245Y-86053147D01*
X133359560Y-86000000D01*
X134400984Y-86000000D01*
X134394218Y-85957283D01*
X134333418Y-85770162D01*
X134244095Y-85594856D01*
X134128444Y-85435678D01*
X133989321Y-85296555D01*
X133830143Y-85180904D01*
X133654835Y-85091581D01*
X133467705Y-85030778D01*
X133273382Y-85000000D01*
X133165000Y-85000000D01*
X133165000Y-85805439D01*
X133111853Y-85774755D01*
X132982143Y-85740000D01*
X132847857Y-85740000D01*
X132718147Y-85774755D01*
X132665000Y-85805439D01*
X132665000Y-85000000D01*
X132556618Y-85000000D01*
X132362294Y-85030778D01*
X132175164Y-85091581D01*
X131999856Y-85180904D01*
X131840678Y-85296555D01*
X131701555Y-85435678D01*
X131585904Y-85594856D01*
X131496581Y-85770162D01*
X131435781Y-85957283D01*
X131429016Y-86000000D01*
X132470440Y-86000000D01*
X132439755Y-86053147D01*
X132405000Y-86182857D01*
X132405000Y-86317143D01*
X132439755Y-86446853D01*
X132470440Y-86500000D01*
X131429016Y-86500000D01*
X121816000Y-86500000D01*
X121732445Y-86457427D01*
X121567701Y-86403898D01*
X121567699Y-86403897D01*
X121567698Y-86403897D01*
X121436271Y-86383081D01*
X121396611Y-86376800D01*
X121223389Y-86376800D01*
X121183728Y-86383081D01*
X121052302Y-86403897D01*
X120887552Y-86457428D01*
X120733211Y-86536068D01*
X120695941Y-86563147D01*
X120593072Y-86637886D01*
X120593070Y-86637888D01*
X120593069Y-86637888D01*
X120470588Y-86760369D01*
X120470588Y-86760370D01*
X120470586Y-86760372D01*
X120470350Y-86760697D01*
X120368768Y-86900511D01*
X120290128Y-87054852D01*
X120236597Y-87219602D01*
X120220839Y-87319095D01*
X120209500Y-87390689D01*
X120209500Y-88163911D01*
X119869994Y-88163911D01*
X119870000Y-88163871D01*
X119870000Y-88027300D01*
X119116410Y-88027300D01*
X119166037Y-87941344D01*
X119195000Y-87833252D01*
X119195000Y-87721348D01*
X119166037Y-87613256D01*
X119116410Y-87527300D01*
X119870000Y-87527300D01*
X119870000Y-87390728D01*
X119842914Y-87219715D01*
X119789408Y-87055042D01*
X119710804Y-86900775D01*
X119609032Y-86760697D01*
X119486602Y-86638267D01*
X119346524Y-86536495D01*
X119192257Y-86457891D01*
X119027589Y-86404387D01*
X119027581Y-86404385D01*
X119020000Y-86403184D01*
X119020000Y-87430890D01*
X118934044Y-87381263D01*
X118825952Y-87352300D01*
X118714048Y-87352300D01*
X118605956Y-87381263D01*
X118520000Y-87430890D01*
X118520000Y-86403184D01*
X118519999Y-86403184D01*
X118512418Y-86404385D01*
X118512410Y-86404387D01*
X118347742Y-86457891D01*
X118193475Y-86536495D01*
X118053397Y-86638267D01*
X117930967Y-86760697D01*
X117829195Y-86900775D01*
X117750591Y-87055042D01*
X117697085Y-87219715D01*
X117670000Y-87390728D01*
X117670000Y-87527300D01*
X118423590Y-87527300D01*
X118373963Y-87613256D01*
X118345000Y-87721348D01*
X118345000Y-87833252D01*
X118373963Y-87941344D01*
X118423590Y-88027300D01*
X117670000Y-88027300D01*
X117670000Y-88163871D01*
X117330500Y-88163871D01*
X117330500Y-87390689D01*
X117303402Y-87219599D01*
X117249873Y-87054855D01*
X117171232Y-86900512D01*
X117069414Y-86760372D01*
X116946928Y-86637886D01*
X116806788Y-86536068D01*
X116652449Y-86457428D01*
X116585681Y-86435734D01*
X116528006Y-86396296D01*
X116500808Y-86331937D01*
X116500000Y-86317803D01*
X116500000Y-83800015D01*
X131404500Y-83800015D01*
X131415000Y-83902795D01*
X131415001Y-83902796D01*
X131470186Y-84069335D01*
X131470187Y-84069337D01*
X131562286Y-84218651D01*
X131562289Y-84218655D01*
X131686344Y-84342710D01*
X131686348Y-84342713D01*
X131835662Y-84434812D01*
X131835664Y-84434813D01*
X131835666Y-84434814D01*
X132002203Y-84489999D01*
X132104992Y-84500500D01*
X132104997Y-84500500D01*
X133725003Y-84500500D01*
X133725008Y-84500500D01*
X133827797Y-84489999D01*
X133994334Y-84434814D01*
X134143655Y-84342711D01*
X134267711Y-84218655D01*
X134359814Y-84069334D01*
X134414999Y-83902797D01*
X134425500Y-83800008D01*
X134425500Y-82699992D01*
X134414999Y-82597203D01*
X134359814Y-82430666D01*
X134267711Y-82281345D01*
X134143655Y-82157289D01*
X134143651Y-82157286D01*
X133994337Y-82065187D01*
X133994335Y-82065186D01*
X133911065Y-82037593D01*
X133827797Y-82010001D01*
X133827795Y-82010000D01*
X133725015Y-81999500D01*
X133725008Y-81999500D01*
X132104992Y-81999500D01*
X132104984Y-81999500D01*
X132002204Y-82010000D01*
X132002203Y-82010001D01*
X131835664Y-82065186D01*
X131835662Y-82065187D01*
X131686348Y-82157286D01*
X131686344Y-82157289D01*
X131562289Y-82281344D01*
X131562286Y-82281348D01*
X131470187Y-82430662D01*
X131470186Y-82430664D01*
X131415001Y-82597203D01*
X131415000Y-82597204D01*
X131404500Y-82699984D01*
X131404500Y-83800015D01*
X116500000Y-83800015D01*
X116500000Y-80337612D01*
X133985500Y-80337612D01*
X134019681Y-80509450D01*
X134019684Y-80509462D01*
X134086731Y-80671329D01*
X134086738Y-80671342D01*
X134184079Y-80817022D01*
X134184082Y-80817026D01*
X134307973Y-80940917D01*
X134307977Y-80940920D01*
X134453657Y-81038261D01*
X134453670Y-81038268D01*
X134615537Y-81105315D01*
X134615542Y-81105317D01*
X134787387Y-81139499D01*
X134787391Y-81139500D01*
X134787392Y-81139500D01*
X134962609Y-81139500D01*
X134962610Y-81139499D01*
X135134458Y-81105317D01*
X135296336Y-81038265D01*
X135442023Y-80940920D01*
X135565920Y-80817023D01*
X135663265Y-80671336D01*
X135730317Y-80509458D01*
X135764500Y-80337608D01*
X135764500Y-80162392D01*
X135730317Y-79990542D01*
X135730315Y-79990537D01*
X135663268Y-79828670D01*
X135663261Y-79828657D01*
X135565920Y-79682977D01*
X135565917Y-79682973D01*
X135442026Y-79559082D01*
X135442022Y-79559079D01*
X135296342Y-79461738D01*
X135296329Y-79461731D01*
X135134462Y-79394684D01*
X135134450Y-79394681D01*
X134962612Y-79360500D01*
X134962608Y-79360500D01*
X134787392Y-79360500D01*
X134787387Y-79360500D01*
X134615549Y-79394681D01*
X134615537Y-79394684D01*
X134453670Y-79461731D01*
X134453657Y-79461738D01*
X134307977Y-79559079D01*
X134307973Y-79559082D01*
X134184082Y-79682973D01*
X134184079Y-79682977D01*
X134086738Y-79828657D01*
X134086731Y-79828670D01*
X134019684Y-79990537D01*
X134019681Y-79990549D01*
X133985500Y-80162387D01*
X133985500Y-80337612D01*
X116500000Y-80337612D01*
X116500000Y-77500000D01*
X117075000Y-77500000D01*
X117075000Y-77755815D01*
X117085407Y-77857673D01*
X117140094Y-78022709D01*
X117140096Y-78022714D01*
X117231370Y-78170691D01*
X117354308Y-78293629D01*
X117502285Y-78384903D01*
X117502290Y-78384905D01*
X117667326Y-78439592D01*
X117769184Y-78449999D01*
X117769197Y-78450000D01*
X117812500Y-78450000D01*
X118312500Y-78450000D01*
X118355803Y-78450000D01*
X118355815Y-78449999D01*
X118457673Y-78439592D01*
X118622709Y-78384905D01*
X118622714Y-78384903D01*
X118770688Y-78293631D01*
X118874050Y-78190269D01*
X118935373Y-78156784D01*
X119005065Y-78161768D01*
X119060999Y-78203639D01*
X119079708Y-78239771D01*
X119168477Y-78514088D01*
X119174500Y-78552265D01*
X119174500Y-78892060D01*
X119154815Y-78959099D01*
X119138181Y-78979741D01*
X119120184Y-78997737D01*
X119024211Y-79150476D01*
X118964631Y-79320745D01*
X118964630Y-79320750D01*
X118944435Y-79499996D01*
X118944435Y-79500003D01*
X118964630Y-79679249D01*
X118964631Y-79679254D01*
X119024211Y-79849523D01*
X119112817Y-79990537D01*
X119120184Y-80002262D01*
X119247738Y-80129816D01*
X119400478Y-80225789D01*
X119570745Y-80285368D01*
X119570750Y-80285369D01*
X119749996Y-80305565D01*
X119750000Y-80305565D01*
X119750004Y-80305565D01*
X119929249Y-80285369D01*
X119929252Y-80285368D01*
X119929255Y-80285368D01*
X120099522Y-80225789D01*
X120252262Y-80129816D01*
X120287319Y-80094759D01*
X120348642Y-80061274D01*
X120418334Y-80066258D01*
X120462681Y-80094759D01*
X120497738Y-80129816D01*
X120650478Y-80225789D01*
X120820745Y-80285368D01*
X120820750Y-80285369D01*
X120999996Y-80305565D01*
X121000000Y-80305565D01*
X121000004Y-80305565D01*
X121179249Y-80285369D01*
X121179252Y-80285368D01*
X121179255Y-80285368D01*
X121349522Y-80225789D01*
X121502262Y-80129816D01*
X121629816Y-80002262D01*
X121725789Y-79849522D01*
X121785368Y-79679255D01*
X121798908Y-79559082D01*
X121805565Y-79500003D01*
X121805565Y-79499996D01*
X121785369Y-79320750D01*
X121785368Y-79320745D01*
X121725788Y-79150476D01*
X121629815Y-78997737D01*
X121611819Y-78979741D01*
X121578334Y-78918418D01*
X121575500Y-78892060D01*
X121575500Y-78633637D01*
X121595185Y-78566598D01*
X121647989Y-78520843D01*
X121653074Y-78518657D01*
X122295312Y-78259507D01*
X122341712Y-78250499D01*
X122547871Y-78250499D01*
X122547872Y-78250499D01*
X122607483Y-78244091D01*
X122742331Y-78193796D01*
X122857546Y-78107546D01*
X122943796Y-77992331D01*
X122994091Y-77857483D01*
X123000500Y-77797873D01*
X123000500Y-77500000D01*
X123325000Y-77500000D01*
X123325000Y-77755815D01*
X123335407Y-77857673D01*
X123390094Y-78022709D01*
X123390096Y-78022714D01*
X123481370Y-78170691D01*
X123604308Y-78293629D01*
X123752285Y-78384903D01*
X123752290Y-78384905D01*
X123917326Y-78439592D01*
X124019184Y-78449999D01*
X124019197Y-78450000D01*
X124062500Y-78450000D01*
X124562500Y-78450000D01*
X124605803Y-78450000D01*
X124605815Y-78449999D01*
X124707673Y-78439592D01*
X124872709Y-78384905D01*
X124872714Y-78384903D01*
X125020691Y-78293629D01*
X125143628Y-78170692D01*
X125144159Y-78169832D01*
X125144680Y-78169363D01*
X125148112Y-78165023D01*
X125148853Y-78165608D01*
X125196101Y-78123102D01*
X125265063Y-78111872D01*
X125329148Y-78139708D01*
X125351413Y-78165398D01*
X125351493Y-78165336D01*
X125352890Y-78167103D01*
X125355238Y-78169812D01*
X125355968Y-78170995D01*
X125355974Y-78171003D01*
X125478996Y-78294025D01*
X125479000Y-78294028D01*
X125627066Y-78385357D01*
X125627069Y-78385358D01*
X125627075Y-78385362D01*
X125792225Y-78440087D01*
X125894152Y-78450500D01*
X125894157Y-78450500D01*
X126480843Y-78450500D01*
X126480848Y-78450500D01*
X126582775Y-78440087D01*
X126747925Y-78385362D01*
X126896003Y-78294026D01*
X127019026Y-78171003D01*
X127089039Y-78057492D01*
X127140986Y-78010770D01*
X127209948Y-77999547D01*
X127235527Y-78005549D01*
X127320745Y-78035368D01*
X127320751Y-78035368D01*
X127320753Y-78035369D01*
X127499996Y-78055565D01*
X127500000Y-78055565D01*
X127500004Y-78055565D01*
X127679249Y-78035369D01*
X127679251Y-78035368D01*
X127679255Y-78035368D01*
X127679258Y-78035366D01*
X127679262Y-78035366D01*
X127759545Y-78007274D01*
X127829324Y-78003712D01*
X127889951Y-78038440D01*
X127922179Y-78100434D01*
X127924500Y-78124315D01*
X127924500Y-78142059D01*
X127904815Y-78209098D01*
X127888183Y-78229738D01*
X127870186Y-78247735D01*
X127870184Y-78247738D01*
X127774211Y-78400476D01*
X127714631Y-78570745D01*
X127714630Y-78570750D01*
X127694435Y-78749996D01*
X127694435Y-78750003D01*
X127714630Y-78929249D01*
X127714631Y-78929254D01*
X127774211Y-79099523D01*
X127870184Y-79252262D01*
X127997738Y-79379816D01*
X128150478Y-79475789D01*
X128219678Y-79500003D01*
X128320745Y-79535368D01*
X128320750Y-79535369D01*
X128499996Y-79555565D01*
X128500000Y-79555565D01*
X128500004Y-79555565D01*
X128679249Y-79535369D01*
X128679252Y-79535368D01*
X128679255Y-79535368D01*
X128849522Y-79475789D01*
X129002262Y-79379816D01*
X129129816Y-79252262D01*
X129225789Y-79099522D01*
X129285368Y-78929255D01*
X129305565Y-78750000D01*
X129285368Y-78570745D01*
X129262228Y-78504617D01*
X129258668Y-78434839D01*
X129293397Y-78374212D01*
X129309428Y-78361204D01*
X129440273Y-78272031D01*
X129506755Y-78250544D01*
X129510104Y-78250499D01*
X129547871Y-78250499D01*
X129547872Y-78250499D01*
X129607483Y-78244091D01*
X129742331Y-78193796D01*
X129857546Y-78107546D01*
X129943796Y-77992331D01*
X129994091Y-77857483D01*
X130000500Y-77797873D01*
X130000499Y-76702128D01*
X129994091Y-76642517D01*
X129985761Y-76620184D01*
X129943797Y-76507671D01*
X129943793Y-76507664D01*
X129857547Y-76392455D01*
X129857544Y-76392452D01*
X129742335Y-76306206D01*
X129742328Y-76306202D01*
X129607482Y-76255908D01*
X129607483Y-76255908D01*
X129547883Y-76249501D01*
X129547881Y-76249500D01*
X129547873Y-76249500D01*
X129547864Y-76249500D01*
X128452129Y-76249500D01*
X128452123Y-76249501D01*
X128392516Y-76255908D01*
X128257671Y-76306202D01*
X128257664Y-76306206D01*
X128142455Y-76392452D01*
X128142452Y-76392455D01*
X128050888Y-76514769D01*
X128048138Y-76512710D01*
X128010378Y-76550418D01*
X127942094Y-76565222D01*
X127885056Y-76546538D01*
X127849523Y-76524211D01*
X127679254Y-76464631D01*
X127679249Y-76464630D01*
X127500004Y-76444435D01*
X127499996Y-76444435D01*
X127320750Y-76464630D01*
X127320742Y-76464632D01*
X127235531Y-76494449D01*
X127165752Y-76498010D01*
X127105125Y-76463281D01*
X127089039Y-76442504D01*
X127019028Y-76329000D01*
X127019025Y-76328996D01*
X126896003Y-76205974D01*
X126895999Y-76205971D01*
X126748496Y-76114989D01*
X131495500Y-76114989D01*
X131495501Y-76115005D01*
X131525518Y-76343009D01*
X131525519Y-76343014D01*
X131525520Y-76343020D01*
X131577845Y-76538301D01*
X131585046Y-76565175D01*
X131585049Y-76565185D01*
X131673057Y-76777654D01*
X131673061Y-76777664D01*
X131788055Y-76976839D01*
X131928064Y-77159303D01*
X131928070Y-77159310D01*
X132090689Y-77321929D01*
X132090696Y-77321935D01*
X132273160Y-77461944D01*
X132472335Y-77576938D01*
X132472336Y-77576938D01*
X132472339Y-77576940D01*
X132684824Y-77664954D01*
X132906980Y-77724480D01*
X133135004Y-77754500D01*
X133135011Y-77754500D01*
X133364989Y-77754500D01*
X133364996Y-77754500D01*
X133593020Y-77724480D01*
X133815176Y-77664954D01*
X134027661Y-77576940D01*
X134226840Y-77461944D01*
X134409305Y-77321934D01*
X134571934Y-77159305D01*
X134711944Y-76976840D01*
X134826940Y-76777661D01*
X134914954Y-76565176D01*
X134974480Y-76343020D01*
X135004500Y-76114996D01*
X135004500Y-75885004D01*
X134974480Y-75656980D01*
X134914954Y-75434824D01*
X134826940Y-75222339D01*
X134711944Y-75023160D01*
X134571934Y-74840695D01*
X134571929Y-74840689D01*
X134409310Y-74678070D01*
X134409303Y-74678064D01*
X134226839Y-74538055D01*
X134027664Y-74423061D01*
X134027654Y-74423057D01*
X133815185Y-74335049D01*
X133815178Y-74335047D01*
X133815176Y-74335046D01*
X133593020Y-74275520D01*
X133593014Y-74275519D01*
X133593009Y-74275518D01*
X133365005Y-74245501D01*
X133365002Y-74245500D01*
X133364996Y-74245500D01*
X133135004Y-74245500D01*
X133134998Y-74245500D01*
X133134994Y-74245501D01*
X132906990Y-74275518D01*
X132906983Y-74275519D01*
X132906980Y-74275520D01*
X132684824Y-74335046D01*
X132684814Y-74335049D01*
X132472345Y-74423057D01*
X132472335Y-74423061D01*
X132273160Y-74538055D01*
X132090696Y-74678064D01*
X132090689Y-74678070D01*
X131928070Y-74840689D01*
X131928064Y-74840696D01*
X131788055Y-75023160D01*
X131673061Y-75222335D01*
X131673057Y-75222345D01*
X131585049Y-75434814D01*
X131585046Y-75434824D01*
X131525521Y-75656977D01*
X131525518Y-75656990D01*
X131495501Y-75884994D01*
X131495500Y-75885010D01*
X131495500Y-76114989D01*
X126748496Y-76114989D01*
X126747933Y-76114642D01*
X126747927Y-76114639D01*
X126747925Y-76114638D01*
X126747922Y-76114637D01*
X126582776Y-76059913D01*
X126480855Y-76049500D01*
X126480848Y-76049500D01*
X125894152Y-76049500D01*
X125894144Y-76049500D01*
X125792223Y-76059913D01*
X125627077Y-76114637D01*
X125627066Y-76114642D01*
X125479000Y-76205971D01*
X125478996Y-76205974D01*
X125355974Y-76328996D01*
X125355967Y-76329005D01*
X125355234Y-76330194D01*
X125354519Y-76330836D01*
X125351493Y-76334664D01*
X125350838Y-76334146D01*
X125303280Y-76376911D01*
X125234316Y-76388123D01*
X125170238Y-76360271D01*
X125148238Y-76334877D01*
X125148112Y-76334977D01*
X125145885Y-76332161D01*
X125144163Y-76330173D01*
X125143630Y-76329309D01*
X125020691Y-76206370D01*
X124872714Y-76115096D01*
X124872709Y-76115094D01*
X124707673Y-76060407D01*
X124605815Y-76050000D01*
X124562500Y-76050000D01*
X124562500Y-78450000D01*
X124062500Y-78450000D01*
X124062500Y-77500000D01*
X123325000Y-77500000D01*
X123000500Y-77500000D01*
X123000499Y-77000000D01*
X123325000Y-77000000D01*
X124062500Y-77000000D01*
X124062500Y-76050000D01*
X124019184Y-76050000D01*
X123917326Y-76060407D01*
X123752290Y-76115094D01*
X123752285Y-76115096D01*
X123604308Y-76206370D01*
X123481370Y-76329308D01*
X123390096Y-76477285D01*
X123390094Y-76477290D01*
X123335407Y-76642326D01*
X123325000Y-76744184D01*
X123325000Y-77000000D01*
X123000499Y-77000000D01*
X123000499Y-76702128D01*
X122994091Y-76642517D01*
X122985761Y-76620184D01*
X122943797Y-76507671D01*
X122943793Y-76507664D01*
X122857547Y-76392455D01*
X122857544Y-76392452D01*
X122742335Y-76306206D01*
X122742328Y-76306202D01*
X122607482Y-76255908D01*
X122607483Y-76255908D01*
X122547883Y-76249501D01*
X122547881Y-76249500D01*
X122547873Y-76249500D01*
X122547864Y-76249500D01*
X121452129Y-76249500D01*
X121452123Y-76249501D01*
X121392516Y-76255908D01*
X121257671Y-76306202D01*
X121257664Y-76306206D01*
X121142455Y-76392452D01*
X121068347Y-76491447D01*
X121012413Y-76533317D01*
X120942721Y-76538301D01*
X120881399Y-76504815D01*
X120863542Y-76482232D01*
X120860363Y-76477078D01*
X120860362Y-76477075D01*
X120769026Y-76328997D01*
X120646003Y-76205974D01*
X120645999Y-76205971D01*
X120497933Y-76114642D01*
X120497927Y-76114639D01*
X120497925Y-76114638D01*
X120497922Y-76114637D01*
X120332776Y-76059913D01*
X120230855Y-76049500D01*
X120230848Y-76049500D01*
X119644152Y-76049500D01*
X119644144Y-76049500D01*
X119542223Y-76059913D01*
X119377077Y-76114637D01*
X119377066Y-76114642D01*
X119229000Y-76205971D01*
X119228996Y-76205974D01*
X119105974Y-76328996D01*
X119105967Y-76329005D01*
X119105234Y-76330194D01*
X119104519Y-76330836D01*
X119101493Y-76334664D01*
X119100838Y-76334146D01*
X119053280Y-76376911D01*
X118984316Y-76388123D01*
X118920238Y-76360271D01*
X118898238Y-76334877D01*
X118898112Y-76334977D01*
X118895885Y-76332161D01*
X118894163Y-76330173D01*
X118893630Y-76329309D01*
X118770691Y-76206370D01*
X118622714Y-76115096D01*
X118622709Y-76115094D01*
X118457673Y-76060407D01*
X118355815Y-76050000D01*
X118312500Y-76050000D01*
X118312500Y-78450000D01*
X117812500Y-78450000D01*
X117812500Y-77500000D01*
X117075000Y-77500000D01*
X116500000Y-77500000D01*
X116500000Y-77000000D01*
X117075000Y-77000000D01*
X117812500Y-77000000D01*
X117812500Y-76050000D01*
X117769184Y-76050000D01*
X117667326Y-76060407D01*
X117502290Y-76115094D01*
X117502285Y-76115096D01*
X117354308Y-76206370D01*
X117231370Y-76329308D01*
X117140096Y-76477285D01*
X117140094Y-76477290D01*
X117085407Y-76642326D01*
X117075000Y-76744184D01*
X117075000Y-77000000D01*
X116500000Y-77000000D01*
X116500000Y-73174500D01*
X116519685Y-73107461D01*
X116572489Y-73061706D01*
X116624000Y-73050500D01*
X133202405Y-73050500D01*
X133246519Y-73050500D01*
X133253472Y-73050695D01*
G37*
%TD.AperFunction*%
%TD*%
%TA.AperFunction,Conductor*%
%TO.N,GNDPWR*%
G36*
X115943039Y-73070185D02*
G01*
X115988794Y-73122989D01*
X116000000Y-73174500D01*
X116000000Y-86304806D01*
X115980315Y-86371845D01*
X115927511Y-86417600D01*
X115914319Y-86422737D01*
X115807550Y-86457428D01*
X115653211Y-86536068D01*
X115573256Y-86594159D01*
X115513072Y-86637886D01*
X115513070Y-86637888D01*
X115513069Y-86637888D01*
X115390588Y-86760369D01*
X115390588Y-86760370D01*
X115390586Y-86760372D01*
X115390350Y-86760697D01*
X115288768Y-86900511D01*
X115210128Y-87054852D01*
X115156597Y-87219602D01*
X115137099Y-87342710D01*
X115129500Y-87390689D01*
X115129500Y-88163911D01*
X115156598Y-88335001D01*
X115210127Y-88499745D01*
X115288768Y-88654088D01*
X115390586Y-88794228D01*
X115513072Y-88916714D01*
X115653212Y-89018532D01*
X115807555Y-89097173D01*
X115914319Y-89131863D01*
X115971994Y-89171299D01*
X115999192Y-89235658D01*
X116000000Y-89249793D01*
X116000000Y-96325500D01*
X115980315Y-96392539D01*
X115927511Y-96438294D01*
X115876000Y-96449500D01*
X100003481Y-96449500D01*
X99996528Y-96449305D01*
X99676712Y-96431344D01*
X99662894Y-96429787D01*
X99350542Y-96376716D01*
X99336985Y-96373622D01*
X99032530Y-96285910D01*
X99019406Y-96281317D01*
X98726695Y-96160073D01*
X98714166Y-96154040D01*
X98436860Y-96000778D01*
X98425094Y-95993385D01*
X98166687Y-95810035D01*
X98155825Y-95801372D01*
X97919581Y-95590250D01*
X97909749Y-95580418D01*
X97698627Y-95344174D01*
X97689966Y-95333314D01*
X97506611Y-95074900D01*
X97499221Y-95063139D01*
X97475304Y-95019865D01*
X97345955Y-94785826D01*
X97339926Y-94773304D01*
X97218682Y-94480593D01*
X97214089Y-94467469D01*
X97126377Y-94163014D01*
X97123283Y-94149457D01*
X97108963Y-94065175D01*
X97070210Y-93837094D01*
X97068656Y-93823297D01*
X97056958Y-93614989D01*
X98245500Y-93614989D01*
X98245501Y-93615005D01*
X98275518Y-93843009D01*
X98275519Y-93843014D01*
X98275520Y-93843020D01*
X98275521Y-93843022D01*
X98335046Y-94065175D01*
X98335049Y-94065185D01*
X98423057Y-94277654D01*
X98423061Y-94277664D01*
X98538055Y-94476839D01*
X98678064Y-94659303D01*
X98678070Y-94659310D01*
X98840689Y-94821929D01*
X98840696Y-94821935D01*
X99023160Y-94961944D01*
X99222335Y-95076938D01*
X99222336Y-95076938D01*
X99222339Y-95076940D01*
X99434824Y-95164954D01*
X99656980Y-95224480D01*
X99885004Y-95254500D01*
X99885011Y-95254500D01*
X100114989Y-95254500D01*
X100114996Y-95254500D01*
X100343020Y-95224480D01*
X100565176Y-95164954D01*
X100777661Y-95076940D01*
X100976840Y-94961944D01*
X101159305Y-94821934D01*
X101321934Y-94659305D01*
X101461944Y-94476840D01*
X101576940Y-94277661D01*
X101664954Y-94065176D01*
X101724480Y-93843020D01*
X101754500Y-93614996D01*
X101754500Y-93385004D01*
X101724480Y-93156980D01*
X101664954Y-92934824D01*
X101576940Y-92722339D01*
X101461944Y-92523160D01*
X101321934Y-92340695D01*
X101321929Y-92340689D01*
X101159310Y-92178070D01*
X101159303Y-92178064D01*
X100976839Y-92038055D01*
X100777664Y-91923061D01*
X100777654Y-91923057D01*
X100565185Y-91835049D01*
X100565178Y-91835047D01*
X100565176Y-91835046D01*
X100343020Y-91775520D01*
X100343014Y-91775519D01*
X100343009Y-91775518D01*
X100115005Y-91745501D01*
X100115002Y-91745500D01*
X100114996Y-91745500D01*
X99885004Y-91745500D01*
X99884998Y-91745500D01*
X99884994Y-91745501D01*
X99656990Y-91775518D01*
X99656983Y-91775519D01*
X99656980Y-91775520D01*
X99434824Y-91835046D01*
X99434814Y-91835049D01*
X99222345Y-91923057D01*
X99222335Y-91923061D01*
X99023160Y-92038055D01*
X98840696Y-92178064D01*
X98840689Y-92178070D01*
X98678070Y-92340689D01*
X98678064Y-92340696D01*
X98538055Y-92523160D01*
X98423061Y-92722335D01*
X98423057Y-92722345D01*
X98335049Y-92934814D01*
X98335046Y-92934824D01*
X98275521Y-93156977D01*
X98275518Y-93156990D01*
X98245501Y-93384994D01*
X98245500Y-93385010D01*
X98245500Y-93614989D01*
X97056958Y-93614989D01*
X97050695Y-93503472D01*
X97050500Y-93496519D01*
X97050500Y-89337612D01*
X97400500Y-89337612D01*
X97434681Y-89509450D01*
X97434684Y-89509462D01*
X97501731Y-89671329D01*
X97501738Y-89671342D01*
X97599079Y-89817022D01*
X97599082Y-89817026D01*
X97722973Y-89940917D01*
X97722977Y-89940920D01*
X97868657Y-90038261D01*
X97868670Y-90038268D01*
X98030537Y-90105315D01*
X98030542Y-90105317D01*
X98202387Y-90139499D01*
X98202391Y-90139500D01*
X98202392Y-90139500D01*
X98377609Y-90139500D01*
X98377610Y-90139499D01*
X98549458Y-90105317D01*
X98711336Y-90038265D01*
X98857023Y-89940920D01*
X98980920Y-89817023D01*
X99078265Y-89671336D01*
X99145317Y-89509458D01*
X99179500Y-89337608D01*
X99179500Y-89162392D01*
X99145317Y-88990542D01*
X99145315Y-88990537D01*
X99078268Y-88828670D01*
X99078261Y-88828657D01*
X98980920Y-88682977D01*
X98980917Y-88682973D01*
X98857026Y-88559082D01*
X98857022Y-88559079D01*
X98711342Y-88461738D01*
X98711329Y-88461731D01*
X98549462Y-88394684D01*
X98549450Y-88394681D01*
X98377612Y-88360500D01*
X98377608Y-88360500D01*
X98202392Y-88360500D01*
X98202387Y-88360500D01*
X98030549Y-88394681D01*
X98030537Y-88394684D01*
X97868670Y-88461731D01*
X97868657Y-88461738D01*
X97722977Y-88559079D01*
X97722973Y-88559082D01*
X97599082Y-88682973D01*
X97599079Y-88682977D01*
X97501738Y-88828657D01*
X97501731Y-88828670D01*
X97434684Y-88990537D01*
X97434681Y-88990549D01*
X97400500Y-89162387D01*
X97400500Y-89337612D01*
X97050500Y-89337612D01*
X97050500Y-88163871D01*
X112590000Y-88163871D01*
X112617085Y-88334884D01*
X112670591Y-88499557D01*
X112749195Y-88653824D01*
X112850967Y-88793902D01*
X112973397Y-88916332D01*
X113113475Y-89018104D01*
X113267744Y-89096708D01*
X113432415Y-89150214D01*
X113432414Y-89150214D01*
X113439999Y-89151415D01*
X113440000Y-89151414D01*
X113440000Y-88123709D01*
X113525956Y-88173337D01*
X113634048Y-88202300D01*
X113745952Y-88202300D01*
X113854044Y-88173337D01*
X113940000Y-88123709D01*
X113940000Y-89151415D01*
X113947584Y-89150214D01*
X114112255Y-89096708D01*
X114266524Y-89018104D01*
X114406602Y-88916332D01*
X114529032Y-88793902D01*
X114630804Y-88653824D01*
X114709408Y-88499557D01*
X114762914Y-88334884D01*
X114790000Y-88163871D01*
X114790000Y-88027300D01*
X114036410Y-88027300D01*
X114086037Y-87941344D01*
X114115000Y-87833252D01*
X114115000Y-87721348D01*
X114086037Y-87613256D01*
X114036410Y-87527300D01*
X114790000Y-87527300D01*
X114790000Y-87390728D01*
X114762914Y-87219715D01*
X114709408Y-87055042D01*
X114630804Y-86900775D01*
X114529032Y-86760697D01*
X114406602Y-86638267D01*
X114266524Y-86536495D01*
X114112257Y-86457891D01*
X113947589Y-86404387D01*
X113947581Y-86404385D01*
X113940000Y-86403184D01*
X113940000Y-87430890D01*
X113854044Y-87381263D01*
X113745952Y-87352300D01*
X113634048Y-87352300D01*
X113525956Y-87381263D01*
X113440000Y-87430890D01*
X113440000Y-86403184D01*
X113439999Y-86403184D01*
X113432418Y-86404385D01*
X113432410Y-86404387D01*
X113267742Y-86457891D01*
X113113475Y-86536495D01*
X112973397Y-86638267D01*
X112850967Y-86760697D01*
X112749195Y-86900775D01*
X112670591Y-87055042D01*
X112617085Y-87219715D01*
X112590000Y-87390728D01*
X112590000Y-87527300D01*
X113343590Y-87527300D01*
X113293963Y-87613256D01*
X113265000Y-87721348D01*
X113265000Y-87833252D01*
X113293963Y-87941344D01*
X113343590Y-88027300D01*
X112590000Y-88027300D01*
X112590000Y-88163871D01*
X97050500Y-88163871D01*
X97050500Y-86800015D01*
X98739500Y-86800015D01*
X98750000Y-86902795D01*
X98750001Y-86902796D01*
X98805186Y-87069335D01*
X98805187Y-87069337D01*
X98897286Y-87218651D01*
X98897289Y-87218655D01*
X99021344Y-87342710D01*
X99021348Y-87342713D01*
X99170662Y-87434812D01*
X99170664Y-87434813D01*
X99170666Y-87434814D01*
X99337203Y-87489999D01*
X99439992Y-87500500D01*
X99439997Y-87500500D01*
X101060003Y-87500500D01*
X101060008Y-87500500D01*
X101162797Y-87489999D01*
X101329334Y-87434814D01*
X101478655Y-87342711D01*
X101602711Y-87218655D01*
X101694814Y-87069334D01*
X101749999Y-86902797D01*
X101760500Y-86800008D01*
X101760500Y-85699992D01*
X101749999Y-85597203D01*
X101694814Y-85430666D01*
X101602711Y-85281345D01*
X101478655Y-85157289D01*
X101478651Y-85157286D01*
X101329337Y-85065187D01*
X101329335Y-85065186D01*
X101246065Y-85037593D01*
X101162797Y-85010001D01*
X101162795Y-85010000D01*
X101060015Y-84999500D01*
X101060008Y-84999500D01*
X99439992Y-84999500D01*
X99439984Y-84999500D01*
X99337204Y-85010000D01*
X99337203Y-85010001D01*
X99170664Y-85065186D01*
X99170662Y-85065187D01*
X99021348Y-85157286D01*
X99021344Y-85157289D01*
X98897289Y-85281344D01*
X98897286Y-85281348D01*
X98805187Y-85430662D01*
X98805186Y-85430664D01*
X98750001Y-85597203D01*
X98750000Y-85597204D01*
X98739500Y-85699984D01*
X98739500Y-86800015D01*
X97050500Y-86800015D01*
X97050500Y-83500000D01*
X98764016Y-83500000D01*
X98770781Y-83542716D01*
X98831581Y-83729837D01*
X98920904Y-83905143D01*
X99036555Y-84064321D01*
X99175678Y-84203444D01*
X99334856Y-84319095D01*
X99510164Y-84408418D01*
X99697294Y-84469221D01*
X99891618Y-84500000D01*
X100000000Y-84500000D01*
X100000000Y-83694560D01*
X100053147Y-83725245D01*
X100182857Y-83760000D01*
X100317143Y-83760000D01*
X100446853Y-83725245D01*
X100500000Y-83694560D01*
X100500000Y-84500000D01*
X100608382Y-84500000D01*
X100802705Y-84469221D01*
X100989835Y-84408418D01*
X101165143Y-84319095D01*
X101324321Y-84203444D01*
X101463444Y-84064321D01*
X101579095Y-83905143D01*
X101668418Y-83729837D01*
X101729218Y-83542716D01*
X101735984Y-83500000D01*
X100694560Y-83500000D01*
X100725245Y-83446853D01*
X100760000Y-83317143D01*
X100760000Y-83182857D01*
X100725245Y-83053147D01*
X100694560Y-83000000D01*
X101735984Y-83000000D01*
X101729218Y-82957283D01*
X101668418Y-82770162D01*
X101579095Y-82594856D01*
X101463444Y-82435678D01*
X101324321Y-82296555D01*
X101165143Y-82180904D01*
X100989835Y-82091581D01*
X100802705Y-82030778D01*
X100608382Y-82000000D01*
X100500000Y-82000000D01*
X100500000Y-82805439D01*
X100446853Y-82774755D01*
X100317143Y-82740000D01*
X100182857Y-82740000D01*
X100053147Y-82774755D01*
X100000000Y-82805439D01*
X100000000Y-82000000D01*
X99891618Y-82000000D01*
X99697294Y-82030778D01*
X99510164Y-82091581D01*
X99334856Y-82180904D01*
X99175678Y-82296555D01*
X99036555Y-82435678D01*
X98920904Y-82594856D01*
X98831581Y-82770162D01*
X98770781Y-82957283D01*
X98764016Y-83000000D01*
X99805440Y-83000000D01*
X99774755Y-83053147D01*
X99740000Y-83182857D01*
X99740000Y-83317143D01*
X99774755Y-83446853D01*
X99805440Y-83500000D01*
X98764016Y-83500000D01*
X97050500Y-83500000D01*
X97050500Y-80337612D01*
X97400500Y-80337612D01*
X97434681Y-80509450D01*
X97434684Y-80509462D01*
X97501731Y-80671329D01*
X97501738Y-80671342D01*
X97599079Y-80817022D01*
X97599082Y-80817026D01*
X97722973Y-80940917D01*
X97722977Y-80940920D01*
X97868657Y-81038261D01*
X97868670Y-81038268D01*
X98030537Y-81105315D01*
X98030542Y-81105317D01*
X98202387Y-81139499D01*
X98202391Y-81139500D01*
X98202392Y-81139500D01*
X98377609Y-81139500D01*
X98377610Y-81139499D01*
X98549458Y-81105317D01*
X98711336Y-81038265D01*
X98857023Y-80940920D01*
X98980920Y-80817023D01*
X99078265Y-80671336D01*
X99145317Y-80509458D01*
X99179500Y-80337608D01*
X99179500Y-80162392D01*
X99145317Y-79990542D01*
X99108933Y-79902702D01*
X99078268Y-79828670D01*
X99078261Y-79828657D01*
X98980920Y-79682977D01*
X98980917Y-79682973D01*
X98857026Y-79559082D01*
X98857022Y-79559079D01*
X98711342Y-79461738D01*
X98711329Y-79461731D01*
X98549462Y-79394684D01*
X98549450Y-79394681D01*
X98377612Y-79360500D01*
X98377608Y-79360500D01*
X98202392Y-79360500D01*
X98202387Y-79360500D01*
X98030549Y-79394681D01*
X98030537Y-79394684D01*
X97868670Y-79461731D01*
X97868657Y-79461738D01*
X97722977Y-79559079D01*
X97722973Y-79559082D01*
X97599082Y-79682973D01*
X97599079Y-79682977D01*
X97501738Y-79828657D01*
X97501731Y-79828670D01*
X97434684Y-79990537D01*
X97434681Y-79990549D01*
X97400500Y-80162387D01*
X97400500Y-80337612D01*
X97050500Y-80337612D01*
X97050500Y-76114989D01*
X98245500Y-76114989D01*
X98245501Y-76115005D01*
X98275518Y-76343009D01*
X98275519Y-76343014D01*
X98275520Y-76343020D01*
X98327845Y-76538301D01*
X98335046Y-76565175D01*
X98335049Y-76565185D01*
X98423057Y-76777654D01*
X98423061Y-76777664D01*
X98538055Y-76976839D01*
X98678064Y-77159303D01*
X98678070Y-77159310D01*
X98840689Y-77321929D01*
X98840696Y-77321935D01*
X99023160Y-77461944D01*
X99222335Y-77576938D01*
X99222336Y-77576938D01*
X99222339Y-77576940D01*
X99434824Y-77664954D01*
X99656980Y-77724480D01*
X99885004Y-77754500D01*
X99885011Y-77754500D01*
X100114989Y-77754500D01*
X100114996Y-77754500D01*
X100343020Y-77724480D01*
X100565176Y-77664954D01*
X100777661Y-77576940D01*
X100910925Y-77500000D01*
X104250000Y-77500000D01*
X104250000Y-77797844D01*
X104256401Y-77857372D01*
X104256403Y-77857379D01*
X104306645Y-77992086D01*
X104306649Y-77992093D01*
X104392809Y-78107187D01*
X104392812Y-78107190D01*
X104507906Y-78193350D01*
X104507913Y-78193354D01*
X104642620Y-78243596D01*
X104642627Y-78243598D01*
X104702155Y-78249999D01*
X104702172Y-78250000D01*
X105000000Y-78250000D01*
X105000000Y-77500000D01*
X105500000Y-77500000D01*
X105500000Y-78250000D01*
X105797828Y-78250000D01*
X105797844Y-78249999D01*
X105857372Y-78243598D01*
X105857379Y-78243596D01*
X105992086Y-78193354D01*
X105992093Y-78193350D01*
X106107187Y-78107190D01*
X106107190Y-78107187D01*
X106193350Y-77992093D01*
X106193354Y-77992086D01*
X106243596Y-77857379D01*
X106243598Y-77857372D01*
X106249999Y-77797844D01*
X106250000Y-77797827D01*
X106250000Y-77500000D01*
X107075000Y-77500000D01*
X107075000Y-77755815D01*
X107085407Y-77857673D01*
X107140094Y-78022709D01*
X107140096Y-78022714D01*
X107231370Y-78170691D01*
X107354308Y-78293629D01*
X107502285Y-78384903D01*
X107502290Y-78384905D01*
X107667326Y-78439592D01*
X107769184Y-78449999D01*
X107769197Y-78450000D01*
X107812500Y-78450000D01*
X108312500Y-78450000D01*
X108355803Y-78450000D01*
X108355815Y-78449999D01*
X108457673Y-78439592D01*
X108622709Y-78384905D01*
X108622714Y-78384903D01*
X108770691Y-78293629D01*
X108893630Y-78170690D01*
X108898112Y-78165023D01*
X108899310Y-78165970D01*
X108945032Y-78124838D01*
X109013993Y-78113609D01*
X109078078Y-78141446D01*
X109104140Y-78171504D01*
X109343506Y-78559142D01*
X109362000Y-78624292D01*
X109362000Y-79263265D01*
X109401219Y-79409636D01*
X109431297Y-79461731D01*
X109476985Y-79540865D01*
X109476987Y-79540867D01*
X109821285Y-79885165D01*
X109848264Y-79925633D01*
X110000957Y-80296459D01*
X110000968Y-80296482D01*
X110015834Y-80327744D01*
X110020890Y-80340034D01*
X110024207Y-80349514D01*
X110024210Y-80349519D01*
X110024211Y-80349522D01*
X110120184Y-80502262D01*
X110247738Y-80629816D01*
X110400478Y-80725789D01*
X110570745Y-80785368D01*
X110570750Y-80785369D01*
X110749996Y-80805565D01*
X110750000Y-80805565D01*
X110750004Y-80805565D01*
X110929249Y-80785369D01*
X110929252Y-80785368D01*
X110929255Y-80785368D01*
X111099522Y-80725789D01*
X111252262Y-80629816D01*
X111379816Y-80502262D01*
X111475789Y-80349522D01*
X111535368Y-80179255D01*
X111555565Y-80000000D01*
X111554500Y-79990549D01*
X111535369Y-79820750D01*
X111535368Y-79820745D01*
X111475788Y-79650476D01*
X111406916Y-79540867D01*
X111379816Y-79497738D01*
X111252262Y-79370184D01*
X111099522Y-79274211D01*
X111099519Y-79274210D01*
X111099516Y-79274208D01*
X111077492Y-79266502D01*
X111055406Y-79256239D01*
X111046467Y-79250961D01*
X111046459Y-79250957D01*
X111046456Y-79250956D01*
X110675633Y-79098264D01*
X110635165Y-79071285D01*
X110549319Y-78985439D01*
X110515834Y-78924116D01*
X110513000Y-78897758D01*
X110513000Y-78624292D01*
X110531494Y-78559142D01*
X110598889Y-78449999D01*
X110832076Y-78072367D01*
X110835733Y-78064492D01*
X110842658Y-78051625D01*
X110860362Y-78022925D01*
X110860363Y-78022920D01*
X110863543Y-78017766D01*
X110915492Y-77971042D01*
X110984454Y-77959821D01*
X111048536Y-77987665D01*
X111068347Y-78008553D01*
X111142452Y-78107544D01*
X111142455Y-78107547D01*
X111257664Y-78193793D01*
X111257671Y-78193797D01*
X111302618Y-78210561D01*
X111392517Y-78244091D01*
X111452127Y-78250500D01*
X111658285Y-78250499D01*
X111704686Y-78259508D01*
X112504314Y-78582165D01*
X112545595Y-78609475D01*
X112664808Y-78728688D01*
X112698293Y-78790011D01*
X112700347Y-78802485D01*
X112714630Y-78929249D01*
X112774210Y-79099521D01*
X112781884Y-79111734D01*
X112870184Y-79252262D01*
X112997738Y-79379816D01*
X113150478Y-79475789D01*
X113213202Y-79497737D01*
X113320745Y-79535368D01*
X113320750Y-79535369D01*
X113499996Y-79555565D01*
X113500000Y-79555565D01*
X113500004Y-79555565D01*
X113679249Y-79535369D01*
X113679252Y-79535368D01*
X113679255Y-79535368D01*
X113849522Y-79475789D01*
X114002262Y-79379816D01*
X114129816Y-79252262D01*
X114225789Y-79099522D01*
X114285368Y-78929255D01*
X114288917Y-78897758D01*
X114305565Y-78750003D01*
X114305565Y-78749996D01*
X114285369Y-78570750D01*
X114285368Y-78570745D01*
X114243117Y-78449999D01*
X114225789Y-78400478D01*
X114129816Y-78247738D01*
X114002262Y-78120184D01*
X113926159Y-78072365D01*
X113849521Y-78024210D01*
X113679249Y-77964630D01*
X113552485Y-77950347D01*
X113488071Y-77923280D01*
X113478688Y-77914808D01*
X113359475Y-77795595D01*
X113332165Y-77754314D01*
X113009508Y-76954685D01*
X113000499Y-76908285D01*
X113000499Y-76702129D01*
X113000498Y-76702123D01*
X112994091Y-76642516D01*
X112943797Y-76507671D01*
X112943793Y-76507664D01*
X112857547Y-76392455D01*
X112857544Y-76392452D01*
X112742335Y-76306206D01*
X112742328Y-76306202D01*
X112607482Y-76255908D01*
X112607483Y-76255908D01*
X112547883Y-76249501D01*
X112547881Y-76249500D01*
X112547873Y-76249500D01*
X112547864Y-76249500D01*
X111452129Y-76249500D01*
X111452123Y-76249501D01*
X111392516Y-76255908D01*
X111257671Y-76306202D01*
X111257664Y-76306206D01*
X111142455Y-76392452D01*
X111068347Y-76491447D01*
X111012413Y-76533317D01*
X110942721Y-76538301D01*
X110881399Y-76504815D01*
X110863542Y-76482232D01*
X110860363Y-76477078D01*
X110860362Y-76477075D01*
X110769026Y-76328997D01*
X110646003Y-76205974D01*
X110645999Y-76205971D01*
X110497933Y-76114642D01*
X110497927Y-76114639D01*
X110497925Y-76114638D01*
X110497922Y-76114637D01*
X110332776Y-76059913D01*
X110230855Y-76049500D01*
X110230848Y-76049500D01*
X109644152Y-76049500D01*
X109644144Y-76049500D01*
X109542223Y-76059913D01*
X109377077Y-76114637D01*
X109377066Y-76114642D01*
X109229000Y-76205971D01*
X109228996Y-76205974D01*
X109105974Y-76328996D01*
X109105967Y-76329005D01*
X109105234Y-76330194D01*
X109104519Y-76330836D01*
X109101493Y-76334664D01*
X109100838Y-76334146D01*
X109053280Y-76376911D01*
X108984316Y-76388123D01*
X108920238Y-76360271D01*
X108898238Y-76334877D01*
X108898112Y-76334977D01*
X108895885Y-76332161D01*
X108894163Y-76330173D01*
X108893630Y-76329309D01*
X108770691Y-76206370D01*
X108622714Y-76115096D01*
X108622709Y-76115094D01*
X108457673Y-76060407D01*
X108355815Y-76050000D01*
X108312500Y-76050000D01*
X108312500Y-78450000D01*
X107812500Y-78450000D01*
X107812500Y-77500000D01*
X107075000Y-77500000D01*
X106250000Y-77500000D01*
X105500000Y-77500000D01*
X105000000Y-77500000D01*
X104250000Y-77500000D01*
X100910925Y-77500000D01*
X100976840Y-77461944D01*
X101159305Y-77321934D01*
X101321934Y-77159305D01*
X101444173Y-77000000D01*
X104250000Y-77000000D01*
X105000000Y-77000000D01*
X105000000Y-76250000D01*
X105500000Y-76250000D01*
X105500000Y-77000000D01*
X106250000Y-77000000D01*
X107075000Y-77000000D01*
X107812500Y-77000000D01*
X107812500Y-76050000D01*
X107769184Y-76050000D01*
X107667326Y-76060407D01*
X107502290Y-76115094D01*
X107502285Y-76115096D01*
X107354308Y-76206370D01*
X107231370Y-76329308D01*
X107140096Y-76477285D01*
X107140094Y-76477290D01*
X107085407Y-76642326D01*
X107075000Y-76744184D01*
X107075000Y-77000000D01*
X106250000Y-77000000D01*
X106250000Y-76702172D01*
X106249999Y-76702155D01*
X106243598Y-76642627D01*
X106243596Y-76642620D01*
X106193354Y-76507913D01*
X106193350Y-76507906D01*
X106107190Y-76392812D01*
X106107187Y-76392809D01*
X105992093Y-76306649D01*
X105992086Y-76306645D01*
X105857379Y-76256403D01*
X105857372Y-76256401D01*
X105797844Y-76250000D01*
X105500000Y-76250000D01*
X105000000Y-76250000D01*
X104702155Y-76250000D01*
X104642627Y-76256401D01*
X104642620Y-76256403D01*
X104507913Y-76306645D01*
X104507906Y-76306649D01*
X104392812Y-76392809D01*
X104392809Y-76392812D01*
X104306649Y-76507906D01*
X104306645Y-76507913D01*
X104256403Y-76642620D01*
X104256401Y-76642627D01*
X104250000Y-76702155D01*
X104250000Y-77000000D01*
X101444173Y-77000000D01*
X101461944Y-76976840D01*
X101576940Y-76777661D01*
X101664954Y-76565176D01*
X101724480Y-76343020D01*
X101754500Y-76114996D01*
X101754500Y-75885004D01*
X101724480Y-75656980D01*
X101664954Y-75434824D01*
X101576940Y-75222339D01*
X101461944Y-75023160D01*
X101321934Y-74840695D01*
X101321929Y-74840689D01*
X101159310Y-74678070D01*
X101159303Y-74678064D01*
X100976839Y-74538055D01*
X100777664Y-74423061D01*
X100777654Y-74423057D01*
X100565185Y-74335049D01*
X100565178Y-74335047D01*
X100565176Y-74335046D01*
X100343020Y-74275520D01*
X100343014Y-74275519D01*
X100343009Y-74275518D01*
X100115005Y-74245501D01*
X100115002Y-74245500D01*
X100114996Y-74245500D01*
X99885004Y-74245500D01*
X99884998Y-74245500D01*
X99884994Y-74245501D01*
X99656990Y-74275518D01*
X99656983Y-74275519D01*
X99656980Y-74275520D01*
X99434824Y-74335046D01*
X99434814Y-74335049D01*
X99222345Y-74423057D01*
X99222335Y-74423061D01*
X99023160Y-74538055D01*
X98840696Y-74678064D01*
X98840689Y-74678070D01*
X98678070Y-74840689D01*
X98678064Y-74840696D01*
X98538055Y-75023160D01*
X98423061Y-75222335D01*
X98423057Y-75222345D01*
X98335049Y-75434814D01*
X98335046Y-75434824D01*
X98275521Y-75656977D01*
X98275518Y-75656990D01*
X98245501Y-75884994D01*
X98245500Y-75885010D01*
X98245500Y-76114989D01*
X97050500Y-76114989D01*
X97050500Y-76003480D01*
X97050695Y-75996527D01*
X97056958Y-75885004D01*
X97068656Y-75676700D01*
X97070210Y-75662907D01*
X97123283Y-75350537D01*
X97126377Y-75336985D01*
X97159405Y-75222345D01*
X97214090Y-75032526D01*
X97218682Y-75019406D01*
X97292706Y-74840695D01*
X97339929Y-74726686D01*
X97345951Y-74714180D01*
X97499227Y-74436850D01*
X97506605Y-74425107D01*
X97689972Y-74166676D01*
X97698619Y-74155834D01*
X97909750Y-73919579D01*
X97919581Y-73909749D01*
X97950163Y-73882419D01*
X98155834Y-73698619D01*
X98166676Y-73689972D01*
X98425107Y-73506605D01*
X98436850Y-73499227D01*
X98714180Y-73345951D01*
X98726686Y-73339929D01*
X99019406Y-73218682D01*
X99032526Y-73214090D01*
X99336990Y-73126375D01*
X99350537Y-73123283D01*
X99662907Y-73070210D01*
X99676700Y-73068656D01*
X99996528Y-73050695D01*
X100003481Y-73050500D01*
X115876000Y-73050500D01*
X115943039Y-73070185D01*
G37*
%TD.AperFunction*%
%TD*%
%TA.AperFunction,Conductor*%
%TO.N,+12V_PROT*%
G36*
X112498056Y-77047401D02*
G01*
X112504377Y-77053744D01*
X112504410Y-77053825D01*
X112903689Y-78043342D01*
X112903607Y-78052296D01*
X112901112Y-78055993D01*
X112805993Y-78151112D01*
X112797720Y-78154539D01*
X112793342Y-78153689D01*
X111803825Y-77754410D01*
X111797435Y-77748136D01*
X111797353Y-77739182D01*
X111997437Y-77253794D01*
X112003757Y-77247452D01*
X112489102Y-77047386D01*
X112498056Y-77047401D01*
G37*
%TD.AperFunction*%
%TD*%
%TA.AperFunction,Conductor*%
%TO.N,Net-(D2-A)*%
G36*
X110385977Y-79525671D02*
G01*
X110853998Y-79718386D01*
X110860342Y-79724704D01*
X110860365Y-79733648D01*
X110752563Y-79996184D01*
X110746251Y-80002536D01*
X110746184Y-80002563D01*
X110483648Y-80110365D01*
X110474693Y-80110338D01*
X110468386Y-80103998D01*
X110275672Y-79635979D01*
X110275691Y-79627026D01*
X110278215Y-79623256D01*
X110373254Y-79528217D01*
X110381526Y-79524791D01*
X110385977Y-79525671D01*
G37*
%TD.AperFunction*%
%TD*%
%TA.AperFunction,Conductor*%
%TO.N,Net-(D2-A)*%
G36*
X109945087Y-77258136D02*
G01*
X109946407Y-77259456D01*
X110400921Y-77793043D01*
X110403677Y-77801563D01*
X110401969Y-77806777D01*
X110015929Y-78431947D01*
X110008667Y-78437186D01*
X110005974Y-78437500D01*
X109869026Y-78437500D01*
X109860753Y-78434073D01*
X109859071Y-78431947D01*
X109473030Y-77806777D01*
X109471599Y-77797937D01*
X109474076Y-77793045D01*
X109928593Y-77259455D01*
X109936567Y-77255380D01*
X109945087Y-77258136D01*
G37*
%TD.AperFunction*%
%TD*%
%TA.AperFunction,Conductor*%
%TO.N,Net-(D3-A)*%
G36*
X119943484Y-77260018D02*
G01*
X119945902Y-77262859D01*
X120324537Y-77887412D01*
X120325896Y-77896264D01*
X120323103Y-77901442D01*
X119828471Y-78433764D01*
X119820329Y-78437492D01*
X119819900Y-78437500D01*
X119683512Y-78437500D01*
X119675239Y-78434073D01*
X119672380Y-78429402D01*
X119470565Y-77805744D01*
X119471279Y-77796818D01*
X119472786Y-77794559D01*
X119926990Y-77261337D01*
X119934964Y-77257262D01*
X119943484Y-77260018D01*
G37*
%TD.AperFunction*%
%TD*%
%TA.AperFunction,Conductor*%
%TO.N,Net-(D4-A)*%
G36*
X126677037Y-76769395D02*
G01*
X127158302Y-77171493D01*
X127162453Y-77179427D01*
X127162500Y-77180471D01*
X127162500Y-77319528D01*
X127159073Y-77327801D01*
X127158302Y-77328507D01*
X126677038Y-77730603D01*
X126668492Y-77733277D01*
X126661219Y-77729853D01*
X126194639Y-77258227D01*
X126191258Y-77249937D01*
X126194639Y-77241772D01*
X126661221Y-76770144D01*
X126669473Y-76766675D01*
X126677037Y-76769395D01*
G37*
%TD.AperFunction*%
%TD*%
%TA.AperFunction,Conductor*%
%TO.N,+5V*%
G36*
X121526518Y-77053825D02*
G01*
X121996204Y-77247437D01*
X122002547Y-77253758D01*
X122002562Y-77253795D01*
X122202613Y-77739101D01*
X122202598Y-77748056D01*
X122196255Y-77754377D01*
X122196174Y-77754410D01*
X121206657Y-78153689D01*
X121197703Y-78153607D01*
X121194006Y-78151112D01*
X121098887Y-78055993D01*
X121095460Y-78047720D01*
X121096310Y-78043342D01*
X121414900Y-77253795D01*
X121495589Y-77053824D01*
X121501863Y-77047435D01*
X121510817Y-77047353D01*
X121526518Y-77053825D01*
G37*
%TD.AperFunction*%
%TD*%
%TA.AperFunction,Conductor*%
%TO.N,+3.3v*%
G36*
X128513436Y-77134240D02*
G01*
X128995273Y-77247885D01*
X129002538Y-77253120D01*
X129002548Y-77253136D01*
X129302795Y-77740487D01*
X129304217Y-77749328D01*
X129299423Y-77756292D01*
X128856049Y-78058459D01*
X128580029Y-78246573D01*
X128577982Y-78247968D01*
X128571393Y-78250000D01*
X128437511Y-78250000D01*
X128429238Y-78246573D01*
X128425811Y-78238300D01*
X128425837Y-78237518D01*
X128492170Y-77247885D01*
X128499076Y-77144844D01*
X128503049Y-77136820D01*
X128511532Y-77133954D01*
X128513436Y-77134240D01*
G37*
%TD.AperFunction*%
%TD*%
%TA.AperFunction,Conductor*%
%TO.N,+3.3v*%
G36*
X128513436Y-77134240D02*
G01*
X128995273Y-77247885D01*
X129002538Y-77253120D01*
X129002548Y-77253136D01*
X129302795Y-77740487D01*
X129304217Y-77749328D01*
X129299423Y-77756292D01*
X128856049Y-78058459D01*
X128580029Y-78246573D01*
X128577982Y-78247968D01*
X128571393Y-78250000D01*
X128437511Y-78250000D01*
X128429238Y-78246573D01*
X128425811Y-78238300D01*
X128425837Y-78237518D01*
X128492170Y-77247885D01*
X128499076Y-77144844D01*
X128503049Y-77136820D01*
X128511532Y-77133954D01*
X128513436Y-77134240D01*
G37*
%TD.AperFunction*%
%TD*%
M02*
